<?xml version="1.0" encoding="UTF-8" standalone="no"?>

<svg
	xmlns="http://www.w3.org/2000/svg" version="1.1"
	xmlns:freecad="http://www.freecadweb.org/wiki/index.php?title=Svg_Namespace"
	width="1189mm"
	height="841mm"
	viewBox="0 0 1189 841">
	<!-- Working space 20 10 1179 831 -->
	<!-- Title block 999 771 1179 831 -->
	<g>
		<rect
			id="drawing-border"
			style="fill:none;stroke:#000000;stroke-width:0.7;stroke-linecap:miter;stroke-miterlimit:4"
			width="1159"
			height="821"
			x="20"
			y="10" />
			<!-- width-30, height-20 -->
		<g
			transform="translate(979,544)">
			<!-- A4 Portrait based for other formats width-210, height-297 -->
			<!--        page       rect   translation
			               w    h    rw   rh   tx   ty
			        A4-P  210  297  180  277    0    0
			        A3-L  420  297  390  277  210    0
			        A2-L  594  420  564  400  384  123
			        A1-L  841  594  811  574  631  297
			        A0-L 1189  841 1159  821  979  544
			-->
			<g
				id="titleblock-structure"
				style="fill:none;stroke:#000000;stroke-width:0.35;stroke-linecap:miter;stroke-miterlimit:4">
				<rect width="180" height="60" x="20" y="227" />
				<path d="m 20,239 h 180" />
				<path d="m 80,227 v 12" />
				<path d="m 140,239 v 48" />
				<path d="m 160,239 v 12" />
				<path d="m 180,239 v 12" />
				<path d="m 140,251 h 60" />
				<path d="m 140,275 h 60" />
				<path d="m 180,275 v 12" />
			</g>
			<g
				id="titleblock-text-non-editable"
				style="font-size:3px;text-anchor:start;fill:#000000;font-family:osifont"
				xml:space="preserve">
				<text x="21" y="230">Created by:</text>
				<text x="81" y="230">Title:</text>
				<text x="21" y="242">Supplementary information:</text>
				<text x="141" y="242">Size:</text>
				<text x="161" y="242">Sheet:</text>
				<text x="181" y="242">Scale:</text>
				<text x="141" y="254">Part number:</text>
				<text x="141" y="266">Drawing number:</text>
				<text x="141" y="278">Date:</text>
				<text x="181" y="278">Revision:</text>
			</g>
			<g
				id="titleblock-text-editable"
				style="font-size:5px;text-anchor:middle;fill:#000000;font-family:osifont"
				xml:space="preserve">
				<text freecad:editable="AUTHOR NAME" x="50" y="236"><tspan>AUTHOR NAME</tspan></text>
				<text freecad:editable="DRAWING TITLE" x="140" y="236"><tspan>DRAWING TITLE</tspan></text>
				<text freecad:editable="SI-1" x="80" y="248"><tspan></tspan></text>
				<text freecad:editable="SI-2" x="80" y="255"><tspan></tspan></text>
				<text freecad:editable="FreeCAD DRAWING" x="80" y="262"><tspan>FreeCAD DRAWING</tspan></text>
				<text freecad:editable="SI-4" x="80" y="269"><tspan></tspan></text>
				<text freecad:editable="SI-5" x="80" y="276"><tspan></tspan></text>
				<text freecad:editable="SI-6" x="80" y="283"><tspan></tspan></text>
				<text freecad:editable="FC-SI" x="150" y="248"><tspan>A0</tspan></text>
				<text freecad:editable="FC-SH" x="170" y="248"><tspan>X / Y</tspan></text>
				<text freecad:editable="FC-SC" x="190" y="248"><tspan>SCALE</tspan></text>
				<text freecad:editable="PN" x="170" y="260"><tspan>PN</tspan></text>
				<text freecad:editable="DN" x="170" y="272"><tspan>DN</tspan></text>
				<text freecad:editable="FC-DATE" x="160" y="284"><tspan>DD/MM/YYYY</tspan></text>
				<text freecad:editable="FC-REV" x="190" y="284"><tspan>REV A</tspan></text>
			</g>
			<!-- Set display:none to hide FreeCAD Logo -->
			<g
				style="display:inline"
				id="freecad-logo"
				transform="translate(128.5,276)"
				fill-rule="evenodd"
				stroke="#000"
				stroke-width="0.35"
				fill="none">
					<path d="m0.1524 0.15254v8.8549h1.9744v-3.4652h1.396v-1.3661h-1.396v-1.4745h3.4391v-2.5441l-5.4135-0.005z"/>
					<path d="m7.7927 3.4504-0.50715-0.176-0.48387-1.2366-0.76115 0.04-0.34718 1.2787-0.4859 0.23269-1.2119-0.53015-0.51188 0.56882 0.65892 1.1485-0.18006 0.50567-1.2366 0.48387 0.044064 0.76263 1.2787 0.34718 0.23269 0.4859-0.53421 1.2104 0.56882 0.51188 1.1485-0.65891 0.50973 0.18155 0.4798 1.2351 0.7667-0.04258 0.34311-1.2802 0.4859-0.23269 1.2145 0.5357 0.51188-0.56882-0.65891-1.1485 0.17748-0.51122 1.2351-0.4798-0.03851-0.76521-1.2802-0.34311-0.23269-0.4859 0.53163-1.216-0.56881-0.51184zm-0.5715 1.2244 0.23576 0.13679 0.20426 0.18519 0.16353 0.22101 0.11763 0.24572 0.06916 0.26489 0.01146 0.27146-0.03921 0.27139-0.08948 0.25764-0.14234 0.23834-0.17964 0.20167-0.22101 0.16353-0.24572 0.11763-0.26489 0.06916-0.27295 0.01553-0.2719-0.04-0.2576-0.089-0.2383-0.143-0.2002-0.183-0.165-0.217-0.1177-0.246-0.0676-0.269-0.0156-0.273 0.039206-0.2714 0.089484-0.25764 0.14085-0.23427 0.18113-0.20574 0.22101-0.16352 0.24572-0.11763 0.26895-0.06768 0.27147-0.01146 0.27139 0.03921 0.25764 0.08948z"/>
			</g>
		</g>
	</g>
<g id="View"
   transform="rotate(0,500,500) translate(500,500) scale(1,1)"
  >
<g   fill="none"
   stroke="rgb(0, 0, 0)"
   stroke-linecap="butt"
   stroke-linejoin="miter"
   stroke-width="0.350000"
   transform="scale(1,-1)"
  >
<path id= "1" d=" M 119 324 L 134 54 " />
<path id= "2" d=" M 119 324 L 95 324 " />
<path id= "3" d=" M 214 44 L 134 54 " />
<path id= "4" d=" M 95 324 L 80 54 " />
<path id= "5" d=" M 214 44 L 214 0 " />
<path id= "6" d=" M 80 54 L 0 44 " />
<path id= "7" d=" M 214 0 L 0 0 " />
<path id= "8" d=" M 0 0 L 0 44 " />
<circle cx ="107" cy ="276.75" r ="1.6" /><path d="M103.9 273.131 A0.306667 0.306667 0 1 0 104.319 273.55" /><path id= "11" d=" M 104.319 273.55 L 109.681 273.55 " />
<path d="M109.681 273.55 A0.306667 0.306667 0 0 0 110.253 273.397" /><path d="M110.253 273.397 A0.306667 0.306667 0 0 0 110.1 273.131" /><path id= "14" d=" M 110.1 269.369 L 110.1 273.131 " />
<path d="M110.1 269.369 A0.306667 0.306667 0 0 0 110.253 269.103" /><path d="M110.253 269.103 A0.306667 0.306667 0 0 0 109.681 268.95" /><path id= "17" d=" M 104.319 268.95 L 109.681 268.95 " />
<path d="M104.319 268.95 A0.306667 0.306667 0 1 0 103.9 269.369" /><path id= "19" d=" M 103.9 269.369 L 103.9 273.131 " />
<circle cx ="17" cy ="34.5" r ="1.5" /><circle cx ="82" cy ="34.5" r ="1.5" /><circle cx ="82" cy ="9.5" r ="1.5" /><circle cx ="17" cy ="9.5" r ="1.5" /><circle cx ="107" cy ="301.25" r ="1.6" /><path d="M103.9 297.631 A0.306667 0.306667 0 1 0 104.319 298.05" /><path id= "26" d=" M 104.319 298.05 L 109.681 298.05 " />
<path d="M109.681 298.05 A0.306667 0.306667 0 0 0 110.253 297.897" /><path d="M110.253 297.897 A0.306667 0.306667 0 0 0 110.1 297.631" /><path id= "29" d=" M 110.1 293.869 L 110.1 297.631 " />
<path d="M110.1 293.869 A0.306667 0.306667 0 0 0 110.253 293.603" /><path d="M110.253 293.603 A0.306667 0.306667 0 0 0 109.681 293.45" /><path id= "32" d=" M 104.319 293.45 L 109.681 293.45 " />
<path d="M104.319 293.45 A0.306667 0.306667 0 1 0 103.9 293.869" /><path id= "34" d=" M 103.9 293.869 L 103.9 297.631 " />
<path d="M103.9 284.131 A0.306667 0.306667 0 1 0 104.319 284.55" /><path id= "36" d=" M 104.319 284.55 L 109.681 284.55 " />
<path d="M109.681 284.55 A0.306667 0.306667 0 0 0 110.253 284.397" /><path d="M110.253 284.397 A0.306667 0.306667 0 0 0 110.1 284.131" /><path id= "39" d=" M 110.1 280.369 L 110.1 284.131 " />
<path d="M110.1 280.369 A0.306667 0.306667 0 0 0 110.253 280.103" /><path d="M110.253 280.103 A0.306667 0.306667 0 0 0 109.681 279.95" /><path id= "42" d=" M 104.319 279.95 L 109.681 279.95 " />
<path d="M104.319 279.95 A0.306667 0.306667 0 1 0 103.9 280.369" /><path id= "44" d=" M 103.9 280.369 L 103.9 284.131 " />
<circle cx ="132" cy ="9.5" r ="1.5" /><circle cx ="132" cy ="34.5" r ="1.5" /><circle cx ="197" cy ="34.5" r ="1.5" /><circle cx ="197" cy ="9.5" r ="1.5" /><path d="M103.9 308.631 A0.306667 0.306667 0 1 0 104.319 309.05" /><path id= "50" d=" M 104.319 309.05 L 109.681 309.05 " />
<path d="M109.681 309.05 A0.306667 0.306667 0 0 0 110.253 308.897" /><path d="M110.253 308.897 A0.306667 0.306667 0 0 0 110.1 308.631" /><path id= "53" d=" M 110.1 304.869 L 110.1 308.631 " />
<path d="M110.1 304.869 A0.306667 0.306667 0 0 0 110.253 304.603" /><path d="M110.253 304.603 A0.306667 0.306667 0 0 0 109.681 304.45" /><path id= "56" d=" M 104.319 304.45 L 109.681 304.45 " />
<path d="M104.319 304.45 A0.306667 0.306667 0 1 0 103.9 304.869" /><path id= "58" d=" M 103.9 304.869 L 103.9 308.631 " />
</g>
</g>



<g id="View001"
   transform="rotate(0,500,500) translate(500,500) scale(1,1)"
  >
<g   fill="none"
   stroke="rgb(0, 0, 0)"
   stroke-linecap="butt"
   stroke-linejoin="miter"
   stroke-width="0.350000"
   transform="scale(1,-1)"
  >
<path d="M51.9811 412.026 A40 40 0 1 0 27.9811 412.026" /><path id= "2" d=" M 51.9811 412.026 L 51.9811 413.869 " />
<path id= "3" d=" M 27.9811 413.869 L 27.9811 412.026 " />
<path id= "4" d=" M 51.9811 413.869 L 27.9811 413.869 " />
<path d="M36.8811 381.5 A0.306667 0.306667 0 1 0 37.3 381.919" /><path id= "6" d=" M 37.3 381.919 L 42.6622 381.919 " />
<path d="M42.6622 381.919 A0.306667 0.306667 0 0 0 43.2344 381.765" /><path d="M43.2344 381.765 A0.306667 0.306667 0 0 0 43.0811 381.5" /><path id= "9" d=" M 43.0811 377.738 L 43.0811 381.5 " />
<path d="M43.0811 377.738 A0.306667 0.306667 0 0 0 43.2344 377.472" /><path d="M43.2344 377.472 A0.306667 0.306667 0 0 0 42.6622 377.319" /><path id= "12" d=" M 37.3 377.319 L 42.6622 377.319 " />
<path d="M37.3 377.319 A0.306667 0.306667 0 1 0 36.8811 377.738" /><path id= "14" d=" M 36.8811 377.738 L 36.8811 381.5 " />
<path d="M36.8811 368 A0.306667 0.306667 0 1 0 37.3 368.419" /><path id= "16" d=" M 37.3 368.419 L 42.6622 368.419 " />
<path d="M42.6622 368.419 A0.306667 0.306667 0 0 0 43.2344 368.265" /><path d="M43.2344 368.265 A0.306667 0.306667 0 0 0 43.0811 368" /><path id= "19" d=" M 43.0811 364.238 L 43.0811 368 " />
<path d="M43.0811 364.238 A0.306667 0.306667 0 0 0 43.2344 363.972" /><path d="M43.2344 363.972 A0.306667 0.306667 0 0 0 42.6622 363.819" /><path id= "22" d=" M 37.3 363.819 L 42.6622 363.819 " />
<path d="M37.3 363.819 A0.306667 0.306667 0 1 0 36.8811 364.238" /><path id= "24" d=" M 36.8811 364.238 L 36.8811 368 " />
<path d="M36.8811 357 A0.306667 0.306667 0 1 0 37.3 357.419" /><path id= "26" d=" M 37.3 357.419 L 42.6622 357.419 " />
<path d="M42.6622 357.419 A0.306667 0.306667 0 0 0 43.2344 357.265" /><path d="M43.2344 357.265 A0.306667 0.306667 0 0 0 43.0811 357" /><path id= "29" d=" M 43.0811 353.238 L 43.0811 357 " />
<path d="M43.0811 353.238 A0.306667 0.306667 0 0 0 43.2344 352.972" /><path d="M43.2344 352.972 A0.306667 0.306667 0 0 0 42.6622 352.819" /><path id= "32" d=" M 37.3 352.819 L 42.6622 352.819 " />
<path d="M37.3 352.819 A0.306667 0.306667 0 1 0 36.8811 353.238" /><path id= "34" d=" M 36.8811 353.238 L 36.8811 357 " />
<circle cx ="39.9811" cy ="360.619" r ="1.6" /><path d="M36.8811 392.5 A0.306667 0.306667 0 1 0 37.3 392.919" /><path id= "37" d=" M 37.3 392.919 L 42.6622 392.919 " />
<path d="M42.6622 392.919 A0.306667 0.306667 0 0 0 43.2344 392.765" /><path d="M43.2344 392.765 A0.306667 0.306667 0 0 0 43.0811 392.5" /><path id= "40" d=" M 43.0811 388.738 L 43.0811 392.5 " />
<path d="M43.0811 388.738 A0.306667 0.306667 0 0 0 43.2344 388.472" /><path d="M43.2344 388.472 A0.306667 0.306667 0 0 0 42.6622 388.319" /><path id= "43" d=" M 37.3 388.319 L 42.6622 388.319 " />
<path d="M37.3 388.319 A0.306667 0.306667 0 1 0 36.8811 388.738" /><path id= "45" d=" M 36.8811 388.738 L 36.8811 392.5 " />
<circle cx ="39.9811" cy ="385.119" r ="1.6" /></g>
</g>



<g id="View002"
   transform="rotate(0,300,600) translate(300,600) scale(1,1)"
  >
<g   fill="none"
   stroke="rgb(0, 0, 0)"
   stroke-linecap="butt"
   stroke-linejoin="miter"
   stroke-width="0.350000"
   transform="scale(1,-1)"
  >
<path id= "1" d=" M 59.9 472.719 L 59.9 473.527 " />
<path id= "2" d=" M 59.9 472.719 L 70 472.719 " />
<path id= "3" d=" M 70 473.919 L 70 472.719 " />
<path id= "4" d=" M 70 473.919 L 76 473.919 " />
<path id= "5" d=" M 76 473.919 L 76 479.319 " />
<path id= "6" d=" M 50.05 493.869 L 48.85 493.869 " />
<path id= "7" d=" M 48.85 483.769 L 48.85 493.869 " />
<path id= "8" d=" M 48.85 483.769 L 49.6588 483.769 " />
<path id= "9" d=" M 50.05 493.869 L 50.05 499.869 " />
<path id= "10" d=" M 50.05 499.869 L 55.45 499.869 " />
<path id= "11" d=" M 70 493.869 L 55.45 493.869 " />
<path id= "12" d=" M 70 493.869 L 70 479.319 " />
<path id= "13" d=" M 55.45 493.869 L 55.45 499.869 " />
<path id= "14" d=" M 70 479.319 L 76 479.319 " />
<path d="M49.6588 483.769 A0.14 0.14 0 0 0 49.78 483.839" /><path d="M49.78 483.839 A0.14 0.14 0 0 0 49.85 483.577" /><path id= "17" d=" M 49.85 481.86 L 49.85 483.577 " />
<path d="M49.85 481.86 A0.14 0.14 0 1 0 49.6588 481.669" /><path id= "19" d=" M 48.85 481.669 L 49.6588 481.669 " />
<path id= "20" d=" M 48.85 479.06 L 48.85 481.669 " />
<path d="M48.85 479.06 A0.213333 0.213333 0 1 0 48.5586 478.769" /><path id= "22" d=" M 45.9414 478.769 L 48.5586 478.769 " />
<path d="M45.9414 478.769 A0.213333 0.213333 0 1 0 45.65 479.06" /><path id= "24" d=" M 45.65 479.06 L 45.65 481.669 " />
<path id= "25" d=" M 44.8412 481.669 L 45.65 481.669 " />
<path d="M44.8412 481.669 A0.14 0.14 0 1 0 44.65 481.86" /><path id= "27" d=" M 44.65 481.86 L 44.65 483.577 " />
<path d="M44.65 483.577 A0.14 0.14 0 0 0 44.72 483.839" /><path d="M44.72 483.839 A0.14 0.14 0 0 0 44.8412 483.769" /><path id= "30" d=" M 44.8412 483.769 L 45.65 483.769 " />
<path id= "31" d=" M 45.65 483.769 L 45.65 493.869 " />
<path id= "32" d=" M 45.65 493.869 L 44.45 493.869 " />
<path id= "33" d=" M 44.45 493.869 L 44.45 499.869 " />
<path id= "34" d=" M 39.05 499.869 L 44.45 499.869 " />
<path id= "35" d=" M 39.05 493.869 L 39.05 499.869 " />
<path id= "36" d=" M 39.05 493.869 L 30.95 493.869 " />
<path id= "37" d=" M 30.95 493.869 L 30.95 499.869 " />
<path id= "38" d=" M 25.55 499.869 L 30.95 499.869 " />
<path id= "39" d=" M 25.55 493.869 L 25.55 499.869 " />
<path id= "40" d=" M 25.55 493.869 L 24.35 493.869 " />
<path id= "41" d=" M 24.35 483.769 L 24.35 493.869 " />
<path id= "42" d=" M 24.35 483.769 L 25.1588 483.769 " />
<path d="M25.1588 483.769 A0.14 0.14 0 0 0 25.28 483.839" /><path d="M25.28 483.839 A0.14 0.14 0 0 0 25.35 483.577" /><path id= "45" d=" M 25.35 481.86 L 25.35 483.577 " />
<path d="M25.35 481.86 A0.14 0.14 0 1 0 25.1588 481.669" /><path id= "47" d=" M 24.35 481.669 L 25.1588 481.669 " />
<path id= "48" d=" M 24.35 479.06 L 24.35 481.669 " />
<path d="M24.35 479.06 A0.213333 0.213333 0 1 0 24.0586 478.769" /><path id= "50" d=" M 21.4414 478.769 L 24.0586 478.769 " />
<path d="M21.4414 478.769 A0.213333 0.213333 0 1 0 21.15 479.06" /><path id= "52" d=" M 21.15 479.06 L 21.15 481.669 " />
<path id= "53" d=" M 20.3412 481.669 L 21.15 481.669 " />
<path d="M20.3412 481.669 A0.14 0.14 0 1 0 20.15 481.86" /><path id= "55" d=" M 20.15 481.86 L 20.15 483.577 " />
<path d="M20.15 483.577 A0.14 0.14 0 0 0 20.22 483.839" /><path d="M20.22 483.839 A0.14 0.14 0 0 0 20.3412 483.769" /><path id= "58" d=" M 20.3412 483.769 L 21.15 483.769 " />
<path id= "59" d=" M 21.15 483.769 L 21.15 493.869 " />
<path id= "60" d=" M 21.15 493.869 L 19.95 493.869 " />
<path id= "61" d=" M 19.95 493.869 L 19.95 499.869 " />
<path id= "62" d=" M 14.55 499.869 L 19.95 499.869 " />
<path id= "63" d=" M 14.55 493.869 L 14.55 499.869 " />
<path id= "64" d=" M 14.55 493.869 L 2.84217e-014 493.869 " />
<path id= "65" d=" M 2.84217e-014 493.869 L 70 423.869 " />
<path id= "66" d=" M 70 438.419 L 70 423.869 " />
<path id= "67" d=" M 70 438.419 L 76 438.419 " />
<path id= "68" d=" M 76 438.419 L 76 443.819 " />
<path id= "69" d=" M 70 443.819 L 76 443.819 " />
<path id= "70" d=" M 70 445.019 L 70 443.819 " />
<path id= "71" d=" M 59.9 445.019 L 70 445.019 " />
<path id= "72" d=" M 59.9 444.21 L 59.9 445.019 " />
<path d="M59.97 444.089 A0.14 0.14 0 0 1 59.9 444.21" /><path d="M59.7088 444.019 A0.14 0.14 0 0 1 59.97 444.089" /><path id= "75" d=" M 57.9912 444.019 L 59.7088 444.019 " />
<path d="M57.8 444.21 A0.14 0.14 0 1 1 57.9912 444.019" /><path id= "77" d=" M 57.8 444.21 L 57.8 445.019 " />
<path id= "78" d=" M 55.1914 445.019 L 57.8 445.019 " />
<path d="M54.9 445.31 A0.213333 0.213333 0 1 1 55.1914 445.019" /><path id= "80" d=" M 54.9 445.31 L 54.9 447.927 " />
<path d="M55.1914 448.219 A0.213333 0.213333 0 1 1 54.9 447.927" /><path id= "82" d=" M 55.1914 448.219 L 57.8 448.219 " />
<path id= "83" d=" M 57.8 448.219 L 57.8 449.027 " />
<path d="M57.9912 449.219 A0.14 0.14 0 1 1 57.8 449.027" /><path id= "85" d=" M 57.9912 449.219 L 59.7088 449.219 " />
<path d="M59.97 449.149 A0.14 0.14 0 0 1 59.7088 449.219" /><path d="M59.9 449.027 A0.14 0.14 0 0 1 59.97 449.149" /><path id= "88" d=" M 59.9 448.219 L 59.9 449.027 " />
<path id= "89" d=" M 59.9 448.219 L 70 448.219 " />
<path id= "90" d=" M 70 449.419 L 70 448.219 " />
<path id= "91" d=" M 70 449.419 L 76 449.419 " />
<path id= "92" d=" M 76 449.419 L 76 454.819 " />
<path id= "93" d=" M 70 454.819 L 76 454.819 " />
<path id= "94" d=" M 70 462.919 L 70 454.819 " />
<path id= "95" d=" M 70 462.919 L 76 462.919 " />
<path id= "96" d=" M 76 462.919 L 76 468.319 " />
<path id= "97" d=" M 70 468.319 L 76 468.319 " />
<path id= "98" d=" M 70 469.519 L 70 468.319 " />
<path id= "99" d=" M 59.9 469.519 L 70 469.519 " />
<path id= "100" d=" M 59.9 468.71 L 59.9 469.519 " />
<path d="M59.97 468.589 A0.14 0.14 0 0 1 59.9 468.71" /><path d="M59.7088 468.519 A0.14 0.14 0 0 1 59.97 468.589" /><path id= "103" d=" M 57.9912 468.519 L 59.7088 468.519 " />
<path d="M57.8 468.71 A0.14 0.14 0 1 1 57.9912 468.519" /><path id= "105" d=" M 57.8 468.71 L 57.8 469.519 " />
<path id= "106" d=" M 55.1914 469.519 L 57.8 469.519 " />
<path d="M54.9 469.81 A0.213333 0.213333 0 1 1 55.1914 469.519" /><path id= "108" d=" M 54.9 469.81 L 54.9 472.427 " />
<path d="M55.1914 472.719 A0.213333 0.213333 0 1 1 54.9 472.427" /><path id= "110" d=" M 55.1914 472.719 L 57.8 472.719 " />
<path id= "111" d=" M 57.8 472.719 L 57.8 473.527 " />
<path d="M57.9912 473.719 A0.14 0.14 0 1 1 57.8 473.527" /><path id= "113" d=" M 57.9912 473.719 L 59.7088 473.719 " />
<path d="M59.97 473.649 A0.14 0.14 0 0 1 59.7088 473.719" /><path d="M59.9 473.527 A0.14 0.14 0 0 1 59.97 473.649" /></g>
</g>



</svg>

