G04 #@! TF.GenerationSoftware,KiCad,Pcbnew,(5.0.0)*
G04 #@! TF.CreationDate,2019-03-29T10:48:20+00:00*
G04 #@! TF.ProjectId,Actuators,4163747561746F72732E6B696361645F,rev?*
G04 #@! TF.SameCoordinates,Original*
G04 #@! TF.FileFunction,Copper,L2,Bot,Signal*
G04 #@! TF.FilePolarity,Positive*
%FSLAX46Y46*%
G04 Gerber Fmt 4.6, Leading zero omitted, Abs format (unit mm)*
G04 Created by KiCad (PCBNEW (5.0.0)) date 03/29/19 10:48:20*
%MOMM*%
%LPD*%
G01*
G04 APERTURE LIST*
G04 #@! TA.AperFunction,ComponentPad*
%ADD10O,1.727200X2.032000*%
G04 #@! TD*
G04 #@! TA.AperFunction,ComponentPad*
%ADD11C,4.064000*%
G04 #@! TD*
G04 #@! TA.AperFunction,ComponentPad*
%ADD12R,1.600000X1.600000*%
G04 #@! TD*
G04 #@! TA.AperFunction,ComponentPad*
%ADD13O,1.600000X1.600000*%
G04 #@! TD*
G04 #@! TA.AperFunction,ComponentPad*
%ADD14C,1.400000*%
G04 #@! TD*
G04 #@! TA.AperFunction,ComponentPad*
%ADD15O,1.400000X1.400000*%
G04 #@! TD*
G04 #@! TA.AperFunction,ComponentPad*
%ADD16O,1.700000X1.700000*%
G04 #@! TD*
G04 #@! TA.AperFunction,ComponentPad*
%ADD17R,1.700000X1.700000*%
G04 #@! TD*
G04 #@! TA.AperFunction,ComponentPad*
%ADD18R,3.600000X2.000000*%
G04 #@! TD*
G04 #@! TA.AperFunction,ComponentPad*
%ADD19O,3.600000X2.000000*%
G04 #@! TD*
G04 #@! TA.AperFunction,ComponentPad*
%ADD20C,1.600000*%
G04 #@! TD*
G04 #@! TA.AperFunction,ComponentPad*
%ADD21R,1.800000X1.800000*%
G04 #@! TD*
G04 #@! TA.AperFunction,ComponentPad*
%ADD22O,1.800000X1.800000*%
G04 #@! TD*
G04 #@! TA.AperFunction,ViaPad*
%ADD23C,0.600000*%
G04 #@! TD*
G04 #@! TA.AperFunction,Conductor*
%ADD24C,0.250000*%
G04 #@! TD*
G04 #@! TA.AperFunction,Conductor*
%ADD25C,0.500000*%
G04 #@! TD*
G04 APERTURE END LIST*
D10*
G04 #@! TO.P,P1,1*
G04 #@! TO.N,N/C*
X138938000Y-123825000D03*
G04 #@! TO.P,P1,2*
X141478000Y-123825000D03*
G04 #@! TO.P,P1,3*
X144018000Y-123825000D03*
G04 #@! TO.P,P1,4*
X146558000Y-123825000D03*
G04 #@! TO.P,P1,5*
X149098000Y-123825000D03*
G04 #@! TO.P,P1,6*
G04 #@! TO.N,GND*
X151638000Y-123825000D03*
G04 #@! TO.P,P1,7*
X154178000Y-123825000D03*
G04 #@! TO.P,P1,8*
G04 #@! TO.N,/Vin*
X156718000Y-123825000D03*
G04 #@! TD*
G04 #@! TO.P,P2,1*
G04 #@! TO.N,N/C*
X161798000Y-123825000D03*
G04 #@! TO.P,P2,2*
X164338000Y-123825000D03*
G04 #@! TO.P,P2,3*
G04 #@! TO.N,/A2*
X166878000Y-123825000D03*
G04 #@! TO.P,P2,4*
G04 #@! TO.N,/A3*
X169418000Y-123825000D03*
G04 #@! TO.P,P2,5*
G04 #@! TO.N,/A4(SDA)*
X171958000Y-123825000D03*
G04 #@! TO.P,P2,6*
G04 #@! TO.N,/A5(SCL)*
X174498000Y-123825000D03*
G04 #@! TD*
G04 #@! TO.P,P3,1*
G04 #@! TO.N,/A5(SCL)*
X129794000Y-75565000D03*
G04 #@! TO.P,P3,2*
G04 #@! TO.N,/A4(SDA)*
X132334000Y-75565000D03*
G04 #@! TO.P,P3,3*
G04 #@! TO.N,N/C*
X134874000Y-75565000D03*
G04 #@! TO.P,P3,4*
G04 #@! TO.N,GND*
X137414000Y-75565000D03*
G04 #@! TO.P,P3,5*
G04 #@! TO.N,N/C*
X139954000Y-75565000D03*
G04 #@! TO.P,P3,6*
G04 #@! TO.N,/12(MISO)*
X142494000Y-75565000D03*
G04 #@! TO.P,P3,7*
G04 #@! TO.N,/11(\002A\002A/MOSI)*
X145034000Y-75565000D03*
G04 #@! TO.P,P3,8*
G04 #@! TO.N,/10(\002A\002A/SS)*
X147574000Y-75565000D03*
G04 #@! TO.P,P3,9*
G04 #@! TO.N,N/C*
X150114000Y-75565000D03*
G04 #@! TO.P,P3,10*
X152654000Y-75565000D03*
G04 #@! TD*
G04 #@! TO.P,P4,1*
G04 #@! TO.N,N/C*
X156718000Y-75565000D03*
G04 #@! TO.P,P4,2*
X159258000Y-75565000D03*
G04 #@! TO.P,P4,3*
X161798000Y-75565000D03*
G04 #@! TO.P,P4,4*
X164338000Y-75565000D03*
G04 #@! TO.P,P4,5*
X166878000Y-75565000D03*
G04 #@! TO.P,P4,6*
X169418000Y-75565000D03*
G04 #@! TO.P,P4,7*
G04 #@! TO.N,/1(Tx)*
X171958000Y-75565000D03*
G04 #@! TO.P,P4,8*
G04 #@! TO.N,/0(Rx)*
X174498000Y-75565000D03*
G04 #@! TD*
D11*
G04 #@! TO.P,P5,1*
G04 #@! TO.N,N/C*
X124968000Y-123825000D03*
G04 #@! TD*
G04 #@! TO.P,P6,1*
G04 #@! TO.N,N/C*
X177038000Y-118745000D03*
G04 #@! TD*
G04 #@! TO.P,P7,1*
G04 #@! TO.N,N/C*
X126238000Y-75565000D03*
G04 #@! TD*
G04 #@! TO.P,P8,1*
G04 #@! TO.N,N/C*
X177038000Y-90805000D03*
G04 #@! TD*
D12*
G04 #@! TO.P,A1,1*
G04 #@! TO.N,/0(Rx)*
X126238000Y-117475000D03*
D13*
G04 #@! TO.P,A1,17*
G04 #@! TO.N,N/C*
X159258000Y-102235000D03*
G04 #@! TO.P,A1,2*
G04 #@! TO.N,/1(Tx)*
X128778000Y-117475000D03*
G04 #@! TO.P,A1,18*
G04 #@! TO.N,N/C*
X156718000Y-102235000D03*
G04 #@! TO.P,A1,3*
X131318000Y-117475000D03*
G04 #@! TO.P,A1,19*
X154178000Y-102235000D03*
G04 #@! TO.P,A1,4*
X133858000Y-117475000D03*
G04 #@! TO.P,A1,20*
X151638000Y-102235000D03*
G04 #@! TO.P,A1,5*
X136398000Y-117475000D03*
G04 #@! TO.P,A1,21*
G04 #@! TO.N,/SS2*
X149098000Y-102235000D03*
G04 #@! TO.P,A1,6*
G04 #@! TO.N,N/C*
X138938000Y-117475000D03*
G04 #@! TO.P,A1,22*
G04 #@! TO.N,/SS1*
X146558000Y-102235000D03*
G04 #@! TO.P,A1,7*
G04 #@! TO.N,N/C*
X141478000Y-117475000D03*
G04 #@! TO.P,A1,23*
G04 #@! TO.N,/SCK*
X144018000Y-102235000D03*
G04 #@! TO.P,A1,8*
G04 #@! TO.N,N/C*
X144018000Y-117475000D03*
G04 #@! TO.P,A1,24*
X141478000Y-102235000D03*
G04 #@! TO.P,A1,9*
X146558000Y-117475000D03*
G04 #@! TO.P,A1,25*
X138938000Y-102235000D03*
G04 #@! TO.P,A1,10*
X149098000Y-117475000D03*
G04 #@! TO.P,A1,26*
X136398000Y-102235000D03*
G04 #@! TO.P,A1,11*
X151638000Y-117475000D03*
G04 #@! TO.P,A1,27*
G04 #@! TO.N,/EncAlim*
X133858000Y-102235000D03*
G04 #@! TO.P,A1,12*
G04 #@! TO.N,N/C*
X154178000Y-117475000D03*
G04 #@! TO.P,A1,28*
X131318000Y-102235000D03*
G04 #@! TO.P,A1,13*
X156718000Y-117475000D03*
G04 #@! TO.P,A1,29*
G04 #@! TO.N,GND*
X128778000Y-102235000D03*
G04 #@! TO.P,A1,14*
G04 #@! TO.N,/MOSI*
X159258000Y-117475000D03*
G04 #@! TO.P,A1,30*
G04 #@! TO.N,/Vin*
X126238000Y-102235000D03*
G04 #@! TO.P,A1,15*
G04 #@! TO.N,/MISO*
X161798000Y-117475000D03*
G04 #@! TO.P,A1,16*
G04 #@! TO.N,N/C*
X161798000Y-102235000D03*
G04 #@! TD*
D14*
G04 #@! TO.P,C1,1*
G04 #@! TO.N,Net-(C1-Pad1)*
X144018000Y-89535000D03*
D15*
G04 #@! TO.P,C1,2*
G04 #@! TO.N,Net-(C1-Pad2)*
X144018000Y-84455000D03*
G04 #@! TD*
G04 #@! TO.P,C2,2*
G04 #@! TO.N,Net-(C2-Pad2)*
X121158000Y-89535000D03*
D14*
G04 #@! TO.P,C2,1*
G04 #@! TO.N,Net-(C2-Pad1)*
X121158000Y-84455000D03*
G04 #@! TD*
D16*
G04 #@! TO.P,J1,8*
G04 #@! TO.N,N/C*
X153788110Y-82975879D03*
G04 #@! TO.P,J1,7*
X156328110Y-82975879D03*
G04 #@! TO.P,J1,6*
X158868110Y-82975879D03*
G04 #@! TO.P,J1,5*
X161408110Y-82975879D03*
G04 #@! TO.P,J1,4*
X163948110Y-82975879D03*
G04 #@! TO.P,J1,3*
X166488110Y-82975879D03*
G04 #@! TO.P,J1,2*
X169028110Y-82975879D03*
D17*
G04 #@! TO.P,J1,1*
X171568110Y-82975879D03*
G04 #@! TD*
G04 #@! TO.P,J2,1*
G04 #@! TO.N,N/C*
X171568110Y-85515879D03*
D16*
G04 #@! TO.P,J2,2*
X169028110Y-85515879D03*
G04 #@! TO.P,J2,3*
X166488110Y-85515879D03*
G04 #@! TO.P,J2,4*
X163948110Y-85515879D03*
G04 #@! TO.P,J2,5*
X161408110Y-85515879D03*
G04 #@! TO.P,J2,6*
X158868110Y-85515879D03*
G04 #@! TO.P,J2,7*
X156328110Y-85515879D03*
G04 #@! TO.P,J2,8*
X153788110Y-85515879D03*
G04 #@! TD*
G04 #@! TO.P,J3,8*
G04 #@! TO.N,N/C*
X153788110Y-88055879D03*
G04 #@! TO.P,J3,7*
X156328110Y-88055879D03*
G04 #@! TO.P,J3,6*
X158868110Y-88055879D03*
G04 #@! TO.P,J3,5*
X161408110Y-88055879D03*
G04 #@! TO.P,J3,4*
X163948110Y-88055879D03*
G04 #@! TO.P,J3,3*
X166488110Y-88055879D03*
G04 #@! TO.P,J3,2*
X169028110Y-88055879D03*
D17*
G04 #@! TO.P,J3,1*
X171568110Y-88055879D03*
G04 #@! TD*
G04 #@! TO.P,J4,1*
G04 #@! TO.N,N/C*
X171568110Y-90595879D03*
D16*
G04 #@! TO.P,J4,2*
X169028110Y-90595879D03*
G04 #@! TO.P,J4,3*
X166488110Y-90595879D03*
G04 #@! TO.P,J4,4*
X163948110Y-90595879D03*
G04 #@! TO.P,J4,5*
X161408110Y-90595879D03*
G04 #@! TO.P,J4,6*
X158868110Y-90595879D03*
G04 #@! TO.P,J4,7*
X156328110Y-90595879D03*
G04 #@! TO.P,J4,8*
X153788110Y-90595879D03*
G04 #@! TD*
D17*
G04 #@! TO.P,J5,1*
G04 #@! TO.N,GND*
X137668000Y-79375000D03*
D16*
G04 #@! TO.P,J5,2*
G04 #@! TO.N,/BR1*
X140208000Y-79375000D03*
G04 #@! TD*
D17*
G04 #@! TO.P,J6,1*
G04 #@! TO.N,/A5(SCL)*
X171568110Y-93135879D03*
D16*
G04 #@! TO.P,J6,2*
G04 #@! TO.N,/A4(SDA)*
X169028110Y-93135879D03*
G04 #@! TO.P,J6,3*
G04 #@! TO.N,/A3*
X166488110Y-93135879D03*
G04 #@! TO.P,J6,4*
G04 #@! TO.N,/A2*
X163948110Y-93135879D03*
G04 #@! TO.P,J6,5*
G04 #@! TO.N,N/C*
X161408110Y-93135879D03*
G04 #@! TD*
G04 #@! TO.P,J7,3*
G04 #@! TO.N,/Bat+*
X158322951Y-93306705D03*
G04 #@! TO.P,J7,2*
G04 #@! TO.N,Net-(J11-Pad2)*
X155782951Y-93306705D03*
D17*
G04 #@! TO.P,J7,1*
G04 #@! TO.N,GND*
X153242951Y-93306705D03*
G04 #@! TD*
G04 #@! TO.P,J8,1*
G04 #@! TO.N,GND*
X135672089Y-96676230D03*
G04 #@! TD*
G04 #@! TO.P,J9,1*
G04 #@! TO.N,Net-(J11-Pad3)*
X139482089Y-96676230D03*
G04 #@! TD*
D18*
G04 #@! TO.P,J10,1*
G04 #@! TO.N,GND*
X116078000Y-83185000D03*
D19*
G04 #@! TO.P,J10,2*
G04 #@! TO.N,/Bat+*
X116078000Y-88185000D03*
G04 #@! TD*
D17*
G04 #@! TO.P,J11,1*
G04 #@! TO.N,/10(\002A\002A/SS)*
X122428000Y-97155000D03*
D16*
G04 #@! TO.P,J11,2*
G04 #@! TO.N,Net-(J11-Pad2)*
X124968000Y-97155000D03*
G04 #@! TO.P,J11,3*
G04 #@! TO.N,Net-(J11-Pad3)*
X127508000Y-97155000D03*
G04 #@! TD*
D17*
G04 #@! TO.P,J12,1*
G04 #@! TO.N,/Bat+*
X132278338Y-96743569D03*
G04 #@! TD*
G04 #@! TO.P,J13,1*
G04 #@! TO.N,Net-(J11-Pad2)*
X143292089Y-96676230D03*
G04 #@! TD*
D19*
G04 #@! TO.P,J14,2*
G04 #@! TO.N,Net-(C2-Pad2)*
X116078000Y-104695000D03*
D18*
G04 #@! TO.P,J14,1*
G04 #@! TO.N,Net-(C1-Pad1)*
X116078000Y-99695000D03*
G04 #@! TD*
D17*
G04 #@! TO.P,J15,1*
G04 #@! TO.N,/EncAlim*
X113538000Y-111125000D03*
D16*
G04 #@! TO.P,J15,2*
G04 #@! TO.N,GND*
X113538000Y-113665000D03*
G04 #@! TO.P,J15,3*
G04 #@! TO.N,/SS1*
X113538000Y-116205000D03*
G04 #@! TO.P,J15,4*
G04 #@! TO.N,/SCK*
X113538000Y-118745000D03*
G04 #@! TO.P,J15,5*
G04 #@! TO.N,/MOSI*
X113538000Y-121285000D03*
G04 #@! TO.P,J15,6*
G04 #@! TO.N,/MISO*
X113538000Y-123825000D03*
G04 #@! TD*
G04 #@! TO.P,J16,6*
G04 #@! TO.N,/MISO*
X117348000Y-123825000D03*
G04 #@! TO.P,J16,5*
G04 #@! TO.N,/MOSI*
X117348000Y-121285000D03*
G04 #@! TO.P,J16,4*
G04 #@! TO.N,/SCK*
X117348000Y-118745000D03*
G04 #@! TO.P,J16,3*
G04 #@! TO.N,/SS2*
X117348000Y-116205000D03*
G04 #@! TO.P,J16,2*
G04 #@! TO.N,GND*
X117348000Y-113665000D03*
D17*
G04 #@! TO.P,J16,1*
G04 #@! TO.N,/EncAlim*
X117348000Y-111125000D03*
G04 #@! TD*
G04 #@! TO.P,J17,1*
G04 #@! TO.N,GND*
X147828000Y-94615000D03*
D16*
G04 #@! TO.P,J17,2*
G04 #@! TO.N,/11(\002A\002A/MOSI)*
X147828000Y-92075000D03*
G04 #@! TO.P,J17,3*
G04 #@! TO.N,/12(MISO)*
X147828000Y-89535000D03*
G04 #@! TO.P,J17,4*
G04 #@! TO.N,/BR1*
X147828000Y-86995000D03*
G04 #@! TO.P,J17,5*
G04 #@! TO.N,/CSEN1*
X147828000Y-84455000D03*
G04 #@! TO.P,J17,6*
G04 #@! TO.N,/TF1*
X147828000Y-81915000D03*
G04 #@! TD*
D20*
G04 #@! TO.P,R1,1*
G04 #@! TO.N,/CSEN1*
X122428000Y-79375000D03*
D13*
G04 #@! TO.P,R1,2*
G04 #@! TO.N,GND*
X132588000Y-79375000D03*
G04 #@! TD*
D21*
G04 #@! TO.P,U1,1*
G04 #@! TO.N,Net-(C1-Pad2)*
X141478000Y-83185000D03*
D22*
G04 #@! TO.P,U1,2*
G04 #@! TO.N,Net-(C1-Pad1)*
X139778000Y-88265000D03*
G04 #@! TO.P,U1,3*
G04 #@! TO.N,/12(MISO)*
X138078000Y-83185000D03*
G04 #@! TO.P,U1,4*
G04 #@! TO.N,/BR1*
X136378000Y-88265000D03*
G04 #@! TO.P,U1,5*
G04 #@! TO.N,/11(\002A\002A/MOSI)*
X134678000Y-83185000D03*
G04 #@! TO.P,U1,6*
G04 #@! TO.N,/Bat+*
X132978000Y-88265000D03*
G04 #@! TO.P,U1,7*
G04 #@! TO.N,GND*
X131278000Y-83185000D03*
G04 #@! TO.P,U1,8*
G04 #@! TO.N,/CSEN1*
X129578000Y-88265000D03*
G04 #@! TO.P,U1,9*
G04 #@! TO.N,/TF1*
X127878000Y-83185000D03*
G04 #@! TO.P,U1,10*
G04 #@! TO.N,Net-(C2-Pad2)*
X126178000Y-88265000D03*
G04 #@! TO.P,U1,11*
G04 #@! TO.N,Net-(C2-Pad1)*
X124478000Y-83185000D03*
G04 #@! TD*
D23*
G04 #@! TO.N,GND*
X150368000Y-109855000D03*
X150368000Y-113665000D03*
G04 #@! TO.N,/Vin*
X152908000Y-113665000D03*
X149098000Y-107315000D03*
G04 #@! TO.N,/A4(SDA)*
X161798000Y-98425000D03*
X168148000Y-98425000D03*
G04 #@! TO.N,/A5(SCL)*
X161798000Y-97155000D03*
X170688000Y-97155000D03*
G04 #@! TO.N,/0(Rx)*
X131318000Y-112395000D03*
X136398000Y-112395000D03*
X136398000Y-112395000D03*
G04 #@! TO.N,/11(\002A\002A/MOSI)*
X135228195Y-81290000D03*
G04 #@! TO.N,Net-(J11-Pad2)*
X152908000Y-99695000D03*
G04 #@! TD*
D24*
G04 #@! TO.N,GND*
X147828000Y-94615000D02*
X150368000Y-94615000D01*
X151676295Y-93306705D02*
X153242951Y-93306705D01*
X150368000Y-94615000D02*
X151676295Y-93306705D01*
X150368000Y-94615000D02*
X150368000Y-109855000D01*
X153064400Y-123825000D02*
X154178000Y-123825000D01*
X150368000Y-121128600D02*
X153064400Y-123825000D01*
X150368000Y-113665000D02*
X150368000Y-121128600D01*
X147828000Y-95715000D02*
X143848000Y-99695000D01*
X147828000Y-94615000D02*
X147828000Y-95715000D01*
X143848000Y-99695000D02*
X123698000Y-99695000D01*
X127508000Y-103505000D02*
X123698000Y-103505000D01*
X128778000Y-102235000D02*
X127508000Y-103505000D01*
X123698000Y-103505000D02*
X122428000Y-102235000D01*
X122428000Y-102235000D02*
X122428000Y-100965000D01*
X122428000Y-100965000D02*
X123698000Y-99695000D01*
X123698000Y-99695000D02*
X121158000Y-99695000D01*
X130378001Y-84084999D02*
X131278000Y-83185000D01*
X130052999Y-84410001D02*
X130378001Y-84084999D01*
X127289999Y-84410001D02*
X130052999Y-84410001D01*
X126342999Y-83463001D02*
X127289999Y-84410001D01*
X126342999Y-78249999D02*
X126342999Y-83463001D01*
X117627999Y-78249999D02*
X126342999Y-78249999D01*
X113952990Y-81925008D02*
X117627999Y-78249999D01*
X113952990Y-92489990D02*
X113952990Y-81925008D01*
X121158000Y-99695000D02*
X113952990Y-92489990D01*
D25*
X147828000Y-95965000D02*
X147828000Y-94615000D01*
X145116759Y-98676241D02*
X147828000Y-95965000D01*
X121439239Y-98676241D02*
X145116759Y-98676241D01*
X113827990Y-91064992D02*
X121439239Y-98676241D01*
X125828001Y-80924999D02*
X123028001Y-78124999D01*
X125828001Y-83833001D02*
X125828001Y-80924999D01*
X123028001Y-78124999D02*
X117527999Y-78124999D01*
X126530001Y-84535001D02*
X125828001Y-83833001D01*
X129927999Y-84535001D02*
X126530001Y-84535001D01*
X131278000Y-83185000D02*
X129927999Y-84535001D01*
D24*
G04 #@! TO.N,/Vin*
X152908000Y-119862600D02*
X152908000Y-113665000D01*
X156718000Y-123825000D02*
X156718000Y-123672600D01*
X156718000Y-123672600D02*
X152908000Y-119862600D01*
X147432998Y-107315000D02*
X144892998Y-104775000D01*
X149098000Y-107315000D02*
X147432998Y-107315000D01*
X127363001Y-101109999D02*
X127037999Y-101435001D01*
X134398001Y-101109999D02*
X127363001Y-101109999D01*
X127037999Y-101435001D02*
X126238000Y-102235000D01*
X134983001Y-101694999D02*
X134398001Y-101109999D01*
X134983001Y-102485003D02*
X134983001Y-101694999D01*
X137272998Y-104775000D02*
X134983001Y-102485003D01*
X144892998Y-104775000D02*
X137272998Y-104775000D01*
G04 #@! TO.N,/A4(SDA)*
X161798000Y-98425000D02*
X168148000Y-98425000D01*
G04 #@! TO.N,/A5(SCL)*
X161798000Y-97155000D02*
X170688000Y-97155000D01*
G04 #@! TO.N,/1(Tx)*
X128778000Y-117475000D02*
X135128000Y-111125000D01*
X135128000Y-111125000D02*
X171958000Y-111125000D01*
X171958000Y-111125000D02*
X173228000Y-109855000D01*
X171958000Y-76831000D02*
X171958000Y-75565000D01*
X173228000Y-78101000D02*
X171958000Y-76831000D01*
X173228000Y-109855000D02*
X173228000Y-78101000D01*
G04 #@! TO.N,/0(Rx)*
X130268000Y-112395000D02*
X131318000Y-112395000D01*
X126238000Y-117475000D02*
X126238000Y-116425000D01*
X126238000Y-116425000D02*
X130268000Y-112395000D01*
X174498000Y-76831000D02*
X174498000Y-75565000D01*
X174498000Y-109221410D02*
X174498000Y-76831000D01*
X171324410Y-112395000D02*
X174498000Y-109221410D01*
X136398000Y-112395000D02*
X171324410Y-112395000D01*
G04 #@! TO.N,/11(\002A\002A/MOSI)*
X143845390Y-76906010D02*
X145034000Y-75717400D01*
X137851988Y-76906010D02*
X143845390Y-76906010D01*
X135228195Y-79529803D02*
X137851988Y-76906010D01*
X135228195Y-81290000D02*
X135228195Y-79529803D01*
X145034000Y-75717400D02*
X145034000Y-75565000D01*
X149453011Y-80136411D02*
X145034000Y-75717400D01*
X149453011Y-90449989D02*
X149453011Y-80136411D01*
X147828000Y-92075000D02*
X149453011Y-90449989D01*
G04 #@! TO.N,/EncAlim*
X124968000Y-111125000D02*
X133858000Y-102235000D01*
X117348000Y-111125000D02*
X124968000Y-111125000D01*
G04 #@! TO.N,/BR1*
X137277999Y-89164999D02*
X136378000Y-88265000D01*
X148392001Y-90710001D02*
X138823001Y-90710001D01*
X149003001Y-90099001D02*
X148392001Y-90710001D01*
X149003001Y-81350999D02*
X149003001Y-90099001D01*
X138823001Y-90710001D02*
X137277999Y-89164999D01*
X147027002Y-79375000D02*
X149003001Y-81350999D01*
X140208000Y-79375000D02*
X147027002Y-79375000D01*
G04 #@! TO.N,/Bat+*
X132978000Y-88265000D02*
X136847090Y-92134090D01*
X137963001Y-93250001D02*
X136847090Y-92134090D01*
D25*
X136972090Y-92259090D02*
X136847090Y-92134090D01*
X136972090Y-97886231D02*
X136972090Y-92259090D01*
X136882090Y-97976231D02*
X136972090Y-97886231D01*
X133511000Y-97976231D02*
X136882090Y-97976231D01*
X132278338Y-96743569D02*
X133511000Y-97976231D01*
X133877999Y-89164999D02*
X136972090Y-92259090D01*
X132978000Y-88265000D02*
X133877999Y-89164999D01*
X136972090Y-92259090D02*
X136972090Y-92649090D01*
X137573001Y-93250001D02*
X146558000Y-93250001D01*
X136972090Y-92649090D02*
X137573001Y-93250001D01*
D24*
X148392001Y-93250001D02*
X146558000Y-93250001D01*
X146558000Y-93250001D02*
X137963001Y-93250001D01*
D25*
X148505409Y-93250001D02*
X148392001Y-93250001D01*
X149748706Y-92006704D02*
X148505409Y-93250001D01*
X157022950Y-92006704D02*
X149748706Y-92006704D01*
X158322951Y-93306705D02*
X157022950Y-92006704D01*
D24*
G04 #@! TO.N,Net-(J11-Pad2)*
X155782951Y-93306705D02*
X155782951Y-96820049D01*
X155782951Y-96820049D02*
X152908000Y-99695000D01*
D25*
G04 #@! TO.N,GND*
X116878000Y-83185000D02*
X116078000Y-83185000D01*
X123308001Y-89615001D02*
X116878000Y-83185000D01*
X127659772Y-89615001D02*
X123308001Y-89615001D01*
X134721001Y-96676230D02*
X127659772Y-89615001D01*
X135672089Y-96676230D02*
X134721001Y-96676230D01*
D24*
X113918008Y-81825008D02*
X113827990Y-81825008D01*
X115278000Y-83185000D02*
X113918008Y-81825008D01*
X115007998Y-80864998D02*
X115007998Y-80645000D01*
X116078000Y-81935000D02*
X115007998Y-80864998D01*
X116078000Y-83185000D02*
X116078000Y-81935000D01*
D25*
X117527999Y-78124999D02*
X115007998Y-80645000D01*
X115007998Y-80645000D02*
X113827990Y-81825008D01*
D24*
X113827990Y-84635010D02*
X113827990Y-85725000D01*
X115278000Y-83185000D02*
X113827990Y-84635010D01*
X116078000Y-83185000D02*
X115278000Y-83185000D01*
D25*
X113827990Y-81825008D02*
X113827990Y-85725000D01*
X113827990Y-85725000D02*
X113827990Y-91064992D01*
D24*
G04 #@! TO.N,/CSEN1*
X128678001Y-87365001D02*
X129578000Y-88265000D01*
X128352999Y-87039999D02*
X128678001Y-87365001D01*
X126519997Y-87039999D02*
X128352999Y-87039999D01*
X122428000Y-82948002D02*
X126519997Y-87039999D01*
X122428000Y-79375000D02*
X122428000Y-82948002D01*
X146978001Y-85304999D02*
X147828000Y-84455000D01*
X145288000Y-86995000D02*
X146978001Y-85304999D01*
X130848000Y-86995000D02*
X145288000Y-86995000D01*
X129578000Y-88265000D02*
X130848000Y-86995000D01*
G04 #@! TO.N,/TF1*
X129148000Y-81915000D02*
X147828000Y-81915000D01*
X127878000Y-83185000D02*
X129148000Y-81915000D01*
G04 #@! TD*
M02*
