M48
;DRILL file {KiCad (5.0.0)} date 03/29/19 10:48:25
;FORMAT={-:-/ absolute / inch / decimal}
FMAT,2
INCH,TZ
T1C0.0157
T2C0.0276
T3C0.0315
T4C0.0394
T5C0.0400
T6C0.0551
T7C0.1200
%
G90
G05
M72
T1
X5.17Y-4.425
X5.3239Y-3.2004
X5.37Y-4.425
X5.37Y-4.425
X5.87Y-4.225
X5.92Y-4.325
X5.92Y-4.475
X6.02Y-3.925
X6.02Y-4.475
X6.37Y-3.825
X6.37Y-3.875
X6.62Y-3.875
X6.72Y-3.825
T2
X4.77Y-3.325
X4.77Y-3.525
X5.67Y-3.325
X5.67Y-3.525
T3
X4.82Y-3.125
X5.22Y-3.125
X4.97Y-4.025
X4.97Y-4.625
X5.07Y-4.025
X5.07Y-4.625
X5.17Y-4.025
X5.17Y-4.625
X5.27Y-4.025
X5.27Y-4.625
X5.37Y-4.025
X5.37Y-4.625
X5.47Y-4.025
X5.47Y-4.625
X5.57Y-4.025
X5.57Y-4.625
X5.67Y-4.025
X5.67Y-4.625
X5.77Y-4.025
X5.77Y-4.625
X5.87Y-4.025
X5.87Y-4.625
X5.97Y-4.025
X5.97Y-4.625
X6.07Y-4.025
X6.07Y-4.625
X6.17Y-4.025
X6.17Y-4.625
X6.27Y-4.025
X6.27Y-4.625
X6.37Y-4.025
X6.37Y-4.625
T4
X6.0546Y-3.3668
X6.1547Y-3.3668
X6.2546Y-3.3668
X6.3546Y-3.3668
X6.4546Y-3.3668
X6.5546Y-3.3668
X6.6547Y-3.3668
X6.7546Y-3.3668
X6.0332Y-3.6735
X6.1332Y-3.6735
X6.2332Y-3.6735
X6.0546Y-3.5668
X6.1547Y-3.5668
X6.2546Y-3.5668
X6.3546Y-3.5668
X6.4546Y-3.5668
X6.5546Y-3.5668
X6.6547Y-3.5668
X6.7546Y-3.5668
X4.62Y-4.375
X4.62Y-4.475
X4.62Y-4.575
X4.62Y-4.675
X4.62Y-4.775
X4.62Y-4.875
X5.4914Y-3.8062
X4.82Y-3.825
X4.92Y-3.825
X5.02Y-3.825
X6.0546Y-3.2668
X6.1547Y-3.2668
X6.2546Y-3.2668
X6.3546Y-3.2668
X6.4546Y-3.2668
X6.5546Y-3.2668
X6.6547Y-3.2668
X6.7546Y-3.2668
X5.6414Y-3.8062
X6.3546Y-3.6668
X6.4546Y-3.6668
X6.5546Y-3.6668
X6.6547Y-3.6668
X6.7546Y-3.6668
X6.0546Y-3.4668
X6.1547Y-3.4668
X6.2546Y-3.4668
X6.3546Y-3.4668
X6.4546Y-3.4668
X6.5546Y-3.4668
X6.6547Y-3.4668
X6.7546Y-3.4668
X4.47Y-4.375
X4.47Y-4.475
X4.47Y-4.575
X4.47Y-4.675
X4.47Y-4.775
X4.47Y-4.875
X5.3414Y-3.8062
X5.42Y-3.125
X5.52Y-3.125
X5.82Y-3.225
X5.82Y-3.325
X5.82Y-3.425
X5.82Y-3.525
X5.82Y-3.625
X5.82Y-3.725
X4.9007Y-3.275
X4.9676Y-3.475
X5.0346Y-3.275
X5.1015Y-3.475
X5.1684Y-3.275
X5.2354Y-3.475
X5.3023Y-3.275
X5.3692Y-3.475
X5.4361Y-3.275
X5.5031Y-3.475
X5.57Y-3.275
X5.2078Y-3.8088
T5
X5.11Y-2.975
X5.21Y-2.975
X5.31Y-2.975
X5.41Y-2.975
X5.51Y-2.975
X5.61Y-2.975
X5.71Y-2.975
X5.81Y-2.975
X5.91Y-2.975
X6.01Y-2.975
X6.37Y-4.875
X6.47Y-4.875
X6.57Y-4.875
X6.67Y-4.875
X6.77Y-4.875
X6.87Y-4.875
X6.17Y-2.975
X6.27Y-2.975
X6.37Y-2.975
X6.47Y-2.975
X6.57Y-2.975
X6.67Y-2.975
X6.77Y-2.975
X6.87Y-2.975
X5.47Y-4.875
X5.57Y-4.875
X5.67Y-4.875
X5.77Y-4.875
X5.87Y-4.875
X5.97Y-4.875
X6.07Y-4.875
X6.17Y-4.875
T6
X4.57Y-3.275
X4.57Y-3.4719
X4.57Y-3.925
X4.57Y-4.1219
T7
X6.97Y-4.675
X6.97Y-3.575
X4.92Y-4.875
X4.97Y-2.975
T0
M30
