G04 #@! TF.GenerationSoftware,KiCad,Pcbnew,(5.0.0)*
G04 #@! TF.CreationDate,2019-03-29T10:48:20+00:00*
G04 #@! TF.ProjectId,Actuators,4163747561746F72732E6B696361645F,rev?*
G04 #@! TF.SameCoordinates,Original*
G04 #@! TF.FileFunction,Legend,Top*
G04 #@! TF.FilePolarity,Positive*
%FSLAX46Y46*%
G04 Gerber Fmt 4.6, Leading zero omitted, Abs format (unit mm)*
G04 Created by KiCad (PCBNEW (5.0.0)) date 03/29/19 10:48:20*
%MOMM*%
%LPD*%
G01*
G04 APERTURE LIST*
%ADD10C,0.150000*%
%ADD11C,0.120000*%
G04 APERTURE END LIST*
D10*
X139390380Y-120999285D02*
X139390380Y-121570714D01*
X139390380Y-121285000D02*
X138390380Y-121285000D01*
X138533238Y-121380238D01*
X138628476Y-121475476D01*
X138676095Y-121570714D01*
G04 #@! TO.C,P1*
X140208000Y-125095000D02*
X157988000Y-125095000D01*
X157988000Y-125095000D02*
X157988000Y-122555000D01*
X157988000Y-122555000D02*
X140208000Y-122555000D01*
X137388000Y-125375000D02*
X138938000Y-125375000D01*
X140208000Y-125095000D02*
X140208000Y-122555000D01*
X138938000Y-122275000D02*
X137388000Y-122275000D01*
X137388000Y-122275000D02*
X137388000Y-125375000D01*
G04 #@! TO.C,P2*
X163068000Y-125095000D02*
X175768000Y-125095000D01*
X175768000Y-125095000D02*
X175768000Y-122555000D01*
X175768000Y-122555000D02*
X163068000Y-122555000D01*
X160248000Y-125375000D02*
X161798000Y-125375000D01*
X163068000Y-125095000D02*
X163068000Y-122555000D01*
X161798000Y-122275000D02*
X160248000Y-122275000D01*
X160248000Y-122275000D02*
X160248000Y-125375000D01*
G04 #@! TO.C,P3*
X131064000Y-76835000D02*
X153924000Y-76835000D01*
X153924000Y-76835000D02*
X153924000Y-74295000D01*
X153924000Y-74295000D02*
X131064000Y-74295000D01*
X128244000Y-77115000D02*
X129794000Y-77115000D01*
X131064000Y-76835000D02*
X131064000Y-74295000D01*
X129794000Y-74015000D02*
X128244000Y-74015000D01*
X128244000Y-74015000D02*
X128244000Y-77115000D01*
G04 #@! TO.C,P4*
X157988000Y-76835000D02*
X175768000Y-76835000D01*
X175768000Y-76835000D02*
X175768000Y-74295000D01*
X175768000Y-74295000D02*
X157988000Y-74295000D01*
X155168000Y-77115000D02*
X156718000Y-77115000D01*
X157988000Y-76835000D02*
X157988000Y-74295000D01*
X156718000Y-74015000D02*
X155168000Y-74015000D01*
X155168000Y-74015000D02*
X155168000Y-77115000D01*
G04 #@! TO.C,P5*
X127254000Y-123825000D02*
G75*
G03X127254000Y-123825000I-2286000J0D01*
G01*
G04 #@! TO.C,P6*
X179324000Y-118745000D02*
G75*
G03X179324000Y-118745000I-2286000J0D01*
G01*
G04 #@! TO.C,P7*
X128524000Y-75565000D02*
G75*
G03X128524000Y-75565000I-2286000J0D01*
G01*
G04 #@! TO.C,P8*
X179324000Y-90805000D02*
G75*
G03X179324000Y-90805000I-2286000J0D01*
G01*
D11*
G04 #@! TO.C,A1*
X127508000Y-116205000D02*
X124968000Y-116205000D01*
X124968000Y-116205000D02*
X124968000Y-118875000D01*
X127508000Y-118875000D02*
X165738000Y-118875000D01*
X122298000Y-118875000D02*
X124968000Y-118875000D01*
X124968000Y-103505000D02*
X124968000Y-100835000D01*
X124968000Y-103505000D02*
X163068000Y-103505000D01*
X163068000Y-103505000D02*
X163068000Y-100835000D01*
X127508000Y-116205000D02*
X127508000Y-118875000D01*
X127508000Y-116205000D02*
X163068000Y-116205000D01*
X163068000Y-116205000D02*
X163068000Y-118875000D01*
X165738000Y-118875000D02*
X165738000Y-100835000D01*
X165738000Y-100835000D02*
X122298000Y-100835000D01*
X122298000Y-100835000D02*
X122298000Y-118875000D01*
G04 #@! TO.C,C1*
X143098000Y-88915000D02*
X143098000Y-85075000D01*
X144938000Y-88915000D02*
X144938000Y-85075000D01*
G04 #@! TO.C,C2*
X120238000Y-85075000D02*
X120238000Y-88915000D01*
X122078000Y-85075000D02*
X122078000Y-88915000D01*
G04 #@! TO.C,J1*
X172898110Y-81645879D02*
X172898110Y-82975879D01*
X171568110Y-81645879D02*
X172898110Y-81645879D01*
X170298110Y-81645879D02*
X170298110Y-84305879D01*
X170298110Y-84305879D02*
X152458110Y-84305879D01*
X170298110Y-81645879D02*
X152458110Y-81645879D01*
X152458110Y-81645879D02*
X152458110Y-84305879D01*
G04 #@! TO.C,J2*
X152458110Y-84185879D02*
X152458110Y-86845879D01*
X170298110Y-84185879D02*
X152458110Y-84185879D01*
X170298110Y-86845879D02*
X152458110Y-86845879D01*
X170298110Y-84185879D02*
X170298110Y-86845879D01*
X171568110Y-84185879D02*
X172898110Y-84185879D01*
X172898110Y-84185879D02*
X172898110Y-85515879D01*
G04 #@! TO.C,J3*
X172898110Y-86725879D02*
X172898110Y-88055879D01*
X171568110Y-86725879D02*
X172898110Y-86725879D01*
X170298110Y-86725879D02*
X170298110Y-89385879D01*
X170298110Y-89385879D02*
X152458110Y-89385879D01*
X170298110Y-86725879D02*
X152458110Y-86725879D01*
X152458110Y-86725879D02*
X152458110Y-89385879D01*
G04 #@! TO.C,J4*
X152458110Y-89265879D02*
X152458110Y-91925879D01*
X170298110Y-89265879D02*
X152458110Y-89265879D01*
X170298110Y-91925879D02*
X152458110Y-91925879D01*
X170298110Y-89265879D02*
X170298110Y-91925879D01*
X171568110Y-89265879D02*
X172898110Y-89265879D01*
X172898110Y-89265879D02*
X172898110Y-90595879D01*
G04 #@! TO.C,J5*
X141538000Y-80705000D02*
X141538000Y-78045000D01*
X138938000Y-80705000D02*
X141538000Y-80705000D01*
X138938000Y-78045000D02*
X141538000Y-78045000D01*
X138938000Y-80705000D02*
X138938000Y-78045000D01*
X137668000Y-80705000D02*
X136338000Y-80705000D01*
X136338000Y-80705000D02*
X136338000Y-79375000D01*
G04 #@! TO.C,J6*
X160078110Y-91805879D02*
X160078110Y-94465879D01*
X170298110Y-91805879D02*
X160078110Y-91805879D01*
X170298110Y-94465879D02*
X160078110Y-94465879D01*
X170298110Y-91805879D02*
X170298110Y-94465879D01*
X171568110Y-91805879D02*
X172898110Y-91805879D01*
X172898110Y-91805879D02*
X172898110Y-93135879D01*
G04 #@! TO.C,J7*
X151912951Y-94636705D02*
X151912951Y-93306705D01*
X153242951Y-94636705D02*
X151912951Y-94636705D01*
X154512951Y-94636705D02*
X154512951Y-91976705D01*
X154512951Y-91976705D02*
X159652951Y-91976705D01*
X154512951Y-94636705D02*
X159652951Y-94636705D01*
X159652951Y-94636705D02*
X159652951Y-91976705D01*
G04 #@! TO.C,J8*
X137002089Y-98006230D02*
X135672089Y-98006230D01*
X137002089Y-96676230D02*
X137002089Y-98006230D01*
X137002089Y-95406230D02*
X134342089Y-95406230D01*
X134342089Y-95406230D02*
X134342089Y-95346230D01*
X137002089Y-95406230D02*
X137002089Y-95346230D01*
X137002089Y-95346230D02*
X134342089Y-95346230D01*
G04 #@! TO.C,J9*
X140812089Y-98006230D02*
X139482089Y-98006230D01*
X140812089Y-96676230D02*
X140812089Y-98006230D01*
X140812089Y-95406230D02*
X138152089Y-95406230D01*
X138152089Y-95406230D02*
X138152089Y-95346230D01*
X140812089Y-95406230D02*
X140812089Y-95346230D01*
X140812089Y-95346230D02*
X138152089Y-95346230D01*
G04 #@! TO.C,J10*
X118158000Y-79605000D02*
X105998000Y-79605000D01*
X105998000Y-79605000D02*
X105998000Y-91765000D01*
X105998000Y-91765000D02*
X118158000Y-91765000D01*
X118158000Y-91765000D02*
X118158000Y-79605000D01*
X107498000Y-79605000D02*
X109298000Y-79605000D01*
X109298000Y-79605000D02*
X109298000Y-91765000D01*
X109298000Y-91765000D02*
X107498000Y-91765000D01*
X107498000Y-91765000D02*
X107498000Y-79605000D01*
X105998000Y-82185000D02*
X105998000Y-84185000D01*
X105998000Y-84185000D02*
X107498000Y-83935000D01*
X107498000Y-83935000D02*
X107498000Y-82435000D01*
X107498000Y-82435000D02*
X105998000Y-82185000D01*
X105998000Y-87185000D02*
X105998000Y-89185000D01*
X105998000Y-89185000D02*
X107498000Y-88935000D01*
X107498000Y-88935000D02*
X107498000Y-87435000D01*
X107498000Y-87435000D02*
X105998000Y-87185000D01*
X118958000Y-83485000D02*
X118358000Y-83185000D01*
X118358000Y-83185000D02*
X118958000Y-82885000D01*
X118958000Y-82885000D02*
X118958000Y-83485000D01*
G04 #@! TO.C,J11*
X128838000Y-98485000D02*
X128838000Y-95825000D01*
X123698000Y-98485000D02*
X128838000Y-98485000D01*
X123698000Y-95825000D02*
X128838000Y-95825000D01*
X123698000Y-98485000D02*
X123698000Y-95825000D01*
X122428000Y-98485000D02*
X121098000Y-98485000D01*
X121098000Y-98485000D02*
X121098000Y-97155000D01*
G04 #@! TO.C,J12*
X133608338Y-95413569D02*
X130948338Y-95413569D01*
X133608338Y-95473569D02*
X133608338Y-95413569D01*
X130948338Y-95473569D02*
X130948338Y-95413569D01*
X133608338Y-95473569D02*
X130948338Y-95473569D01*
X133608338Y-96743569D02*
X133608338Y-98073569D01*
X133608338Y-98073569D02*
X132278338Y-98073569D01*
G04 #@! TO.C,J13*
X144622089Y-95346230D02*
X141962089Y-95346230D01*
X144622089Y-95406230D02*
X144622089Y-95346230D01*
X141962089Y-95406230D02*
X141962089Y-95346230D01*
X144622089Y-95406230D02*
X141962089Y-95406230D01*
X144622089Y-96676230D02*
X144622089Y-98006230D01*
X144622089Y-98006230D02*
X143292089Y-98006230D01*
G04 #@! TO.C,J14*
X118958000Y-99395000D02*
X118958000Y-99995000D01*
X118358000Y-99695000D02*
X118958000Y-99395000D01*
X118958000Y-99995000D02*
X118358000Y-99695000D01*
X107498000Y-103945000D02*
X105998000Y-103695000D01*
X107498000Y-105445000D02*
X107498000Y-103945000D01*
X105998000Y-105695000D02*
X107498000Y-105445000D01*
X105998000Y-103695000D02*
X105998000Y-105695000D01*
X107498000Y-98945000D02*
X105998000Y-98695000D01*
X107498000Y-100445000D02*
X107498000Y-98945000D01*
X105998000Y-100695000D02*
X107498000Y-100445000D01*
X105998000Y-98695000D02*
X105998000Y-100695000D01*
X107498000Y-108275000D02*
X107498000Y-96115000D01*
X109298000Y-108275000D02*
X107498000Y-108275000D01*
X109298000Y-96115000D02*
X109298000Y-108275000D01*
X107498000Y-96115000D02*
X109298000Y-96115000D01*
X118158000Y-108275000D02*
X118158000Y-96115000D01*
X105998000Y-108275000D02*
X118158000Y-108275000D01*
X105998000Y-96115000D02*
X105998000Y-108275000D01*
X118158000Y-96115000D02*
X105998000Y-96115000D01*
G04 #@! TO.C,J15*
X112208000Y-125155000D02*
X114868000Y-125155000D01*
X112208000Y-112395000D02*
X112208000Y-125155000D01*
X114868000Y-112395000D02*
X114868000Y-125155000D01*
X112208000Y-112395000D02*
X114868000Y-112395000D01*
X112208000Y-111125000D02*
X112208000Y-109795000D01*
X112208000Y-109795000D02*
X113538000Y-109795000D01*
G04 #@! TO.C,J16*
X116018000Y-109795000D02*
X117348000Y-109795000D01*
X116018000Y-111125000D02*
X116018000Y-109795000D01*
X116018000Y-112395000D02*
X118678000Y-112395000D01*
X118678000Y-112395000D02*
X118678000Y-125155000D01*
X116018000Y-112395000D02*
X116018000Y-125155000D01*
X116018000Y-125155000D02*
X118678000Y-125155000D01*
G04 #@! TO.C,J17*
X149158000Y-80585000D02*
X146498000Y-80585000D01*
X149158000Y-93345000D02*
X149158000Y-80585000D01*
X146498000Y-93345000D02*
X146498000Y-80585000D01*
X149158000Y-93345000D02*
X146498000Y-93345000D01*
X149158000Y-94615000D02*
X149158000Y-95945000D01*
X149158000Y-95945000D02*
X147828000Y-95945000D01*
G04 #@! TO.C,R1*
X124238000Y-78005000D02*
X124238000Y-80745000D01*
X124238000Y-80745000D02*
X130778000Y-80745000D01*
X130778000Y-80745000D02*
X130778000Y-78005000D01*
X130778000Y-78005000D02*
X124238000Y-78005000D01*
X123468000Y-79375000D02*
X124238000Y-79375000D01*
X131548000Y-79375000D02*
X130778000Y-79375000D01*
G04 #@! TO.C,U1*
X143198000Y-92885000D02*
X122758000Y-92885000D01*
X143198000Y-87644000D02*
X140702000Y-87644000D01*
X138853000Y-87644000D02*
X137302000Y-87644000D01*
X135453000Y-87644000D02*
X133902000Y-87644000D01*
X132053000Y-87644000D02*
X130502000Y-87644000D01*
X128653000Y-87644000D02*
X127102000Y-87644000D01*
X125253000Y-87644000D02*
X122758000Y-87644000D01*
X143198000Y-92885000D02*
X143198000Y-87644000D01*
X122758000Y-92885000D02*
X122758000Y-87644000D01*
X143198000Y-91045000D02*
X122758000Y-91045000D01*
X134828000Y-92885000D02*
X134828000Y-91045000D01*
X131128000Y-92885000D02*
X131128000Y-91045000D01*
X141478000Y-87644000D02*
X141478000Y-84235000D01*
X138078000Y-87644000D02*
X138078000Y-84250000D01*
X134678000Y-87644000D02*
X134678000Y-84250000D01*
X131278000Y-87644000D02*
X131278000Y-84250000D01*
X127878000Y-87644000D02*
X127878000Y-84250000D01*
X124478000Y-87644000D02*
X124478000Y-84250000D01*
G04 #@! TO.C,P1*
D10*
X147089904Y-121737380D02*
X147089904Y-120737380D01*
X147470857Y-120737380D01*
X147566095Y-120785000D01*
X147613714Y-120832619D01*
X147661333Y-120927857D01*
X147661333Y-121070714D01*
X147613714Y-121165952D01*
X147566095Y-121213571D01*
X147470857Y-121261190D01*
X147089904Y-121261190D01*
X148613714Y-121737380D02*
X148042285Y-121737380D01*
X148328000Y-121737380D02*
X148328000Y-120737380D01*
X148232761Y-120880238D01*
X148137523Y-120975476D01*
X148042285Y-121023095D01*
G04 #@! TO.C,P2*
X167663904Y-121737380D02*
X167663904Y-120737380D01*
X168044857Y-120737380D01*
X168140095Y-120785000D01*
X168187714Y-120832619D01*
X168235333Y-120927857D01*
X168235333Y-121070714D01*
X168187714Y-121165952D01*
X168140095Y-121213571D01*
X168044857Y-121261190D01*
X167663904Y-121261190D01*
X168616285Y-120832619D02*
X168663904Y-120785000D01*
X168759142Y-120737380D01*
X168997238Y-120737380D01*
X169092476Y-120785000D01*
X169140095Y-120832619D01*
X169187714Y-120927857D01*
X169187714Y-121023095D01*
X169140095Y-121165952D01*
X168568666Y-121737380D01*
X169187714Y-121737380D01*
G04 #@! TO.C,P3*
X140485904Y-78811380D02*
X140485904Y-77811380D01*
X140866857Y-77811380D01*
X140962095Y-77859000D01*
X141009714Y-77906619D01*
X141057333Y-78001857D01*
X141057333Y-78144714D01*
X141009714Y-78239952D01*
X140962095Y-78287571D01*
X140866857Y-78335190D01*
X140485904Y-78335190D01*
X141390666Y-77811380D02*
X142009714Y-77811380D01*
X141676380Y-78192333D01*
X141819238Y-78192333D01*
X141914476Y-78239952D01*
X141962095Y-78287571D01*
X142009714Y-78382809D01*
X142009714Y-78620904D01*
X141962095Y-78716142D01*
X141914476Y-78763761D01*
X141819238Y-78811380D01*
X141533523Y-78811380D01*
X141438285Y-78763761D01*
X141390666Y-78716142D01*
G04 #@! TO.C,P4*
X164869904Y-78811380D02*
X164869904Y-77811380D01*
X165250857Y-77811380D01*
X165346095Y-77859000D01*
X165393714Y-77906619D01*
X165441333Y-78001857D01*
X165441333Y-78144714D01*
X165393714Y-78239952D01*
X165346095Y-78287571D01*
X165250857Y-78335190D01*
X164869904Y-78335190D01*
X166298476Y-78144714D02*
X166298476Y-78811380D01*
X166060380Y-77763761D02*
X165822285Y-78478047D01*
X166441333Y-78478047D01*
G04 #@! TO.C,A1*
X121324666Y-110569285D02*
X121324666Y-110093095D01*
X121610380Y-110664523D02*
X120610380Y-110331190D01*
X121610380Y-109997857D01*
X121610380Y-109140714D02*
X121610380Y-109712142D01*
X121610380Y-109426428D02*
X120610380Y-109426428D01*
X120753238Y-109521666D01*
X120848476Y-109616904D01*
X120896095Y-109712142D01*
G04 #@! TO.C,C1*
X142455142Y-87161666D02*
X142502761Y-87209285D01*
X142550380Y-87352142D01*
X142550380Y-87447380D01*
X142502761Y-87590238D01*
X142407523Y-87685476D01*
X142312285Y-87733095D01*
X142121809Y-87780714D01*
X141978952Y-87780714D01*
X141788476Y-87733095D01*
X141693238Y-87685476D01*
X141598000Y-87590238D01*
X141550380Y-87447380D01*
X141550380Y-87352142D01*
X141598000Y-87209285D01*
X141645619Y-87161666D01*
X142550380Y-86209285D02*
X142550380Y-86780714D01*
X142550380Y-86495000D02*
X141550380Y-86495000D01*
X141693238Y-86590238D01*
X141788476Y-86685476D01*
X141836095Y-86780714D01*
G04 #@! TO.C,C2*
X123435142Y-87161666D02*
X123482761Y-87209285D01*
X123530380Y-87352142D01*
X123530380Y-87447380D01*
X123482761Y-87590238D01*
X123387523Y-87685476D01*
X123292285Y-87733095D01*
X123101809Y-87780714D01*
X122958952Y-87780714D01*
X122768476Y-87733095D01*
X122673238Y-87685476D01*
X122578000Y-87590238D01*
X122530380Y-87447380D01*
X122530380Y-87352142D01*
X122578000Y-87209285D01*
X122625619Y-87161666D01*
X122625619Y-86780714D02*
X122578000Y-86733095D01*
X122530380Y-86637857D01*
X122530380Y-86399761D01*
X122578000Y-86304523D01*
X122625619Y-86256904D01*
X122720857Y-86209285D01*
X122816095Y-86209285D01*
X122958952Y-86256904D01*
X123530380Y-86828333D01*
X123530380Y-86209285D01*
G04 #@! TO.C,J1*
X173350490Y-83309212D02*
X174064776Y-83309212D01*
X174207633Y-83356831D01*
X174302871Y-83452069D01*
X174350490Y-83594926D01*
X174350490Y-83690164D01*
X174350490Y-82309212D02*
X174350490Y-82880640D01*
X174350490Y-82594926D02*
X173350490Y-82594926D01*
X173493348Y-82690164D01*
X173588586Y-82785402D01*
X173636205Y-82880640D01*
G04 #@! TO.C,J2*
X173350490Y-85849212D02*
X174064776Y-85849212D01*
X174207633Y-85896831D01*
X174302871Y-85992069D01*
X174350490Y-86134926D01*
X174350490Y-86230164D01*
X173445729Y-85420640D02*
X173398110Y-85373021D01*
X173350490Y-85277783D01*
X173350490Y-85039688D01*
X173398110Y-84944450D01*
X173445729Y-84896831D01*
X173540967Y-84849212D01*
X173636205Y-84849212D01*
X173779062Y-84896831D01*
X174350490Y-85468259D01*
X174350490Y-84849212D01*
G04 #@! TO.C,J3*
X173350490Y-88389212D02*
X174064776Y-88389212D01*
X174207633Y-88436831D01*
X174302871Y-88532069D01*
X174350490Y-88674926D01*
X174350490Y-88770164D01*
X173350490Y-88008259D02*
X173350490Y-87389212D01*
X173731443Y-87722545D01*
X173731443Y-87579688D01*
X173779062Y-87484450D01*
X173826681Y-87436831D01*
X173921919Y-87389212D01*
X174160014Y-87389212D01*
X174255252Y-87436831D01*
X174302871Y-87484450D01*
X174350490Y-87579688D01*
X174350490Y-87865402D01*
X174302871Y-87960640D01*
X174255252Y-88008259D01*
G04 #@! TO.C,J4*
X173350490Y-90929212D02*
X174064776Y-90929212D01*
X174207633Y-90976831D01*
X174302871Y-91072069D01*
X174350490Y-91214926D01*
X174350490Y-91310164D01*
X173683824Y-90024450D02*
X174350490Y-90024450D01*
X173302871Y-90262545D02*
X174017157Y-90500640D01*
X174017157Y-89881593D01*
G04 #@! TO.C,J5*
X134790380Y-79708333D02*
X135504666Y-79708333D01*
X135647523Y-79755952D01*
X135742761Y-79851190D01*
X135790380Y-79994047D01*
X135790380Y-80089285D01*
X134790380Y-78755952D02*
X134790380Y-79232142D01*
X135266571Y-79279761D01*
X135218952Y-79232142D01*
X135171333Y-79136904D01*
X135171333Y-78898809D01*
X135218952Y-78803571D01*
X135266571Y-78755952D01*
X135361809Y-78708333D01*
X135599904Y-78708333D01*
X135695142Y-78755952D01*
X135742761Y-78803571D01*
X135790380Y-78898809D01*
X135790380Y-79136904D01*
X135742761Y-79232142D01*
X135695142Y-79279761D01*
G04 #@! TO.C,J6*
X173350490Y-93469212D02*
X174064776Y-93469212D01*
X174207633Y-93516831D01*
X174302871Y-93612069D01*
X174350490Y-93754926D01*
X174350490Y-93850164D01*
X173350490Y-92564450D02*
X173350490Y-92754926D01*
X173398110Y-92850164D01*
X173445729Y-92897783D01*
X173588586Y-92993021D01*
X173779062Y-93040640D01*
X174160014Y-93040640D01*
X174255252Y-92993021D01*
X174302871Y-92945402D01*
X174350490Y-92850164D01*
X174350490Y-92659688D01*
X174302871Y-92564450D01*
X174255252Y-92516831D01*
X174160014Y-92469212D01*
X173921919Y-92469212D01*
X173826681Y-92516831D01*
X173779062Y-92564450D01*
X173731443Y-92659688D01*
X173731443Y-92850164D01*
X173779062Y-92945402D01*
X173826681Y-92993021D01*
X173921919Y-93040640D01*
G04 #@! TO.C,J7*
X150365331Y-93640038D02*
X151079617Y-93640038D01*
X151222474Y-93687657D01*
X151317712Y-93782895D01*
X151365331Y-93925752D01*
X151365331Y-94020990D01*
X150365331Y-93259085D02*
X150365331Y-92592419D01*
X151365331Y-93020990D01*
G04 #@! TO.C,J8*
X135338755Y-98458610D02*
X135338755Y-99172896D01*
X135291136Y-99315753D01*
X135195898Y-99410991D01*
X135053041Y-99458610D01*
X134957803Y-99458610D01*
X135957803Y-98887182D02*
X135862565Y-98839563D01*
X135814946Y-98791944D01*
X135767327Y-98696706D01*
X135767327Y-98649087D01*
X135814946Y-98553849D01*
X135862565Y-98506230D01*
X135957803Y-98458610D01*
X136148279Y-98458610D01*
X136243517Y-98506230D01*
X136291136Y-98553849D01*
X136338755Y-98649087D01*
X136338755Y-98696706D01*
X136291136Y-98791944D01*
X136243517Y-98839563D01*
X136148279Y-98887182D01*
X135957803Y-98887182D01*
X135862565Y-98934801D01*
X135814946Y-98982420D01*
X135767327Y-99077658D01*
X135767327Y-99268134D01*
X135814946Y-99363372D01*
X135862565Y-99410991D01*
X135957803Y-99458610D01*
X136148279Y-99458610D01*
X136243517Y-99410991D01*
X136291136Y-99363372D01*
X136338755Y-99268134D01*
X136338755Y-99077658D01*
X136291136Y-98982420D01*
X136243517Y-98934801D01*
X136148279Y-98887182D01*
G04 #@! TO.C,J9*
X139148755Y-98458610D02*
X139148755Y-99172896D01*
X139101136Y-99315753D01*
X139005898Y-99410991D01*
X138863041Y-99458610D01*
X138767803Y-99458610D01*
X139672565Y-99458610D02*
X139863041Y-99458610D01*
X139958279Y-99410991D01*
X140005898Y-99363372D01*
X140101136Y-99220515D01*
X140148755Y-99030039D01*
X140148755Y-98649087D01*
X140101136Y-98553849D01*
X140053517Y-98506230D01*
X139958279Y-98458610D01*
X139767803Y-98458610D01*
X139672565Y-98506230D01*
X139624946Y-98553849D01*
X139577327Y-98649087D01*
X139577327Y-98887182D01*
X139624946Y-98982420D01*
X139672565Y-99030039D01*
X139767803Y-99077658D01*
X139958279Y-99077658D01*
X140053517Y-99030039D01*
X140101136Y-98982420D01*
X140148755Y-98887182D01*
G04 #@! TO.C,J10*
X118530380Y-87494523D02*
X119244666Y-87494523D01*
X119387523Y-87542142D01*
X119482761Y-87637380D01*
X119530380Y-87780238D01*
X119530380Y-87875476D01*
X119530380Y-86494523D02*
X119530380Y-87065952D01*
X119530380Y-86780238D02*
X118530380Y-86780238D01*
X118673238Y-86875476D01*
X118768476Y-86970714D01*
X118816095Y-87065952D01*
X118530380Y-85875476D02*
X118530380Y-85780238D01*
X118578000Y-85685000D01*
X118625619Y-85637380D01*
X118720857Y-85589761D01*
X118911333Y-85542142D01*
X119149428Y-85542142D01*
X119339904Y-85589761D01*
X119435142Y-85637380D01*
X119482761Y-85685000D01*
X119530380Y-85780238D01*
X119530380Y-85875476D01*
X119482761Y-85970714D01*
X119435142Y-86018333D01*
X119339904Y-86065952D01*
X119149428Y-86113571D01*
X118911333Y-86113571D01*
X118720857Y-86065952D01*
X118625619Y-86018333D01*
X118578000Y-85970714D01*
X118530380Y-85875476D01*
G04 #@! TO.C,J11*
X119550380Y-97964523D02*
X120264666Y-97964523D01*
X120407523Y-98012142D01*
X120502761Y-98107380D01*
X120550380Y-98250238D01*
X120550380Y-98345476D01*
X120550380Y-96964523D02*
X120550380Y-97535952D01*
X120550380Y-97250238D02*
X119550380Y-97250238D01*
X119693238Y-97345476D01*
X119788476Y-97440714D01*
X119836095Y-97535952D01*
X120550380Y-96012142D02*
X120550380Y-96583571D01*
X120550380Y-96297857D02*
X119550380Y-96297857D01*
X119693238Y-96393095D01*
X119788476Y-96488333D01*
X119836095Y-96583571D01*
G04 #@! TO.C,J12*
X131468814Y-98525949D02*
X131468814Y-99240235D01*
X131421195Y-99383092D01*
X131325957Y-99478330D01*
X131183099Y-99525949D01*
X131087861Y-99525949D01*
X132468814Y-99525949D02*
X131897385Y-99525949D01*
X132183099Y-99525949D02*
X132183099Y-98525949D01*
X132087861Y-98668807D01*
X131992623Y-98764045D01*
X131897385Y-98811664D01*
X132849766Y-98621188D02*
X132897385Y-98573569D01*
X132992623Y-98525949D01*
X133230718Y-98525949D01*
X133325957Y-98573569D01*
X133373576Y-98621188D01*
X133421195Y-98716426D01*
X133421195Y-98811664D01*
X133373576Y-98954521D01*
X132802147Y-99525949D01*
X133421195Y-99525949D01*
G04 #@! TO.C,J13*
X142482565Y-98458610D02*
X142482565Y-99172896D01*
X142434946Y-99315753D01*
X142339708Y-99410991D01*
X142196850Y-99458610D01*
X142101612Y-99458610D01*
X143482565Y-99458610D02*
X142911136Y-99458610D01*
X143196850Y-99458610D02*
X143196850Y-98458610D01*
X143101612Y-98601468D01*
X143006374Y-98696706D01*
X142911136Y-98744325D01*
X143815898Y-98458610D02*
X144434946Y-98458610D01*
X144101612Y-98839563D01*
X144244469Y-98839563D01*
X144339708Y-98887182D01*
X144387327Y-98934801D01*
X144434946Y-99030039D01*
X144434946Y-99268134D01*
X144387327Y-99363372D01*
X144339708Y-99410991D01*
X144244469Y-99458610D01*
X143958755Y-99458610D01*
X143863517Y-99410991D01*
X143815898Y-99363372D01*
G04 #@! TO.C,J14*
X118530380Y-104004523D02*
X119244666Y-104004523D01*
X119387523Y-104052142D01*
X119482761Y-104147380D01*
X119530380Y-104290238D01*
X119530380Y-104385476D01*
X119530380Y-103004523D02*
X119530380Y-103575952D01*
X119530380Y-103290238D02*
X118530380Y-103290238D01*
X118673238Y-103385476D01*
X118768476Y-103480714D01*
X118816095Y-103575952D01*
X118863714Y-102147380D02*
X119530380Y-102147380D01*
X118482761Y-102385476D02*
X119197047Y-102623571D01*
X119197047Y-102004523D01*
G04 #@! TO.C,J15*
X112728476Y-108247380D02*
X112728476Y-108961666D01*
X112680857Y-109104523D01*
X112585619Y-109199761D01*
X112442761Y-109247380D01*
X112347523Y-109247380D01*
X113728476Y-109247380D02*
X113157047Y-109247380D01*
X113442761Y-109247380D02*
X113442761Y-108247380D01*
X113347523Y-108390238D01*
X113252285Y-108485476D01*
X113157047Y-108533095D01*
X114633238Y-108247380D02*
X114157047Y-108247380D01*
X114109428Y-108723571D01*
X114157047Y-108675952D01*
X114252285Y-108628333D01*
X114490380Y-108628333D01*
X114585619Y-108675952D01*
X114633238Y-108723571D01*
X114680857Y-108818809D01*
X114680857Y-109056904D01*
X114633238Y-109152142D01*
X114585619Y-109199761D01*
X114490380Y-109247380D01*
X114252285Y-109247380D01*
X114157047Y-109199761D01*
X114109428Y-109152142D01*
G04 #@! TO.C,J16*
X116538476Y-108247380D02*
X116538476Y-108961666D01*
X116490857Y-109104523D01*
X116395619Y-109199761D01*
X116252761Y-109247380D01*
X116157523Y-109247380D01*
X117538476Y-109247380D02*
X116967047Y-109247380D01*
X117252761Y-109247380D02*
X117252761Y-108247380D01*
X117157523Y-108390238D01*
X117062285Y-108485476D01*
X116967047Y-108533095D01*
X118395619Y-108247380D02*
X118205142Y-108247380D01*
X118109904Y-108295000D01*
X118062285Y-108342619D01*
X117967047Y-108485476D01*
X117919428Y-108675952D01*
X117919428Y-109056904D01*
X117967047Y-109152142D01*
X118014666Y-109199761D01*
X118109904Y-109247380D01*
X118300380Y-109247380D01*
X118395619Y-109199761D01*
X118443238Y-109152142D01*
X118490857Y-109056904D01*
X118490857Y-108818809D01*
X118443238Y-108723571D01*
X118395619Y-108675952D01*
X118300380Y-108628333D01*
X118109904Y-108628333D01*
X118014666Y-108675952D01*
X117967047Y-108723571D01*
X117919428Y-108818809D01*
G04 #@! TO.C,J17*
X147018476Y-96397380D02*
X147018476Y-97111666D01*
X146970857Y-97254523D01*
X146875619Y-97349761D01*
X146732761Y-97397380D01*
X146637523Y-97397380D01*
X148018476Y-97397380D02*
X147447047Y-97397380D01*
X147732761Y-97397380D02*
X147732761Y-96397380D01*
X147637523Y-96540238D01*
X147542285Y-96635476D01*
X147447047Y-96683095D01*
X148351809Y-96397380D02*
X149018476Y-96397380D01*
X148589904Y-97397380D01*
G04 #@! TO.C,R1*
X127341333Y-77457380D02*
X127008000Y-76981190D01*
X126769904Y-77457380D02*
X126769904Y-76457380D01*
X127150857Y-76457380D01*
X127246095Y-76505000D01*
X127293714Y-76552619D01*
X127341333Y-76647857D01*
X127341333Y-76790714D01*
X127293714Y-76885952D01*
X127246095Y-76933571D01*
X127150857Y-76981190D01*
X126769904Y-76981190D01*
X128293714Y-77457380D02*
X127722285Y-77457380D01*
X128008000Y-77457380D02*
X128008000Y-76457380D01*
X127912761Y-76600238D01*
X127817523Y-76695476D01*
X127722285Y-76743095D01*
G04 #@! TO.C,U1*
X132216095Y-93337380D02*
X132216095Y-94146904D01*
X132263714Y-94242142D01*
X132311333Y-94289761D01*
X132406571Y-94337380D01*
X132597047Y-94337380D01*
X132692285Y-94289761D01*
X132739904Y-94242142D01*
X132787523Y-94146904D01*
X132787523Y-93337380D01*
X133787523Y-94337380D02*
X133216095Y-94337380D01*
X133501809Y-94337380D02*
X133501809Y-93337380D01*
X133406571Y-93480238D01*
X133311333Y-93575476D01*
X133216095Y-93623095D01*
G04 #@! TD*
M02*
