G04 #@! TF.GenerationSoftware,KiCad,Pcbnew,(5.0.0)*
G04 #@! TF.CreationDate,2019-03-29T10:48:20+00:00*
G04 #@! TF.ProjectId,Actuators,4163747561746F72732E6B696361645F,rev?*
G04 #@! TF.SameCoordinates,Original*
G04 #@! TF.FileFunction,Soldermask,Bot*
G04 #@! TF.FilePolarity,Negative*
%FSLAX46Y46*%
G04 Gerber Fmt 4.6, Leading zero omitted, Abs format (unit mm)*
G04 Created by KiCad (PCBNEW (5.0.0)) date 03/29/19 10:48:20*
%MOMM*%
%LPD*%
G01*
G04 APERTURE LIST*
%ADD10C,0.100000*%
G04 APERTURE END LIST*
D10*
G36*
X125560712Y-121871088D02*
X125930510Y-122024263D01*
X125930513Y-122024265D01*
X126263325Y-122246643D01*
X126546357Y-122529675D01*
X126730204Y-122804822D01*
X126768737Y-122862490D01*
X126921912Y-123232288D01*
X127000000Y-123624864D01*
X127000000Y-124025136D01*
X126921912Y-124417712D01*
X126768737Y-124787510D01*
X126768735Y-124787513D01*
X126546357Y-125120325D01*
X126263325Y-125403357D01*
X125930513Y-125625735D01*
X125930510Y-125625737D01*
X125560712Y-125778912D01*
X125168136Y-125857000D01*
X124767864Y-125857000D01*
X124375288Y-125778912D01*
X124005490Y-125625737D01*
X124005487Y-125625735D01*
X123672675Y-125403357D01*
X123389643Y-125120325D01*
X123167265Y-124787513D01*
X123167263Y-124787510D01*
X123014088Y-124417712D01*
X122936000Y-124025136D01*
X122936000Y-123624864D01*
X123014088Y-123232288D01*
X123167263Y-122862490D01*
X123205796Y-122804822D01*
X123389643Y-122529675D01*
X123672675Y-122246643D01*
X124005487Y-122024265D01*
X124005490Y-122024263D01*
X124375288Y-121871088D01*
X124767864Y-121793000D01*
X125168136Y-121793000D01*
X125560712Y-121871088D01*
X125560712Y-121871088D01*
G37*
G36*
X139107294Y-122821496D02*
X139227726Y-122858029D01*
X139270087Y-122870879D01*
X139420112Y-122951068D01*
X139551612Y-123058988D01*
X139659532Y-123190488D01*
X139739721Y-123340512D01*
X139742745Y-123350480D01*
X139789104Y-123503305D01*
X139789104Y-123503307D01*
X139801600Y-123630179D01*
X139801600Y-124019820D01*
X139801076Y-124025136D01*
X139789104Y-124146694D01*
X139787538Y-124151855D01*
X139739721Y-124309488D01*
X139659532Y-124459512D01*
X139551612Y-124591012D01*
X139420112Y-124698932D01*
X139270088Y-124779121D01*
X139242433Y-124787510D01*
X139107295Y-124828504D01*
X138994432Y-124839620D01*
X138938001Y-124845178D01*
X138938000Y-124845178D01*
X138768706Y-124828504D01*
X138633568Y-124787510D01*
X138605913Y-124779121D01*
X138455889Y-124698932D01*
X138365946Y-124625117D01*
X138324388Y-124591012D01*
X138216469Y-124459512D01*
X138216467Y-124459509D01*
X138136279Y-124309488D01*
X138123429Y-124267127D01*
X138086896Y-124146695D01*
X138078565Y-124062112D01*
X138074400Y-124019821D01*
X138074400Y-123630180D01*
X138086896Y-123503308D01*
X138086896Y-123503306D01*
X138136278Y-123340517D01*
X138136279Y-123340513D01*
X138216468Y-123190488D01*
X138324388Y-123058988D01*
X138455888Y-122951068D01*
X138605912Y-122870879D01*
X138648273Y-122858029D01*
X138768705Y-122821496D01*
X138881568Y-122810380D01*
X138937999Y-122804822D01*
X138938000Y-122804822D01*
X139107294Y-122821496D01*
X139107294Y-122821496D01*
G37*
G36*
X174667294Y-122821496D02*
X174787726Y-122858029D01*
X174830087Y-122870879D01*
X174980112Y-122951068D01*
X175111612Y-123058988D01*
X175219532Y-123190488D01*
X175299721Y-123340512D01*
X175302745Y-123350480D01*
X175349104Y-123503305D01*
X175349104Y-123503307D01*
X175361600Y-123630179D01*
X175361600Y-124019820D01*
X175361076Y-124025136D01*
X175349104Y-124146694D01*
X175347538Y-124151855D01*
X175299721Y-124309488D01*
X175219532Y-124459512D01*
X175111612Y-124591012D01*
X174980112Y-124698932D01*
X174830088Y-124779121D01*
X174802433Y-124787510D01*
X174667295Y-124828504D01*
X174554432Y-124839620D01*
X174498001Y-124845178D01*
X174498000Y-124845178D01*
X174328706Y-124828504D01*
X174193568Y-124787510D01*
X174165913Y-124779121D01*
X174015889Y-124698932D01*
X173925946Y-124625117D01*
X173884388Y-124591012D01*
X173776469Y-124459512D01*
X173776467Y-124459509D01*
X173696279Y-124309488D01*
X173683429Y-124267127D01*
X173646896Y-124146695D01*
X173638565Y-124062112D01*
X173634400Y-124019821D01*
X173634400Y-123630180D01*
X173646896Y-123503308D01*
X173646896Y-123503306D01*
X173696278Y-123340517D01*
X173696279Y-123340513D01*
X173776468Y-123190488D01*
X173884388Y-123058988D01*
X174015888Y-122951068D01*
X174165912Y-122870879D01*
X174208273Y-122858029D01*
X174328705Y-122821496D01*
X174441568Y-122810380D01*
X174497999Y-122804822D01*
X174498000Y-122804822D01*
X174667294Y-122821496D01*
X174667294Y-122821496D01*
G37*
G36*
X172127294Y-122821496D02*
X172247726Y-122858029D01*
X172290087Y-122870879D01*
X172440112Y-122951068D01*
X172571612Y-123058988D01*
X172679532Y-123190488D01*
X172759721Y-123340512D01*
X172762745Y-123350480D01*
X172809104Y-123503305D01*
X172809104Y-123503307D01*
X172821600Y-123630179D01*
X172821600Y-124019820D01*
X172821076Y-124025136D01*
X172809104Y-124146694D01*
X172807538Y-124151855D01*
X172759721Y-124309488D01*
X172679532Y-124459512D01*
X172571612Y-124591012D01*
X172440112Y-124698932D01*
X172290088Y-124779121D01*
X172262433Y-124787510D01*
X172127295Y-124828504D01*
X172014432Y-124839620D01*
X171958001Y-124845178D01*
X171958000Y-124845178D01*
X171788706Y-124828504D01*
X171653568Y-124787510D01*
X171625913Y-124779121D01*
X171475889Y-124698932D01*
X171385946Y-124625117D01*
X171344388Y-124591012D01*
X171236469Y-124459512D01*
X171236467Y-124459509D01*
X171156279Y-124309488D01*
X171143429Y-124267127D01*
X171106896Y-124146695D01*
X171098565Y-124062112D01*
X171094400Y-124019821D01*
X171094400Y-123630180D01*
X171106896Y-123503308D01*
X171106896Y-123503306D01*
X171156278Y-123340517D01*
X171156279Y-123340513D01*
X171236468Y-123190488D01*
X171344388Y-123058988D01*
X171475888Y-122951068D01*
X171625912Y-122870879D01*
X171668273Y-122858029D01*
X171788705Y-122821496D01*
X171901568Y-122810380D01*
X171957999Y-122804822D01*
X171958000Y-122804822D01*
X172127294Y-122821496D01*
X172127294Y-122821496D01*
G37*
G36*
X169587294Y-122821496D02*
X169707726Y-122858029D01*
X169750087Y-122870879D01*
X169900112Y-122951068D01*
X170031612Y-123058988D01*
X170139532Y-123190488D01*
X170219721Y-123340512D01*
X170222745Y-123350480D01*
X170269104Y-123503305D01*
X170269104Y-123503307D01*
X170281600Y-123630179D01*
X170281600Y-124019820D01*
X170281076Y-124025136D01*
X170269104Y-124146694D01*
X170267538Y-124151855D01*
X170219721Y-124309488D01*
X170139532Y-124459512D01*
X170031612Y-124591012D01*
X169900112Y-124698932D01*
X169750088Y-124779121D01*
X169722433Y-124787510D01*
X169587295Y-124828504D01*
X169474432Y-124839620D01*
X169418001Y-124845178D01*
X169418000Y-124845178D01*
X169248706Y-124828504D01*
X169113568Y-124787510D01*
X169085913Y-124779121D01*
X168935889Y-124698932D01*
X168845946Y-124625117D01*
X168804388Y-124591012D01*
X168696469Y-124459512D01*
X168696467Y-124459509D01*
X168616279Y-124309488D01*
X168603429Y-124267127D01*
X168566896Y-124146695D01*
X168558565Y-124062112D01*
X168554400Y-124019821D01*
X168554400Y-123630180D01*
X168566896Y-123503308D01*
X168566896Y-123503306D01*
X168616278Y-123340517D01*
X168616279Y-123340513D01*
X168696468Y-123190488D01*
X168804388Y-123058988D01*
X168935888Y-122951068D01*
X169085912Y-122870879D01*
X169128273Y-122858029D01*
X169248705Y-122821496D01*
X169361568Y-122810380D01*
X169417999Y-122804822D01*
X169418000Y-122804822D01*
X169587294Y-122821496D01*
X169587294Y-122821496D01*
G37*
G36*
X167047294Y-122821496D02*
X167167726Y-122858029D01*
X167210087Y-122870879D01*
X167360112Y-122951068D01*
X167491612Y-123058988D01*
X167599532Y-123190488D01*
X167679721Y-123340512D01*
X167682745Y-123350480D01*
X167729104Y-123503305D01*
X167729104Y-123503307D01*
X167741600Y-123630179D01*
X167741600Y-124019820D01*
X167741076Y-124025136D01*
X167729104Y-124146694D01*
X167727538Y-124151855D01*
X167679721Y-124309488D01*
X167599532Y-124459512D01*
X167491612Y-124591012D01*
X167360112Y-124698932D01*
X167210088Y-124779121D01*
X167182433Y-124787510D01*
X167047295Y-124828504D01*
X166934432Y-124839620D01*
X166878001Y-124845178D01*
X166878000Y-124845178D01*
X166708706Y-124828504D01*
X166573568Y-124787510D01*
X166545913Y-124779121D01*
X166395889Y-124698932D01*
X166305946Y-124625117D01*
X166264388Y-124591012D01*
X166156469Y-124459512D01*
X166156467Y-124459509D01*
X166076279Y-124309488D01*
X166063429Y-124267127D01*
X166026896Y-124146695D01*
X166018565Y-124062112D01*
X166014400Y-124019821D01*
X166014400Y-123630180D01*
X166026896Y-123503308D01*
X166026896Y-123503306D01*
X166076278Y-123340517D01*
X166076279Y-123340513D01*
X166156468Y-123190488D01*
X166264388Y-123058988D01*
X166395888Y-122951068D01*
X166545912Y-122870879D01*
X166588273Y-122858029D01*
X166708705Y-122821496D01*
X166821568Y-122810380D01*
X166877999Y-122804822D01*
X166878000Y-122804822D01*
X167047294Y-122821496D01*
X167047294Y-122821496D01*
G37*
G36*
X164507294Y-122821496D02*
X164627726Y-122858029D01*
X164670087Y-122870879D01*
X164820112Y-122951068D01*
X164951612Y-123058988D01*
X165059532Y-123190488D01*
X165139721Y-123340512D01*
X165142745Y-123350480D01*
X165189104Y-123503305D01*
X165189104Y-123503307D01*
X165201600Y-123630179D01*
X165201600Y-124019820D01*
X165201076Y-124025136D01*
X165189104Y-124146694D01*
X165187538Y-124151855D01*
X165139721Y-124309488D01*
X165059532Y-124459512D01*
X164951612Y-124591012D01*
X164820112Y-124698932D01*
X164670088Y-124779121D01*
X164642433Y-124787510D01*
X164507295Y-124828504D01*
X164394432Y-124839620D01*
X164338001Y-124845178D01*
X164338000Y-124845178D01*
X164168706Y-124828504D01*
X164033568Y-124787510D01*
X164005913Y-124779121D01*
X163855889Y-124698932D01*
X163765946Y-124625117D01*
X163724388Y-124591012D01*
X163616469Y-124459512D01*
X163616467Y-124459509D01*
X163536279Y-124309488D01*
X163523429Y-124267127D01*
X163486896Y-124146695D01*
X163478565Y-124062112D01*
X163474400Y-124019821D01*
X163474400Y-123630180D01*
X163486896Y-123503308D01*
X163486896Y-123503306D01*
X163536278Y-123340517D01*
X163536279Y-123340513D01*
X163616468Y-123190488D01*
X163724388Y-123058988D01*
X163855888Y-122951068D01*
X164005912Y-122870879D01*
X164048273Y-122858029D01*
X164168705Y-122821496D01*
X164281568Y-122810380D01*
X164337999Y-122804822D01*
X164338000Y-122804822D01*
X164507294Y-122821496D01*
X164507294Y-122821496D01*
G37*
G36*
X161967294Y-122821496D02*
X162087726Y-122858029D01*
X162130087Y-122870879D01*
X162280112Y-122951068D01*
X162411612Y-123058988D01*
X162519532Y-123190488D01*
X162599721Y-123340512D01*
X162602745Y-123350480D01*
X162649104Y-123503305D01*
X162649104Y-123503307D01*
X162661600Y-123630179D01*
X162661600Y-124019820D01*
X162661076Y-124025136D01*
X162649104Y-124146694D01*
X162647538Y-124151855D01*
X162599721Y-124309488D01*
X162519532Y-124459512D01*
X162411612Y-124591012D01*
X162280112Y-124698932D01*
X162130088Y-124779121D01*
X162102433Y-124787510D01*
X161967295Y-124828504D01*
X161854432Y-124839620D01*
X161798001Y-124845178D01*
X161798000Y-124845178D01*
X161628706Y-124828504D01*
X161493568Y-124787510D01*
X161465913Y-124779121D01*
X161315889Y-124698932D01*
X161225946Y-124625117D01*
X161184388Y-124591012D01*
X161076469Y-124459512D01*
X161076467Y-124459509D01*
X160996279Y-124309488D01*
X160983429Y-124267127D01*
X160946896Y-124146695D01*
X160938565Y-124062112D01*
X160934400Y-124019821D01*
X160934400Y-123630180D01*
X160946896Y-123503308D01*
X160946896Y-123503306D01*
X160996278Y-123340517D01*
X160996279Y-123340513D01*
X161076468Y-123190488D01*
X161184388Y-123058988D01*
X161315888Y-122951068D01*
X161465912Y-122870879D01*
X161508273Y-122858029D01*
X161628705Y-122821496D01*
X161741568Y-122810380D01*
X161797999Y-122804822D01*
X161798000Y-122804822D01*
X161967294Y-122821496D01*
X161967294Y-122821496D01*
G37*
G36*
X154347294Y-122821496D02*
X154467726Y-122858029D01*
X154510087Y-122870879D01*
X154660112Y-122951068D01*
X154791612Y-123058988D01*
X154899532Y-123190488D01*
X154979721Y-123340512D01*
X154982745Y-123350480D01*
X155029104Y-123503305D01*
X155029104Y-123503307D01*
X155041600Y-123630179D01*
X155041600Y-124019820D01*
X155041076Y-124025136D01*
X155029104Y-124146694D01*
X155027538Y-124151855D01*
X154979721Y-124309488D01*
X154899532Y-124459512D01*
X154791612Y-124591012D01*
X154660112Y-124698932D01*
X154510088Y-124779121D01*
X154482433Y-124787510D01*
X154347295Y-124828504D01*
X154234432Y-124839620D01*
X154178001Y-124845178D01*
X154178000Y-124845178D01*
X154008706Y-124828504D01*
X153873568Y-124787510D01*
X153845913Y-124779121D01*
X153695889Y-124698932D01*
X153605946Y-124625117D01*
X153564388Y-124591012D01*
X153456469Y-124459512D01*
X153456467Y-124459509D01*
X153376279Y-124309488D01*
X153363429Y-124267127D01*
X153326896Y-124146695D01*
X153318565Y-124062112D01*
X153314400Y-124019821D01*
X153314400Y-123630180D01*
X153326896Y-123503308D01*
X153326896Y-123503306D01*
X153376278Y-123340517D01*
X153376279Y-123340513D01*
X153456468Y-123190488D01*
X153564388Y-123058988D01*
X153695888Y-122951068D01*
X153845912Y-122870879D01*
X153888273Y-122858029D01*
X154008705Y-122821496D01*
X154121568Y-122810380D01*
X154177999Y-122804822D01*
X154178000Y-122804822D01*
X154347294Y-122821496D01*
X154347294Y-122821496D01*
G37*
G36*
X156887294Y-122821496D02*
X157007726Y-122858029D01*
X157050087Y-122870879D01*
X157200112Y-122951068D01*
X157331612Y-123058988D01*
X157439532Y-123190488D01*
X157519721Y-123340512D01*
X157522745Y-123350480D01*
X157569104Y-123503305D01*
X157569104Y-123503307D01*
X157581600Y-123630179D01*
X157581600Y-124019820D01*
X157581076Y-124025136D01*
X157569104Y-124146694D01*
X157567538Y-124151855D01*
X157519721Y-124309488D01*
X157439532Y-124459512D01*
X157331612Y-124591012D01*
X157200112Y-124698932D01*
X157050088Y-124779121D01*
X157022433Y-124787510D01*
X156887295Y-124828504D01*
X156774432Y-124839620D01*
X156718001Y-124845178D01*
X156718000Y-124845178D01*
X156548706Y-124828504D01*
X156413568Y-124787510D01*
X156385913Y-124779121D01*
X156235889Y-124698932D01*
X156145946Y-124625117D01*
X156104388Y-124591012D01*
X155996469Y-124459512D01*
X155996467Y-124459509D01*
X155916279Y-124309488D01*
X155903429Y-124267127D01*
X155866896Y-124146695D01*
X155858565Y-124062112D01*
X155854400Y-124019821D01*
X155854400Y-123630180D01*
X155866896Y-123503308D01*
X155866896Y-123503306D01*
X155916278Y-123340517D01*
X155916279Y-123340513D01*
X155996468Y-123190488D01*
X156104388Y-123058988D01*
X156235888Y-122951068D01*
X156385912Y-122870879D01*
X156428273Y-122858029D01*
X156548705Y-122821496D01*
X156661568Y-122810380D01*
X156717999Y-122804822D01*
X156718000Y-122804822D01*
X156887294Y-122821496D01*
X156887294Y-122821496D01*
G37*
G36*
X141647294Y-122821496D02*
X141767726Y-122858029D01*
X141810087Y-122870879D01*
X141960112Y-122951068D01*
X142091612Y-123058988D01*
X142199532Y-123190488D01*
X142279721Y-123340512D01*
X142282745Y-123350480D01*
X142329104Y-123503305D01*
X142329104Y-123503307D01*
X142341600Y-123630179D01*
X142341600Y-124019820D01*
X142341076Y-124025136D01*
X142329104Y-124146694D01*
X142327538Y-124151855D01*
X142279721Y-124309488D01*
X142199532Y-124459512D01*
X142091612Y-124591012D01*
X141960112Y-124698932D01*
X141810088Y-124779121D01*
X141782433Y-124787510D01*
X141647295Y-124828504D01*
X141534432Y-124839620D01*
X141478001Y-124845178D01*
X141478000Y-124845178D01*
X141308706Y-124828504D01*
X141173568Y-124787510D01*
X141145913Y-124779121D01*
X140995889Y-124698932D01*
X140905946Y-124625117D01*
X140864388Y-124591012D01*
X140756469Y-124459512D01*
X140756467Y-124459509D01*
X140676279Y-124309488D01*
X140663429Y-124267127D01*
X140626896Y-124146695D01*
X140618565Y-124062112D01*
X140614400Y-124019821D01*
X140614400Y-123630180D01*
X140626896Y-123503308D01*
X140626896Y-123503306D01*
X140676278Y-123340517D01*
X140676279Y-123340513D01*
X140756468Y-123190488D01*
X140864388Y-123058988D01*
X140995888Y-122951068D01*
X141145912Y-122870879D01*
X141188273Y-122858029D01*
X141308705Y-122821496D01*
X141421568Y-122810380D01*
X141477999Y-122804822D01*
X141478000Y-122804822D01*
X141647294Y-122821496D01*
X141647294Y-122821496D01*
G37*
G36*
X144187294Y-122821496D02*
X144307726Y-122858029D01*
X144350087Y-122870879D01*
X144500112Y-122951068D01*
X144631612Y-123058988D01*
X144739532Y-123190488D01*
X144819721Y-123340512D01*
X144822745Y-123350480D01*
X144869104Y-123503305D01*
X144869104Y-123503307D01*
X144881600Y-123630179D01*
X144881600Y-124019820D01*
X144881076Y-124025136D01*
X144869104Y-124146694D01*
X144867538Y-124151855D01*
X144819721Y-124309488D01*
X144739532Y-124459512D01*
X144631612Y-124591012D01*
X144500112Y-124698932D01*
X144350088Y-124779121D01*
X144322433Y-124787510D01*
X144187295Y-124828504D01*
X144074432Y-124839620D01*
X144018001Y-124845178D01*
X144018000Y-124845178D01*
X143848706Y-124828504D01*
X143713568Y-124787510D01*
X143685913Y-124779121D01*
X143535889Y-124698932D01*
X143445946Y-124625117D01*
X143404388Y-124591012D01*
X143296469Y-124459512D01*
X143296467Y-124459509D01*
X143216279Y-124309488D01*
X143203429Y-124267127D01*
X143166896Y-124146695D01*
X143158565Y-124062112D01*
X143154400Y-124019821D01*
X143154400Y-123630180D01*
X143166896Y-123503308D01*
X143166896Y-123503306D01*
X143216278Y-123340517D01*
X143216279Y-123340513D01*
X143296468Y-123190488D01*
X143404388Y-123058988D01*
X143535888Y-122951068D01*
X143685912Y-122870879D01*
X143728273Y-122858029D01*
X143848705Y-122821496D01*
X143961568Y-122810380D01*
X144017999Y-122804822D01*
X144018000Y-122804822D01*
X144187294Y-122821496D01*
X144187294Y-122821496D01*
G37*
G36*
X149267294Y-122821496D02*
X149387726Y-122858029D01*
X149430087Y-122870879D01*
X149580112Y-122951068D01*
X149711612Y-123058988D01*
X149819532Y-123190488D01*
X149899721Y-123340512D01*
X149902745Y-123350480D01*
X149949104Y-123503305D01*
X149949104Y-123503307D01*
X149961600Y-123630179D01*
X149961600Y-124019820D01*
X149961076Y-124025136D01*
X149949104Y-124146694D01*
X149947538Y-124151855D01*
X149899721Y-124309488D01*
X149819532Y-124459512D01*
X149711612Y-124591012D01*
X149580112Y-124698932D01*
X149430088Y-124779121D01*
X149402433Y-124787510D01*
X149267295Y-124828504D01*
X149154432Y-124839620D01*
X149098001Y-124845178D01*
X149098000Y-124845178D01*
X148928706Y-124828504D01*
X148793568Y-124787510D01*
X148765913Y-124779121D01*
X148615889Y-124698932D01*
X148525946Y-124625117D01*
X148484388Y-124591012D01*
X148376469Y-124459512D01*
X148376467Y-124459509D01*
X148296279Y-124309488D01*
X148283429Y-124267127D01*
X148246896Y-124146695D01*
X148238565Y-124062112D01*
X148234400Y-124019821D01*
X148234400Y-123630180D01*
X148246896Y-123503308D01*
X148246896Y-123503306D01*
X148296278Y-123340517D01*
X148296279Y-123340513D01*
X148376468Y-123190488D01*
X148484388Y-123058988D01*
X148615888Y-122951068D01*
X148765912Y-122870879D01*
X148808273Y-122858029D01*
X148928705Y-122821496D01*
X149041568Y-122810380D01*
X149097999Y-122804822D01*
X149098000Y-122804822D01*
X149267294Y-122821496D01*
X149267294Y-122821496D01*
G37*
G36*
X151807294Y-122821496D02*
X151927726Y-122858029D01*
X151970087Y-122870879D01*
X152120112Y-122951068D01*
X152251612Y-123058988D01*
X152359532Y-123190488D01*
X152439721Y-123340512D01*
X152442745Y-123350480D01*
X152489104Y-123503305D01*
X152489104Y-123503307D01*
X152501600Y-123630179D01*
X152501600Y-124019820D01*
X152501076Y-124025136D01*
X152489104Y-124146694D01*
X152487538Y-124151855D01*
X152439721Y-124309488D01*
X152359532Y-124459512D01*
X152251612Y-124591012D01*
X152120112Y-124698932D01*
X151970088Y-124779121D01*
X151942433Y-124787510D01*
X151807295Y-124828504D01*
X151694432Y-124839620D01*
X151638001Y-124845178D01*
X151638000Y-124845178D01*
X151468706Y-124828504D01*
X151333568Y-124787510D01*
X151305913Y-124779121D01*
X151155889Y-124698932D01*
X151065946Y-124625117D01*
X151024388Y-124591012D01*
X150916469Y-124459512D01*
X150916467Y-124459509D01*
X150836279Y-124309488D01*
X150823429Y-124267127D01*
X150786896Y-124146695D01*
X150778565Y-124062112D01*
X150774400Y-124019821D01*
X150774400Y-123630180D01*
X150786896Y-123503308D01*
X150786896Y-123503306D01*
X150836278Y-123340517D01*
X150836279Y-123340513D01*
X150916468Y-123190488D01*
X151024388Y-123058988D01*
X151155888Y-122951068D01*
X151305912Y-122870879D01*
X151348273Y-122858029D01*
X151468705Y-122821496D01*
X151581568Y-122810380D01*
X151637999Y-122804822D01*
X151638000Y-122804822D01*
X151807294Y-122821496D01*
X151807294Y-122821496D01*
G37*
G36*
X146727294Y-122821496D02*
X146847726Y-122858029D01*
X146890087Y-122870879D01*
X147040112Y-122951068D01*
X147171612Y-123058988D01*
X147279532Y-123190488D01*
X147359721Y-123340512D01*
X147362745Y-123350480D01*
X147409104Y-123503305D01*
X147409104Y-123503307D01*
X147421600Y-123630179D01*
X147421600Y-124019820D01*
X147421076Y-124025136D01*
X147409104Y-124146694D01*
X147407538Y-124151855D01*
X147359721Y-124309488D01*
X147279532Y-124459512D01*
X147171612Y-124591012D01*
X147040112Y-124698932D01*
X146890088Y-124779121D01*
X146862433Y-124787510D01*
X146727295Y-124828504D01*
X146614432Y-124839620D01*
X146558001Y-124845178D01*
X146558000Y-124845178D01*
X146388706Y-124828504D01*
X146253568Y-124787510D01*
X146225913Y-124779121D01*
X146075889Y-124698932D01*
X145985946Y-124625117D01*
X145944388Y-124591012D01*
X145836469Y-124459512D01*
X145836467Y-124459509D01*
X145756279Y-124309488D01*
X145743429Y-124267127D01*
X145706896Y-124146695D01*
X145698565Y-124062112D01*
X145694400Y-124019821D01*
X145694400Y-123630180D01*
X145706896Y-123503308D01*
X145706896Y-123503306D01*
X145756278Y-123340517D01*
X145756279Y-123340513D01*
X145836468Y-123190488D01*
X145944388Y-123058988D01*
X146075888Y-122951068D01*
X146225912Y-122870879D01*
X146268273Y-122858029D01*
X146388705Y-122821496D01*
X146501568Y-122810380D01*
X146557999Y-122804822D01*
X146558000Y-122804822D01*
X146727294Y-122821496D01*
X146727294Y-122821496D01*
G37*
G36*
X113704630Y-122987299D02*
X113864855Y-123035903D01*
X114012520Y-123114831D01*
X114141949Y-123221051D01*
X114248169Y-123350480D01*
X114327097Y-123498145D01*
X114375701Y-123658370D01*
X114392112Y-123825000D01*
X114375701Y-123991630D01*
X114327097Y-124151855D01*
X114248169Y-124299520D01*
X114141949Y-124428949D01*
X114012520Y-124535169D01*
X113864855Y-124614097D01*
X113704630Y-124662701D01*
X113579752Y-124675000D01*
X113496248Y-124675000D01*
X113371370Y-124662701D01*
X113211145Y-124614097D01*
X113063480Y-124535169D01*
X112934051Y-124428949D01*
X112827831Y-124299520D01*
X112748903Y-124151855D01*
X112700299Y-123991630D01*
X112683888Y-123825000D01*
X112700299Y-123658370D01*
X112748903Y-123498145D01*
X112827831Y-123350480D01*
X112934051Y-123221051D01*
X113063480Y-123114831D01*
X113211145Y-123035903D01*
X113371370Y-122987299D01*
X113496248Y-122975000D01*
X113579752Y-122975000D01*
X113704630Y-122987299D01*
X113704630Y-122987299D01*
G37*
G36*
X117514630Y-122987299D02*
X117674855Y-123035903D01*
X117822520Y-123114831D01*
X117951949Y-123221051D01*
X118058169Y-123350480D01*
X118137097Y-123498145D01*
X118185701Y-123658370D01*
X118202112Y-123825000D01*
X118185701Y-123991630D01*
X118137097Y-124151855D01*
X118058169Y-124299520D01*
X117951949Y-124428949D01*
X117822520Y-124535169D01*
X117674855Y-124614097D01*
X117514630Y-124662701D01*
X117389752Y-124675000D01*
X117306248Y-124675000D01*
X117181370Y-124662701D01*
X117021145Y-124614097D01*
X116873480Y-124535169D01*
X116744051Y-124428949D01*
X116637831Y-124299520D01*
X116558903Y-124151855D01*
X116510299Y-123991630D01*
X116493888Y-123825000D01*
X116510299Y-123658370D01*
X116558903Y-123498145D01*
X116637831Y-123350480D01*
X116744051Y-123221051D01*
X116873480Y-123114831D01*
X117021145Y-123035903D01*
X117181370Y-122987299D01*
X117306248Y-122975000D01*
X117389752Y-122975000D01*
X117514630Y-122987299D01*
X117514630Y-122987299D01*
G37*
G36*
X113704630Y-120447299D02*
X113864855Y-120495903D01*
X114012520Y-120574831D01*
X114141949Y-120681051D01*
X114248169Y-120810480D01*
X114327097Y-120958145D01*
X114375701Y-121118370D01*
X114392112Y-121285000D01*
X114375701Y-121451630D01*
X114327097Y-121611855D01*
X114248169Y-121759520D01*
X114141949Y-121888949D01*
X114012520Y-121995169D01*
X113864855Y-122074097D01*
X113704630Y-122122701D01*
X113579752Y-122135000D01*
X113496248Y-122135000D01*
X113371370Y-122122701D01*
X113211145Y-122074097D01*
X113063480Y-121995169D01*
X112934051Y-121888949D01*
X112827831Y-121759520D01*
X112748903Y-121611855D01*
X112700299Y-121451630D01*
X112683888Y-121285000D01*
X112700299Y-121118370D01*
X112748903Y-120958145D01*
X112827831Y-120810480D01*
X112934051Y-120681051D01*
X113063480Y-120574831D01*
X113211145Y-120495903D01*
X113371370Y-120447299D01*
X113496248Y-120435000D01*
X113579752Y-120435000D01*
X113704630Y-120447299D01*
X113704630Y-120447299D01*
G37*
G36*
X117514630Y-120447299D02*
X117674855Y-120495903D01*
X117822520Y-120574831D01*
X117951949Y-120681051D01*
X118058169Y-120810480D01*
X118137097Y-120958145D01*
X118185701Y-121118370D01*
X118202112Y-121285000D01*
X118185701Y-121451630D01*
X118137097Y-121611855D01*
X118058169Y-121759520D01*
X117951949Y-121888949D01*
X117822520Y-121995169D01*
X117674855Y-122074097D01*
X117514630Y-122122701D01*
X117389752Y-122135000D01*
X117306248Y-122135000D01*
X117181370Y-122122701D01*
X117021145Y-122074097D01*
X116873480Y-121995169D01*
X116744051Y-121888949D01*
X116637831Y-121759520D01*
X116558903Y-121611855D01*
X116510299Y-121451630D01*
X116493888Y-121285000D01*
X116510299Y-121118370D01*
X116558903Y-120958145D01*
X116637831Y-120810480D01*
X116744051Y-120681051D01*
X116873480Y-120574831D01*
X117021145Y-120495903D01*
X117181370Y-120447299D01*
X117306248Y-120435000D01*
X117389752Y-120435000D01*
X117514630Y-120447299D01*
X117514630Y-120447299D01*
G37*
G36*
X177630712Y-116791088D02*
X178000510Y-116944263D01*
X178000513Y-116944265D01*
X178333325Y-117166643D01*
X178616357Y-117449675D01*
X178738066Y-117631826D01*
X178838737Y-117782490D01*
X178991912Y-118152288D01*
X179070000Y-118544864D01*
X179070000Y-118945136D01*
X178991912Y-119337712D01*
X178838737Y-119707510D01*
X178838735Y-119707513D01*
X178616357Y-120040325D01*
X178333325Y-120323357D01*
X178000513Y-120545735D01*
X178000510Y-120545737D01*
X177630712Y-120698912D01*
X177238136Y-120777000D01*
X176837864Y-120777000D01*
X176445288Y-120698912D01*
X176075490Y-120545737D01*
X176075487Y-120545735D01*
X175742675Y-120323357D01*
X175459643Y-120040325D01*
X175237265Y-119707513D01*
X175237263Y-119707510D01*
X175084088Y-119337712D01*
X175006000Y-118945136D01*
X175006000Y-118544864D01*
X175084088Y-118152288D01*
X175237263Y-117782490D01*
X175337934Y-117631826D01*
X175459643Y-117449675D01*
X175742675Y-117166643D01*
X176075487Y-116944265D01*
X176075490Y-116944263D01*
X176445288Y-116791088D01*
X176837864Y-116713000D01*
X177238136Y-116713000D01*
X177630712Y-116791088D01*
X177630712Y-116791088D01*
G37*
G36*
X113704630Y-117907299D02*
X113864855Y-117955903D01*
X114012520Y-118034831D01*
X114141949Y-118141051D01*
X114248169Y-118270480D01*
X114327097Y-118418145D01*
X114375701Y-118578370D01*
X114392112Y-118745000D01*
X114375701Y-118911630D01*
X114327097Y-119071855D01*
X114248169Y-119219520D01*
X114141949Y-119348949D01*
X114012520Y-119455169D01*
X113864855Y-119534097D01*
X113704630Y-119582701D01*
X113579752Y-119595000D01*
X113496248Y-119595000D01*
X113371370Y-119582701D01*
X113211145Y-119534097D01*
X113063480Y-119455169D01*
X112934051Y-119348949D01*
X112827831Y-119219520D01*
X112748903Y-119071855D01*
X112700299Y-118911630D01*
X112683888Y-118745000D01*
X112700299Y-118578370D01*
X112748903Y-118418145D01*
X112827831Y-118270480D01*
X112934051Y-118141051D01*
X113063480Y-118034831D01*
X113211145Y-117955903D01*
X113371370Y-117907299D01*
X113496248Y-117895000D01*
X113579752Y-117895000D01*
X113704630Y-117907299D01*
X113704630Y-117907299D01*
G37*
G36*
X117514630Y-117907299D02*
X117674855Y-117955903D01*
X117822520Y-118034831D01*
X117951949Y-118141051D01*
X118058169Y-118270480D01*
X118137097Y-118418145D01*
X118185701Y-118578370D01*
X118202112Y-118745000D01*
X118185701Y-118911630D01*
X118137097Y-119071855D01*
X118058169Y-119219520D01*
X117951949Y-119348949D01*
X117822520Y-119455169D01*
X117674855Y-119534097D01*
X117514630Y-119582701D01*
X117389752Y-119595000D01*
X117306248Y-119595000D01*
X117181370Y-119582701D01*
X117021145Y-119534097D01*
X116873480Y-119455169D01*
X116744051Y-119348949D01*
X116637831Y-119219520D01*
X116558903Y-119071855D01*
X116510299Y-118911630D01*
X116493888Y-118745000D01*
X116510299Y-118578370D01*
X116558903Y-118418145D01*
X116637831Y-118270480D01*
X116744051Y-118141051D01*
X116873480Y-118034831D01*
X117021145Y-117955903D01*
X117181370Y-117907299D01*
X117306248Y-117895000D01*
X117389752Y-117895000D01*
X117514630Y-117907299D01*
X117514630Y-117907299D01*
G37*
G36*
X141595649Y-116682717D02*
X141634827Y-116686576D01*
X141710228Y-116709449D01*
X141785629Y-116732321D01*
X141924608Y-116806608D01*
X142046422Y-116906578D01*
X142146392Y-117028392D01*
X142220679Y-117167371D01*
X142266424Y-117318174D01*
X142281870Y-117475000D01*
X142266424Y-117631826D01*
X142220679Y-117782629D01*
X142146392Y-117921608D01*
X142046422Y-118043422D01*
X141924608Y-118143392D01*
X141785629Y-118217679D01*
X141710227Y-118240552D01*
X141634827Y-118263424D01*
X141595649Y-118267283D01*
X141517295Y-118275000D01*
X141438705Y-118275000D01*
X141360351Y-118267283D01*
X141321173Y-118263424D01*
X141245773Y-118240552D01*
X141170371Y-118217679D01*
X141031392Y-118143392D01*
X140909578Y-118043422D01*
X140809608Y-117921608D01*
X140735321Y-117782629D01*
X140689576Y-117631826D01*
X140674130Y-117475000D01*
X140689576Y-117318174D01*
X140735321Y-117167371D01*
X140809608Y-117028392D01*
X140909578Y-116906578D01*
X141031392Y-116806608D01*
X141170371Y-116732321D01*
X141245772Y-116709449D01*
X141321173Y-116686576D01*
X141360351Y-116682717D01*
X141438705Y-116675000D01*
X141517295Y-116675000D01*
X141595649Y-116682717D01*
X141595649Y-116682717D01*
G37*
G36*
X156835649Y-116682717D02*
X156874827Y-116686576D01*
X156950228Y-116709449D01*
X157025629Y-116732321D01*
X157164608Y-116806608D01*
X157286422Y-116906578D01*
X157386392Y-117028392D01*
X157460679Y-117167371D01*
X157506424Y-117318174D01*
X157521870Y-117475000D01*
X157506424Y-117631826D01*
X157460679Y-117782629D01*
X157386392Y-117921608D01*
X157286422Y-118043422D01*
X157164608Y-118143392D01*
X157025629Y-118217679D01*
X156950228Y-118240551D01*
X156874827Y-118263424D01*
X156835649Y-118267283D01*
X156757295Y-118275000D01*
X156678705Y-118275000D01*
X156600351Y-118267283D01*
X156561173Y-118263424D01*
X156485773Y-118240552D01*
X156410371Y-118217679D01*
X156271392Y-118143392D01*
X156149578Y-118043422D01*
X156049608Y-117921608D01*
X155975321Y-117782629D01*
X155929576Y-117631826D01*
X155914130Y-117475000D01*
X155929576Y-117318174D01*
X155975321Y-117167371D01*
X156049608Y-117028392D01*
X156149578Y-116906578D01*
X156271392Y-116806608D01*
X156410371Y-116732321D01*
X156485772Y-116709449D01*
X156561173Y-116686576D01*
X156600351Y-116682717D01*
X156678705Y-116675000D01*
X156757295Y-116675000D01*
X156835649Y-116682717D01*
X156835649Y-116682717D01*
G37*
G36*
X159375649Y-116682717D02*
X159414827Y-116686576D01*
X159490228Y-116709449D01*
X159565629Y-116732321D01*
X159704608Y-116806608D01*
X159826422Y-116906578D01*
X159926392Y-117028392D01*
X160000679Y-117167371D01*
X160046424Y-117318174D01*
X160061870Y-117475000D01*
X160046424Y-117631826D01*
X160000679Y-117782629D01*
X159926392Y-117921608D01*
X159826422Y-118043422D01*
X159704608Y-118143392D01*
X159565629Y-118217679D01*
X159490228Y-118240551D01*
X159414827Y-118263424D01*
X159375649Y-118267283D01*
X159297295Y-118275000D01*
X159218705Y-118275000D01*
X159140351Y-118267283D01*
X159101173Y-118263424D01*
X159025773Y-118240552D01*
X158950371Y-118217679D01*
X158811392Y-118143392D01*
X158689578Y-118043422D01*
X158589608Y-117921608D01*
X158515321Y-117782629D01*
X158469576Y-117631826D01*
X158454130Y-117475000D01*
X158469576Y-117318174D01*
X158515321Y-117167371D01*
X158589608Y-117028392D01*
X158689578Y-116906578D01*
X158811392Y-116806608D01*
X158950371Y-116732321D01*
X159025772Y-116709449D01*
X159101173Y-116686576D01*
X159140351Y-116682717D01*
X159218705Y-116675000D01*
X159297295Y-116675000D01*
X159375649Y-116682717D01*
X159375649Y-116682717D01*
G37*
G36*
X127038000Y-118275000D02*
X125438000Y-118275000D01*
X125438000Y-116675000D01*
X127038000Y-116675000D01*
X127038000Y-118275000D01*
X127038000Y-118275000D01*
G37*
G36*
X128895649Y-116682717D02*
X128934827Y-116686576D01*
X129010228Y-116709449D01*
X129085629Y-116732321D01*
X129224608Y-116806608D01*
X129346422Y-116906578D01*
X129446392Y-117028392D01*
X129520679Y-117167371D01*
X129566424Y-117318174D01*
X129581870Y-117475000D01*
X129566424Y-117631826D01*
X129520679Y-117782629D01*
X129446392Y-117921608D01*
X129346422Y-118043422D01*
X129224608Y-118143392D01*
X129085629Y-118217679D01*
X129010227Y-118240552D01*
X128934827Y-118263424D01*
X128895649Y-118267283D01*
X128817295Y-118275000D01*
X128738705Y-118275000D01*
X128660351Y-118267283D01*
X128621173Y-118263424D01*
X128545773Y-118240552D01*
X128470371Y-118217679D01*
X128331392Y-118143392D01*
X128209578Y-118043422D01*
X128109608Y-117921608D01*
X128035321Y-117782629D01*
X127989576Y-117631826D01*
X127974130Y-117475000D01*
X127989576Y-117318174D01*
X128035321Y-117167371D01*
X128109608Y-117028392D01*
X128209578Y-116906578D01*
X128331392Y-116806608D01*
X128470371Y-116732321D01*
X128545772Y-116709449D01*
X128621173Y-116686576D01*
X128660351Y-116682717D01*
X128738705Y-116675000D01*
X128817295Y-116675000D01*
X128895649Y-116682717D01*
X128895649Y-116682717D01*
G37*
G36*
X131435649Y-116682717D02*
X131474827Y-116686576D01*
X131550228Y-116709449D01*
X131625629Y-116732321D01*
X131764608Y-116806608D01*
X131886422Y-116906578D01*
X131986392Y-117028392D01*
X132060679Y-117167371D01*
X132106424Y-117318174D01*
X132121870Y-117475000D01*
X132106424Y-117631826D01*
X132060679Y-117782629D01*
X131986392Y-117921608D01*
X131886422Y-118043422D01*
X131764608Y-118143392D01*
X131625629Y-118217679D01*
X131550227Y-118240552D01*
X131474827Y-118263424D01*
X131435649Y-118267283D01*
X131357295Y-118275000D01*
X131278705Y-118275000D01*
X131200351Y-118267283D01*
X131161173Y-118263424D01*
X131085773Y-118240552D01*
X131010371Y-118217679D01*
X130871392Y-118143392D01*
X130749578Y-118043422D01*
X130649608Y-117921608D01*
X130575321Y-117782629D01*
X130529576Y-117631826D01*
X130514130Y-117475000D01*
X130529576Y-117318174D01*
X130575321Y-117167371D01*
X130649608Y-117028392D01*
X130749578Y-116906578D01*
X130871392Y-116806608D01*
X131010371Y-116732321D01*
X131085772Y-116709449D01*
X131161173Y-116686576D01*
X131200351Y-116682717D01*
X131278705Y-116675000D01*
X131357295Y-116675000D01*
X131435649Y-116682717D01*
X131435649Y-116682717D01*
G37*
G36*
X133975649Y-116682717D02*
X134014827Y-116686576D01*
X134090228Y-116709449D01*
X134165629Y-116732321D01*
X134304608Y-116806608D01*
X134426422Y-116906578D01*
X134526392Y-117028392D01*
X134600679Y-117167371D01*
X134646424Y-117318174D01*
X134661870Y-117475000D01*
X134646424Y-117631826D01*
X134600679Y-117782629D01*
X134526392Y-117921608D01*
X134426422Y-118043422D01*
X134304608Y-118143392D01*
X134165629Y-118217679D01*
X134090227Y-118240552D01*
X134014827Y-118263424D01*
X133975649Y-118267283D01*
X133897295Y-118275000D01*
X133818705Y-118275000D01*
X133740351Y-118267283D01*
X133701173Y-118263424D01*
X133625773Y-118240552D01*
X133550371Y-118217679D01*
X133411392Y-118143392D01*
X133289578Y-118043422D01*
X133189608Y-117921608D01*
X133115321Y-117782629D01*
X133069576Y-117631826D01*
X133054130Y-117475000D01*
X133069576Y-117318174D01*
X133115321Y-117167371D01*
X133189608Y-117028392D01*
X133289578Y-116906578D01*
X133411392Y-116806608D01*
X133550371Y-116732321D01*
X133625772Y-116709449D01*
X133701173Y-116686576D01*
X133740351Y-116682717D01*
X133818705Y-116675000D01*
X133897295Y-116675000D01*
X133975649Y-116682717D01*
X133975649Y-116682717D01*
G37*
G36*
X136515649Y-116682717D02*
X136554827Y-116686576D01*
X136630228Y-116709449D01*
X136705629Y-116732321D01*
X136844608Y-116806608D01*
X136966422Y-116906578D01*
X137066392Y-117028392D01*
X137140679Y-117167371D01*
X137186424Y-117318174D01*
X137201870Y-117475000D01*
X137186424Y-117631826D01*
X137140679Y-117782629D01*
X137066392Y-117921608D01*
X136966422Y-118043422D01*
X136844608Y-118143392D01*
X136705629Y-118217679D01*
X136630227Y-118240552D01*
X136554827Y-118263424D01*
X136515649Y-118267283D01*
X136437295Y-118275000D01*
X136358705Y-118275000D01*
X136280351Y-118267283D01*
X136241173Y-118263424D01*
X136165773Y-118240552D01*
X136090371Y-118217679D01*
X135951392Y-118143392D01*
X135829578Y-118043422D01*
X135729608Y-117921608D01*
X135655321Y-117782629D01*
X135609576Y-117631826D01*
X135594130Y-117475000D01*
X135609576Y-117318174D01*
X135655321Y-117167371D01*
X135729608Y-117028392D01*
X135829578Y-116906578D01*
X135951392Y-116806608D01*
X136090371Y-116732321D01*
X136165772Y-116709449D01*
X136241173Y-116686576D01*
X136280351Y-116682717D01*
X136358705Y-116675000D01*
X136437295Y-116675000D01*
X136515649Y-116682717D01*
X136515649Y-116682717D01*
G37*
G36*
X139055649Y-116682717D02*
X139094827Y-116686576D01*
X139170228Y-116709449D01*
X139245629Y-116732321D01*
X139384608Y-116806608D01*
X139506422Y-116906578D01*
X139606392Y-117028392D01*
X139680679Y-117167371D01*
X139726424Y-117318174D01*
X139741870Y-117475000D01*
X139726424Y-117631826D01*
X139680679Y-117782629D01*
X139606392Y-117921608D01*
X139506422Y-118043422D01*
X139384608Y-118143392D01*
X139245629Y-118217679D01*
X139170227Y-118240552D01*
X139094827Y-118263424D01*
X139055649Y-118267283D01*
X138977295Y-118275000D01*
X138898705Y-118275000D01*
X138820351Y-118267283D01*
X138781173Y-118263424D01*
X138705773Y-118240552D01*
X138630371Y-118217679D01*
X138491392Y-118143392D01*
X138369578Y-118043422D01*
X138269608Y-117921608D01*
X138195321Y-117782629D01*
X138149576Y-117631826D01*
X138134130Y-117475000D01*
X138149576Y-117318174D01*
X138195321Y-117167371D01*
X138269608Y-117028392D01*
X138369578Y-116906578D01*
X138491392Y-116806608D01*
X138630371Y-116732321D01*
X138705772Y-116709449D01*
X138781173Y-116686576D01*
X138820351Y-116682717D01*
X138898705Y-116675000D01*
X138977295Y-116675000D01*
X139055649Y-116682717D01*
X139055649Y-116682717D01*
G37*
G36*
X144135649Y-116682717D02*
X144174827Y-116686576D01*
X144250228Y-116709449D01*
X144325629Y-116732321D01*
X144464608Y-116806608D01*
X144586422Y-116906578D01*
X144686392Y-117028392D01*
X144760679Y-117167371D01*
X144806424Y-117318174D01*
X144821870Y-117475000D01*
X144806424Y-117631826D01*
X144760679Y-117782629D01*
X144686392Y-117921608D01*
X144586422Y-118043422D01*
X144464608Y-118143392D01*
X144325629Y-118217679D01*
X144250227Y-118240552D01*
X144174827Y-118263424D01*
X144135649Y-118267283D01*
X144057295Y-118275000D01*
X143978705Y-118275000D01*
X143900351Y-118267283D01*
X143861173Y-118263424D01*
X143785773Y-118240552D01*
X143710371Y-118217679D01*
X143571392Y-118143392D01*
X143449578Y-118043422D01*
X143349608Y-117921608D01*
X143275321Y-117782629D01*
X143229576Y-117631826D01*
X143214130Y-117475000D01*
X143229576Y-117318174D01*
X143275321Y-117167371D01*
X143349608Y-117028392D01*
X143449578Y-116906578D01*
X143571392Y-116806608D01*
X143710371Y-116732321D01*
X143785772Y-116709449D01*
X143861173Y-116686576D01*
X143900351Y-116682717D01*
X143978705Y-116675000D01*
X144057295Y-116675000D01*
X144135649Y-116682717D01*
X144135649Y-116682717D01*
G37*
G36*
X146675649Y-116682717D02*
X146714827Y-116686576D01*
X146790228Y-116709449D01*
X146865629Y-116732321D01*
X147004608Y-116806608D01*
X147126422Y-116906578D01*
X147226392Y-117028392D01*
X147300679Y-117167371D01*
X147346424Y-117318174D01*
X147361870Y-117475000D01*
X147346424Y-117631826D01*
X147300679Y-117782629D01*
X147226392Y-117921608D01*
X147126422Y-118043422D01*
X147004608Y-118143392D01*
X146865629Y-118217679D01*
X146790227Y-118240552D01*
X146714827Y-118263424D01*
X146675649Y-118267283D01*
X146597295Y-118275000D01*
X146518705Y-118275000D01*
X146440351Y-118267283D01*
X146401173Y-118263424D01*
X146325773Y-118240552D01*
X146250371Y-118217679D01*
X146111392Y-118143392D01*
X145989578Y-118043422D01*
X145889608Y-117921608D01*
X145815321Y-117782629D01*
X145769576Y-117631826D01*
X145754130Y-117475000D01*
X145769576Y-117318174D01*
X145815321Y-117167371D01*
X145889608Y-117028392D01*
X145989578Y-116906578D01*
X146111392Y-116806608D01*
X146250371Y-116732321D01*
X146325772Y-116709449D01*
X146401173Y-116686576D01*
X146440351Y-116682717D01*
X146518705Y-116675000D01*
X146597295Y-116675000D01*
X146675649Y-116682717D01*
X146675649Y-116682717D01*
G37*
G36*
X149215649Y-116682717D02*
X149254827Y-116686576D01*
X149330228Y-116709449D01*
X149405629Y-116732321D01*
X149544608Y-116806608D01*
X149666422Y-116906578D01*
X149766392Y-117028392D01*
X149840679Y-117167371D01*
X149886424Y-117318174D01*
X149901870Y-117475000D01*
X149886424Y-117631826D01*
X149840679Y-117782629D01*
X149766392Y-117921608D01*
X149666422Y-118043422D01*
X149544608Y-118143392D01*
X149405629Y-118217679D01*
X149330228Y-118240551D01*
X149254827Y-118263424D01*
X149215649Y-118267283D01*
X149137295Y-118275000D01*
X149058705Y-118275000D01*
X148980351Y-118267283D01*
X148941173Y-118263424D01*
X148865773Y-118240552D01*
X148790371Y-118217679D01*
X148651392Y-118143392D01*
X148529578Y-118043422D01*
X148429608Y-117921608D01*
X148355321Y-117782629D01*
X148309576Y-117631826D01*
X148294130Y-117475000D01*
X148309576Y-117318174D01*
X148355321Y-117167371D01*
X148429608Y-117028392D01*
X148529578Y-116906578D01*
X148651392Y-116806608D01*
X148790371Y-116732321D01*
X148865772Y-116709449D01*
X148941173Y-116686576D01*
X148980351Y-116682717D01*
X149058705Y-116675000D01*
X149137295Y-116675000D01*
X149215649Y-116682717D01*
X149215649Y-116682717D01*
G37*
G36*
X151755649Y-116682717D02*
X151794827Y-116686576D01*
X151870228Y-116709449D01*
X151945629Y-116732321D01*
X152084608Y-116806608D01*
X152206422Y-116906578D01*
X152306392Y-117028392D01*
X152380679Y-117167371D01*
X152426424Y-117318174D01*
X152441870Y-117475000D01*
X152426424Y-117631826D01*
X152380679Y-117782629D01*
X152306392Y-117921608D01*
X152206422Y-118043422D01*
X152084608Y-118143392D01*
X151945629Y-118217679D01*
X151870228Y-118240551D01*
X151794827Y-118263424D01*
X151755649Y-118267283D01*
X151677295Y-118275000D01*
X151598705Y-118275000D01*
X151520351Y-118267283D01*
X151481173Y-118263424D01*
X151405773Y-118240552D01*
X151330371Y-118217679D01*
X151191392Y-118143392D01*
X151069578Y-118043422D01*
X150969608Y-117921608D01*
X150895321Y-117782629D01*
X150849576Y-117631826D01*
X150834130Y-117475000D01*
X150849576Y-117318174D01*
X150895321Y-117167371D01*
X150969608Y-117028392D01*
X151069578Y-116906578D01*
X151191392Y-116806608D01*
X151330371Y-116732321D01*
X151405772Y-116709449D01*
X151481173Y-116686576D01*
X151520351Y-116682717D01*
X151598705Y-116675000D01*
X151677295Y-116675000D01*
X151755649Y-116682717D01*
X151755649Y-116682717D01*
G37*
G36*
X161915649Y-116682717D02*
X161954827Y-116686576D01*
X162030228Y-116709449D01*
X162105629Y-116732321D01*
X162244608Y-116806608D01*
X162366422Y-116906578D01*
X162466392Y-117028392D01*
X162540679Y-117167371D01*
X162586424Y-117318174D01*
X162601870Y-117475000D01*
X162586424Y-117631826D01*
X162540679Y-117782629D01*
X162466392Y-117921608D01*
X162366422Y-118043422D01*
X162244608Y-118143392D01*
X162105629Y-118217679D01*
X162030228Y-118240551D01*
X161954827Y-118263424D01*
X161915649Y-118267283D01*
X161837295Y-118275000D01*
X161758705Y-118275000D01*
X161680351Y-118267283D01*
X161641173Y-118263424D01*
X161565773Y-118240552D01*
X161490371Y-118217679D01*
X161351392Y-118143392D01*
X161229578Y-118043422D01*
X161129608Y-117921608D01*
X161055321Y-117782629D01*
X161009576Y-117631826D01*
X160994130Y-117475000D01*
X161009576Y-117318174D01*
X161055321Y-117167371D01*
X161129608Y-117028392D01*
X161229578Y-116906578D01*
X161351392Y-116806608D01*
X161490371Y-116732321D01*
X161565772Y-116709449D01*
X161641173Y-116686576D01*
X161680351Y-116682717D01*
X161758705Y-116675000D01*
X161837295Y-116675000D01*
X161915649Y-116682717D01*
X161915649Y-116682717D01*
G37*
G36*
X154295649Y-116682717D02*
X154334827Y-116686576D01*
X154410228Y-116709449D01*
X154485629Y-116732321D01*
X154624608Y-116806608D01*
X154746422Y-116906578D01*
X154846392Y-117028392D01*
X154920679Y-117167371D01*
X154966424Y-117318174D01*
X154981870Y-117475000D01*
X154966424Y-117631826D01*
X154920679Y-117782629D01*
X154846392Y-117921608D01*
X154746422Y-118043422D01*
X154624608Y-118143392D01*
X154485629Y-118217679D01*
X154410228Y-118240551D01*
X154334827Y-118263424D01*
X154295649Y-118267283D01*
X154217295Y-118275000D01*
X154138705Y-118275000D01*
X154060351Y-118267283D01*
X154021173Y-118263424D01*
X153945773Y-118240552D01*
X153870371Y-118217679D01*
X153731392Y-118143392D01*
X153609578Y-118043422D01*
X153509608Y-117921608D01*
X153435321Y-117782629D01*
X153389576Y-117631826D01*
X153374130Y-117475000D01*
X153389576Y-117318174D01*
X153435321Y-117167371D01*
X153509608Y-117028392D01*
X153609578Y-116906578D01*
X153731392Y-116806608D01*
X153870371Y-116732321D01*
X153945772Y-116709449D01*
X154021173Y-116686576D01*
X154060351Y-116682717D01*
X154138705Y-116675000D01*
X154217295Y-116675000D01*
X154295649Y-116682717D01*
X154295649Y-116682717D01*
G37*
G36*
X113704630Y-115367299D02*
X113864855Y-115415903D01*
X114012520Y-115494831D01*
X114141949Y-115601051D01*
X114248169Y-115730480D01*
X114327097Y-115878145D01*
X114375701Y-116038370D01*
X114392112Y-116205000D01*
X114375701Y-116371630D01*
X114327097Y-116531855D01*
X114248169Y-116679520D01*
X114141949Y-116808949D01*
X114012520Y-116915169D01*
X113864855Y-116994097D01*
X113704630Y-117042701D01*
X113579752Y-117055000D01*
X113496248Y-117055000D01*
X113371370Y-117042701D01*
X113211145Y-116994097D01*
X113063480Y-116915169D01*
X112934051Y-116808949D01*
X112827831Y-116679520D01*
X112748903Y-116531855D01*
X112700299Y-116371630D01*
X112683888Y-116205000D01*
X112700299Y-116038370D01*
X112748903Y-115878145D01*
X112827831Y-115730480D01*
X112934051Y-115601051D01*
X113063480Y-115494831D01*
X113211145Y-115415903D01*
X113371370Y-115367299D01*
X113496248Y-115355000D01*
X113579752Y-115355000D01*
X113704630Y-115367299D01*
X113704630Y-115367299D01*
G37*
G36*
X117514630Y-115367299D02*
X117674855Y-115415903D01*
X117822520Y-115494831D01*
X117951949Y-115601051D01*
X118058169Y-115730480D01*
X118137097Y-115878145D01*
X118185701Y-116038370D01*
X118202112Y-116205000D01*
X118185701Y-116371630D01*
X118137097Y-116531855D01*
X118058169Y-116679520D01*
X117951949Y-116808949D01*
X117822520Y-116915169D01*
X117674855Y-116994097D01*
X117514630Y-117042701D01*
X117389752Y-117055000D01*
X117306248Y-117055000D01*
X117181370Y-117042701D01*
X117021145Y-116994097D01*
X116873480Y-116915169D01*
X116744051Y-116808949D01*
X116637831Y-116679520D01*
X116558903Y-116531855D01*
X116510299Y-116371630D01*
X116493888Y-116205000D01*
X116510299Y-116038370D01*
X116558903Y-115878145D01*
X116637831Y-115730480D01*
X116744051Y-115601051D01*
X116873480Y-115494831D01*
X117021145Y-115415903D01*
X117181370Y-115367299D01*
X117306248Y-115355000D01*
X117389752Y-115355000D01*
X117514630Y-115367299D01*
X117514630Y-115367299D01*
G37*
G36*
X117514630Y-112827299D02*
X117674855Y-112875903D01*
X117822520Y-112954831D01*
X117951949Y-113061051D01*
X118058169Y-113190480D01*
X118137097Y-113338145D01*
X118185701Y-113498370D01*
X118202112Y-113665000D01*
X118185701Y-113831630D01*
X118137097Y-113991855D01*
X118058169Y-114139520D01*
X117951949Y-114268949D01*
X117822520Y-114375169D01*
X117674855Y-114454097D01*
X117514630Y-114502701D01*
X117389752Y-114515000D01*
X117306248Y-114515000D01*
X117181370Y-114502701D01*
X117021145Y-114454097D01*
X116873480Y-114375169D01*
X116744051Y-114268949D01*
X116637831Y-114139520D01*
X116558903Y-113991855D01*
X116510299Y-113831630D01*
X116493888Y-113665000D01*
X116510299Y-113498370D01*
X116558903Y-113338145D01*
X116637831Y-113190480D01*
X116744051Y-113061051D01*
X116873480Y-112954831D01*
X117021145Y-112875903D01*
X117181370Y-112827299D01*
X117306248Y-112815000D01*
X117389752Y-112815000D01*
X117514630Y-112827299D01*
X117514630Y-112827299D01*
G37*
G36*
X113704630Y-112827299D02*
X113864855Y-112875903D01*
X114012520Y-112954831D01*
X114141949Y-113061051D01*
X114248169Y-113190480D01*
X114327097Y-113338145D01*
X114375701Y-113498370D01*
X114392112Y-113665000D01*
X114375701Y-113831630D01*
X114327097Y-113991855D01*
X114248169Y-114139520D01*
X114141949Y-114268949D01*
X114012520Y-114375169D01*
X113864855Y-114454097D01*
X113704630Y-114502701D01*
X113579752Y-114515000D01*
X113496248Y-114515000D01*
X113371370Y-114502701D01*
X113211145Y-114454097D01*
X113063480Y-114375169D01*
X112934051Y-114268949D01*
X112827831Y-114139520D01*
X112748903Y-113991855D01*
X112700299Y-113831630D01*
X112683888Y-113665000D01*
X112700299Y-113498370D01*
X112748903Y-113338145D01*
X112827831Y-113190480D01*
X112934051Y-113061051D01*
X113063480Y-112954831D01*
X113211145Y-112875903D01*
X113371370Y-112827299D01*
X113496248Y-112815000D01*
X113579752Y-112815000D01*
X113704630Y-112827299D01*
X113704630Y-112827299D01*
G37*
G36*
X118198000Y-111975000D02*
X116498000Y-111975000D01*
X116498000Y-110275000D01*
X118198000Y-110275000D01*
X118198000Y-111975000D01*
X118198000Y-111975000D01*
G37*
G36*
X114388000Y-111975000D02*
X112688000Y-111975000D01*
X112688000Y-110275000D01*
X114388000Y-110275000D01*
X114388000Y-111975000D01*
X114388000Y-111975000D01*
G37*
G36*
X117074030Y-103709469D02*
X117074033Y-103709470D01*
X117074034Y-103709470D01*
X117262535Y-103766651D01*
X117262537Y-103766652D01*
X117436260Y-103859509D01*
X117588528Y-103984472D01*
X117713491Y-104136740D01*
X117806348Y-104310463D01*
X117863531Y-104498970D01*
X117882838Y-104695000D01*
X117863531Y-104891030D01*
X117806348Y-105079537D01*
X117713491Y-105253260D01*
X117588528Y-105405528D01*
X117436260Y-105530491D01*
X117436258Y-105530492D01*
X117262535Y-105623349D01*
X117074034Y-105680530D01*
X117074033Y-105680530D01*
X117074030Y-105680531D01*
X116927124Y-105695000D01*
X115228876Y-105695000D01*
X115081970Y-105680531D01*
X115081967Y-105680530D01*
X115081966Y-105680530D01*
X114893465Y-105623349D01*
X114719742Y-105530492D01*
X114719740Y-105530491D01*
X114567472Y-105405528D01*
X114442509Y-105253260D01*
X114349652Y-105079537D01*
X114292469Y-104891030D01*
X114273162Y-104695000D01*
X114292469Y-104498970D01*
X114349652Y-104310463D01*
X114442509Y-104136740D01*
X114567472Y-103984472D01*
X114719740Y-103859509D01*
X114893463Y-103766652D01*
X114893465Y-103766651D01*
X115081966Y-103709470D01*
X115081967Y-103709470D01*
X115081970Y-103709469D01*
X115228876Y-103695000D01*
X116927124Y-103695000D01*
X117074030Y-103709469D01*
X117074030Y-103709469D01*
G37*
G36*
X133975649Y-101442717D02*
X134014827Y-101446576D01*
X134090227Y-101469448D01*
X134165629Y-101492321D01*
X134304608Y-101566608D01*
X134426422Y-101666578D01*
X134526392Y-101788392D01*
X134600679Y-101927371D01*
X134646424Y-102078174D01*
X134661870Y-102235000D01*
X134646424Y-102391826D01*
X134600679Y-102542629D01*
X134526392Y-102681608D01*
X134426422Y-102803422D01*
X134304608Y-102903392D01*
X134165629Y-102977679D01*
X134090228Y-103000551D01*
X134014827Y-103023424D01*
X133975649Y-103027283D01*
X133897295Y-103035000D01*
X133818705Y-103035000D01*
X133740351Y-103027283D01*
X133701173Y-103023424D01*
X133625772Y-103000551D01*
X133550371Y-102977679D01*
X133411392Y-102903392D01*
X133289578Y-102803422D01*
X133189608Y-102681608D01*
X133115321Y-102542629D01*
X133069576Y-102391826D01*
X133054130Y-102235000D01*
X133069576Y-102078174D01*
X133115321Y-101927371D01*
X133189608Y-101788392D01*
X133289578Y-101666578D01*
X133411392Y-101566608D01*
X133550371Y-101492321D01*
X133625773Y-101469448D01*
X133701173Y-101446576D01*
X133740351Y-101442717D01*
X133818705Y-101435000D01*
X133897295Y-101435000D01*
X133975649Y-101442717D01*
X133975649Y-101442717D01*
G37*
G36*
X141595649Y-101442717D02*
X141634827Y-101446576D01*
X141710227Y-101469448D01*
X141785629Y-101492321D01*
X141924608Y-101566608D01*
X142046422Y-101666578D01*
X142146392Y-101788392D01*
X142220679Y-101927371D01*
X142266424Y-102078174D01*
X142281870Y-102235000D01*
X142266424Y-102391826D01*
X142220679Y-102542629D01*
X142146392Y-102681608D01*
X142046422Y-102803422D01*
X141924608Y-102903392D01*
X141785629Y-102977679D01*
X141710228Y-103000551D01*
X141634827Y-103023424D01*
X141595649Y-103027283D01*
X141517295Y-103035000D01*
X141438705Y-103035000D01*
X141360351Y-103027283D01*
X141321173Y-103023424D01*
X141245772Y-103000551D01*
X141170371Y-102977679D01*
X141031392Y-102903392D01*
X140909578Y-102803422D01*
X140809608Y-102681608D01*
X140735321Y-102542629D01*
X140689576Y-102391826D01*
X140674130Y-102235000D01*
X140689576Y-102078174D01*
X140735321Y-101927371D01*
X140809608Y-101788392D01*
X140909578Y-101666578D01*
X141031392Y-101566608D01*
X141170371Y-101492321D01*
X141245773Y-101469448D01*
X141321173Y-101446576D01*
X141360351Y-101442717D01*
X141438705Y-101435000D01*
X141517295Y-101435000D01*
X141595649Y-101442717D01*
X141595649Y-101442717D01*
G37*
G36*
X149215649Y-101442717D02*
X149254827Y-101446576D01*
X149330227Y-101469448D01*
X149405629Y-101492321D01*
X149544608Y-101566608D01*
X149666422Y-101666578D01*
X149766392Y-101788392D01*
X149840679Y-101927371D01*
X149886424Y-102078174D01*
X149901870Y-102235000D01*
X149886424Y-102391826D01*
X149840679Y-102542629D01*
X149766392Y-102681608D01*
X149666422Y-102803422D01*
X149544608Y-102903392D01*
X149405629Y-102977679D01*
X149330228Y-103000551D01*
X149254827Y-103023424D01*
X149215649Y-103027283D01*
X149137295Y-103035000D01*
X149058705Y-103035000D01*
X148980351Y-103027283D01*
X148941173Y-103023424D01*
X148865772Y-103000551D01*
X148790371Y-102977679D01*
X148651392Y-102903392D01*
X148529578Y-102803422D01*
X148429608Y-102681608D01*
X148355321Y-102542629D01*
X148309576Y-102391826D01*
X148294130Y-102235000D01*
X148309576Y-102078174D01*
X148355321Y-101927371D01*
X148429608Y-101788392D01*
X148529578Y-101666578D01*
X148651392Y-101566608D01*
X148790371Y-101492321D01*
X148865773Y-101469448D01*
X148941173Y-101446576D01*
X148980351Y-101442717D01*
X149058705Y-101435000D01*
X149137295Y-101435000D01*
X149215649Y-101442717D01*
X149215649Y-101442717D01*
G37*
G36*
X151755649Y-101442717D02*
X151794827Y-101446576D01*
X151870227Y-101469448D01*
X151945629Y-101492321D01*
X152084608Y-101566608D01*
X152206422Y-101666578D01*
X152306392Y-101788392D01*
X152380679Y-101927371D01*
X152426424Y-102078174D01*
X152441870Y-102235000D01*
X152426424Y-102391826D01*
X152380679Y-102542629D01*
X152306392Y-102681608D01*
X152206422Y-102803422D01*
X152084608Y-102903392D01*
X151945629Y-102977679D01*
X151870228Y-103000551D01*
X151794827Y-103023424D01*
X151755649Y-103027283D01*
X151677295Y-103035000D01*
X151598705Y-103035000D01*
X151520351Y-103027283D01*
X151481173Y-103023424D01*
X151405772Y-103000551D01*
X151330371Y-102977679D01*
X151191392Y-102903392D01*
X151069578Y-102803422D01*
X150969608Y-102681608D01*
X150895321Y-102542629D01*
X150849576Y-102391826D01*
X150834130Y-102235000D01*
X150849576Y-102078174D01*
X150895321Y-101927371D01*
X150969608Y-101788392D01*
X151069578Y-101666578D01*
X151191392Y-101566608D01*
X151330371Y-101492321D01*
X151405773Y-101469448D01*
X151481173Y-101446576D01*
X151520351Y-101442717D01*
X151598705Y-101435000D01*
X151677295Y-101435000D01*
X151755649Y-101442717D01*
X151755649Y-101442717D01*
G37*
G36*
X126355649Y-101442717D02*
X126394827Y-101446576D01*
X126470227Y-101469448D01*
X126545629Y-101492321D01*
X126684608Y-101566608D01*
X126806422Y-101666578D01*
X126906392Y-101788392D01*
X126980679Y-101927371D01*
X127026424Y-102078174D01*
X127041870Y-102235000D01*
X127026424Y-102391826D01*
X126980679Y-102542629D01*
X126906392Y-102681608D01*
X126806422Y-102803422D01*
X126684608Y-102903392D01*
X126545629Y-102977679D01*
X126470228Y-103000551D01*
X126394827Y-103023424D01*
X126355649Y-103027283D01*
X126277295Y-103035000D01*
X126198705Y-103035000D01*
X126120351Y-103027283D01*
X126081173Y-103023424D01*
X126005772Y-103000551D01*
X125930371Y-102977679D01*
X125791392Y-102903392D01*
X125669578Y-102803422D01*
X125569608Y-102681608D01*
X125495321Y-102542629D01*
X125449576Y-102391826D01*
X125434130Y-102235000D01*
X125449576Y-102078174D01*
X125495321Y-101927371D01*
X125569608Y-101788392D01*
X125669578Y-101666578D01*
X125791392Y-101566608D01*
X125930371Y-101492321D01*
X126005773Y-101469448D01*
X126081173Y-101446576D01*
X126120351Y-101442717D01*
X126198705Y-101435000D01*
X126277295Y-101435000D01*
X126355649Y-101442717D01*
X126355649Y-101442717D01*
G37*
G36*
X128895649Y-101442717D02*
X128934827Y-101446576D01*
X129010227Y-101469448D01*
X129085629Y-101492321D01*
X129224608Y-101566608D01*
X129346422Y-101666578D01*
X129446392Y-101788392D01*
X129520679Y-101927371D01*
X129566424Y-102078174D01*
X129581870Y-102235000D01*
X129566424Y-102391826D01*
X129520679Y-102542629D01*
X129446392Y-102681608D01*
X129346422Y-102803422D01*
X129224608Y-102903392D01*
X129085629Y-102977679D01*
X129010228Y-103000551D01*
X128934827Y-103023424D01*
X128895649Y-103027283D01*
X128817295Y-103035000D01*
X128738705Y-103035000D01*
X128660351Y-103027283D01*
X128621173Y-103023424D01*
X128545772Y-103000551D01*
X128470371Y-102977679D01*
X128331392Y-102903392D01*
X128209578Y-102803422D01*
X128109608Y-102681608D01*
X128035321Y-102542629D01*
X127989576Y-102391826D01*
X127974130Y-102235000D01*
X127989576Y-102078174D01*
X128035321Y-101927371D01*
X128109608Y-101788392D01*
X128209578Y-101666578D01*
X128331392Y-101566608D01*
X128470371Y-101492321D01*
X128545773Y-101469448D01*
X128621173Y-101446576D01*
X128660351Y-101442717D01*
X128738705Y-101435000D01*
X128817295Y-101435000D01*
X128895649Y-101442717D01*
X128895649Y-101442717D01*
G37*
G36*
X131435649Y-101442717D02*
X131474827Y-101446576D01*
X131550227Y-101469448D01*
X131625629Y-101492321D01*
X131764608Y-101566608D01*
X131886422Y-101666578D01*
X131986392Y-101788392D01*
X132060679Y-101927371D01*
X132106424Y-102078174D01*
X132121870Y-102235000D01*
X132106424Y-102391826D01*
X132060679Y-102542629D01*
X131986392Y-102681608D01*
X131886422Y-102803422D01*
X131764608Y-102903392D01*
X131625629Y-102977679D01*
X131550228Y-103000551D01*
X131474827Y-103023424D01*
X131435649Y-103027283D01*
X131357295Y-103035000D01*
X131278705Y-103035000D01*
X131200351Y-103027283D01*
X131161173Y-103023424D01*
X131085772Y-103000551D01*
X131010371Y-102977679D01*
X130871392Y-102903392D01*
X130749578Y-102803422D01*
X130649608Y-102681608D01*
X130575321Y-102542629D01*
X130529576Y-102391826D01*
X130514130Y-102235000D01*
X130529576Y-102078174D01*
X130575321Y-101927371D01*
X130649608Y-101788392D01*
X130749578Y-101666578D01*
X130871392Y-101566608D01*
X131010371Y-101492321D01*
X131085773Y-101469448D01*
X131161173Y-101446576D01*
X131200351Y-101442717D01*
X131278705Y-101435000D01*
X131357295Y-101435000D01*
X131435649Y-101442717D01*
X131435649Y-101442717D01*
G37*
G36*
X136515649Y-101442717D02*
X136554827Y-101446576D01*
X136630227Y-101469448D01*
X136705629Y-101492321D01*
X136844608Y-101566608D01*
X136966422Y-101666578D01*
X137066392Y-101788392D01*
X137140679Y-101927371D01*
X137186424Y-102078174D01*
X137201870Y-102235000D01*
X137186424Y-102391826D01*
X137140679Y-102542629D01*
X137066392Y-102681608D01*
X136966422Y-102803422D01*
X136844608Y-102903392D01*
X136705629Y-102977679D01*
X136630228Y-103000551D01*
X136554827Y-103023424D01*
X136515649Y-103027283D01*
X136437295Y-103035000D01*
X136358705Y-103035000D01*
X136280351Y-103027283D01*
X136241173Y-103023424D01*
X136165772Y-103000551D01*
X136090371Y-102977679D01*
X135951392Y-102903392D01*
X135829578Y-102803422D01*
X135729608Y-102681608D01*
X135655321Y-102542629D01*
X135609576Y-102391826D01*
X135594130Y-102235000D01*
X135609576Y-102078174D01*
X135655321Y-101927371D01*
X135729608Y-101788392D01*
X135829578Y-101666578D01*
X135951392Y-101566608D01*
X136090371Y-101492321D01*
X136165773Y-101469448D01*
X136241173Y-101446576D01*
X136280351Y-101442717D01*
X136358705Y-101435000D01*
X136437295Y-101435000D01*
X136515649Y-101442717D01*
X136515649Y-101442717D01*
G37*
G36*
X139055649Y-101442717D02*
X139094827Y-101446576D01*
X139170227Y-101469448D01*
X139245629Y-101492321D01*
X139384608Y-101566608D01*
X139506422Y-101666578D01*
X139606392Y-101788392D01*
X139680679Y-101927371D01*
X139726424Y-102078174D01*
X139741870Y-102235000D01*
X139726424Y-102391826D01*
X139680679Y-102542629D01*
X139606392Y-102681608D01*
X139506422Y-102803422D01*
X139384608Y-102903392D01*
X139245629Y-102977679D01*
X139170228Y-103000551D01*
X139094827Y-103023424D01*
X139055649Y-103027283D01*
X138977295Y-103035000D01*
X138898705Y-103035000D01*
X138820351Y-103027283D01*
X138781173Y-103023424D01*
X138705772Y-103000551D01*
X138630371Y-102977679D01*
X138491392Y-102903392D01*
X138369578Y-102803422D01*
X138269608Y-102681608D01*
X138195321Y-102542629D01*
X138149576Y-102391826D01*
X138134130Y-102235000D01*
X138149576Y-102078174D01*
X138195321Y-101927371D01*
X138269608Y-101788392D01*
X138369578Y-101666578D01*
X138491392Y-101566608D01*
X138630371Y-101492321D01*
X138705773Y-101469448D01*
X138781173Y-101446576D01*
X138820351Y-101442717D01*
X138898705Y-101435000D01*
X138977295Y-101435000D01*
X139055649Y-101442717D01*
X139055649Y-101442717D01*
G37*
G36*
X161915649Y-101442717D02*
X161954827Y-101446576D01*
X162030227Y-101469448D01*
X162105629Y-101492321D01*
X162244608Y-101566608D01*
X162366422Y-101666578D01*
X162466392Y-101788392D01*
X162540679Y-101927371D01*
X162586424Y-102078174D01*
X162601870Y-102235000D01*
X162586424Y-102391826D01*
X162540679Y-102542629D01*
X162466392Y-102681608D01*
X162366422Y-102803422D01*
X162244608Y-102903392D01*
X162105629Y-102977679D01*
X162030228Y-103000551D01*
X161954827Y-103023424D01*
X161915649Y-103027283D01*
X161837295Y-103035000D01*
X161758705Y-103035000D01*
X161680351Y-103027283D01*
X161641173Y-103023424D01*
X161565772Y-103000551D01*
X161490371Y-102977679D01*
X161351392Y-102903392D01*
X161229578Y-102803422D01*
X161129608Y-102681608D01*
X161055321Y-102542629D01*
X161009576Y-102391826D01*
X160994130Y-102235000D01*
X161009576Y-102078174D01*
X161055321Y-101927371D01*
X161129608Y-101788392D01*
X161229578Y-101666578D01*
X161351392Y-101566608D01*
X161490371Y-101492321D01*
X161565773Y-101469448D01*
X161641173Y-101446576D01*
X161680351Y-101442717D01*
X161758705Y-101435000D01*
X161837295Y-101435000D01*
X161915649Y-101442717D01*
X161915649Y-101442717D01*
G37*
G36*
X146675649Y-101442717D02*
X146714827Y-101446576D01*
X146790227Y-101469448D01*
X146865629Y-101492321D01*
X147004608Y-101566608D01*
X147126422Y-101666578D01*
X147226392Y-101788392D01*
X147300679Y-101927371D01*
X147346424Y-102078174D01*
X147361870Y-102235000D01*
X147346424Y-102391826D01*
X147300679Y-102542629D01*
X147226392Y-102681608D01*
X147126422Y-102803422D01*
X147004608Y-102903392D01*
X146865629Y-102977679D01*
X146790228Y-103000551D01*
X146714827Y-103023424D01*
X146675649Y-103027283D01*
X146597295Y-103035000D01*
X146518705Y-103035000D01*
X146440351Y-103027283D01*
X146401173Y-103023424D01*
X146325772Y-103000551D01*
X146250371Y-102977679D01*
X146111392Y-102903392D01*
X145989578Y-102803422D01*
X145889608Y-102681608D01*
X145815321Y-102542629D01*
X145769576Y-102391826D01*
X145754130Y-102235000D01*
X145769576Y-102078174D01*
X145815321Y-101927371D01*
X145889608Y-101788392D01*
X145989578Y-101666578D01*
X146111392Y-101566608D01*
X146250371Y-101492321D01*
X146325773Y-101469448D01*
X146401173Y-101446576D01*
X146440351Y-101442717D01*
X146518705Y-101435000D01*
X146597295Y-101435000D01*
X146675649Y-101442717D01*
X146675649Y-101442717D01*
G37*
G36*
X156835649Y-101442717D02*
X156874827Y-101446576D01*
X156950227Y-101469448D01*
X157025629Y-101492321D01*
X157164608Y-101566608D01*
X157286422Y-101666578D01*
X157386392Y-101788392D01*
X157460679Y-101927371D01*
X157506424Y-102078174D01*
X157521870Y-102235000D01*
X157506424Y-102391826D01*
X157460679Y-102542629D01*
X157386392Y-102681608D01*
X157286422Y-102803422D01*
X157164608Y-102903392D01*
X157025629Y-102977679D01*
X156950228Y-103000551D01*
X156874827Y-103023424D01*
X156835649Y-103027283D01*
X156757295Y-103035000D01*
X156678705Y-103035000D01*
X156600351Y-103027283D01*
X156561173Y-103023424D01*
X156485772Y-103000551D01*
X156410371Y-102977679D01*
X156271392Y-102903392D01*
X156149578Y-102803422D01*
X156049608Y-102681608D01*
X155975321Y-102542629D01*
X155929576Y-102391826D01*
X155914130Y-102235000D01*
X155929576Y-102078174D01*
X155975321Y-101927371D01*
X156049608Y-101788392D01*
X156149578Y-101666578D01*
X156271392Y-101566608D01*
X156410371Y-101492321D01*
X156485773Y-101469448D01*
X156561173Y-101446576D01*
X156600351Y-101442717D01*
X156678705Y-101435000D01*
X156757295Y-101435000D01*
X156835649Y-101442717D01*
X156835649Y-101442717D01*
G37*
G36*
X144135649Y-101442717D02*
X144174827Y-101446576D01*
X144250227Y-101469448D01*
X144325629Y-101492321D01*
X144464608Y-101566608D01*
X144586422Y-101666578D01*
X144686392Y-101788392D01*
X144760679Y-101927371D01*
X144806424Y-102078174D01*
X144821870Y-102235000D01*
X144806424Y-102391826D01*
X144760679Y-102542629D01*
X144686392Y-102681608D01*
X144586422Y-102803422D01*
X144464608Y-102903392D01*
X144325629Y-102977679D01*
X144250228Y-103000551D01*
X144174827Y-103023424D01*
X144135649Y-103027283D01*
X144057295Y-103035000D01*
X143978705Y-103035000D01*
X143900351Y-103027283D01*
X143861173Y-103023424D01*
X143785772Y-103000551D01*
X143710371Y-102977679D01*
X143571392Y-102903392D01*
X143449578Y-102803422D01*
X143349608Y-102681608D01*
X143275321Y-102542629D01*
X143229576Y-102391826D01*
X143214130Y-102235000D01*
X143229576Y-102078174D01*
X143275321Y-101927371D01*
X143349608Y-101788392D01*
X143449578Y-101666578D01*
X143571392Y-101566608D01*
X143710371Y-101492321D01*
X143785773Y-101469448D01*
X143861173Y-101446576D01*
X143900351Y-101442717D01*
X143978705Y-101435000D01*
X144057295Y-101435000D01*
X144135649Y-101442717D01*
X144135649Y-101442717D01*
G37*
G36*
X159375649Y-101442717D02*
X159414827Y-101446576D01*
X159490227Y-101469448D01*
X159565629Y-101492321D01*
X159704608Y-101566608D01*
X159826422Y-101666578D01*
X159926392Y-101788392D01*
X160000679Y-101927371D01*
X160046424Y-102078174D01*
X160061870Y-102235000D01*
X160046424Y-102391826D01*
X160000679Y-102542629D01*
X159926392Y-102681608D01*
X159826422Y-102803422D01*
X159704608Y-102903392D01*
X159565629Y-102977679D01*
X159490228Y-103000551D01*
X159414827Y-103023424D01*
X159375649Y-103027283D01*
X159297295Y-103035000D01*
X159218705Y-103035000D01*
X159140351Y-103027283D01*
X159101173Y-103023424D01*
X159025772Y-103000551D01*
X158950371Y-102977679D01*
X158811392Y-102903392D01*
X158689578Y-102803422D01*
X158589608Y-102681608D01*
X158515321Y-102542629D01*
X158469576Y-102391826D01*
X158454130Y-102235000D01*
X158469576Y-102078174D01*
X158515321Y-101927371D01*
X158589608Y-101788392D01*
X158689578Y-101666578D01*
X158811392Y-101566608D01*
X158950371Y-101492321D01*
X159025773Y-101469448D01*
X159101173Y-101446576D01*
X159140351Y-101442717D01*
X159218705Y-101435000D01*
X159297295Y-101435000D01*
X159375649Y-101442717D01*
X159375649Y-101442717D01*
G37*
G36*
X154295649Y-101442717D02*
X154334827Y-101446576D01*
X154410227Y-101469448D01*
X154485629Y-101492321D01*
X154624608Y-101566608D01*
X154746422Y-101666578D01*
X154846392Y-101788392D01*
X154920679Y-101927371D01*
X154966424Y-102078174D01*
X154981870Y-102235000D01*
X154966424Y-102391826D01*
X154920679Y-102542629D01*
X154846392Y-102681608D01*
X154746422Y-102803422D01*
X154624608Y-102903392D01*
X154485629Y-102977679D01*
X154410228Y-103000551D01*
X154334827Y-103023424D01*
X154295649Y-103027283D01*
X154217295Y-103035000D01*
X154138705Y-103035000D01*
X154060351Y-103027283D01*
X154021173Y-103023424D01*
X153945772Y-103000551D01*
X153870371Y-102977679D01*
X153731392Y-102903392D01*
X153609578Y-102803422D01*
X153509608Y-102681608D01*
X153435321Y-102542629D01*
X153389576Y-102391826D01*
X153374130Y-102235000D01*
X153389576Y-102078174D01*
X153435321Y-101927371D01*
X153509608Y-101788392D01*
X153609578Y-101666578D01*
X153731392Y-101566608D01*
X153870371Y-101492321D01*
X153945773Y-101469448D01*
X154021173Y-101446576D01*
X154060351Y-101442717D01*
X154138705Y-101435000D01*
X154217295Y-101435000D01*
X154295649Y-101442717D01*
X154295649Y-101442717D01*
G37*
G36*
X117878000Y-100695000D02*
X114278000Y-100695000D01*
X114278000Y-98695000D01*
X117878000Y-98695000D01*
X117878000Y-100695000D01*
X117878000Y-100695000D01*
G37*
G36*
X125134630Y-96317299D02*
X125294855Y-96365903D01*
X125442520Y-96444831D01*
X125571949Y-96551051D01*
X125678169Y-96680480D01*
X125757097Y-96828145D01*
X125805701Y-96988370D01*
X125822112Y-97155000D01*
X125805701Y-97321630D01*
X125757097Y-97481855D01*
X125678169Y-97629520D01*
X125571949Y-97758949D01*
X125442520Y-97865169D01*
X125294855Y-97944097D01*
X125134630Y-97992701D01*
X125009752Y-98005000D01*
X124926248Y-98005000D01*
X124801370Y-97992701D01*
X124641145Y-97944097D01*
X124493480Y-97865169D01*
X124364051Y-97758949D01*
X124257831Y-97629520D01*
X124178903Y-97481855D01*
X124130299Y-97321630D01*
X124113888Y-97155000D01*
X124130299Y-96988370D01*
X124178903Y-96828145D01*
X124257831Y-96680480D01*
X124364051Y-96551051D01*
X124493480Y-96444831D01*
X124641145Y-96365903D01*
X124801370Y-96317299D01*
X124926248Y-96305000D01*
X125009752Y-96305000D01*
X125134630Y-96317299D01*
X125134630Y-96317299D01*
G37*
G36*
X127674630Y-96317299D02*
X127834855Y-96365903D01*
X127982520Y-96444831D01*
X128111949Y-96551051D01*
X128218169Y-96680480D01*
X128297097Y-96828145D01*
X128345701Y-96988370D01*
X128362112Y-97155000D01*
X128345701Y-97321630D01*
X128297097Y-97481855D01*
X128218169Y-97629520D01*
X128111949Y-97758949D01*
X127982520Y-97865169D01*
X127834855Y-97944097D01*
X127674630Y-97992701D01*
X127549752Y-98005000D01*
X127466248Y-98005000D01*
X127341370Y-97992701D01*
X127181145Y-97944097D01*
X127033480Y-97865169D01*
X126904051Y-97758949D01*
X126797831Y-97629520D01*
X126718903Y-97481855D01*
X126670299Y-97321630D01*
X126653888Y-97155000D01*
X126670299Y-96988370D01*
X126718903Y-96828145D01*
X126797831Y-96680480D01*
X126904051Y-96551051D01*
X127033480Y-96444831D01*
X127181145Y-96365903D01*
X127341370Y-96317299D01*
X127466248Y-96305000D01*
X127549752Y-96305000D01*
X127674630Y-96317299D01*
X127674630Y-96317299D01*
G37*
G36*
X123278000Y-98005000D02*
X121578000Y-98005000D01*
X121578000Y-96305000D01*
X123278000Y-96305000D01*
X123278000Y-98005000D01*
X123278000Y-98005000D01*
G37*
G36*
X133128338Y-97593569D02*
X131428338Y-97593569D01*
X131428338Y-95893569D01*
X133128338Y-95893569D01*
X133128338Y-97593569D01*
X133128338Y-97593569D01*
G37*
G36*
X140332089Y-97526230D02*
X138632089Y-97526230D01*
X138632089Y-95826230D01*
X140332089Y-95826230D01*
X140332089Y-97526230D01*
X140332089Y-97526230D01*
G37*
G36*
X136522089Y-97526230D02*
X134822089Y-97526230D01*
X134822089Y-95826230D01*
X136522089Y-95826230D01*
X136522089Y-97526230D01*
X136522089Y-97526230D01*
G37*
G36*
X144142089Y-97526230D02*
X142442089Y-97526230D01*
X142442089Y-95826230D01*
X144142089Y-95826230D01*
X144142089Y-97526230D01*
X144142089Y-97526230D01*
G37*
G36*
X148678000Y-95465000D02*
X146978000Y-95465000D01*
X146978000Y-93765000D01*
X148678000Y-93765000D01*
X148678000Y-95465000D01*
X148678000Y-95465000D01*
G37*
G36*
X158489581Y-92469004D02*
X158649806Y-92517608D01*
X158797471Y-92596536D01*
X158926900Y-92702756D01*
X159033120Y-92832185D01*
X159112048Y-92979850D01*
X159160652Y-93140075D01*
X159177063Y-93306705D01*
X159160652Y-93473335D01*
X159112048Y-93633560D01*
X159033120Y-93781225D01*
X158926900Y-93910654D01*
X158797471Y-94016874D01*
X158649806Y-94095802D01*
X158489581Y-94144406D01*
X158364703Y-94156705D01*
X158281199Y-94156705D01*
X158156321Y-94144406D01*
X157996096Y-94095802D01*
X157848431Y-94016874D01*
X157719002Y-93910654D01*
X157612782Y-93781225D01*
X157533854Y-93633560D01*
X157485250Y-93473335D01*
X157468839Y-93306705D01*
X157485250Y-93140075D01*
X157533854Y-92979850D01*
X157612782Y-92832185D01*
X157719002Y-92702756D01*
X157848431Y-92596536D01*
X157996096Y-92517608D01*
X158156321Y-92469004D01*
X158281199Y-92456705D01*
X158364703Y-92456705D01*
X158489581Y-92469004D01*
X158489581Y-92469004D01*
G37*
G36*
X154092951Y-94156705D02*
X152392951Y-94156705D01*
X152392951Y-92456705D01*
X154092951Y-92456705D01*
X154092951Y-94156705D01*
X154092951Y-94156705D01*
G37*
G36*
X155949581Y-92469004D02*
X156109806Y-92517608D01*
X156257471Y-92596536D01*
X156386900Y-92702756D01*
X156493120Y-92832185D01*
X156572048Y-92979850D01*
X156620652Y-93140075D01*
X156637063Y-93306705D01*
X156620652Y-93473335D01*
X156572048Y-93633560D01*
X156493120Y-93781225D01*
X156386900Y-93910654D01*
X156257471Y-94016874D01*
X156109806Y-94095802D01*
X155949581Y-94144406D01*
X155824703Y-94156705D01*
X155741199Y-94156705D01*
X155616321Y-94144406D01*
X155456096Y-94095802D01*
X155308431Y-94016874D01*
X155179002Y-93910654D01*
X155072782Y-93781225D01*
X154993854Y-93633560D01*
X154945250Y-93473335D01*
X154928839Y-93306705D01*
X154945250Y-93140075D01*
X154993854Y-92979850D01*
X155072782Y-92832185D01*
X155179002Y-92702756D01*
X155308431Y-92596536D01*
X155456096Y-92517608D01*
X155616321Y-92469004D01*
X155741199Y-92456705D01*
X155824703Y-92456705D01*
X155949581Y-92469004D01*
X155949581Y-92469004D01*
G37*
G36*
X161574740Y-92298178D02*
X161734965Y-92346782D01*
X161882630Y-92425710D01*
X162012059Y-92531930D01*
X162118279Y-92661359D01*
X162197207Y-92809024D01*
X162245811Y-92969249D01*
X162262222Y-93135879D01*
X162245811Y-93302509D01*
X162197207Y-93462734D01*
X162118279Y-93610399D01*
X162012059Y-93739828D01*
X161882630Y-93846048D01*
X161734965Y-93924976D01*
X161574740Y-93973580D01*
X161449862Y-93985879D01*
X161366358Y-93985879D01*
X161241480Y-93973580D01*
X161081255Y-93924976D01*
X160933590Y-93846048D01*
X160804161Y-93739828D01*
X160697941Y-93610399D01*
X160619013Y-93462734D01*
X160570409Y-93302509D01*
X160553998Y-93135879D01*
X160570409Y-92969249D01*
X160619013Y-92809024D01*
X160697941Y-92661359D01*
X160804161Y-92531930D01*
X160933590Y-92425710D01*
X161081255Y-92346782D01*
X161241480Y-92298178D01*
X161366358Y-92285879D01*
X161449862Y-92285879D01*
X161574740Y-92298178D01*
X161574740Y-92298178D01*
G37*
G36*
X172418110Y-93985879D02*
X170718110Y-93985879D01*
X170718110Y-92285879D01*
X172418110Y-92285879D01*
X172418110Y-93985879D01*
X172418110Y-93985879D01*
G37*
G36*
X169194740Y-92298178D02*
X169354965Y-92346782D01*
X169502630Y-92425710D01*
X169632059Y-92531930D01*
X169738279Y-92661359D01*
X169817207Y-92809024D01*
X169865811Y-92969249D01*
X169882222Y-93135879D01*
X169865811Y-93302509D01*
X169817207Y-93462734D01*
X169738279Y-93610399D01*
X169632059Y-93739828D01*
X169502630Y-93846048D01*
X169354965Y-93924976D01*
X169194740Y-93973580D01*
X169069862Y-93985879D01*
X168986358Y-93985879D01*
X168861480Y-93973580D01*
X168701255Y-93924976D01*
X168553590Y-93846048D01*
X168424161Y-93739828D01*
X168317941Y-93610399D01*
X168239013Y-93462734D01*
X168190409Y-93302509D01*
X168173998Y-93135879D01*
X168190409Y-92969249D01*
X168239013Y-92809024D01*
X168317941Y-92661359D01*
X168424161Y-92531930D01*
X168553590Y-92425710D01*
X168701255Y-92346782D01*
X168861480Y-92298178D01*
X168986358Y-92285879D01*
X169069862Y-92285879D01*
X169194740Y-92298178D01*
X169194740Y-92298178D01*
G37*
G36*
X166654740Y-92298178D02*
X166814965Y-92346782D01*
X166962630Y-92425710D01*
X167092059Y-92531930D01*
X167198279Y-92661359D01*
X167277207Y-92809024D01*
X167325811Y-92969249D01*
X167342222Y-93135879D01*
X167325811Y-93302509D01*
X167277207Y-93462734D01*
X167198279Y-93610399D01*
X167092059Y-93739828D01*
X166962630Y-93846048D01*
X166814965Y-93924976D01*
X166654740Y-93973580D01*
X166529862Y-93985879D01*
X166446358Y-93985879D01*
X166321480Y-93973580D01*
X166161255Y-93924976D01*
X166013590Y-93846048D01*
X165884161Y-93739828D01*
X165777941Y-93610399D01*
X165699013Y-93462734D01*
X165650409Y-93302509D01*
X165633998Y-93135879D01*
X165650409Y-92969249D01*
X165699013Y-92809024D01*
X165777941Y-92661359D01*
X165884161Y-92531930D01*
X166013590Y-92425710D01*
X166161255Y-92346782D01*
X166321480Y-92298178D01*
X166446358Y-92285879D01*
X166529862Y-92285879D01*
X166654740Y-92298178D01*
X166654740Y-92298178D01*
G37*
G36*
X164114740Y-92298178D02*
X164274965Y-92346782D01*
X164422630Y-92425710D01*
X164552059Y-92531930D01*
X164658279Y-92661359D01*
X164737207Y-92809024D01*
X164785811Y-92969249D01*
X164802222Y-93135879D01*
X164785811Y-93302509D01*
X164737207Y-93462734D01*
X164658279Y-93610399D01*
X164552059Y-93739828D01*
X164422630Y-93846048D01*
X164274965Y-93924976D01*
X164114740Y-93973580D01*
X163989862Y-93985879D01*
X163906358Y-93985879D01*
X163781480Y-93973580D01*
X163621255Y-93924976D01*
X163473590Y-93846048D01*
X163344161Y-93739828D01*
X163237941Y-93610399D01*
X163159013Y-93462734D01*
X163110409Y-93302509D01*
X163093998Y-93135879D01*
X163110409Y-92969249D01*
X163159013Y-92809024D01*
X163237941Y-92661359D01*
X163344161Y-92531930D01*
X163473590Y-92425710D01*
X163621255Y-92346782D01*
X163781480Y-92298178D01*
X163906358Y-92285879D01*
X163989862Y-92285879D01*
X164114740Y-92298178D01*
X164114740Y-92298178D01*
G37*
G36*
X147994630Y-91237299D02*
X148154855Y-91285903D01*
X148302520Y-91364831D01*
X148431949Y-91471051D01*
X148538169Y-91600480D01*
X148617097Y-91748145D01*
X148665701Y-91908370D01*
X148682112Y-92075000D01*
X148665701Y-92241630D01*
X148617097Y-92401855D01*
X148538169Y-92549520D01*
X148431949Y-92678949D01*
X148302520Y-92785169D01*
X148154855Y-92864097D01*
X147994630Y-92912701D01*
X147869752Y-92925000D01*
X147786248Y-92925000D01*
X147661370Y-92912701D01*
X147501145Y-92864097D01*
X147353480Y-92785169D01*
X147224051Y-92678949D01*
X147117831Y-92549520D01*
X147038903Y-92401855D01*
X146990299Y-92241630D01*
X146973888Y-92075000D01*
X146990299Y-91908370D01*
X147038903Y-91748145D01*
X147117831Y-91600480D01*
X147224051Y-91471051D01*
X147353480Y-91364831D01*
X147501145Y-91285903D01*
X147661370Y-91237299D01*
X147786248Y-91225000D01*
X147869752Y-91225000D01*
X147994630Y-91237299D01*
X147994630Y-91237299D01*
G37*
G36*
X177630712Y-88851088D02*
X178000510Y-89004263D01*
X178000513Y-89004265D01*
X178333325Y-89226643D01*
X178616357Y-89509675D01*
X178782401Y-89758178D01*
X178838737Y-89842490D01*
X178991912Y-90212288D01*
X179070000Y-90604864D01*
X179070000Y-91005136D01*
X178991912Y-91397712D01*
X178838737Y-91767510D01*
X178838735Y-91767513D01*
X178616357Y-92100325D01*
X178333325Y-92383357D01*
X178014280Y-92596536D01*
X178000510Y-92605737D01*
X177630712Y-92758912D01*
X177238136Y-92837000D01*
X176837864Y-92837000D01*
X176445288Y-92758912D01*
X176075490Y-92605737D01*
X176061720Y-92596536D01*
X175742675Y-92383357D01*
X175459643Y-92100325D01*
X175237265Y-91767513D01*
X175237263Y-91767510D01*
X175084088Y-91397712D01*
X175006000Y-91005136D01*
X175006000Y-90604864D01*
X175084088Y-90212288D01*
X175237263Y-89842490D01*
X175293599Y-89758178D01*
X175459643Y-89509675D01*
X175742675Y-89226643D01*
X176075487Y-89004265D01*
X176075490Y-89004263D01*
X176445288Y-88851088D01*
X176837864Y-88773000D01*
X177238136Y-88773000D01*
X177630712Y-88851088D01*
X177630712Y-88851088D01*
G37*
G36*
X153954740Y-89758178D02*
X154114965Y-89806782D01*
X154262630Y-89885710D01*
X154392059Y-89991930D01*
X154498279Y-90121359D01*
X154577207Y-90269024D01*
X154625811Y-90429249D01*
X154642222Y-90595879D01*
X154625811Y-90762509D01*
X154577207Y-90922734D01*
X154498279Y-91070399D01*
X154392059Y-91199828D01*
X154262630Y-91306048D01*
X154114965Y-91384976D01*
X153954740Y-91433580D01*
X153829862Y-91445879D01*
X153746358Y-91445879D01*
X153621480Y-91433580D01*
X153461255Y-91384976D01*
X153313590Y-91306048D01*
X153184161Y-91199828D01*
X153077941Y-91070399D01*
X152999013Y-90922734D01*
X152950409Y-90762509D01*
X152933998Y-90595879D01*
X152950409Y-90429249D01*
X152999013Y-90269024D01*
X153077941Y-90121359D01*
X153184161Y-89991930D01*
X153313590Y-89885710D01*
X153461255Y-89806782D01*
X153621480Y-89758178D01*
X153746358Y-89745879D01*
X153829862Y-89745879D01*
X153954740Y-89758178D01*
X153954740Y-89758178D01*
G37*
G36*
X156494740Y-89758178D02*
X156654965Y-89806782D01*
X156802630Y-89885710D01*
X156932059Y-89991930D01*
X157038279Y-90121359D01*
X157117207Y-90269024D01*
X157165811Y-90429249D01*
X157182222Y-90595879D01*
X157165811Y-90762509D01*
X157117207Y-90922734D01*
X157038279Y-91070399D01*
X156932059Y-91199828D01*
X156802630Y-91306048D01*
X156654965Y-91384976D01*
X156494740Y-91433580D01*
X156369862Y-91445879D01*
X156286358Y-91445879D01*
X156161480Y-91433580D01*
X156001255Y-91384976D01*
X155853590Y-91306048D01*
X155724161Y-91199828D01*
X155617941Y-91070399D01*
X155539013Y-90922734D01*
X155490409Y-90762509D01*
X155473998Y-90595879D01*
X155490409Y-90429249D01*
X155539013Y-90269024D01*
X155617941Y-90121359D01*
X155724161Y-89991930D01*
X155853590Y-89885710D01*
X156001255Y-89806782D01*
X156161480Y-89758178D01*
X156286358Y-89745879D01*
X156369862Y-89745879D01*
X156494740Y-89758178D01*
X156494740Y-89758178D01*
G37*
G36*
X159034740Y-89758178D02*
X159194965Y-89806782D01*
X159342630Y-89885710D01*
X159472059Y-89991930D01*
X159578279Y-90121359D01*
X159657207Y-90269024D01*
X159705811Y-90429249D01*
X159722222Y-90595879D01*
X159705811Y-90762509D01*
X159657207Y-90922734D01*
X159578279Y-91070399D01*
X159472059Y-91199828D01*
X159342630Y-91306048D01*
X159194965Y-91384976D01*
X159034740Y-91433580D01*
X158909862Y-91445879D01*
X158826358Y-91445879D01*
X158701480Y-91433580D01*
X158541255Y-91384976D01*
X158393590Y-91306048D01*
X158264161Y-91199828D01*
X158157941Y-91070399D01*
X158079013Y-90922734D01*
X158030409Y-90762509D01*
X158013998Y-90595879D01*
X158030409Y-90429249D01*
X158079013Y-90269024D01*
X158157941Y-90121359D01*
X158264161Y-89991930D01*
X158393590Y-89885710D01*
X158541255Y-89806782D01*
X158701480Y-89758178D01*
X158826358Y-89745879D01*
X158909862Y-89745879D01*
X159034740Y-89758178D01*
X159034740Y-89758178D01*
G37*
G36*
X161574740Y-89758178D02*
X161734965Y-89806782D01*
X161882630Y-89885710D01*
X162012059Y-89991930D01*
X162118279Y-90121359D01*
X162197207Y-90269024D01*
X162245811Y-90429249D01*
X162262222Y-90595879D01*
X162245811Y-90762509D01*
X162197207Y-90922734D01*
X162118279Y-91070399D01*
X162012059Y-91199828D01*
X161882630Y-91306048D01*
X161734965Y-91384976D01*
X161574740Y-91433580D01*
X161449862Y-91445879D01*
X161366358Y-91445879D01*
X161241480Y-91433580D01*
X161081255Y-91384976D01*
X160933590Y-91306048D01*
X160804161Y-91199828D01*
X160697941Y-91070399D01*
X160619013Y-90922734D01*
X160570409Y-90762509D01*
X160553998Y-90595879D01*
X160570409Y-90429249D01*
X160619013Y-90269024D01*
X160697941Y-90121359D01*
X160804161Y-89991930D01*
X160933590Y-89885710D01*
X161081255Y-89806782D01*
X161241480Y-89758178D01*
X161366358Y-89745879D01*
X161449862Y-89745879D01*
X161574740Y-89758178D01*
X161574740Y-89758178D01*
G37*
G36*
X164114740Y-89758178D02*
X164274965Y-89806782D01*
X164422630Y-89885710D01*
X164552059Y-89991930D01*
X164658279Y-90121359D01*
X164737207Y-90269024D01*
X164785811Y-90429249D01*
X164802222Y-90595879D01*
X164785811Y-90762509D01*
X164737207Y-90922734D01*
X164658279Y-91070399D01*
X164552059Y-91199828D01*
X164422630Y-91306048D01*
X164274965Y-91384976D01*
X164114740Y-91433580D01*
X163989862Y-91445879D01*
X163906358Y-91445879D01*
X163781480Y-91433580D01*
X163621255Y-91384976D01*
X163473590Y-91306048D01*
X163344161Y-91199828D01*
X163237941Y-91070399D01*
X163159013Y-90922734D01*
X163110409Y-90762509D01*
X163093998Y-90595879D01*
X163110409Y-90429249D01*
X163159013Y-90269024D01*
X163237941Y-90121359D01*
X163344161Y-89991930D01*
X163473590Y-89885710D01*
X163621255Y-89806782D01*
X163781480Y-89758178D01*
X163906358Y-89745879D01*
X163989862Y-89745879D01*
X164114740Y-89758178D01*
X164114740Y-89758178D01*
G37*
G36*
X166654740Y-89758178D02*
X166814965Y-89806782D01*
X166962630Y-89885710D01*
X167092059Y-89991930D01*
X167198279Y-90121359D01*
X167277207Y-90269024D01*
X167325811Y-90429249D01*
X167342222Y-90595879D01*
X167325811Y-90762509D01*
X167277207Y-90922734D01*
X167198279Y-91070399D01*
X167092059Y-91199828D01*
X166962630Y-91306048D01*
X166814965Y-91384976D01*
X166654740Y-91433580D01*
X166529862Y-91445879D01*
X166446358Y-91445879D01*
X166321480Y-91433580D01*
X166161255Y-91384976D01*
X166013590Y-91306048D01*
X165884161Y-91199828D01*
X165777941Y-91070399D01*
X165699013Y-90922734D01*
X165650409Y-90762509D01*
X165633998Y-90595879D01*
X165650409Y-90429249D01*
X165699013Y-90269024D01*
X165777941Y-90121359D01*
X165884161Y-89991930D01*
X166013590Y-89885710D01*
X166161255Y-89806782D01*
X166321480Y-89758178D01*
X166446358Y-89745879D01*
X166529862Y-89745879D01*
X166654740Y-89758178D01*
X166654740Y-89758178D01*
G37*
G36*
X172418110Y-91445879D02*
X170718110Y-91445879D01*
X170718110Y-89745879D01*
X172418110Y-89745879D01*
X172418110Y-91445879D01*
X172418110Y-91445879D01*
G37*
G36*
X169194740Y-89758178D02*
X169354965Y-89806782D01*
X169502630Y-89885710D01*
X169632059Y-89991930D01*
X169738279Y-90121359D01*
X169817207Y-90269024D01*
X169865811Y-90429249D01*
X169882222Y-90595879D01*
X169865811Y-90762509D01*
X169817207Y-90922734D01*
X169738279Y-91070399D01*
X169632059Y-91199828D01*
X169502630Y-91306048D01*
X169354965Y-91384976D01*
X169194740Y-91433580D01*
X169069862Y-91445879D01*
X168986358Y-91445879D01*
X168861480Y-91433580D01*
X168701255Y-91384976D01*
X168553590Y-91306048D01*
X168424161Y-91199828D01*
X168317941Y-91070399D01*
X168239013Y-90922734D01*
X168190409Y-90762509D01*
X168173998Y-90595879D01*
X168190409Y-90429249D01*
X168239013Y-90269024D01*
X168317941Y-90121359D01*
X168424161Y-89991930D01*
X168553590Y-89885710D01*
X168701255Y-89806782D01*
X168861480Y-89758178D01*
X168986358Y-89745879D01*
X169069862Y-89745879D01*
X169194740Y-89758178D01*
X169194740Y-89758178D01*
G37*
G36*
X147994630Y-88697299D02*
X148154855Y-88745903D01*
X148302520Y-88824831D01*
X148431949Y-88931051D01*
X148538169Y-89060480D01*
X148617097Y-89208145D01*
X148665701Y-89368370D01*
X148682112Y-89535000D01*
X148665701Y-89701630D01*
X148617097Y-89861855D01*
X148538169Y-90009520D01*
X148431949Y-90138949D01*
X148302520Y-90245169D01*
X148154855Y-90324097D01*
X147994630Y-90372701D01*
X147869752Y-90385000D01*
X147786248Y-90385000D01*
X147661370Y-90372701D01*
X147501145Y-90324097D01*
X147353480Y-90245169D01*
X147224051Y-90138949D01*
X147117831Y-90009520D01*
X147038903Y-89861855D01*
X146990299Y-89701630D01*
X146973888Y-89535000D01*
X146990299Y-89368370D01*
X147038903Y-89208145D01*
X147117831Y-89060480D01*
X147224051Y-88931051D01*
X147353480Y-88824831D01*
X147501145Y-88745903D01*
X147661370Y-88697299D01*
X147786248Y-88685000D01*
X147869752Y-88685000D01*
X147994630Y-88697299D01*
X147994630Y-88697299D01*
G37*
G36*
X144222183Y-88861900D02*
X144349574Y-88914668D01*
X144464224Y-88991274D01*
X144561726Y-89088776D01*
X144578144Y-89113348D01*
X144638332Y-89203426D01*
X144691100Y-89330817D01*
X144718000Y-89466055D01*
X144718000Y-89603945D01*
X144691100Y-89739183D01*
X144648309Y-89842487D01*
X144638332Y-89866574D01*
X144561726Y-89981224D01*
X144464224Y-90078726D01*
X144400417Y-90121360D01*
X144349574Y-90155332D01*
X144222183Y-90208100D01*
X144086945Y-90235000D01*
X143949055Y-90235000D01*
X143813817Y-90208100D01*
X143686426Y-90155332D01*
X143635583Y-90121360D01*
X143571776Y-90078726D01*
X143474274Y-89981224D01*
X143397668Y-89866574D01*
X143387691Y-89842487D01*
X143344900Y-89739183D01*
X143318000Y-89603945D01*
X143318000Y-89466055D01*
X143344900Y-89330817D01*
X143397668Y-89203426D01*
X143457856Y-89113348D01*
X143474274Y-89088776D01*
X143571776Y-88991274D01*
X143686426Y-88914668D01*
X143813817Y-88861900D01*
X143949055Y-88835000D01*
X144086945Y-88835000D01*
X144222183Y-88861900D01*
X144222183Y-88861900D01*
G37*
G36*
X121295224Y-88845128D02*
X121427175Y-88885155D01*
X121548781Y-88950155D01*
X121655370Y-89037630D01*
X121742845Y-89144219D01*
X121807845Y-89265825D01*
X121847872Y-89397776D01*
X121861387Y-89535000D01*
X121847872Y-89672224D01*
X121807845Y-89804175D01*
X121742845Y-89925781D01*
X121655370Y-90032370D01*
X121548781Y-90119845D01*
X121427175Y-90184845D01*
X121295224Y-90224872D01*
X121192390Y-90235000D01*
X121123610Y-90235000D01*
X121020776Y-90224872D01*
X120888825Y-90184845D01*
X120767219Y-90119845D01*
X120660630Y-90032370D01*
X120573155Y-89925781D01*
X120508155Y-89804175D01*
X120468128Y-89672224D01*
X120454613Y-89535000D01*
X120468128Y-89397776D01*
X120508155Y-89265825D01*
X120573155Y-89144219D01*
X120660630Y-89037630D01*
X120767219Y-88950155D01*
X120888825Y-88885155D01*
X121020776Y-88845128D01*
X121123610Y-88835000D01*
X121192390Y-88835000D01*
X121295224Y-88845128D01*
X121295224Y-88845128D01*
G37*
G36*
X117074030Y-87199469D02*
X117074033Y-87199470D01*
X117074034Y-87199470D01*
X117262535Y-87256651D01*
X117262537Y-87256652D01*
X117436260Y-87349509D01*
X117588528Y-87474472D01*
X117713491Y-87626740D01*
X117713492Y-87626742D01*
X117806349Y-87800465D01*
X117863530Y-87988966D01*
X117863531Y-87988970D01*
X117882838Y-88185000D01*
X117863531Y-88381030D01*
X117863530Y-88381033D01*
X117863530Y-88381034D01*
X117818221Y-88530399D01*
X117806348Y-88569537D01*
X117713491Y-88743260D01*
X117588528Y-88895528D01*
X117436260Y-89020491D01*
X117436258Y-89020492D01*
X117262535Y-89113349D01*
X117074034Y-89170530D01*
X117074033Y-89170530D01*
X117074030Y-89170531D01*
X116927124Y-89185000D01*
X115228876Y-89185000D01*
X115081970Y-89170531D01*
X115081967Y-89170530D01*
X115081966Y-89170530D01*
X114893465Y-89113349D01*
X114719742Y-89020492D01*
X114719740Y-89020491D01*
X114567472Y-88895528D01*
X114442509Y-88743260D01*
X114349652Y-88569537D01*
X114337780Y-88530399D01*
X114292470Y-88381034D01*
X114292470Y-88381033D01*
X114292469Y-88381030D01*
X114273162Y-88185000D01*
X114292469Y-87988970D01*
X114292470Y-87988966D01*
X114349651Y-87800465D01*
X114442508Y-87626742D01*
X114442509Y-87626740D01*
X114567472Y-87474472D01*
X114719740Y-87349509D01*
X114893463Y-87256652D01*
X114893465Y-87256651D01*
X115081966Y-87199470D01*
X115081967Y-87199470D01*
X115081970Y-87199469D01*
X115228876Y-87185000D01*
X116927124Y-87185000D01*
X117074030Y-87199469D01*
X117074030Y-87199469D01*
G37*
G36*
X129754432Y-87378022D02*
X129924081Y-87429485D01*
X130080433Y-87513056D01*
X130217475Y-87625525D01*
X130329944Y-87762567D01*
X130413515Y-87918919D01*
X130464978Y-88088568D01*
X130482354Y-88265000D01*
X130464978Y-88441432D01*
X130413515Y-88611081D01*
X130329944Y-88767433D01*
X130217475Y-88904475D01*
X130080433Y-89016944D01*
X129924081Y-89100515D01*
X129754432Y-89151978D01*
X129622211Y-89165000D01*
X129533789Y-89165000D01*
X129401568Y-89151978D01*
X129231919Y-89100515D01*
X129075567Y-89016944D01*
X128938525Y-88904475D01*
X128826056Y-88767433D01*
X128742485Y-88611081D01*
X128691022Y-88441432D01*
X128673646Y-88265000D01*
X128691022Y-88088568D01*
X128742485Y-87918919D01*
X128826056Y-87762567D01*
X128938525Y-87625525D01*
X129075567Y-87513056D01*
X129231919Y-87429485D01*
X129401568Y-87378022D01*
X129533789Y-87365000D01*
X129622211Y-87365000D01*
X129754432Y-87378022D01*
X129754432Y-87378022D01*
G37*
G36*
X126354432Y-87378022D02*
X126524081Y-87429485D01*
X126680433Y-87513056D01*
X126817475Y-87625525D01*
X126929944Y-87762567D01*
X127013515Y-87918919D01*
X127064978Y-88088568D01*
X127082354Y-88265000D01*
X127064978Y-88441432D01*
X127013515Y-88611081D01*
X126929944Y-88767433D01*
X126817475Y-88904475D01*
X126680433Y-89016944D01*
X126524081Y-89100515D01*
X126354432Y-89151978D01*
X126222211Y-89165000D01*
X126133789Y-89165000D01*
X126001568Y-89151978D01*
X125831919Y-89100515D01*
X125675567Y-89016944D01*
X125538525Y-88904475D01*
X125426056Y-88767433D01*
X125342485Y-88611081D01*
X125291022Y-88441432D01*
X125273646Y-88265000D01*
X125291022Y-88088568D01*
X125342485Y-87918919D01*
X125426056Y-87762567D01*
X125538525Y-87625525D01*
X125675567Y-87513056D01*
X125831919Y-87429485D01*
X126001568Y-87378022D01*
X126133789Y-87365000D01*
X126222211Y-87365000D01*
X126354432Y-87378022D01*
X126354432Y-87378022D01*
G37*
G36*
X133154432Y-87378022D02*
X133324081Y-87429485D01*
X133480433Y-87513056D01*
X133617475Y-87625525D01*
X133729944Y-87762567D01*
X133813515Y-87918919D01*
X133864978Y-88088568D01*
X133882354Y-88265000D01*
X133864978Y-88441432D01*
X133813515Y-88611081D01*
X133729944Y-88767433D01*
X133617475Y-88904475D01*
X133480433Y-89016944D01*
X133324081Y-89100515D01*
X133154432Y-89151978D01*
X133022211Y-89165000D01*
X132933789Y-89165000D01*
X132801568Y-89151978D01*
X132631919Y-89100515D01*
X132475567Y-89016944D01*
X132338525Y-88904475D01*
X132226056Y-88767433D01*
X132142485Y-88611081D01*
X132091022Y-88441432D01*
X132073646Y-88265000D01*
X132091022Y-88088568D01*
X132142485Y-87918919D01*
X132226056Y-87762567D01*
X132338525Y-87625525D01*
X132475567Y-87513056D01*
X132631919Y-87429485D01*
X132801568Y-87378022D01*
X132933789Y-87365000D01*
X133022211Y-87365000D01*
X133154432Y-87378022D01*
X133154432Y-87378022D01*
G37*
G36*
X136554432Y-87378022D02*
X136724081Y-87429485D01*
X136880433Y-87513056D01*
X137017475Y-87625525D01*
X137129944Y-87762567D01*
X137213515Y-87918919D01*
X137264978Y-88088568D01*
X137282354Y-88265000D01*
X137264978Y-88441432D01*
X137213515Y-88611081D01*
X137129944Y-88767433D01*
X137017475Y-88904475D01*
X136880433Y-89016944D01*
X136724081Y-89100515D01*
X136554432Y-89151978D01*
X136422211Y-89165000D01*
X136333789Y-89165000D01*
X136201568Y-89151978D01*
X136031919Y-89100515D01*
X135875567Y-89016944D01*
X135738525Y-88904475D01*
X135626056Y-88767433D01*
X135542485Y-88611081D01*
X135491022Y-88441432D01*
X135473646Y-88265000D01*
X135491022Y-88088568D01*
X135542485Y-87918919D01*
X135626056Y-87762567D01*
X135738525Y-87625525D01*
X135875567Y-87513056D01*
X136031919Y-87429485D01*
X136201568Y-87378022D01*
X136333789Y-87365000D01*
X136422211Y-87365000D01*
X136554432Y-87378022D01*
X136554432Y-87378022D01*
G37*
G36*
X139954432Y-87378022D02*
X140124081Y-87429485D01*
X140280433Y-87513056D01*
X140417475Y-87625525D01*
X140529944Y-87762567D01*
X140613515Y-87918919D01*
X140664978Y-88088568D01*
X140682354Y-88265000D01*
X140664978Y-88441432D01*
X140613515Y-88611081D01*
X140529944Y-88767433D01*
X140417475Y-88904475D01*
X140280433Y-89016944D01*
X140124081Y-89100515D01*
X139954432Y-89151978D01*
X139822211Y-89165000D01*
X139733789Y-89165000D01*
X139601568Y-89151978D01*
X139431919Y-89100515D01*
X139275567Y-89016944D01*
X139138525Y-88904475D01*
X139026056Y-88767433D01*
X138942485Y-88611081D01*
X138891022Y-88441432D01*
X138873646Y-88265000D01*
X138891022Y-88088568D01*
X138942485Y-87918919D01*
X139026056Y-87762567D01*
X139138525Y-87625525D01*
X139275567Y-87513056D01*
X139431919Y-87429485D01*
X139601568Y-87378022D01*
X139733789Y-87365000D01*
X139822211Y-87365000D01*
X139954432Y-87378022D01*
X139954432Y-87378022D01*
G37*
G36*
X153954740Y-87218178D02*
X154114965Y-87266782D01*
X154262630Y-87345710D01*
X154392059Y-87451930D01*
X154498279Y-87581359D01*
X154577207Y-87729024D01*
X154625811Y-87889249D01*
X154642222Y-88055879D01*
X154625811Y-88222509D01*
X154577207Y-88382734D01*
X154498279Y-88530399D01*
X154392059Y-88659828D01*
X154262630Y-88766048D01*
X154114965Y-88844976D01*
X153954740Y-88893580D01*
X153829862Y-88905879D01*
X153746358Y-88905879D01*
X153621480Y-88893580D01*
X153461255Y-88844976D01*
X153313590Y-88766048D01*
X153184161Y-88659828D01*
X153077941Y-88530399D01*
X152999013Y-88382734D01*
X152950409Y-88222509D01*
X152933998Y-88055879D01*
X152950409Y-87889249D01*
X152999013Y-87729024D01*
X153077941Y-87581359D01*
X153184161Y-87451930D01*
X153313590Y-87345710D01*
X153461255Y-87266782D01*
X153621480Y-87218178D01*
X153746358Y-87205879D01*
X153829862Y-87205879D01*
X153954740Y-87218178D01*
X153954740Y-87218178D01*
G37*
G36*
X164114740Y-87218178D02*
X164274965Y-87266782D01*
X164422630Y-87345710D01*
X164552059Y-87451930D01*
X164658279Y-87581359D01*
X164737207Y-87729024D01*
X164785811Y-87889249D01*
X164802222Y-88055879D01*
X164785811Y-88222509D01*
X164737207Y-88382734D01*
X164658279Y-88530399D01*
X164552059Y-88659828D01*
X164422630Y-88766048D01*
X164274965Y-88844976D01*
X164114740Y-88893580D01*
X163989862Y-88905879D01*
X163906358Y-88905879D01*
X163781480Y-88893580D01*
X163621255Y-88844976D01*
X163473590Y-88766048D01*
X163344161Y-88659828D01*
X163237941Y-88530399D01*
X163159013Y-88382734D01*
X163110409Y-88222509D01*
X163093998Y-88055879D01*
X163110409Y-87889249D01*
X163159013Y-87729024D01*
X163237941Y-87581359D01*
X163344161Y-87451930D01*
X163473590Y-87345710D01*
X163621255Y-87266782D01*
X163781480Y-87218178D01*
X163906358Y-87205879D01*
X163989862Y-87205879D01*
X164114740Y-87218178D01*
X164114740Y-87218178D01*
G37*
G36*
X161574740Y-87218178D02*
X161734965Y-87266782D01*
X161882630Y-87345710D01*
X162012059Y-87451930D01*
X162118279Y-87581359D01*
X162197207Y-87729024D01*
X162245811Y-87889249D01*
X162262222Y-88055879D01*
X162245811Y-88222509D01*
X162197207Y-88382734D01*
X162118279Y-88530399D01*
X162012059Y-88659828D01*
X161882630Y-88766048D01*
X161734965Y-88844976D01*
X161574740Y-88893580D01*
X161449862Y-88905879D01*
X161366358Y-88905879D01*
X161241480Y-88893580D01*
X161081255Y-88844976D01*
X160933590Y-88766048D01*
X160804161Y-88659828D01*
X160697941Y-88530399D01*
X160619013Y-88382734D01*
X160570409Y-88222509D01*
X160553998Y-88055879D01*
X160570409Y-87889249D01*
X160619013Y-87729024D01*
X160697941Y-87581359D01*
X160804161Y-87451930D01*
X160933590Y-87345710D01*
X161081255Y-87266782D01*
X161241480Y-87218178D01*
X161366358Y-87205879D01*
X161449862Y-87205879D01*
X161574740Y-87218178D01*
X161574740Y-87218178D01*
G37*
G36*
X159034740Y-87218178D02*
X159194965Y-87266782D01*
X159342630Y-87345710D01*
X159472059Y-87451930D01*
X159578279Y-87581359D01*
X159657207Y-87729024D01*
X159705811Y-87889249D01*
X159722222Y-88055879D01*
X159705811Y-88222509D01*
X159657207Y-88382734D01*
X159578279Y-88530399D01*
X159472059Y-88659828D01*
X159342630Y-88766048D01*
X159194965Y-88844976D01*
X159034740Y-88893580D01*
X158909862Y-88905879D01*
X158826358Y-88905879D01*
X158701480Y-88893580D01*
X158541255Y-88844976D01*
X158393590Y-88766048D01*
X158264161Y-88659828D01*
X158157941Y-88530399D01*
X158079013Y-88382734D01*
X158030409Y-88222509D01*
X158013998Y-88055879D01*
X158030409Y-87889249D01*
X158079013Y-87729024D01*
X158157941Y-87581359D01*
X158264161Y-87451930D01*
X158393590Y-87345710D01*
X158541255Y-87266782D01*
X158701480Y-87218178D01*
X158826358Y-87205879D01*
X158909862Y-87205879D01*
X159034740Y-87218178D01*
X159034740Y-87218178D01*
G37*
G36*
X156494740Y-87218178D02*
X156654965Y-87266782D01*
X156802630Y-87345710D01*
X156932059Y-87451930D01*
X157038279Y-87581359D01*
X157117207Y-87729024D01*
X157165811Y-87889249D01*
X157182222Y-88055879D01*
X157165811Y-88222509D01*
X157117207Y-88382734D01*
X157038279Y-88530399D01*
X156932059Y-88659828D01*
X156802630Y-88766048D01*
X156654965Y-88844976D01*
X156494740Y-88893580D01*
X156369862Y-88905879D01*
X156286358Y-88905879D01*
X156161480Y-88893580D01*
X156001255Y-88844976D01*
X155853590Y-88766048D01*
X155724161Y-88659828D01*
X155617941Y-88530399D01*
X155539013Y-88382734D01*
X155490409Y-88222509D01*
X155473998Y-88055879D01*
X155490409Y-87889249D01*
X155539013Y-87729024D01*
X155617941Y-87581359D01*
X155724161Y-87451930D01*
X155853590Y-87345710D01*
X156001255Y-87266782D01*
X156161480Y-87218178D01*
X156286358Y-87205879D01*
X156369862Y-87205879D01*
X156494740Y-87218178D01*
X156494740Y-87218178D01*
G37*
G36*
X166654740Y-87218178D02*
X166814965Y-87266782D01*
X166962630Y-87345710D01*
X167092059Y-87451930D01*
X167198279Y-87581359D01*
X167277207Y-87729024D01*
X167325811Y-87889249D01*
X167342222Y-88055879D01*
X167325811Y-88222509D01*
X167277207Y-88382734D01*
X167198279Y-88530399D01*
X167092059Y-88659828D01*
X166962630Y-88766048D01*
X166814965Y-88844976D01*
X166654740Y-88893580D01*
X166529862Y-88905879D01*
X166446358Y-88905879D01*
X166321480Y-88893580D01*
X166161255Y-88844976D01*
X166013590Y-88766048D01*
X165884161Y-88659828D01*
X165777941Y-88530399D01*
X165699013Y-88382734D01*
X165650409Y-88222509D01*
X165633998Y-88055879D01*
X165650409Y-87889249D01*
X165699013Y-87729024D01*
X165777941Y-87581359D01*
X165884161Y-87451930D01*
X166013590Y-87345710D01*
X166161255Y-87266782D01*
X166321480Y-87218178D01*
X166446358Y-87205879D01*
X166529862Y-87205879D01*
X166654740Y-87218178D01*
X166654740Y-87218178D01*
G37*
G36*
X172418110Y-88905879D02*
X170718110Y-88905879D01*
X170718110Y-87205879D01*
X172418110Y-87205879D01*
X172418110Y-88905879D01*
X172418110Y-88905879D01*
G37*
G36*
X169194740Y-87218178D02*
X169354965Y-87266782D01*
X169502630Y-87345710D01*
X169632059Y-87451930D01*
X169738279Y-87581359D01*
X169817207Y-87729024D01*
X169865811Y-87889249D01*
X169882222Y-88055879D01*
X169865811Y-88222509D01*
X169817207Y-88382734D01*
X169738279Y-88530399D01*
X169632059Y-88659828D01*
X169502630Y-88766048D01*
X169354965Y-88844976D01*
X169194740Y-88893580D01*
X169069862Y-88905879D01*
X168986358Y-88905879D01*
X168861480Y-88893580D01*
X168701255Y-88844976D01*
X168553590Y-88766048D01*
X168424161Y-88659828D01*
X168317941Y-88530399D01*
X168239013Y-88382734D01*
X168190409Y-88222509D01*
X168173998Y-88055879D01*
X168190409Y-87889249D01*
X168239013Y-87729024D01*
X168317941Y-87581359D01*
X168424161Y-87451930D01*
X168553590Y-87345710D01*
X168701255Y-87266782D01*
X168861480Y-87218178D01*
X168986358Y-87205879D01*
X169069862Y-87205879D01*
X169194740Y-87218178D01*
X169194740Y-87218178D01*
G37*
G36*
X147994630Y-86157299D02*
X148154855Y-86205903D01*
X148302520Y-86284831D01*
X148431949Y-86391051D01*
X148538169Y-86520480D01*
X148617097Y-86668145D01*
X148665701Y-86828370D01*
X148682112Y-86995000D01*
X148665701Y-87161630D01*
X148617097Y-87321855D01*
X148538169Y-87469520D01*
X148431949Y-87598949D01*
X148302520Y-87705169D01*
X148154855Y-87784097D01*
X147994630Y-87832701D01*
X147869752Y-87845000D01*
X147786248Y-87845000D01*
X147661370Y-87832701D01*
X147501145Y-87784097D01*
X147353480Y-87705169D01*
X147224051Y-87598949D01*
X147117831Y-87469520D01*
X147038903Y-87321855D01*
X146990299Y-87161630D01*
X146973888Y-86995000D01*
X146990299Y-86828370D01*
X147038903Y-86668145D01*
X147117831Y-86520480D01*
X147224051Y-86391051D01*
X147353480Y-86284831D01*
X147501145Y-86205903D01*
X147661370Y-86157299D01*
X147786248Y-86145000D01*
X147869752Y-86145000D01*
X147994630Y-86157299D01*
X147994630Y-86157299D01*
G37*
G36*
X164114740Y-84678178D02*
X164274965Y-84726782D01*
X164422630Y-84805710D01*
X164552059Y-84911930D01*
X164658279Y-85041359D01*
X164737207Y-85189024D01*
X164785811Y-85349249D01*
X164802222Y-85515879D01*
X164785811Y-85682509D01*
X164737207Y-85842734D01*
X164658279Y-85990399D01*
X164552059Y-86119828D01*
X164422630Y-86226048D01*
X164274965Y-86304976D01*
X164114740Y-86353580D01*
X163989862Y-86365879D01*
X163906358Y-86365879D01*
X163781480Y-86353580D01*
X163621255Y-86304976D01*
X163473590Y-86226048D01*
X163344161Y-86119828D01*
X163237941Y-85990399D01*
X163159013Y-85842734D01*
X163110409Y-85682509D01*
X163093998Y-85515879D01*
X163110409Y-85349249D01*
X163159013Y-85189024D01*
X163237941Y-85041359D01*
X163344161Y-84911930D01*
X163473590Y-84805710D01*
X163621255Y-84726782D01*
X163781480Y-84678178D01*
X163906358Y-84665879D01*
X163989862Y-84665879D01*
X164114740Y-84678178D01*
X164114740Y-84678178D01*
G37*
G36*
X166654740Y-84678178D02*
X166814965Y-84726782D01*
X166962630Y-84805710D01*
X167092059Y-84911930D01*
X167198279Y-85041359D01*
X167277207Y-85189024D01*
X167325811Y-85349249D01*
X167342222Y-85515879D01*
X167325811Y-85682509D01*
X167277207Y-85842734D01*
X167198279Y-85990399D01*
X167092059Y-86119828D01*
X166962630Y-86226048D01*
X166814965Y-86304976D01*
X166654740Y-86353580D01*
X166529862Y-86365879D01*
X166446358Y-86365879D01*
X166321480Y-86353580D01*
X166161255Y-86304976D01*
X166013590Y-86226048D01*
X165884161Y-86119828D01*
X165777941Y-85990399D01*
X165699013Y-85842734D01*
X165650409Y-85682509D01*
X165633998Y-85515879D01*
X165650409Y-85349249D01*
X165699013Y-85189024D01*
X165777941Y-85041359D01*
X165884161Y-84911930D01*
X166013590Y-84805710D01*
X166161255Y-84726782D01*
X166321480Y-84678178D01*
X166446358Y-84665879D01*
X166529862Y-84665879D01*
X166654740Y-84678178D01*
X166654740Y-84678178D01*
G37*
G36*
X169194740Y-84678178D02*
X169354965Y-84726782D01*
X169502630Y-84805710D01*
X169632059Y-84911930D01*
X169738279Y-85041359D01*
X169817207Y-85189024D01*
X169865811Y-85349249D01*
X169882222Y-85515879D01*
X169865811Y-85682509D01*
X169817207Y-85842734D01*
X169738279Y-85990399D01*
X169632059Y-86119828D01*
X169502630Y-86226048D01*
X169354965Y-86304976D01*
X169194740Y-86353580D01*
X169069862Y-86365879D01*
X168986358Y-86365879D01*
X168861480Y-86353580D01*
X168701255Y-86304976D01*
X168553590Y-86226048D01*
X168424161Y-86119828D01*
X168317941Y-85990399D01*
X168239013Y-85842734D01*
X168190409Y-85682509D01*
X168173998Y-85515879D01*
X168190409Y-85349249D01*
X168239013Y-85189024D01*
X168317941Y-85041359D01*
X168424161Y-84911930D01*
X168553590Y-84805710D01*
X168701255Y-84726782D01*
X168861480Y-84678178D01*
X168986358Y-84665879D01*
X169069862Y-84665879D01*
X169194740Y-84678178D01*
X169194740Y-84678178D01*
G37*
G36*
X172418110Y-86365879D02*
X170718110Y-86365879D01*
X170718110Y-84665879D01*
X172418110Y-84665879D01*
X172418110Y-86365879D01*
X172418110Y-86365879D01*
G37*
G36*
X161574740Y-84678178D02*
X161734965Y-84726782D01*
X161882630Y-84805710D01*
X162012059Y-84911930D01*
X162118279Y-85041359D01*
X162197207Y-85189024D01*
X162245811Y-85349249D01*
X162262222Y-85515879D01*
X162245811Y-85682509D01*
X162197207Y-85842734D01*
X162118279Y-85990399D01*
X162012059Y-86119828D01*
X161882630Y-86226048D01*
X161734965Y-86304976D01*
X161574740Y-86353580D01*
X161449862Y-86365879D01*
X161366358Y-86365879D01*
X161241480Y-86353580D01*
X161081255Y-86304976D01*
X160933590Y-86226048D01*
X160804161Y-86119828D01*
X160697941Y-85990399D01*
X160619013Y-85842734D01*
X160570409Y-85682509D01*
X160553998Y-85515879D01*
X160570409Y-85349249D01*
X160619013Y-85189024D01*
X160697941Y-85041359D01*
X160804161Y-84911930D01*
X160933590Y-84805710D01*
X161081255Y-84726782D01*
X161241480Y-84678178D01*
X161366358Y-84665879D01*
X161449862Y-84665879D01*
X161574740Y-84678178D01*
X161574740Y-84678178D01*
G37*
G36*
X156494740Y-84678178D02*
X156654965Y-84726782D01*
X156802630Y-84805710D01*
X156932059Y-84911930D01*
X157038279Y-85041359D01*
X157117207Y-85189024D01*
X157165811Y-85349249D01*
X157182222Y-85515879D01*
X157165811Y-85682509D01*
X157117207Y-85842734D01*
X157038279Y-85990399D01*
X156932059Y-86119828D01*
X156802630Y-86226048D01*
X156654965Y-86304976D01*
X156494740Y-86353580D01*
X156369862Y-86365879D01*
X156286358Y-86365879D01*
X156161480Y-86353580D01*
X156001255Y-86304976D01*
X155853590Y-86226048D01*
X155724161Y-86119828D01*
X155617941Y-85990399D01*
X155539013Y-85842734D01*
X155490409Y-85682509D01*
X155473998Y-85515879D01*
X155490409Y-85349249D01*
X155539013Y-85189024D01*
X155617941Y-85041359D01*
X155724161Y-84911930D01*
X155853590Y-84805710D01*
X156001255Y-84726782D01*
X156161480Y-84678178D01*
X156286358Y-84665879D01*
X156369862Y-84665879D01*
X156494740Y-84678178D01*
X156494740Y-84678178D01*
G37*
G36*
X153954740Y-84678178D02*
X154114965Y-84726782D01*
X154262630Y-84805710D01*
X154392059Y-84911930D01*
X154498279Y-85041359D01*
X154577207Y-85189024D01*
X154625811Y-85349249D01*
X154642222Y-85515879D01*
X154625811Y-85682509D01*
X154577207Y-85842734D01*
X154498279Y-85990399D01*
X154392059Y-86119828D01*
X154262630Y-86226048D01*
X154114965Y-86304976D01*
X153954740Y-86353580D01*
X153829862Y-86365879D01*
X153746358Y-86365879D01*
X153621480Y-86353580D01*
X153461255Y-86304976D01*
X153313590Y-86226048D01*
X153184161Y-86119828D01*
X153077941Y-85990399D01*
X152999013Y-85842734D01*
X152950409Y-85682509D01*
X152933998Y-85515879D01*
X152950409Y-85349249D01*
X152999013Y-85189024D01*
X153077941Y-85041359D01*
X153184161Y-84911930D01*
X153313590Y-84805710D01*
X153461255Y-84726782D01*
X153621480Y-84678178D01*
X153746358Y-84665879D01*
X153829862Y-84665879D01*
X153954740Y-84678178D01*
X153954740Y-84678178D01*
G37*
G36*
X159034740Y-84678178D02*
X159194965Y-84726782D01*
X159342630Y-84805710D01*
X159472059Y-84911930D01*
X159578279Y-85041359D01*
X159657207Y-85189024D01*
X159705811Y-85349249D01*
X159722222Y-85515879D01*
X159705811Y-85682509D01*
X159657207Y-85842734D01*
X159578279Y-85990399D01*
X159472059Y-86119828D01*
X159342630Y-86226048D01*
X159194965Y-86304976D01*
X159034740Y-86353580D01*
X158909862Y-86365879D01*
X158826358Y-86365879D01*
X158701480Y-86353580D01*
X158541255Y-86304976D01*
X158393590Y-86226048D01*
X158264161Y-86119828D01*
X158157941Y-85990399D01*
X158079013Y-85842734D01*
X158030409Y-85682509D01*
X158013998Y-85515879D01*
X158030409Y-85349249D01*
X158079013Y-85189024D01*
X158157941Y-85041359D01*
X158264161Y-84911930D01*
X158393590Y-84805710D01*
X158541255Y-84726782D01*
X158701480Y-84678178D01*
X158826358Y-84665879D01*
X158909862Y-84665879D01*
X159034740Y-84678178D01*
X159034740Y-84678178D01*
G37*
G36*
X147994630Y-83617299D02*
X148154855Y-83665903D01*
X148302520Y-83744831D01*
X148431949Y-83851051D01*
X148538169Y-83980480D01*
X148617097Y-84128145D01*
X148665701Y-84288370D01*
X148682112Y-84455000D01*
X148665701Y-84621630D01*
X148617097Y-84781855D01*
X148538169Y-84929520D01*
X148431949Y-85058949D01*
X148302520Y-85165169D01*
X148154855Y-85244097D01*
X147994630Y-85292701D01*
X147869752Y-85305000D01*
X147786248Y-85305000D01*
X147661370Y-85292701D01*
X147501145Y-85244097D01*
X147353480Y-85165169D01*
X147224051Y-85058949D01*
X147117831Y-84929520D01*
X147038903Y-84781855D01*
X146990299Y-84621630D01*
X146973888Y-84455000D01*
X146990299Y-84288370D01*
X147038903Y-84128145D01*
X147117831Y-83980480D01*
X147224051Y-83851051D01*
X147353480Y-83744831D01*
X147501145Y-83665903D01*
X147661370Y-83617299D01*
X147786248Y-83605000D01*
X147869752Y-83605000D01*
X147994630Y-83617299D01*
X147994630Y-83617299D01*
G37*
G36*
X144155224Y-83765128D02*
X144287175Y-83805155D01*
X144408781Y-83870155D01*
X144515370Y-83957630D01*
X144602845Y-84064219D01*
X144667845Y-84185825D01*
X144707872Y-84317776D01*
X144721387Y-84455000D01*
X144707872Y-84592224D01*
X144667845Y-84724175D01*
X144602845Y-84845781D01*
X144515370Y-84952370D01*
X144408781Y-85039845D01*
X144287175Y-85104845D01*
X144155224Y-85144872D01*
X144052390Y-85155000D01*
X143983610Y-85155000D01*
X143880776Y-85144872D01*
X143748825Y-85104845D01*
X143627219Y-85039845D01*
X143520630Y-84952370D01*
X143433155Y-84845781D01*
X143368155Y-84724175D01*
X143328128Y-84592224D01*
X143314613Y-84455000D01*
X143328128Y-84317776D01*
X143368155Y-84185825D01*
X143433155Y-84064219D01*
X143520630Y-83957630D01*
X143627219Y-83870155D01*
X143748825Y-83805155D01*
X143880776Y-83765128D01*
X143983610Y-83755000D01*
X144052390Y-83755000D01*
X144155224Y-83765128D01*
X144155224Y-83765128D01*
G37*
G36*
X121362183Y-83781900D02*
X121489574Y-83834668D01*
X121604224Y-83911274D01*
X121701726Y-84008776D01*
X121738771Y-84064219D01*
X121778332Y-84123426D01*
X121831100Y-84250817D01*
X121858000Y-84386055D01*
X121858000Y-84523945D01*
X121831100Y-84659183D01*
X121780287Y-84781855D01*
X121778332Y-84786574D01*
X121701726Y-84901224D01*
X121604224Y-84998726D01*
X121540417Y-85041360D01*
X121489574Y-85075332D01*
X121362183Y-85128100D01*
X121226945Y-85155000D01*
X121089055Y-85155000D01*
X120953817Y-85128100D01*
X120826426Y-85075332D01*
X120775583Y-85041360D01*
X120711776Y-84998726D01*
X120614274Y-84901224D01*
X120537668Y-84786574D01*
X120535713Y-84781855D01*
X120484900Y-84659183D01*
X120458000Y-84523945D01*
X120458000Y-84386055D01*
X120484900Y-84250817D01*
X120537668Y-84123426D01*
X120577229Y-84064219D01*
X120614274Y-84008776D01*
X120711776Y-83911274D01*
X120826426Y-83834668D01*
X120953817Y-83781900D01*
X121089055Y-83755000D01*
X121226945Y-83755000D01*
X121362183Y-83781900D01*
X121362183Y-83781900D01*
G37*
G36*
X117878000Y-84185000D02*
X114278000Y-84185000D01*
X114278000Y-82185000D01*
X117878000Y-82185000D01*
X117878000Y-84185000D01*
X117878000Y-84185000D01*
G37*
G36*
X128054432Y-82298022D02*
X128224081Y-82349485D01*
X128380433Y-82433056D01*
X128517475Y-82545525D01*
X128629944Y-82682567D01*
X128713515Y-82838919D01*
X128764978Y-83008568D01*
X128782354Y-83185000D01*
X128764978Y-83361432D01*
X128713515Y-83531081D01*
X128629944Y-83687433D01*
X128517475Y-83824475D01*
X128380433Y-83936944D01*
X128224081Y-84020515D01*
X128054432Y-84071978D01*
X127922211Y-84085000D01*
X127833789Y-84085000D01*
X127701568Y-84071978D01*
X127531919Y-84020515D01*
X127375567Y-83936944D01*
X127238525Y-83824475D01*
X127126056Y-83687433D01*
X127042485Y-83531081D01*
X126991022Y-83361432D01*
X126973646Y-83185000D01*
X126991022Y-83008568D01*
X127042485Y-82838919D01*
X127126056Y-82682567D01*
X127238525Y-82545525D01*
X127375567Y-82433056D01*
X127531919Y-82349485D01*
X127701568Y-82298022D01*
X127833789Y-82285000D01*
X127922211Y-82285000D01*
X128054432Y-82298022D01*
X128054432Y-82298022D01*
G37*
G36*
X124654432Y-82298022D02*
X124824081Y-82349485D01*
X124980433Y-82433056D01*
X125117475Y-82545525D01*
X125229944Y-82682567D01*
X125313515Y-82838919D01*
X125364978Y-83008568D01*
X125382354Y-83185000D01*
X125364978Y-83361432D01*
X125313515Y-83531081D01*
X125229944Y-83687433D01*
X125117475Y-83824475D01*
X124980433Y-83936944D01*
X124824081Y-84020515D01*
X124654432Y-84071978D01*
X124522211Y-84085000D01*
X124433789Y-84085000D01*
X124301568Y-84071978D01*
X124131919Y-84020515D01*
X123975567Y-83936944D01*
X123838525Y-83824475D01*
X123726056Y-83687433D01*
X123642485Y-83531081D01*
X123591022Y-83361432D01*
X123573646Y-83185000D01*
X123591022Y-83008568D01*
X123642485Y-82838919D01*
X123726056Y-82682567D01*
X123838525Y-82545525D01*
X123975567Y-82433056D01*
X124131919Y-82349485D01*
X124301568Y-82298022D01*
X124433789Y-82285000D01*
X124522211Y-82285000D01*
X124654432Y-82298022D01*
X124654432Y-82298022D01*
G37*
G36*
X142378000Y-84085000D02*
X140578000Y-84085000D01*
X140578000Y-82285000D01*
X142378000Y-82285000D01*
X142378000Y-84085000D01*
X142378000Y-84085000D01*
G37*
G36*
X134854432Y-82298022D02*
X135024081Y-82349485D01*
X135180433Y-82433056D01*
X135317475Y-82545525D01*
X135429944Y-82682567D01*
X135513515Y-82838919D01*
X135564978Y-83008568D01*
X135582354Y-83185000D01*
X135564978Y-83361432D01*
X135513515Y-83531081D01*
X135429944Y-83687433D01*
X135317475Y-83824475D01*
X135180433Y-83936944D01*
X135024081Y-84020515D01*
X134854432Y-84071978D01*
X134722211Y-84085000D01*
X134633789Y-84085000D01*
X134501568Y-84071978D01*
X134331919Y-84020515D01*
X134175567Y-83936944D01*
X134038525Y-83824475D01*
X133926056Y-83687433D01*
X133842485Y-83531081D01*
X133791022Y-83361432D01*
X133773646Y-83185000D01*
X133791022Y-83008568D01*
X133842485Y-82838919D01*
X133926056Y-82682567D01*
X134038525Y-82545525D01*
X134175567Y-82433056D01*
X134331919Y-82349485D01*
X134501568Y-82298022D01*
X134633789Y-82285000D01*
X134722211Y-82285000D01*
X134854432Y-82298022D01*
X134854432Y-82298022D01*
G37*
G36*
X138254432Y-82298022D02*
X138424081Y-82349485D01*
X138580433Y-82433056D01*
X138717475Y-82545525D01*
X138829944Y-82682567D01*
X138913515Y-82838919D01*
X138964978Y-83008568D01*
X138982354Y-83185000D01*
X138964978Y-83361432D01*
X138913515Y-83531081D01*
X138829944Y-83687433D01*
X138717475Y-83824475D01*
X138580433Y-83936944D01*
X138424081Y-84020515D01*
X138254432Y-84071978D01*
X138122211Y-84085000D01*
X138033789Y-84085000D01*
X137901568Y-84071978D01*
X137731919Y-84020515D01*
X137575567Y-83936944D01*
X137438525Y-83824475D01*
X137326056Y-83687433D01*
X137242485Y-83531081D01*
X137191022Y-83361432D01*
X137173646Y-83185000D01*
X137191022Y-83008568D01*
X137242485Y-82838919D01*
X137326056Y-82682567D01*
X137438525Y-82545525D01*
X137575567Y-82433056D01*
X137731919Y-82349485D01*
X137901568Y-82298022D01*
X138033789Y-82285000D01*
X138122211Y-82285000D01*
X138254432Y-82298022D01*
X138254432Y-82298022D01*
G37*
G36*
X131454432Y-82298022D02*
X131624081Y-82349485D01*
X131780433Y-82433056D01*
X131917475Y-82545525D01*
X132029944Y-82682567D01*
X132113515Y-82838919D01*
X132164978Y-83008568D01*
X132182354Y-83185000D01*
X132164978Y-83361432D01*
X132113515Y-83531081D01*
X132029944Y-83687433D01*
X131917475Y-83824475D01*
X131780433Y-83936944D01*
X131624081Y-84020515D01*
X131454432Y-84071978D01*
X131322211Y-84085000D01*
X131233789Y-84085000D01*
X131101568Y-84071978D01*
X130931919Y-84020515D01*
X130775567Y-83936944D01*
X130638525Y-83824475D01*
X130526056Y-83687433D01*
X130442485Y-83531081D01*
X130391022Y-83361432D01*
X130373646Y-83185000D01*
X130391022Y-83008568D01*
X130442485Y-82838919D01*
X130526056Y-82682567D01*
X130638525Y-82545525D01*
X130775567Y-82433056D01*
X130931919Y-82349485D01*
X131101568Y-82298022D01*
X131233789Y-82285000D01*
X131322211Y-82285000D01*
X131454432Y-82298022D01*
X131454432Y-82298022D01*
G37*
G36*
X169194740Y-82138178D02*
X169354965Y-82186782D01*
X169502630Y-82265710D01*
X169632059Y-82371930D01*
X169738279Y-82501359D01*
X169817207Y-82649024D01*
X169865811Y-82809249D01*
X169882222Y-82975879D01*
X169865811Y-83142509D01*
X169817207Y-83302734D01*
X169738279Y-83450399D01*
X169632059Y-83579828D01*
X169502630Y-83686048D01*
X169354965Y-83764976D01*
X169194740Y-83813580D01*
X169069862Y-83825879D01*
X168986358Y-83825879D01*
X168861480Y-83813580D01*
X168701255Y-83764976D01*
X168553590Y-83686048D01*
X168424161Y-83579828D01*
X168317941Y-83450399D01*
X168239013Y-83302734D01*
X168190409Y-83142509D01*
X168173998Y-82975879D01*
X168190409Y-82809249D01*
X168239013Y-82649024D01*
X168317941Y-82501359D01*
X168424161Y-82371930D01*
X168553590Y-82265710D01*
X168701255Y-82186782D01*
X168861480Y-82138178D01*
X168986358Y-82125879D01*
X169069862Y-82125879D01*
X169194740Y-82138178D01*
X169194740Y-82138178D01*
G37*
G36*
X172418110Y-83825879D02*
X170718110Y-83825879D01*
X170718110Y-82125879D01*
X172418110Y-82125879D01*
X172418110Y-83825879D01*
X172418110Y-83825879D01*
G37*
G36*
X166654740Y-82138178D02*
X166814965Y-82186782D01*
X166962630Y-82265710D01*
X167092059Y-82371930D01*
X167198279Y-82501359D01*
X167277207Y-82649024D01*
X167325811Y-82809249D01*
X167342222Y-82975879D01*
X167325811Y-83142509D01*
X167277207Y-83302734D01*
X167198279Y-83450399D01*
X167092059Y-83579828D01*
X166962630Y-83686048D01*
X166814965Y-83764976D01*
X166654740Y-83813580D01*
X166529862Y-83825879D01*
X166446358Y-83825879D01*
X166321480Y-83813580D01*
X166161255Y-83764976D01*
X166013590Y-83686048D01*
X165884161Y-83579828D01*
X165777941Y-83450399D01*
X165699013Y-83302734D01*
X165650409Y-83142509D01*
X165633998Y-82975879D01*
X165650409Y-82809249D01*
X165699013Y-82649024D01*
X165777941Y-82501359D01*
X165884161Y-82371930D01*
X166013590Y-82265710D01*
X166161255Y-82186782D01*
X166321480Y-82138178D01*
X166446358Y-82125879D01*
X166529862Y-82125879D01*
X166654740Y-82138178D01*
X166654740Y-82138178D01*
G37*
G36*
X164114740Y-82138178D02*
X164274965Y-82186782D01*
X164422630Y-82265710D01*
X164552059Y-82371930D01*
X164658279Y-82501359D01*
X164737207Y-82649024D01*
X164785811Y-82809249D01*
X164802222Y-82975879D01*
X164785811Y-83142509D01*
X164737207Y-83302734D01*
X164658279Y-83450399D01*
X164552059Y-83579828D01*
X164422630Y-83686048D01*
X164274965Y-83764976D01*
X164114740Y-83813580D01*
X163989862Y-83825879D01*
X163906358Y-83825879D01*
X163781480Y-83813580D01*
X163621255Y-83764976D01*
X163473590Y-83686048D01*
X163344161Y-83579828D01*
X163237941Y-83450399D01*
X163159013Y-83302734D01*
X163110409Y-83142509D01*
X163093998Y-82975879D01*
X163110409Y-82809249D01*
X163159013Y-82649024D01*
X163237941Y-82501359D01*
X163344161Y-82371930D01*
X163473590Y-82265710D01*
X163621255Y-82186782D01*
X163781480Y-82138178D01*
X163906358Y-82125879D01*
X163989862Y-82125879D01*
X164114740Y-82138178D01*
X164114740Y-82138178D01*
G37*
G36*
X161574740Y-82138178D02*
X161734965Y-82186782D01*
X161882630Y-82265710D01*
X162012059Y-82371930D01*
X162118279Y-82501359D01*
X162197207Y-82649024D01*
X162245811Y-82809249D01*
X162262222Y-82975879D01*
X162245811Y-83142509D01*
X162197207Y-83302734D01*
X162118279Y-83450399D01*
X162012059Y-83579828D01*
X161882630Y-83686048D01*
X161734965Y-83764976D01*
X161574740Y-83813580D01*
X161449862Y-83825879D01*
X161366358Y-83825879D01*
X161241480Y-83813580D01*
X161081255Y-83764976D01*
X160933590Y-83686048D01*
X160804161Y-83579828D01*
X160697941Y-83450399D01*
X160619013Y-83302734D01*
X160570409Y-83142509D01*
X160553998Y-82975879D01*
X160570409Y-82809249D01*
X160619013Y-82649024D01*
X160697941Y-82501359D01*
X160804161Y-82371930D01*
X160933590Y-82265710D01*
X161081255Y-82186782D01*
X161241480Y-82138178D01*
X161366358Y-82125879D01*
X161449862Y-82125879D01*
X161574740Y-82138178D01*
X161574740Y-82138178D01*
G37*
G36*
X159034740Y-82138178D02*
X159194965Y-82186782D01*
X159342630Y-82265710D01*
X159472059Y-82371930D01*
X159578279Y-82501359D01*
X159657207Y-82649024D01*
X159705811Y-82809249D01*
X159722222Y-82975879D01*
X159705811Y-83142509D01*
X159657207Y-83302734D01*
X159578279Y-83450399D01*
X159472059Y-83579828D01*
X159342630Y-83686048D01*
X159194965Y-83764976D01*
X159034740Y-83813580D01*
X158909862Y-83825879D01*
X158826358Y-83825879D01*
X158701480Y-83813580D01*
X158541255Y-83764976D01*
X158393590Y-83686048D01*
X158264161Y-83579828D01*
X158157941Y-83450399D01*
X158079013Y-83302734D01*
X158030409Y-83142509D01*
X158013998Y-82975879D01*
X158030409Y-82809249D01*
X158079013Y-82649024D01*
X158157941Y-82501359D01*
X158264161Y-82371930D01*
X158393590Y-82265710D01*
X158541255Y-82186782D01*
X158701480Y-82138178D01*
X158826358Y-82125879D01*
X158909862Y-82125879D01*
X159034740Y-82138178D01*
X159034740Y-82138178D01*
G37*
G36*
X156494740Y-82138178D02*
X156654965Y-82186782D01*
X156802630Y-82265710D01*
X156932059Y-82371930D01*
X157038279Y-82501359D01*
X157117207Y-82649024D01*
X157165811Y-82809249D01*
X157182222Y-82975879D01*
X157165811Y-83142509D01*
X157117207Y-83302734D01*
X157038279Y-83450399D01*
X156932059Y-83579828D01*
X156802630Y-83686048D01*
X156654965Y-83764976D01*
X156494740Y-83813580D01*
X156369862Y-83825879D01*
X156286358Y-83825879D01*
X156161480Y-83813580D01*
X156001255Y-83764976D01*
X155853590Y-83686048D01*
X155724161Y-83579828D01*
X155617941Y-83450399D01*
X155539013Y-83302734D01*
X155490409Y-83142509D01*
X155473998Y-82975879D01*
X155490409Y-82809249D01*
X155539013Y-82649024D01*
X155617941Y-82501359D01*
X155724161Y-82371930D01*
X155853590Y-82265710D01*
X156001255Y-82186782D01*
X156161480Y-82138178D01*
X156286358Y-82125879D01*
X156369862Y-82125879D01*
X156494740Y-82138178D01*
X156494740Y-82138178D01*
G37*
G36*
X153954740Y-82138178D02*
X154114965Y-82186782D01*
X154262630Y-82265710D01*
X154392059Y-82371930D01*
X154498279Y-82501359D01*
X154577207Y-82649024D01*
X154625811Y-82809249D01*
X154642222Y-82975879D01*
X154625811Y-83142509D01*
X154577207Y-83302734D01*
X154498279Y-83450399D01*
X154392059Y-83579828D01*
X154262630Y-83686048D01*
X154114965Y-83764976D01*
X153954740Y-83813580D01*
X153829862Y-83825879D01*
X153746358Y-83825879D01*
X153621480Y-83813580D01*
X153461255Y-83764976D01*
X153313590Y-83686048D01*
X153184161Y-83579828D01*
X153077941Y-83450399D01*
X152999013Y-83302734D01*
X152950409Y-83142509D01*
X152933998Y-82975879D01*
X152950409Y-82809249D01*
X152999013Y-82649024D01*
X153077941Y-82501359D01*
X153184161Y-82371930D01*
X153313590Y-82265710D01*
X153461255Y-82186782D01*
X153621480Y-82138178D01*
X153746358Y-82125879D01*
X153829862Y-82125879D01*
X153954740Y-82138178D01*
X153954740Y-82138178D01*
G37*
G36*
X147994630Y-81077299D02*
X148154855Y-81125903D01*
X148302520Y-81204831D01*
X148431949Y-81311051D01*
X148538169Y-81440480D01*
X148617097Y-81588145D01*
X148665701Y-81748370D01*
X148682112Y-81915000D01*
X148665701Y-82081630D01*
X148617097Y-82241855D01*
X148538169Y-82389520D01*
X148431949Y-82518949D01*
X148302520Y-82625169D01*
X148154855Y-82704097D01*
X147994630Y-82752701D01*
X147869752Y-82765000D01*
X147786248Y-82765000D01*
X147661370Y-82752701D01*
X147501145Y-82704097D01*
X147353480Y-82625169D01*
X147224051Y-82518949D01*
X147117831Y-82389520D01*
X147038903Y-82241855D01*
X146990299Y-82081630D01*
X146973888Y-81915000D01*
X146990299Y-81748370D01*
X147038903Y-81588145D01*
X147117831Y-81440480D01*
X147224051Y-81311051D01*
X147353480Y-81204831D01*
X147501145Y-81125903D01*
X147661370Y-81077299D01*
X147786248Y-81065000D01*
X147869752Y-81065000D01*
X147994630Y-81077299D01*
X147994630Y-81077299D01*
G37*
G36*
X140374630Y-78537299D02*
X140534855Y-78585903D01*
X140682520Y-78664831D01*
X140811949Y-78771051D01*
X140918169Y-78900480D01*
X140997097Y-79048145D01*
X141045701Y-79208370D01*
X141062112Y-79375000D01*
X141045701Y-79541630D01*
X140997097Y-79701855D01*
X140918169Y-79849520D01*
X140811949Y-79978949D01*
X140682520Y-80085169D01*
X140534855Y-80164097D01*
X140374630Y-80212701D01*
X140249752Y-80225000D01*
X140166248Y-80225000D01*
X140041370Y-80212701D01*
X139881145Y-80164097D01*
X139733480Y-80085169D01*
X139604051Y-79978949D01*
X139497831Y-79849520D01*
X139418903Y-79701855D01*
X139370299Y-79541630D01*
X139353888Y-79375000D01*
X139370299Y-79208370D01*
X139418903Y-79048145D01*
X139497831Y-78900480D01*
X139604051Y-78771051D01*
X139733480Y-78664831D01*
X139881145Y-78585903D01*
X140041370Y-78537299D01*
X140166248Y-78525000D01*
X140249752Y-78525000D01*
X140374630Y-78537299D01*
X140374630Y-78537299D01*
G37*
G36*
X138518000Y-80225000D02*
X136818000Y-80225000D01*
X136818000Y-78525000D01*
X138518000Y-78525000D01*
X138518000Y-80225000D01*
X138518000Y-80225000D01*
G37*
G36*
X132705649Y-78582717D02*
X132744827Y-78586576D01*
X132808012Y-78605743D01*
X132895629Y-78632321D01*
X133034608Y-78706608D01*
X133156422Y-78806578D01*
X133256392Y-78928392D01*
X133330679Y-79067371D01*
X133330679Y-79067372D01*
X133376424Y-79218173D01*
X133391870Y-79375000D01*
X133376424Y-79531827D01*
X133373450Y-79541630D01*
X133330679Y-79682629D01*
X133256392Y-79821608D01*
X133156422Y-79943422D01*
X133034608Y-80043392D01*
X132895629Y-80117679D01*
X132820227Y-80140552D01*
X132744827Y-80163424D01*
X132705649Y-80167283D01*
X132627295Y-80175000D01*
X132548705Y-80175000D01*
X132470351Y-80167283D01*
X132431173Y-80163424D01*
X132355773Y-80140552D01*
X132280371Y-80117679D01*
X132141392Y-80043392D01*
X132019578Y-79943422D01*
X131919608Y-79821608D01*
X131845321Y-79682629D01*
X131802550Y-79541630D01*
X131799576Y-79531827D01*
X131784130Y-79375000D01*
X131799576Y-79218173D01*
X131845321Y-79067372D01*
X131845321Y-79067371D01*
X131919608Y-78928392D01*
X132019578Y-78806578D01*
X132141392Y-78706608D01*
X132280371Y-78632321D01*
X132367988Y-78605743D01*
X132431173Y-78586576D01*
X132470351Y-78582717D01*
X132548705Y-78575000D01*
X132627295Y-78575000D01*
X132705649Y-78582717D01*
X132705649Y-78582717D01*
G37*
G36*
X122661352Y-78605743D02*
X122806941Y-78666048D01*
X122937973Y-78753601D01*
X123049399Y-78865027D01*
X123136952Y-78996059D01*
X123197257Y-79141648D01*
X123228000Y-79296205D01*
X123228000Y-79453795D01*
X123197257Y-79608352D01*
X123136952Y-79753941D01*
X123049399Y-79884973D01*
X122937973Y-79996399D01*
X122806941Y-80083952D01*
X122661352Y-80144257D01*
X122506795Y-80175000D01*
X122349205Y-80175000D01*
X122194648Y-80144257D01*
X122049059Y-80083952D01*
X121918027Y-79996399D01*
X121806601Y-79884973D01*
X121719048Y-79753941D01*
X121658743Y-79608352D01*
X121628000Y-79453795D01*
X121628000Y-79296205D01*
X121658743Y-79141648D01*
X121719048Y-78996059D01*
X121806601Y-78865027D01*
X121918027Y-78753601D01*
X122049059Y-78666048D01*
X122194648Y-78605743D01*
X122349205Y-78575000D01*
X122506795Y-78575000D01*
X122661352Y-78605743D01*
X122661352Y-78605743D01*
G37*
G36*
X126830712Y-73611088D02*
X127200510Y-73764263D01*
X127200513Y-73764265D01*
X127533325Y-73986643D01*
X127816357Y-74269675D01*
X128000204Y-74544822D01*
X128038737Y-74602490D01*
X128191912Y-74972288D01*
X128270000Y-75364864D01*
X128270000Y-75765136D01*
X128191912Y-76157712D01*
X128038737Y-76527510D01*
X128038735Y-76527513D01*
X127816357Y-76860325D01*
X127533325Y-77143357D01*
X127200513Y-77365735D01*
X127200510Y-77365737D01*
X126830712Y-77518912D01*
X126438136Y-77597000D01*
X126037864Y-77597000D01*
X125645288Y-77518912D01*
X125275490Y-77365737D01*
X125275487Y-77365735D01*
X124942675Y-77143357D01*
X124659643Y-76860325D01*
X124437265Y-76527513D01*
X124437263Y-76527510D01*
X124284088Y-76157712D01*
X124206000Y-75765136D01*
X124206000Y-75364864D01*
X124284088Y-74972288D01*
X124437263Y-74602490D01*
X124475796Y-74544822D01*
X124659643Y-74269675D01*
X124942675Y-73986643D01*
X125275487Y-73764265D01*
X125275490Y-73764263D01*
X125645288Y-73611088D01*
X126037864Y-73533000D01*
X126438136Y-73533000D01*
X126830712Y-73611088D01*
X126830712Y-73611088D01*
G37*
G36*
X159427294Y-74561496D02*
X159547726Y-74598029D01*
X159590087Y-74610879D01*
X159740112Y-74691068D01*
X159871612Y-74798988D01*
X159979532Y-74930488D01*
X160059721Y-75080512D01*
X160072571Y-75122873D01*
X160109104Y-75243305D01*
X160109104Y-75243307D01*
X160121600Y-75370179D01*
X160121600Y-75759820D01*
X160121076Y-75765136D01*
X160109104Y-75886694D01*
X160072571Y-76007128D01*
X160059721Y-76049488D01*
X159979532Y-76199512D01*
X159871612Y-76331012D01*
X159740112Y-76438932D01*
X159590088Y-76519121D01*
X159562433Y-76527510D01*
X159427295Y-76568504D01*
X159314432Y-76579620D01*
X159258001Y-76585178D01*
X159258000Y-76585178D01*
X159088706Y-76568504D01*
X158953568Y-76527510D01*
X158925913Y-76519121D01*
X158775889Y-76438932D01*
X158685946Y-76365117D01*
X158644388Y-76331012D01*
X158536469Y-76199512D01*
X158514127Y-76157713D01*
X158456279Y-76049488D01*
X158443429Y-76007127D01*
X158406896Y-75886695D01*
X158398565Y-75802112D01*
X158394400Y-75759821D01*
X158394400Y-75370180D01*
X158406896Y-75243308D01*
X158406896Y-75243306D01*
X158456278Y-75080517D01*
X158456279Y-75080513D01*
X158536468Y-74930488D01*
X158644388Y-74798988D01*
X158775888Y-74691068D01*
X158925912Y-74610879D01*
X158968273Y-74598029D01*
X159088705Y-74561496D01*
X159201568Y-74550380D01*
X159257999Y-74544822D01*
X159258000Y-74544822D01*
X159427294Y-74561496D01*
X159427294Y-74561496D01*
G37*
G36*
X129963294Y-74561496D02*
X130083726Y-74598029D01*
X130126087Y-74610879D01*
X130276112Y-74691068D01*
X130407612Y-74798988D01*
X130515532Y-74930488D01*
X130595721Y-75080512D01*
X130608571Y-75122873D01*
X130645104Y-75243305D01*
X130645104Y-75243307D01*
X130657600Y-75370179D01*
X130657600Y-75759820D01*
X130657076Y-75765136D01*
X130645104Y-75886694D01*
X130608571Y-76007128D01*
X130595721Y-76049488D01*
X130515532Y-76199512D01*
X130407612Y-76331012D01*
X130276112Y-76438932D01*
X130126088Y-76519121D01*
X130098433Y-76527510D01*
X129963295Y-76568504D01*
X129850432Y-76579620D01*
X129794001Y-76585178D01*
X129794000Y-76585178D01*
X129624706Y-76568504D01*
X129489568Y-76527510D01*
X129461913Y-76519121D01*
X129311889Y-76438932D01*
X129221946Y-76365117D01*
X129180388Y-76331012D01*
X129072469Y-76199512D01*
X129050127Y-76157713D01*
X128992279Y-76049488D01*
X128979429Y-76007127D01*
X128942896Y-75886695D01*
X128934565Y-75802112D01*
X128930400Y-75759821D01*
X128930400Y-75370180D01*
X128942896Y-75243308D01*
X128942896Y-75243306D01*
X128992278Y-75080517D01*
X128992279Y-75080513D01*
X129072468Y-74930488D01*
X129180388Y-74798988D01*
X129311888Y-74691068D01*
X129461912Y-74610879D01*
X129504273Y-74598029D01*
X129624705Y-74561496D01*
X129737568Y-74550380D01*
X129793999Y-74544822D01*
X129794000Y-74544822D01*
X129963294Y-74561496D01*
X129963294Y-74561496D01*
G37*
G36*
X132503294Y-74561496D02*
X132623726Y-74598029D01*
X132666087Y-74610879D01*
X132816112Y-74691068D01*
X132947612Y-74798988D01*
X133055532Y-74930488D01*
X133135721Y-75080512D01*
X133148571Y-75122873D01*
X133185104Y-75243305D01*
X133185104Y-75243307D01*
X133197600Y-75370179D01*
X133197600Y-75759820D01*
X133197076Y-75765136D01*
X133185104Y-75886694D01*
X133148571Y-76007128D01*
X133135721Y-76049488D01*
X133055532Y-76199512D01*
X132947612Y-76331012D01*
X132816112Y-76438932D01*
X132666088Y-76519121D01*
X132638433Y-76527510D01*
X132503295Y-76568504D01*
X132390432Y-76579620D01*
X132334001Y-76585178D01*
X132334000Y-76585178D01*
X132164706Y-76568504D01*
X132029568Y-76527510D01*
X132001913Y-76519121D01*
X131851889Y-76438932D01*
X131761946Y-76365117D01*
X131720388Y-76331012D01*
X131612469Y-76199512D01*
X131590127Y-76157713D01*
X131532279Y-76049488D01*
X131519429Y-76007127D01*
X131482896Y-75886695D01*
X131474565Y-75802112D01*
X131470400Y-75759821D01*
X131470400Y-75370180D01*
X131482896Y-75243308D01*
X131482896Y-75243306D01*
X131532278Y-75080517D01*
X131532279Y-75080513D01*
X131612468Y-74930488D01*
X131720388Y-74798988D01*
X131851888Y-74691068D01*
X132001912Y-74610879D01*
X132044273Y-74598029D01*
X132164705Y-74561496D01*
X132277568Y-74550380D01*
X132333999Y-74544822D01*
X132334000Y-74544822D01*
X132503294Y-74561496D01*
X132503294Y-74561496D01*
G37*
G36*
X137583294Y-74561496D02*
X137703726Y-74598029D01*
X137746087Y-74610879D01*
X137896112Y-74691068D01*
X138027612Y-74798988D01*
X138135532Y-74930488D01*
X138215721Y-75080512D01*
X138228571Y-75122873D01*
X138265104Y-75243305D01*
X138265104Y-75243307D01*
X138277600Y-75370179D01*
X138277600Y-75759820D01*
X138277076Y-75765136D01*
X138265104Y-75886694D01*
X138228571Y-76007128D01*
X138215721Y-76049488D01*
X138135532Y-76199512D01*
X138027612Y-76331012D01*
X137896112Y-76438932D01*
X137746088Y-76519121D01*
X137718433Y-76527510D01*
X137583295Y-76568504D01*
X137470432Y-76579620D01*
X137414001Y-76585178D01*
X137414000Y-76585178D01*
X137244706Y-76568504D01*
X137109568Y-76527510D01*
X137081913Y-76519121D01*
X136931889Y-76438932D01*
X136841946Y-76365117D01*
X136800388Y-76331012D01*
X136692469Y-76199512D01*
X136670127Y-76157713D01*
X136612279Y-76049488D01*
X136599429Y-76007127D01*
X136562896Y-75886695D01*
X136554565Y-75802112D01*
X136550400Y-75759821D01*
X136550400Y-75370180D01*
X136562896Y-75243308D01*
X136562896Y-75243306D01*
X136612278Y-75080517D01*
X136612279Y-75080513D01*
X136692468Y-74930488D01*
X136800388Y-74798988D01*
X136931888Y-74691068D01*
X137081912Y-74610879D01*
X137124273Y-74598029D01*
X137244705Y-74561496D01*
X137357568Y-74550380D01*
X137413999Y-74544822D01*
X137414000Y-74544822D01*
X137583294Y-74561496D01*
X137583294Y-74561496D01*
G37*
G36*
X140123294Y-74561496D02*
X140243726Y-74598029D01*
X140286087Y-74610879D01*
X140436112Y-74691068D01*
X140567612Y-74798988D01*
X140675532Y-74930488D01*
X140755721Y-75080512D01*
X140768571Y-75122873D01*
X140805104Y-75243305D01*
X140805104Y-75243307D01*
X140817600Y-75370179D01*
X140817600Y-75759820D01*
X140817076Y-75765136D01*
X140805104Y-75886694D01*
X140768571Y-76007128D01*
X140755721Y-76049488D01*
X140675532Y-76199512D01*
X140567612Y-76331012D01*
X140436112Y-76438932D01*
X140286088Y-76519121D01*
X140258433Y-76527510D01*
X140123295Y-76568504D01*
X140010432Y-76579620D01*
X139954001Y-76585178D01*
X139954000Y-76585178D01*
X139784706Y-76568504D01*
X139649568Y-76527510D01*
X139621913Y-76519121D01*
X139471889Y-76438932D01*
X139381946Y-76365117D01*
X139340388Y-76331012D01*
X139232469Y-76199512D01*
X139210127Y-76157713D01*
X139152279Y-76049488D01*
X139139429Y-76007127D01*
X139102896Y-75886695D01*
X139094565Y-75802112D01*
X139090400Y-75759821D01*
X139090400Y-75370180D01*
X139102896Y-75243308D01*
X139102896Y-75243306D01*
X139152278Y-75080517D01*
X139152279Y-75080513D01*
X139232468Y-74930488D01*
X139340388Y-74798988D01*
X139471888Y-74691068D01*
X139621912Y-74610879D01*
X139664273Y-74598029D01*
X139784705Y-74561496D01*
X139897568Y-74550380D01*
X139953999Y-74544822D01*
X139954000Y-74544822D01*
X140123294Y-74561496D01*
X140123294Y-74561496D01*
G37*
G36*
X142663294Y-74561496D02*
X142783726Y-74598029D01*
X142826087Y-74610879D01*
X142976112Y-74691068D01*
X143107612Y-74798988D01*
X143215532Y-74930488D01*
X143295721Y-75080512D01*
X143308571Y-75122873D01*
X143345104Y-75243305D01*
X143345104Y-75243307D01*
X143357600Y-75370179D01*
X143357600Y-75759820D01*
X143357076Y-75765136D01*
X143345104Y-75886694D01*
X143308571Y-76007128D01*
X143295721Y-76049488D01*
X143215532Y-76199512D01*
X143107612Y-76331012D01*
X142976112Y-76438932D01*
X142826088Y-76519121D01*
X142798433Y-76527510D01*
X142663295Y-76568504D01*
X142550432Y-76579620D01*
X142494001Y-76585178D01*
X142494000Y-76585178D01*
X142324706Y-76568504D01*
X142189568Y-76527510D01*
X142161913Y-76519121D01*
X142011889Y-76438932D01*
X141921946Y-76365117D01*
X141880388Y-76331012D01*
X141772469Y-76199512D01*
X141750127Y-76157713D01*
X141692279Y-76049488D01*
X141679429Y-76007127D01*
X141642896Y-75886695D01*
X141634565Y-75802112D01*
X141630400Y-75759821D01*
X141630400Y-75370180D01*
X141642896Y-75243308D01*
X141642896Y-75243306D01*
X141692278Y-75080517D01*
X141692279Y-75080513D01*
X141772468Y-74930488D01*
X141880388Y-74798988D01*
X142011888Y-74691068D01*
X142161912Y-74610879D01*
X142204273Y-74598029D01*
X142324705Y-74561496D01*
X142437568Y-74550380D01*
X142493999Y-74544822D01*
X142494000Y-74544822D01*
X142663294Y-74561496D01*
X142663294Y-74561496D01*
G37*
G36*
X145203294Y-74561496D02*
X145323726Y-74598029D01*
X145366087Y-74610879D01*
X145516112Y-74691068D01*
X145647612Y-74798988D01*
X145755532Y-74930488D01*
X145835721Y-75080512D01*
X145848571Y-75122873D01*
X145885104Y-75243305D01*
X145885104Y-75243307D01*
X145897600Y-75370179D01*
X145897600Y-75759820D01*
X145897076Y-75765136D01*
X145885104Y-75886694D01*
X145848571Y-76007128D01*
X145835721Y-76049488D01*
X145755532Y-76199512D01*
X145647612Y-76331012D01*
X145516112Y-76438932D01*
X145366088Y-76519121D01*
X145338433Y-76527510D01*
X145203295Y-76568504D01*
X145090432Y-76579620D01*
X145034001Y-76585178D01*
X145034000Y-76585178D01*
X144864706Y-76568504D01*
X144729568Y-76527510D01*
X144701913Y-76519121D01*
X144551889Y-76438932D01*
X144461946Y-76365117D01*
X144420388Y-76331012D01*
X144312469Y-76199512D01*
X144290127Y-76157713D01*
X144232279Y-76049488D01*
X144219429Y-76007127D01*
X144182896Y-75886695D01*
X144174565Y-75802112D01*
X144170400Y-75759821D01*
X144170400Y-75370180D01*
X144182896Y-75243308D01*
X144182896Y-75243306D01*
X144232278Y-75080517D01*
X144232279Y-75080513D01*
X144312468Y-74930488D01*
X144420388Y-74798988D01*
X144551888Y-74691068D01*
X144701912Y-74610879D01*
X144744273Y-74598029D01*
X144864705Y-74561496D01*
X144977568Y-74550380D01*
X145033999Y-74544822D01*
X145034000Y-74544822D01*
X145203294Y-74561496D01*
X145203294Y-74561496D01*
G37*
G36*
X147743294Y-74561496D02*
X147863726Y-74598029D01*
X147906087Y-74610879D01*
X148056112Y-74691068D01*
X148187612Y-74798988D01*
X148295532Y-74930488D01*
X148375721Y-75080512D01*
X148388571Y-75122873D01*
X148425104Y-75243305D01*
X148425104Y-75243307D01*
X148437600Y-75370179D01*
X148437600Y-75759820D01*
X148437076Y-75765136D01*
X148425104Y-75886694D01*
X148388571Y-76007128D01*
X148375721Y-76049488D01*
X148295532Y-76199512D01*
X148187612Y-76331012D01*
X148056112Y-76438932D01*
X147906088Y-76519121D01*
X147878433Y-76527510D01*
X147743295Y-76568504D01*
X147630432Y-76579620D01*
X147574001Y-76585178D01*
X147574000Y-76585178D01*
X147404706Y-76568504D01*
X147269568Y-76527510D01*
X147241913Y-76519121D01*
X147091889Y-76438932D01*
X147001946Y-76365117D01*
X146960388Y-76331012D01*
X146852469Y-76199512D01*
X146830127Y-76157713D01*
X146772279Y-76049488D01*
X146759429Y-76007127D01*
X146722896Y-75886695D01*
X146714565Y-75802112D01*
X146710400Y-75759821D01*
X146710400Y-75370180D01*
X146722896Y-75243308D01*
X146722896Y-75243306D01*
X146772278Y-75080517D01*
X146772279Y-75080513D01*
X146852468Y-74930488D01*
X146960388Y-74798988D01*
X147091888Y-74691068D01*
X147241912Y-74610879D01*
X147284273Y-74598029D01*
X147404705Y-74561496D01*
X147517568Y-74550380D01*
X147573999Y-74544822D01*
X147574000Y-74544822D01*
X147743294Y-74561496D01*
X147743294Y-74561496D01*
G37*
G36*
X150283294Y-74561496D02*
X150403726Y-74598029D01*
X150446087Y-74610879D01*
X150596112Y-74691068D01*
X150727612Y-74798988D01*
X150835532Y-74930488D01*
X150915721Y-75080512D01*
X150928571Y-75122873D01*
X150965104Y-75243305D01*
X150965104Y-75243307D01*
X150977600Y-75370179D01*
X150977600Y-75759820D01*
X150977076Y-75765136D01*
X150965104Y-75886694D01*
X150928571Y-76007128D01*
X150915721Y-76049488D01*
X150835532Y-76199512D01*
X150727612Y-76331012D01*
X150596112Y-76438932D01*
X150446088Y-76519121D01*
X150418433Y-76527510D01*
X150283295Y-76568504D01*
X150170432Y-76579620D01*
X150114001Y-76585178D01*
X150114000Y-76585178D01*
X149944706Y-76568504D01*
X149809568Y-76527510D01*
X149781913Y-76519121D01*
X149631889Y-76438932D01*
X149541946Y-76365117D01*
X149500388Y-76331012D01*
X149392469Y-76199512D01*
X149370127Y-76157713D01*
X149312279Y-76049488D01*
X149299429Y-76007127D01*
X149262896Y-75886695D01*
X149254565Y-75802112D01*
X149250400Y-75759821D01*
X149250400Y-75370180D01*
X149262896Y-75243308D01*
X149262896Y-75243306D01*
X149312278Y-75080517D01*
X149312279Y-75080513D01*
X149392468Y-74930488D01*
X149500388Y-74798988D01*
X149631888Y-74691068D01*
X149781912Y-74610879D01*
X149824273Y-74598029D01*
X149944705Y-74561496D01*
X150057568Y-74550380D01*
X150113999Y-74544822D01*
X150114000Y-74544822D01*
X150283294Y-74561496D01*
X150283294Y-74561496D01*
G37*
G36*
X156887294Y-74561496D02*
X157007726Y-74598029D01*
X157050087Y-74610879D01*
X157200112Y-74691068D01*
X157331612Y-74798988D01*
X157439532Y-74930488D01*
X157519721Y-75080512D01*
X157532571Y-75122873D01*
X157569104Y-75243305D01*
X157569104Y-75243307D01*
X157581600Y-75370179D01*
X157581600Y-75759820D01*
X157581076Y-75765136D01*
X157569104Y-75886694D01*
X157532571Y-76007128D01*
X157519721Y-76049488D01*
X157439532Y-76199512D01*
X157331612Y-76331012D01*
X157200112Y-76438932D01*
X157050088Y-76519121D01*
X157022433Y-76527510D01*
X156887295Y-76568504D01*
X156774432Y-76579620D01*
X156718001Y-76585178D01*
X156718000Y-76585178D01*
X156548706Y-76568504D01*
X156413568Y-76527510D01*
X156385913Y-76519121D01*
X156235889Y-76438932D01*
X156145946Y-76365117D01*
X156104388Y-76331012D01*
X155996469Y-76199512D01*
X155974127Y-76157713D01*
X155916279Y-76049488D01*
X155903429Y-76007127D01*
X155866896Y-75886695D01*
X155858565Y-75802112D01*
X155854400Y-75759821D01*
X155854400Y-75370180D01*
X155866896Y-75243308D01*
X155866896Y-75243306D01*
X155916278Y-75080517D01*
X155916279Y-75080513D01*
X155996468Y-74930488D01*
X156104388Y-74798988D01*
X156235888Y-74691068D01*
X156385912Y-74610879D01*
X156428273Y-74598029D01*
X156548705Y-74561496D01*
X156661568Y-74550380D01*
X156717999Y-74544822D01*
X156718000Y-74544822D01*
X156887294Y-74561496D01*
X156887294Y-74561496D01*
G37*
G36*
X135043294Y-74561496D02*
X135163726Y-74598029D01*
X135206087Y-74610879D01*
X135356112Y-74691068D01*
X135487612Y-74798988D01*
X135595532Y-74930488D01*
X135675721Y-75080512D01*
X135688571Y-75122873D01*
X135725104Y-75243305D01*
X135725104Y-75243307D01*
X135737600Y-75370179D01*
X135737600Y-75759820D01*
X135737076Y-75765136D01*
X135725104Y-75886694D01*
X135688571Y-76007128D01*
X135675721Y-76049488D01*
X135595532Y-76199512D01*
X135487612Y-76331012D01*
X135356112Y-76438932D01*
X135206088Y-76519121D01*
X135178433Y-76527510D01*
X135043295Y-76568504D01*
X134930432Y-76579620D01*
X134874001Y-76585178D01*
X134874000Y-76585178D01*
X134704706Y-76568504D01*
X134569568Y-76527510D01*
X134541913Y-76519121D01*
X134391889Y-76438932D01*
X134301946Y-76365117D01*
X134260388Y-76331012D01*
X134152469Y-76199512D01*
X134130127Y-76157713D01*
X134072279Y-76049488D01*
X134059429Y-76007127D01*
X134022896Y-75886695D01*
X134014565Y-75802112D01*
X134010400Y-75759821D01*
X134010400Y-75370180D01*
X134022896Y-75243308D01*
X134022896Y-75243306D01*
X134072278Y-75080517D01*
X134072279Y-75080513D01*
X134152468Y-74930488D01*
X134260388Y-74798988D01*
X134391888Y-74691068D01*
X134541912Y-74610879D01*
X134584273Y-74598029D01*
X134704705Y-74561496D01*
X134817568Y-74550380D01*
X134873999Y-74544822D01*
X134874000Y-74544822D01*
X135043294Y-74561496D01*
X135043294Y-74561496D01*
G37*
G36*
X152823294Y-74561496D02*
X152943726Y-74598029D01*
X152986087Y-74610879D01*
X153136112Y-74691068D01*
X153267612Y-74798988D01*
X153375532Y-74930488D01*
X153455721Y-75080512D01*
X153468571Y-75122873D01*
X153505104Y-75243305D01*
X153505104Y-75243307D01*
X153517600Y-75370179D01*
X153517600Y-75759820D01*
X153517076Y-75765136D01*
X153505104Y-75886694D01*
X153468571Y-76007128D01*
X153455721Y-76049488D01*
X153375532Y-76199512D01*
X153267612Y-76331012D01*
X153136112Y-76438932D01*
X152986088Y-76519121D01*
X152958433Y-76527510D01*
X152823295Y-76568504D01*
X152710432Y-76579620D01*
X152654001Y-76585178D01*
X152654000Y-76585178D01*
X152484706Y-76568504D01*
X152349568Y-76527510D01*
X152321913Y-76519121D01*
X152171889Y-76438932D01*
X152081946Y-76365117D01*
X152040388Y-76331012D01*
X151932469Y-76199512D01*
X151910127Y-76157713D01*
X151852279Y-76049488D01*
X151839429Y-76007127D01*
X151802896Y-75886695D01*
X151794565Y-75802112D01*
X151790400Y-75759821D01*
X151790400Y-75370180D01*
X151802896Y-75243308D01*
X151802896Y-75243306D01*
X151852278Y-75080517D01*
X151852279Y-75080513D01*
X151932468Y-74930488D01*
X152040388Y-74798988D01*
X152171888Y-74691068D01*
X152321912Y-74610879D01*
X152364273Y-74598029D01*
X152484705Y-74561496D01*
X152597568Y-74550380D01*
X152653999Y-74544822D01*
X152654000Y-74544822D01*
X152823294Y-74561496D01*
X152823294Y-74561496D01*
G37*
G36*
X174667294Y-74561496D02*
X174787726Y-74598029D01*
X174830087Y-74610879D01*
X174980112Y-74691068D01*
X175111612Y-74798988D01*
X175219532Y-74930488D01*
X175299721Y-75080512D01*
X175312571Y-75122873D01*
X175349104Y-75243305D01*
X175349104Y-75243307D01*
X175361600Y-75370179D01*
X175361600Y-75759820D01*
X175361076Y-75765136D01*
X175349104Y-75886694D01*
X175312571Y-76007128D01*
X175299721Y-76049488D01*
X175219532Y-76199512D01*
X175111612Y-76331012D01*
X174980112Y-76438932D01*
X174830088Y-76519121D01*
X174802433Y-76527510D01*
X174667295Y-76568504D01*
X174554432Y-76579620D01*
X174498001Y-76585178D01*
X174498000Y-76585178D01*
X174328706Y-76568504D01*
X174193568Y-76527510D01*
X174165913Y-76519121D01*
X174015889Y-76438932D01*
X173925946Y-76365117D01*
X173884388Y-76331012D01*
X173776469Y-76199512D01*
X173754127Y-76157713D01*
X173696279Y-76049488D01*
X173683429Y-76007127D01*
X173646896Y-75886695D01*
X173638565Y-75802112D01*
X173634400Y-75759821D01*
X173634400Y-75370180D01*
X173646896Y-75243308D01*
X173646896Y-75243306D01*
X173696278Y-75080517D01*
X173696279Y-75080513D01*
X173776468Y-74930488D01*
X173884388Y-74798988D01*
X174015888Y-74691068D01*
X174165912Y-74610879D01*
X174208273Y-74598029D01*
X174328705Y-74561496D01*
X174441568Y-74550380D01*
X174497999Y-74544822D01*
X174498000Y-74544822D01*
X174667294Y-74561496D01*
X174667294Y-74561496D01*
G37*
G36*
X172127294Y-74561496D02*
X172247726Y-74598029D01*
X172290087Y-74610879D01*
X172440112Y-74691068D01*
X172571612Y-74798988D01*
X172679532Y-74930488D01*
X172759721Y-75080512D01*
X172772571Y-75122873D01*
X172809104Y-75243305D01*
X172809104Y-75243307D01*
X172821600Y-75370179D01*
X172821600Y-75759820D01*
X172821076Y-75765136D01*
X172809104Y-75886694D01*
X172772571Y-76007128D01*
X172759721Y-76049488D01*
X172679532Y-76199512D01*
X172571612Y-76331012D01*
X172440112Y-76438932D01*
X172290088Y-76519121D01*
X172262433Y-76527510D01*
X172127295Y-76568504D01*
X172014432Y-76579620D01*
X171958001Y-76585178D01*
X171958000Y-76585178D01*
X171788706Y-76568504D01*
X171653568Y-76527510D01*
X171625913Y-76519121D01*
X171475889Y-76438932D01*
X171385946Y-76365117D01*
X171344388Y-76331012D01*
X171236469Y-76199512D01*
X171214127Y-76157713D01*
X171156279Y-76049488D01*
X171143429Y-76007127D01*
X171106896Y-75886695D01*
X171098565Y-75802112D01*
X171094400Y-75759821D01*
X171094400Y-75370180D01*
X171106896Y-75243308D01*
X171106896Y-75243306D01*
X171156278Y-75080517D01*
X171156279Y-75080513D01*
X171236468Y-74930488D01*
X171344388Y-74798988D01*
X171475888Y-74691068D01*
X171625912Y-74610879D01*
X171668273Y-74598029D01*
X171788705Y-74561496D01*
X171901568Y-74550380D01*
X171957999Y-74544822D01*
X171958000Y-74544822D01*
X172127294Y-74561496D01*
X172127294Y-74561496D01*
G37*
G36*
X169587294Y-74561496D02*
X169707726Y-74598029D01*
X169750087Y-74610879D01*
X169900112Y-74691068D01*
X170031612Y-74798988D01*
X170139532Y-74930488D01*
X170219721Y-75080512D01*
X170232571Y-75122873D01*
X170269104Y-75243305D01*
X170269104Y-75243307D01*
X170281600Y-75370179D01*
X170281600Y-75759820D01*
X170281076Y-75765136D01*
X170269104Y-75886694D01*
X170232571Y-76007128D01*
X170219721Y-76049488D01*
X170139532Y-76199512D01*
X170031612Y-76331012D01*
X169900112Y-76438932D01*
X169750088Y-76519121D01*
X169722433Y-76527510D01*
X169587295Y-76568504D01*
X169474432Y-76579620D01*
X169418001Y-76585178D01*
X169418000Y-76585178D01*
X169248706Y-76568504D01*
X169113568Y-76527510D01*
X169085913Y-76519121D01*
X168935889Y-76438932D01*
X168845946Y-76365117D01*
X168804388Y-76331012D01*
X168696469Y-76199512D01*
X168674127Y-76157713D01*
X168616279Y-76049488D01*
X168603429Y-76007127D01*
X168566896Y-75886695D01*
X168558565Y-75802112D01*
X168554400Y-75759821D01*
X168554400Y-75370180D01*
X168566896Y-75243308D01*
X168566896Y-75243306D01*
X168616278Y-75080517D01*
X168616279Y-75080513D01*
X168696468Y-74930488D01*
X168804388Y-74798988D01*
X168935888Y-74691068D01*
X169085912Y-74610879D01*
X169128273Y-74598029D01*
X169248705Y-74561496D01*
X169361568Y-74550380D01*
X169417999Y-74544822D01*
X169418000Y-74544822D01*
X169587294Y-74561496D01*
X169587294Y-74561496D01*
G37*
G36*
X161967294Y-74561496D02*
X162087726Y-74598029D01*
X162130087Y-74610879D01*
X162280112Y-74691068D01*
X162411612Y-74798988D01*
X162519532Y-74930488D01*
X162599721Y-75080512D01*
X162612571Y-75122873D01*
X162649104Y-75243305D01*
X162649104Y-75243307D01*
X162661600Y-75370179D01*
X162661600Y-75759820D01*
X162661076Y-75765136D01*
X162649104Y-75886694D01*
X162612571Y-76007128D01*
X162599721Y-76049488D01*
X162519532Y-76199512D01*
X162411612Y-76331012D01*
X162280112Y-76438932D01*
X162130088Y-76519121D01*
X162102433Y-76527510D01*
X161967295Y-76568504D01*
X161854432Y-76579620D01*
X161798001Y-76585178D01*
X161798000Y-76585178D01*
X161628706Y-76568504D01*
X161493568Y-76527510D01*
X161465913Y-76519121D01*
X161315889Y-76438932D01*
X161225946Y-76365117D01*
X161184388Y-76331012D01*
X161076469Y-76199512D01*
X161054127Y-76157713D01*
X160996279Y-76049488D01*
X160983429Y-76007127D01*
X160946896Y-75886695D01*
X160938565Y-75802112D01*
X160934400Y-75759821D01*
X160934400Y-75370180D01*
X160946896Y-75243308D01*
X160946896Y-75243306D01*
X160996278Y-75080517D01*
X160996279Y-75080513D01*
X161076468Y-74930488D01*
X161184388Y-74798988D01*
X161315888Y-74691068D01*
X161465912Y-74610879D01*
X161508273Y-74598029D01*
X161628705Y-74561496D01*
X161741568Y-74550380D01*
X161797999Y-74544822D01*
X161798000Y-74544822D01*
X161967294Y-74561496D01*
X161967294Y-74561496D01*
G37*
G36*
X164507294Y-74561496D02*
X164627726Y-74598029D01*
X164670087Y-74610879D01*
X164820112Y-74691068D01*
X164951612Y-74798988D01*
X165059532Y-74930488D01*
X165139721Y-75080512D01*
X165152571Y-75122873D01*
X165189104Y-75243305D01*
X165189104Y-75243307D01*
X165201600Y-75370179D01*
X165201600Y-75759820D01*
X165201076Y-75765136D01*
X165189104Y-75886694D01*
X165152571Y-76007128D01*
X165139721Y-76049488D01*
X165059532Y-76199512D01*
X164951612Y-76331012D01*
X164820112Y-76438932D01*
X164670088Y-76519121D01*
X164642433Y-76527510D01*
X164507295Y-76568504D01*
X164394432Y-76579620D01*
X164338001Y-76585178D01*
X164338000Y-76585178D01*
X164168706Y-76568504D01*
X164033568Y-76527510D01*
X164005913Y-76519121D01*
X163855889Y-76438932D01*
X163765946Y-76365117D01*
X163724388Y-76331012D01*
X163616469Y-76199512D01*
X163594127Y-76157713D01*
X163536279Y-76049488D01*
X163523429Y-76007127D01*
X163486896Y-75886695D01*
X163478565Y-75802112D01*
X163474400Y-75759821D01*
X163474400Y-75370180D01*
X163486896Y-75243308D01*
X163486896Y-75243306D01*
X163536278Y-75080517D01*
X163536279Y-75080513D01*
X163616468Y-74930488D01*
X163724388Y-74798988D01*
X163855888Y-74691068D01*
X164005912Y-74610879D01*
X164048273Y-74598029D01*
X164168705Y-74561496D01*
X164281568Y-74550380D01*
X164337999Y-74544822D01*
X164338000Y-74544822D01*
X164507294Y-74561496D01*
X164507294Y-74561496D01*
G37*
G36*
X167047294Y-74561496D02*
X167167726Y-74598029D01*
X167210087Y-74610879D01*
X167360112Y-74691068D01*
X167491612Y-74798988D01*
X167599532Y-74930488D01*
X167679721Y-75080512D01*
X167692571Y-75122873D01*
X167729104Y-75243305D01*
X167729104Y-75243307D01*
X167741600Y-75370179D01*
X167741600Y-75759820D01*
X167741076Y-75765136D01*
X167729104Y-75886694D01*
X167692571Y-76007128D01*
X167679721Y-76049488D01*
X167599532Y-76199512D01*
X167491612Y-76331012D01*
X167360112Y-76438932D01*
X167210088Y-76519121D01*
X167182433Y-76527510D01*
X167047295Y-76568504D01*
X166934432Y-76579620D01*
X166878001Y-76585178D01*
X166878000Y-76585178D01*
X166708706Y-76568504D01*
X166573568Y-76527510D01*
X166545913Y-76519121D01*
X166395889Y-76438932D01*
X166305946Y-76365117D01*
X166264388Y-76331012D01*
X166156469Y-76199512D01*
X166134127Y-76157713D01*
X166076279Y-76049488D01*
X166063429Y-76007127D01*
X166026896Y-75886695D01*
X166018565Y-75802112D01*
X166014400Y-75759821D01*
X166014400Y-75370180D01*
X166026896Y-75243308D01*
X166026896Y-75243306D01*
X166076278Y-75080517D01*
X166076279Y-75080513D01*
X166156468Y-74930488D01*
X166264388Y-74798988D01*
X166395888Y-74691068D01*
X166545912Y-74610879D01*
X166588273Y-74598029D01*
X166708705Y-74561496D01*
X166821568Y-74550380D01*
X166877999Y-74544822D01*
X166878000Y-74544822D01*
X167047294Y-74561496D01*
X167047294Y-74561496D01*
G37*
M02*
