<?xml version="1.0" encoding="UTF-8" standalone="no"?>

<svg
	xmlns="http://www.w3.org/2000/svg" version="1.1"
	xmlns:freecad="http://www.freecadweb.org/wiki/index.php?title=Svg_Namespace"
	width="1189mm"
	height="841mm"
	viewBox="0 0 1189 841">
	<!-- Working space 20 10 1179 831 -->
	<!-- Title block 999 771 1179 831 -->
	<g>
		<rect
			id="drawing-border"
			style="fill:none;stroke:#000000;stroke-width:0.7;stroke-linecap:miter;stroke-miterlimit:4"
			width="1159"
			height="821"
			x="20"
			y="10" />
			<!-- width-30, height-20 -->
		<g
			transform="translate(979,544)">
			<!-- A4 Portrait based for other formats width-210, height-297 -->
			<!--        page       rect   translation
			               w    h    rw   rh   tx   ty
			        A4-P  210  297  180  277    0    0
			        A3-L  420  297  390  277  210    0
			        A2-L  594  420  564  400  384  123
			        A1-L  841  594  811  574  631  297
			        A0-L 1189  841 1159  821  979  544
			-->
			<g
				id="titleblock-structure"
				style="fill:none;stroke:#000000;stroke-width:0.35;stroke-linecap:miter;stroke-miterlimit:4">
				<rect width="180" height="60" x="20" y="227" />
				<path d="m 20,239 h 180" />
				<path d="m 80,227 v 12" />
				<path d="m 140,239 v 48" />
				<path d="m 160,239 v 12" />
				<path d="m 180,239 v 12" />
				<path d="m 140,251 h 60" />
				<path d="m 140,275 h 60" />
				<path d="m 180,275 v 12" />
			</g>
			<g
				id="titleblock-text-non-editable"
				style="font-size:3px;text-anchor:start;fill:#000000;font-family:osifont"
				xml:space="preserve">
				<text x="21" y="230">Created by:</text>
				<text x="81" y="230">Title:</text>
				<text x="21" y="242">Supplementary information:</text>
				<text x="141" y="242">Size:</text>
				<text x="161" y="242">Sheet:</text>
				<text x="181" y="242">Scale:</text>
				<text x="141" y="254">Part number:</text>
				<text x="141" y="266">Drawing number:</text>
				<text x="141" y="278">Date:</text>
				<text x="181" y="278">Revision:</text>
			</g>
			<g
				id="titleblock-text-editable"
				style="font-size:5px;text-anchor:middle;fill:#000000;font-family:osifont"
				xml:space="preserve">
				<text freecad:editable="AUTHOR NAME" x="50" y="236"><tspan>AUTHOR NAME</tspan></text>
				<text freecad:editable="DRAWING TITLE" x="140" y="236"><tspan>DRAWING TITLE</tspan></text>
				<text freecad:editable="SI-1" x="80" y="248"><tspan></tspan></text>
				<text freecad:editable="SI-2" x="80" y="255"><tspan></tspan></text>
				<text freecad:editable="FreeCAD DRAWING" x="80" y="262"><tspan>FreeCAD DRAWING</tspan></text>
				<text freecad:editable="SI-4" x="80" y="269"><tspan></tspan></text>
				<text freecad:editable="SI-5" x="80" y="276"><tspan></tspan></text>
				<text freecad:editable="SI-6" x="80" y="283"><tspan></tspan></text>
				<text freecad:editable="FC-SI" x="150" y="248"><tspan>A0</tspan></text>
				<text freecad:editable="FC-SH" x="170" y="248"><tspan>X / Y</tspan></text>
				<text freecad:editable="FC-SC" x="190" y="248"><tspan>SCALE</tspan></text>
				<text freecad:editable="PN" x="170" y="260"><tspan>PN</tspan></text>
				<text freecad:editable="DN" x="170" y="272"><tspan>DN</tspan></text>
				<text freecad:editable="FC-DATE" x="160" y="284"><tspan>DD/MM/YYYY</tspan></text>
				<text freecad:editable="FC-REV" x="190" y="284"><tspan>REV A</tspan></text>
			</g>
			<!-- Set display:none to hide FreeCAD Logo -->
			<g
				style="display:inline"
				id="freecad-logo"
				transform="translate(128.5,276)"
				fill-rule="evenodd"
				stroke="#000"
				stroke-width="0.35"
				fill="none">
					<path d="m0.1524 0.15254v8.8549h1.9744v-3.4652h1.396v-1.3661h-1.396v-1.4745h3.4391v-2.5441l-5.4135-0.005z"/>
					<path d="m7.7927 3.4504-0.50715-0.176-0.48387-1.2366-0.76115 0.04-0.34718 1.2787-0.4859 0.23269-1.2119-0.53015-0.51188 0.56882 0.65892 1.1485-0.18006 0.50567-1.2366 0.48387 0.044064 0.76263 1.2787 0.34718 0.23269 0.4859-0.53421 1.2104 0.56882 0.51188 1.1485-0.65891 0.50973 0.18155 0.4798 1.2351 0.7667-0.04258 0.34311-1.2802 0.4859-0.23269 1.2145 0.5357 0.51188-0.56882-0.65891-1.1485 0.17748-0.51122 1.2351-0.4798-0.03851-0.76521-1.2802-0.34311-0.23269-0.4859 0.53163-1.216-0.56881-0.51184zm-0.5715 1.2244 0.23576 0.13679 0.20426 0.18519 0.16353 0.22101 0.11763 0.24572 0.06916 0.26489 0.01146 0.27146-0.03921 0.27139-0.08948 0.25764-0.14234 0.23834-0.17964 0.20167-0.22101 0.16353-0.24572 0.11763-0.26489 0.06916-0.27295 0.01553-0.2719-0.04-0.2576-0.089-0.2383-0.143-0.2002-0.183-0.165-0.217-0.1177-0.246-0.0676-0.269-0.0156-0.273 0.039206-0.2714 0.089484-0.25764 0.14085-0.23427 0.18113-0.20574 0.22101-0.16352 0.24572-0.11763 0.26895-0.06768 0.27147-0.01146 0.27139 0.03921 0.25764 0.08948z"/>
			</g>
		</g>
	</g>
<g id="Ortho_0_0"
   transform="rotate(0,35.5,272.5) translate(35.5,272.5) scale(1,1)"
  >
<g   fill="none"
   stroke="rgb(0, 0, 0)"
   stroke-linecap="butt"
   stroke-linejoin="miter"
   stroke-width="0.350000"
   transform="scale(1,-1)"
  >
<path id= "1" d=" M 150 244 L 150 212.383 " />
<path id= "2" d=" M 125.55 244 L 150 244 " />
<path id= "3" d=" M 125.55 244 L 125.55 238.301 " />
<path d="M125.33 237.48 A0.44 0.44 0 0 1 125.55 238.301" /><path d="M124.949 237.7 A0.44 0.44 0 0 1 125.33 237.48" /><path id= "6" d=" M 124.949 237.7 L 116.051 237.7 " />
<path d="M115.67 237.48 A0.44 0.44 0 0 1 116.051 237.7" /><path d="M115.45 238.301 A0.44 0.44 0 0 1 115.67 237.48" /><path id= "9" d=" M 115.45 244 L 115.45 238.301 " />
<path id= "10" d=" M 109.55 244 L 115.45 244 " />
<path id= "11" d=" M 109.55 244 L 109.55 238.301 " />
<path d="M109.33 237.48 A0.44 0.44 0 0 1 109.55 238.301" /><path d="M108.949 237.7 A0.44 0.44 0 0 1 109.33 237.48" /><path id= "14" d=" M 108.949 237.7 L 100.051 237.7 " />
<path d="M99.67 237.48 A0.44 0.44 0 0 1 100.051 237.7" /><path d="M99.45 238.301 A0.44 0.44 0 0 1 99.67 237.48" /><path id= "17" d=" M 99.45 244 L 99.45 238.301 " />
<path id= "18" d=" M 50.55 244 L 99.45 244 " />
<path id= "19" d=" M 50.55 244 L 50.55 238.301 " />
<path d="M50.33 237.48 A0.44 0.44 0 0 1 50.55 238.301" /><path d="M49.9489 237.7 A0.44 0.44 0 0 1 50.33 237.48" /><path id= "22" d=" M 49.9489 237.7 L 41.0511 237.7 " />
<path d="M40.67 237.48 A0.44 0.44 0 0 1 41.0511 237.7" /><path d="M40.45 238.301 A0.44 0.44 0 0 1 40.67 237.48" /><path id= "25" d=" M 40.45 244 L 40.45 238.301 " />
<path id= "26" d=" M 34.55 244 L 40.45 244 " />
<path id= "27" d=" M 34.55 244 L 34.55 238.301 " />
<path d="M34.33 237.48 A0.44 0.44 0 0 1 34.55 238.301" /><path d="M33.9489 237.7 A0.44 0.44 0 0 1 34.33 237.48" /><path id= "30" d=" M 33.9489 237.7 L 25.0511 237.7 " />
<path d="M24.67 237.48 A0.44 0.44 0 0 1 25.0511 237.7" /><path d="M24.45 238.301 A0.44 0.44 0 0 1 24.67 237.48" /><path id= "33" d=" M 24.45 244 L 24.45 238.301 " />
<path id= "34" d=" M 5.68434e-14 244 L 24.45 244 " />
<path id= "35" d=" M 5.68434e-14 212.383 L 5.68434e-14 244 " />
<path id= "36" d=" M 6.80012e-14 212.383 L 5.69895 212.383 " />
<path d="M6.52 212.163 A0.44 0.44 0 0 1 5.69895 212.383" /><path d="M6.3 211.782 A0.44 0.44 0 0 1 6.52 212.163" /><path id= "39" d=" M 6.3 211.782 L 6.3 202.884 " />
<path d="M6.52 202.503 A0.44 0.44 0 0 1 6.3 202.884" /><path d="M5.69895 202.283 A0.44 0.44 0 0 1 6.52 202.503" /><path id= "42" d=" M 6.80012e-14 202.283 L 5.69895 202.283 " />
<path id= "43" d=" M 5.68434e-14 196.383 L 5.68434e-14 202.283 " />
<path id= "44" d=" M 6.80012e-14 196.383 L 5.69895 196.383 " />
<path d="M6.52 196.163 A0.44 0.44 0 0 1 5.69895 196.383" /><path d="M6.3 195.782 A0.44 0.44 0 0 1 6.52 196.163" /><path id= "47" d=" M 6.3 195.782 L 6.3 186.884 " />
<path d="M6.52 186.503 A0.44 0.44 0 0 1 6.3 186.884" /><path d="M5.69895 186.283 A0.44 0.44 0 0 1 6.52 186.503" /><path id= "50" d=" M 6.80012e-14 186.283 L 5.69895 186.283 " />
<path id= "51" d=" M 5.68434e-14 135.05 L 5.68434e-14 186.283 " />
<path id= "52" d=" M 6.80012e-14 135.05 L 5.69895 135.05 " />
<path d="M6.52 134.83 A0.44 0.44 0 0 1 5.69895 135.05" /><path d="M6.3 134.449 A0.44 0.44 0 0 1 6.52 134.83" /><path id= "55" d=" M 6.3 134.449 L 6.3 125.551 " />
<path d="M6.52 125.17 A0.44 0.44 0 0 1 6.3 125.551" /><path d="M5.69895 124.95 A0.44 0.44 0 0 1 6.52 125.17" /><path id= "58" d=" M 6.80012e-14 124.95 L 5.69895 124.95 " />
<path id= "59" d=" M 5.68434e-14 119.05 L 5.68434e-14 124.95 " />
<path id= "60" d=" M 6.80012e-14 119.05 L 5.69895 119.05 " />
<path d="M6.52 118.83 A0.44 0.44 0 0 1 5.69895 119.05" /><path d="M6.3 118.449 A0.44 0.44 0 0 1 6.52 118.83" /><path id= "63" d=" M 6.3 118.449 L 6.3 109.551 " />
<path d="M6.52 109.17 A0.44 0.44 0 0 1 6.3 109.551" /><path d="M5.69895 108.95 A0.44 0.44 0 0 1 6.52 109.17" /><path id= "66" d=" M 6.80012e-14 108.95 L 5.69895 108.95 " />
<path id= "67" d=" M 5.68434e-14 57.7167 L 5.68434e-14 108.95 " />
<path id= "68" d=" M 6.80012e-14 57.7167 L 5.69895 57.7167 " />
<path d="M6.52 57.4967 A0.44 0.44 0 0 1 5.69895 57.7167" /><path d="M6.3 57.1156 A0.44 0.44 0 0 1 6.52 57.4967" /><path id= "71" d=" M 6.3 57.1156 L 6.3 48.2177 " />
<path d="M6.52 47.8367 A0.44 0.44 0 0 1 6.3 48.2177" /><path d="M5.69895 47.6167 A0.44 0.44 0 0 1 6.52 47.8367" /><path id= "74" d=" M 6.80012e-14 47.6167 L 5.69895 47.6167 " />
<path id= "75" d=" M 5.68434e-14 41.7167 L 5.68434e-14 47.6167 " />
<path id= "76" d=" M 6.80012e-14 41.7167 L 5.69895 41.7167 " />
<path d="M6.52 41.4967 A0.44 0.44 0 0 1 5.69895 41.7167" /><path d="M6.3 41.1156 A0.44 0.44 0 0 1 6.52 41.4967" /><path id= "79" d=" M 6.3 41.1156 L 6.3 32.2177 " />
<path d="M6.52 31.8367 A0.44 0.44 0 0 1 6.3 32.2177" /><path d="M5.69895 31.6167 A0.44 0.44 0 0 1 6.52 31.8367" /><path id= "82" d=" M 6.80012e-14 31.6167 L 5.69895 31.6167 " />
<path id= "83" d=" M 5.68434e-14 2.84217e-14 L 5.68434e-14 31.6167 " />
<path id= "84" d=" M 24.45 2.84217e-14 L 5.68434e-14 2.84217e-14 " />
<path id= "85" d=" M 24.45 5.69895 L 24.45 1.68754e-14 " />
<path d="M25.0511 6.3 A0.44 0.44 0 1 1 24.45 5.69895" /><path id= "87" d=" M 33.9489 6.3 L 25.0511 6.3 " />
<path d="M34.55 5.69895 A0.44 0.44 0 1 1 33.9489 6.3" /><path id= "89" d=" M 34.55 5.69895 L 34.55 1.68754e-14 " />
<path id= "90" d=" M 40.45 2.84217e-14 L 34.55 2.84217e-14 " />
<path id= "91" d=" M 40.45 5.69895 L 40.45 1.68754e-14 " />
<path d="M41.0511 6.3 A0.44 0.44 0 1 1 40.45 5.69895" /><path id= "93" d=" M 49.9489 6.3 L 41.0511 6.3 " />
<path d="M50.55 5.69895 A0.44 0.44 0 1 1 49.9489 6.3" /><path id= "95" d=" M 50.55 5.69895 L 50.55 1.68754e-14 " />
<path id= "96" d=" M 99.45 2.84217e-14 L 50.55 2.84217e-14 " />
<path id= "97" d=" M 99.45 5.69895 L 99.45 1.68754e-14 " />
<path d="M100.051 6.3 A0.44 0.44 0 1 1 99.45 5.69895" /><path id= "99" d=" M 108.949 6.3 L 100.051 6.3 " />
<path d="M109.55 5.69895 A0.44 0.44 0 1 1 108.949 6.3" /><path id= "101" d=" M 109.55 5.69895 L 109.55 1.68754e-14 " />
<path id= "102" d=" M 115.45 2.84217e-14 L 109.55 2.84217e-14 " />
<path id= "103" d=" M 115.45 5.69895 L 115.45 1.68754e-14 " />
<path d="M116.051 6.3 A0.44 0.44 0 1 1 115.45 5.69895" /><path id= "105" d=" M 124.949 6.3 L 116.051 6.3 " />
<path d="M125.55 5.69895 A0.44 0.44 0 1 1 124.949 6.3" /><path id= "107" d=" M 125.55 5.69895 L 125.55 1.68754e-14 " />
<path id= "108" d=" M 150 2.84217e-14 L 125.55 2.84217e-14 " />
<path id= "109" d=" M 150 31.6167 L 150 2.84217e-14 " />
<path id= "110" d=" M 144.301 31.6167 L 150 31.6167 " />
<path d="M143.7 32.2177 A0.44 0.44 0 1 1 144.301 31.6167" /><path id= "112" d=" M 143.7 41.1156 L 143.7 32.2177 " />
<path d="M144.301 41.7167 A0.44 0.44 0 1 1 143.7 41.1156" /><path id= "114" d=" M 144.301 41.7167 L 150 41.7167 " />
<path id= "115" d=" M 150 47.6167 L 150 41.7167 " />
<path id= "116" d=" M 144.301 47.6167 L 150 47.6167 " />
<path d="M143.7 48.2177 A0.44 0.44 0 1 1 144.301 47.6167" /><path id= "118" d=" M 143.7 57.1156 L 143.7 48.2177 " />
<path d="M144.301 57.7167 A0.44 0.44 0 1 1 143.7 57.1156" /><path id= "120" d=" M 144.301 57.7167 L 150 57.7167 " />
<path id= "121" d=" M 150 108.95 L 150 57.7167 " />
<path id= "122" d=" M 144.301 108.95 L 150 108.95 " />
<path d="M143.7 109.551 A0.44 0.44 0 1 1 144.301 108.95" /><path id= "124" d=" M 143.7 118.449 L 143.7 109.551 " />
<path d="M144.301 119.05 A0.44 0.44 0 1 1 143.7 118.449" /><path id= "126" d=" M 144.301 119.05 L 150 119.05 " />
<path id= "127" d=" M 150 124.95 L 150 119.05 " />
<path id= "128" d=" M 144.301 124.95 L 150 124.95 " />
<path d="M143.7 125.551 A0.44 0.44 0 1 1 144.301 124.95" /><path id= "130" d=" M 143.7 134.449 L 143.7 125.551 " />
<path d="M144.301 135.05 A0.44 0.44 0 1 1 143.7 134.449" /><path id= "132" d=" M 144.301 135.05 L 150 135.05 " />
<path id= "133" d=" M 150 186.283 L 150 135.05 " />
<path id= "134" d=" M 144.301 186.283 L 150 186.283 " />
<path d="M143.7 186.884 A0.44 0.44 0 1 1 144.301 186.283" /><path id= "136" d=" M 143.7 195.782 L 143.7 186.884 " />
<path d="M144.301 196.383 A0.44 0.44 0 1 1 143.7 195.782" /><path id= "138" d=" M 144.301 196.383 L 150 196.383 " />
<path id= "139" d=" M 150 202.283 L 150 196.383 " />
<path id= "140" d=" M 144.301 202.283 L 150 202.283 " />
<path d="M143.7 202.884 A0.44 0.44 0 1 1 144.301 202.283" /><path id= "142" d=" M 143.7 211.782 L 143.7 202.884 " />
<path d="M144.301 212.383 A0.44 0.44 0 1 1 143.7 211.782" /><path id= "144" d=" M 144.301 212.383 L 150 212.383 " />
<circle cx ="112.5" cy ="3" r ="1.8" /><path id= "146" d=" M 36.0511 56.7 L 44.9489 56.7 " />
<path d="M35.45 57.3011 A0.44 0.44 0 1 1 36.0511 56.7" /><path id= "148" d=" M 35.45 57.3011 L 35.45 62.5389 " />
<path d="M35.2373 63 A0.44 0.44 0 0 1 35.45 62.5389" /><path d="M35.45 63.4611 A0.44 0.44 0 0 1 35.2373 63" /><path id= "151" d=" M 35.45 63.4611 L 35.45 68.6989 " />
<path d="M35.67 69.52 A0.44 0.44 0 0 1 35.45 68.6989" /><path d="M36.0511 69.3 A0.44 0.44 0 0 1 35.67 69.52" /><path id= "154" d=" M 36.0511 69.3 L 44.9489 69.3 " />
<path d="M45.33 69.52 A0.44 0.44 0 0 1 44.9489 69.3" /><path d="M45.55 68.6989 A0.44 0.44 0 0 1 45.33 69.52" /><path id= "157" d=" M 45.55 63.4611 L 45.55 68.6989 " />
<path d="M45.7627 63 A0.44 0.44 0 0 1 45.55 63.4611" /><path d="M45.55 62.5389 A0.44 0.44 0 0 1 45.7627 63" /><path id= "160" d=" M 45.55 57.3011 L 45.55 62.5389 " />
<path d="M44.9489 56.7 A0.44 0.44 0 1 1 45.55 57.3011" /><path id= "162" d=" M 105.051 56.7 L 113.949 56.7 " />
<path d="M104.45 57.3011 A0.44 0.44 0 1 1 105.051 56.7" /><path id= "164" d=" M 104.45 57.3011 L 104.45 62.5389 " />
<path d="M104.237 63 A0.44 0.44 0 0 1 104.45 62.5389" /><path d="M104.45 63.4611 A0.44 0.44 0 0 1 104.237 63" /><path id= "167" d=" M 104.45 63.4611 L 104.45 68.6989 " />
<path d="M104.67 69.52 A0.44 0.44 0 0 1 104.45 68.6989" /><path d="M105.051 69.3 A0.44 0.44 0 0 1 104.67 69.52" /><path id= "170" d=" M 105.051 69.3 L 113.949 69.3 " />
<path d="M114.33 69.52 A0.44 0.44 0 0 1 113.949 69.3" /><path d="M114.55 68.6989 A0.44 0.44 0 0 1 114.33 69.52" /><path id= "173" d=" M 114.55 63.4611 L 114.55 68.6989 " />
<path d="M114.763 63 A0.44 0.44 0 0 1 114.55 63.4611" /><path d="M114.55 62.5389 A0.44 0.44 0 0 1 114.763 63" /><path id= "176" d=" M 114.55 57.3011 L 114.55 62.5389 " />
<path d="M113.949 56.7 A0.44 0.44 0 1 1 114.55 57.3011" /><circle cx ="37.5" cy ="3" r ="1.8" /><path id= "179" d=" M 35 42 L 35 12 " />
<path id= "180" d=" M 115 42 L 35 42 " />
<path id= "181" d=" M 35 12 L 115 12 " />
<path id= "182" d=" M 115 12 L 115 42 " />
<circle cx ="37.5" cy ="241" r ="1.8" /><path id= "184" d=" M 113.949 174.7 L 105.051 174.7 " />
<path d="M104.67 174.48 A0.44 0.44 0 0 1 105.051 174.7" /><path d="M104.45 175.301 A0.44 0.44 0 0 1 104.67 174.48" /><path id= "187" d=" M 104.45 180.539 L 104.45 175.301 " />
<path d="M104.237 181 A0.44 0.44 0 0 1 104.45 180.539" /><path d="M104.45 181.461 A0.44 0.44 0 0 1 104.237 181" /><path id= "190" d=" M 104.45 186.699 L 104.45 181.461 " />
<path d="M105.051 187.3 A0.44 0.44 0 1 1 104.45 186.699" /><path id= "192" d=" M 113.949 187.3 L 105.051 187.3 " />
<path d="M114.55 186.699 A0.44 0.44 0 1 1 113.949 187.3" /><path id= "194" d=" M 114.55 186.699 L 114.55 181.461 " />
<path d="M114.763 181 A0.44 0.44 0 0 1 114.55 181.461" /><path d="M114.55 180.539 A0.44 0.44 0 0 1 114.763 181" /><path id= "197" d=" M 114.55 180.539 L 114.55 175.301 " />
<path d="M114.33 174.48 A0.44 0.44 0 0 1 114.55 175.301" /><path d="M113.949 174.7 A0.44 0.44 0 0 1 114.33 174.48" /><path id= "200" d=" M 44.9489 174.7 L 36.0511 174.7 " />
<path d="M35.67 174.48 A0.44 0.44 0 0 1 36.0511 174.7" /><path d="M35.45 175.301 A0.44 0.44 0 0 1 35.67 174.48" /><path id= "203" d=" M 35.45 180.539 L 35.45 175.301 " />
<path d="M35.2373 181 A0.44 0.44 0 0 1 35.45 180.539" /><path d="M35.45 181.461 A0.44 0.44 0 0 1 35.2373 181" /><path id= "206" d=" M 35.45 186.699 L 35.45 181.461 " />
<path d="M36.0511 187.3 A0.44 0.44 0 1 1 35.45 186.699" /><path id= "208" d=" M 44.9489 187.3 L 36.0511 187.3 " />
<path d="M45.55 186.699 A0.44 0.44 0 1 1 44.9489 187.3" /><path id= "210" d=" M 45.55 186.699 L 45.55 181.461 " />
<path d="M45.7627 181 A0.44 0.44 0 0 1 45.55 181.461" /><path d="M45.55 180.539 A0.44 0.44 0 0 1 45.7627 181" /><path id= "213" d=" M 45.55 180.539 L 45.55 175.301 " />
<path d="M45.33 174.48 A0.44 0.44 0 0 1 45.55 175.301" /><path d="M44.9489 174.7 A0.44 0.44 0 0 1 45.33 174.48" /><circle cx ="112.5" cy ="241" r ="1.8" /><path id= "217" d=" M 35 232 L 35 202 " />
<path id= "218" d=" M 115 232 L 35 232 " />
<path id= "219" d=" M 35 202 L 115 202 " />
<path id= "220" d=" M 115 202 L 115 232 " />
<circle cx ="147" cy ="122" r ="1.8" /><circle cx ="147" cy ="44.6667" r ="1.8" /><circle cx ="147" cy ="199.333" r ="1.8" /><circle cx ="3" cy ="199.333" r ="1.8" /><circle cx ="3" cy ="122" r ="1.8" /><circle cx ="3" cy ="44.6667" r ="1.8" /></g>
</g>



<g id="View"
   transform="rotate(0,10,10) translate(10,10) scale(1,1)"
  >
<g   fill="none"
   stroke="rgb(0, 0, 0)"
   stroke-linecap="butt"
   stroke-linejoin="miter"
   stroke-width="0.350000"
   transform="scale(1,-1)"
  >
<path id= "1" d=" M 274.3 10.7 L 275.072 10.7 " />
<path id= "2" d=" M 274.3 10.7 L 274.3 6 " />
<path id= "3" d=" M 275.5 6 L 274.3 6 " />
<path id= "4" d=" M 275.5 6 L 275.5 8.88178e-16 " />
<path id= "5" d=" M 275.5 8.88178e-16 L 285.5 8.88178e-16 " />
<path id= "6" d=" M 310 27.95 L 310 6 " />
<path id= "7" d=" M 310 27.95 L 304.301 27.95 " />
<path id= "8" d=" M 310 6 L 285.5 6 " />
<path id= "9" d=" M 285.5 6 L 285.5 8.88178e-16 " />
<path d="M304.301 27.95 A0.44 0.44 0 0 0 303.48 28.17" /><path d="M303.48 28.17 A0.44 0.44 0 0 0 303.7 28.5511" /><path id= "12" d=" M 303.7 37.4489 L 303.7 28.5511 " />
<path d="M303.7 37.4489 A0.44 0.44 0 0 0 303.48 37.83" /><path d="M303.48 37.83 A0.44 0.44 0 0 0 304.301 38.05" /><path id= "15" d=" M 310 38.05 L 304.301 38.05 " />
<path id= "16" d=" M 310 43.95 L 310 38.05 " />
<path id= "17" d=" M 310 43.95 L 304.301 43.95 " />
<path d="M304.301 43.95 A0.44 0.44 0 0 0 303.48 44.17" /><path d="M303.48 44.17 A0.44 0.44 0 0 0 303.7 44.5511" /><path id= "20" d=" M 303.7 53.4489 L 303.7 44.5511 " />
<path d="M303.7 53.4489 A0.44 0.44 0 0 0 303.48 53.83" /><path d="M303.48 53.83 A0.44 0.44 0 0 0 304.301 54.05" /><path id= "23" d=" M 310 54.05 L 304.301 54.05 " />
<path id= "24" d=" M 310 76 L 310 54.05 " />
<path id= "25" d=" M 285.5 76 L 310 76 " />
<path id= "26" d=" M 285.5 76 L 285.5 82 " />
<path id= "27" d=" M 285.5 82 L 275.5 82 " />
<path id= "28" d=" M 275.5 76 L 275.5 82 " />
<path id= "29" d=" M 274.3 76 L 275.5 76 " />
<path id= "30" d=" M 274.3 71.3 L 274.3 76 " />
<path id= "31" d=" M 275.072 71.3 L 274.3 71.3 " />
<path d="M275.217 71.3833 A0.166667 0.166667 0 0 1 275.072 71.3" /><path d="M275.3 71.0723 A0.166667 0.166667 0 0 1 275.217 71.3833" /><path id= "34" d=" M 275.3 69.0277 L 275.3 71.0723 " />
<path d="M275.072 68.8 A0.166667 0.166667 0 1 1 275.3 69.0277" /><path id= "36" d=" M 275.072 68.8 L 274.3 68.8 " />
<path id= "37" d=" M 274.3 66.2278 L 274.3 68.8 " />
<path d="M273.972 65.9 A0.24 0.24 0 1 1 274.3 66.2278" /><path id= "39" d=" M 273.972 65.9 L 271.028 65.9 " />
<path d="M270.7 66.2278 A0.24 0.24 0 1 1 271.028 65.9" /><path id= "41" d=" M 270.7 66.2278 L 270.7 68.8 " />
<path id= "42" d=" M 270.7 68.8 L 269.928 68.8 " />
<path d="M269.7 69.0277 A0.166667 0.166667 0 1 1 269.928 68.8" /><path id= "44" d=" M 269.7 69.0277 L 269.7 71.0723 " />
<path d="M269.783 71.3833 A0.166667 0.166667 0 0 1 269.7 71.0723" /><path d="M269.928 71.3 A0.166667 0.166667 0 0 1 269.783 71.3833" /><path id= "47" d=" M 270.7 71.3 L 269.928 71.3 " />
<path id= "48" d=" M 270.7 71.3 L 270.7 76 " />
<path id= "49" d=" M 269.5 76 L 270.7 76 " />
<path id= "50" d=" M 269.5 76 L 269.5 82 " />
<path id= "51" d=" M 269.5 82 L 259.5 82 " />
<path id= "52" d=" M 259.5 76 L 259.5 82 " />
<path id= "53" d=" M 210.5 76 L 259.5 76 " />
<path id= "54" d=" M 210.5 76 L 210.5 82 " />
<path id= "55" d=" M 210.5 82 L 200.5 82 " />
<path id= "56" d=" M 200.5 76 L 200.5 82 " />
<path id= "57" d=" M 199.3 76 L 200.5 76 " />
<path id= "58" d=" M 199.3 71.3 L 199.3 76 " />
<path id= "59" d=" M 200.072 71.3 L 199.3 71.3 " />
<path d="M200.217 71.3833 A0.166667 0.166667 0 0 1 200.072 71.3" /><path d="M200.3 71.0723 A0.166667 0.166667 0 0 1 200.217 71.3833" /><path id= "62" d=" M 200.3 69.0277 L 200.3 71.0723 " />
<path d="M200.072 68.8 A0.166667 0.166667 0 1 1 200.3 69.0277" /><path id= "64" d=" M 200.072 68.8 L 199.3 68.8 " />
<path id= "65" d=" M 199.3 66.2278 L 199.3 68.8 " />
<path d="M198.972 65.9 A0.24 0.24 0 1 1 199.3 66.2278" /><path id= "67" d=" M 198.972 65.9 L 196.028 65.9 " />
<path d="M195.7 66.2278 A0.24 0.24 0 1 1 196.028 65.9" /><path id= "69" d=" M 195.7 66.2278 L 195.7 68.8 " />
<path id= "70" d=" M 195.7 68.8 L 194.928 68.8 " />
<path d="M194.7 69.0277 A0.166667 0.166667 0 1 1 194.928 68.8" /><path id= "72" d=" M 194.7 69.0277 L 194.7 71.0723 " />
<path d="M194.783 71.3833 A0.166667 0.166667 0 0 1 194.7 71.0723" /><path d="M194.928 71.3 A0.166667 0.166667 0 0 1 194.783 71.3833" /><path id= "75" d=" M 195.7 71.3 L 194.928 71.3 " />
<path id= "76" d=" M 195.7 71.3 L 195.7 76 " />
<path id= "77" d=" M 194.5 76 L 195.7 76 " />
<path id= "78" d=" M 194.5 76 L 194.5 82 " />
<path id= "79" d=" M 194.5 82 L 184.5 82 " />
<path id= "80" d=" M 184.5 76 L 184.5 82 " />
<path id= "81" d=" M 160 76 L 184.5 76 " />
<path id= "82" d=" M 160 54.05 L 160 76 " />
<path id= "83" d=" M 165.699 54.05 L 160 54.05 " />
<path d="M165.699 54.05 A0.44 0.44 0 1 0 166.3 53.4489" /><path id= "85" d=" M 166.3 53.4489 L 166.3 44.5511 " />
<path d="M166.3 44.5511 A0.44 0.44 0 1 0 165.699 43.95" /><path id= "87" d=" M 165.699 43.95 L 160 43.95 " />
<path id= "88" d=" M 160 38.05 L 160 43.95 " />
<path id= "89" d=" M 165.699 38.05 L 160 38.05 " />
<path d="M165.699 38.05 A0.44 0.44 0 1 0 166.3 37.4489" /><path id= "91" d=" M 166.3 37.4489 L 166.3 28.5511 " />
<path d="M166.3 28.5511 A0.44 0.44 0 1 0 165.699 27.95" /><path id= "93" d=" M 165.699 27.95 L 160 27.95 " />
<path id= "94" d=" M 160 6 L 160 27.95 " />
<path id= "95" d=" M 184.5 6 L 160 6 " />
<path id= "96" d=" M 184.5 6 L 184.5 2.04281e-14 " />
<path id= "97" d=" M 184.5 2.04281e-14 L 194.5 2.04281e-14 " />
<path id= "98" d=" M 194.5 6 L 194.5 2.04281e-14 " />
<path id= "99" d=" M 195.7 6 L 194.5 6 " />
<path id= "100" d=" M 195.7 10.7 L 195.7 6 " />
<path id= "101" d=" M 194.928 10.7 L 195.7 10.7 " />
<path d="M194.783 10.6167 A0.166667 0.166667 0 0 1 194.928 10.7" /><path d="M194.7 10.9277 A0.166667 0.166667 0 0 1 194.783 10.6167" /><path id= "104" d=" M 194.7 12.9723 L 194.7 10.9277 " />
<path d="M194.928 13.2 A0.166667 0.166667 0 1 1 194.7 12.9723" /><path id= "106" d=" M 194.928 13.2 L 195.7 13.2 " />
<path id= "107" d=" M 195.7 15.7722 L 195.7 13.2 " />
<path d="M196.028 16.1 A0.24 0.24 0 1 1 195.7 15.7722" /><path id= "109" d=" M 196.028 16.1 L 198.972 16.1 " />
<path d="M199.3 15.7722 A0.24 0.24 0 1 1 198.972 16.1" /><path id= "111" d=" M 199.3 15.7722 L 199.3 13.2 " />
<path id= "112" d=" M 199.3 13.2 L 200.072 13.2 " />
<path d="M200.3 12.9723 A0.166667 0.166667 0 1 1 200.072 13.2" /><path id= "114" d=" M 200.3 12.9723 L 200.3 10.9277 " />
<path d="M200.217 10.6167 A0.166667 0.166667 0 0 1 200.3 10.9277" /><path d="M200.072 10.7 A0.166667 0.166667 0 0 1 200.217 10.6167" /><path id= "117" d=" M 199.3 10.7 L 200.072 10.7 " />
<path id= "118" d=" M 199.3 10.7 L 199.3 6 " />
<path id= "119" d=" M 200.5 6 L 199.3 6 " />
<path id= "120" d=" M 200.5 6 L 200.5 1.77636e-14 " />
<path id= "121" d=" M 200.5 1.77636e-14 L 210.5 1.77636e-14 " />
<path id= "122" d=" M 210.5 6 L 210.5 1.77636e-14 " />
<path id= "123" d=" M 259.5 6 L 210.5 6 " />
<path id= "124" d=" M 259.5 6 L 259.5 3.55271e-15 " />
<path id= "125" d=" M 259.5 3.55271e-15 L 269.5 3.55271e-15 " />
<path id= "126" d=" M 269.5 6 L 269.5 3.55271e-15 " />
<path id= "127" d=" M 270.7 6 L 269.5 6 " />
<path id= "128" d=" M 270.7 10.7 L 270.7 6 " />
<path id= "129" d=" M 269.928 10.7 L 270.7 10.7 " />
<path d="M269.783 10.6167 A0.166667 0.166667 0 0 1 269.928 10.7" /><path d="M269.7 10.9277 A0.166667 0.166667 0 0 1 269.783 10.6167" /><path id= "132" d=" M 269.7 12.9723 L 269.7 10.9277 " />
<path d="M269.928 13.2 A0.166667 0.166667 0 1 1 269.7 12.9723" /><path id= "134" d=" M 269.928 13.2 L 270.7 13.2 " />
<path id= "135" d=" M 270.7 15.7722 L 270.7 13.2 " />
<path d="M271.028 16.1 A0.24 0.24 0 1 1 270.7 15.7722" /><path id= "137" d=" M 271.028 16.1 L 273.972 16.1 " />
<path d="M274.3 15.7722 A0.24 0.24 0 1 1 273.972 16.1" /><path id= "139" d=" M 274.3 15.7722 L 274.3 13.2 " />
<path id= "140" d=" M 274.3 13.2 L 275.072 13.2 " />
<path d="M275.3 12.9723 A0.166667 0.166667 0 1 1 275.072 13.2" /><path id= "142" d=" M 275.3 12.9723 L 275.3 10.9277 " />
<path d="M275.217 10.6167 A0.166667 0.166667 0 0 1 275.3 10.9277" /><path d="M275.072 10.7 A0.166667 0.166667 0 0 1 275.217 10.6167" /><circle cx ="235" cy ="32" r ="11" /><circle cx ="307" cy ="41" r ="1.8" /><circle cx ="163" cy ="41" r ="1.8" /></g>
</g>



<g id="Ortho_0_001"
   transform="rotate(0,-85,431.5) translate(-85,431.5) scale(1,1)"
  >
<g   fill="none"
   stroke="rgb(0, 0, 0)"
   stroke-linecap="butt"
   stroke-linejoin="miter"
   stroke-width="0.350000"
   transform="scale(1,-1)"
  >
<path id= "1" d=" M 274.3 10.7 L 275.072 10.7 " />
<path id= "2" d=" M 274.3 10.7 L 274.3 6 " />
<path id= "3" d=" M 275.5 6 L 274.3 6 " />
<path id= "4" d=" M 275.5 6 L 275.5 8.88178e-16 " />
<path id= "5" d=" M 275.5 8.88178e-16 L 285.5 8.88178e-16 " />
<path id= "6" d=" M 310 27.95 L 310 6 " />
<path id= "7" d=" M 310 27.95 L 304.301 27.95 " />
<path id= "8" d=" M 310 6 L 285.5 6 " />
<path id= "9" d=" M 285.5 6 L 285.5 8.88178e-16 " />
<path d="M304.301 27.95 A0.44 0.44 0 0 0 303.48 28.17" /><path d="M303.48 28.17 A0.44 0.44 0 0 0 303.7 28.5511" /><path id= "12" d=" M 303.7 37.4489 L 303.7 28.5511 " />
<path d="M303.7 37.4489 A0.44 0.44 0 0 0 303.48 37.83" /><path d="M303.48 37.83 A0.44 0.44 0 0 0 304.301 38.05" /><path id= "15" d=" M 310 38.05 L 304.301 38.05 " />
<path id= "16" d=" M 310 43.95 L 310 38.05 " />
<path id= "17" d=" M 310 43.95 L 304.301 43.95 " />
<path d="M304.301 43.95 A0.44 0.44 0 0 0 303.48 44.17" /><path d="M303.48 44.17 A0.44 0.44 0 0 0 303.7 44.5511" /><path id= "20" d=" M 303.7 53.4489 L 303.7 44.5511 " />
<path d="M303.7 53.4489 A0.44 0.44 0 0 0 303.48 53.83" /><path d="M303.48 53.83 A0.44 0.44 0 0 0 304.301 54.05" /><path id= "23" d=" M 310 54.05 L 304.301 54.05 " />
<path id= "24" d=" M 310 76 L 310 54.05 " />
<path id= "25" d=" M 285.5 76 L 310 76 " />
<path id= "26" d=" M 285.5 76 L 285.5 82 " />
<path id= "27" d=" M 285.5 82 L 275.5 82 " />
<path id= "28" d=" M 275.5 76 L 275.5 82 " />
<path id= "29" d=" M 274.3 76 L 275.5 76 " />
<path id= "30" d=" M 274.3 71.3 L 274.3 76 " />
<path id= "31" d=" M 275.072 71.3 L 274.3 71.3 " />
<path d="M275.217 71.3833 A0.166667 0.166667 0 0 1 275.072 71.3" /><path d="M275.3 71.0723 A0.166667 0.166667 0 0 1 275.217 71.3833" /><path id= "34" d=" M 275.3 69.0277 L 275.3 71.0723 " />
<path d="M275.072 68.8 A0.166667 0.166667 0 1 1 275.3 69.0277" /><path id= "36" d=" M 275.072 68.8 L 274.3 68.8 " />
<path id= "37" d=" M 274.3 66.2278 L 274.3 68.8 " />
<path d="M273.972 65.9 A0.24 0.24 0 1 1 274.3 66.2278" /><path id= "39" d=" M 273.972 65.9 L 271.028 65.9 " />
<path d="M270.7 66.2278 A0.24 0.24 0 1 1 271.028 65.9" /><path id= "41" d=" M 270.7 66.2278 L 270.7 68.8 " />
<path id= "42" d=" M 270.7 68.8 L 269.928 68.8 " />
<path d="M269.7 69.0277 A0.166667 0.166667 0 1 1 269.928 68.8" /><path id= "44" d=" M 269.7 69.0277 L 269.7 71.0723 " />
<path d="M269.783 71.3833 A0.166667 0.166667 0 0 1 269.7 71.0723" /><path d="M269.928 71.3 A0.166667 0.166667 0 0 1 269.783 71.3833" /><path id= "47" d=" M 270.7 71.3 L 269.928 71.3 " />
<path id= "48" d=" M 270.7 71.3 L 270.7 76 " />
<path id= "49" d=" M 269.5 76 L 270.7 76 " />
<path id= "50" d=" M 269.5 76 L 269.5 82 " />
<path id= "51" d=" M 269.5 82 L 259.5 82 " />
<path id= "52" d=" M 259.5 76 L 259.5 82 " />
<path id= "53" d=" M 210.5 76 L 259.5 76 " />
<path id= "54" d=" M 210.5 76 L 210.5 82 " />
<path id= "55" d=" M 210.5 82 L 200.5 82 " />
<path id= "56" d=" M 200.5 76 L 200.5 82 " />
<path id= "57" d=" M 199.3 76 L 200.5 76 " />
<path id= "58" d=" M 199.3 71.3 L 199.3 76 " />
<path id= "59" d=" M 200.072 71.3 L 199.3 71.3 " />
<path d="M200.217 71.3833 A0.166667 0.166667 0 0 1 200.072 71.3" /><path d="M200.3 71.0723 A0.166667 0.166667 0 0 1 200.217 71.3833" /><path id= "62" d=" M 200.3 69.0277 L 200.3 71.0723 " />
<path d="M200.072 68.8 A0.166667 0.166667 0 1 1 200.3 69.0277" /><path id= "64" d=" M 200.072 68.8 L 199.3 68.8 " />
<path id= "65" d=" M 199.3 66.2278 L 199.3 68.8 " />
<path d="M198.972 65.9 A0.24 0.24 0 1 1 199.3 66.2278" /><path id= "67" d=" M 198.972 65.9 L 196.028 65.9 " />
<path d="M195.7 66.2278 A0.24 0.24 0 1 1 196.028 65.9" /><path id= "69" d=" M 195.7 66.2278 L 195.7 68.8 " />
<path id= "70" d=" M 195.7 68.8 L 194.928 68.8 " />
<path d="M194.7 69.0277 A0.166667 0.166667 0 1 1 194.928 68.8" /><path id= "72" d=" M 194.7 69.0277 L 194.7 71.0723 " />
<path d="M194.783 71.3833 A0.166667 0.166667 0 0 1 194.7 71.0723" /><path d="M194.928 71.3 A0.166667 0.166667 0 0 1 194.783 71.3833" /><path id= "75" d=" M 195.7 71.3 L 194.928 71.3 " />
<path id= "76" d=" M 195.7 71.3 L 195.7 76 " />
<path id= "77" d=" M 194.5 76 L 195.7 76 " />
<path id= "78" d=" M 194.5 76 L 194.5 82 " />
<path id= "79" d=" M 194.5 82 L 184.5 82 " />
<path id= "80" d=" M 184.5 76 L 184.5 82 " />
<path id= "81" d=" M 160 76 L 184.5 76 " />
<path id= "82" d=" M 160 54.05 L 160 76 " />
<path id= "83" d=" M 165.699 54.05 L 160 54.05 " />
<path d="M165.699 54.05 A0.44 0.44 0 1 0 166.3 53.4489" /><path id= "85" d=" M 166.3 53.4489 L 166.3 44.5511 " />
<path d="M166.3 44.5511 A0.44 0.44 0 1 0 165.699 43.95" /><path id= "87" d=" M 165.699 43.95 L 160 43.95 " />
<path id= "88" d=" M 160 38.05 L 160 43.95 " />
<path id= "89" d=" M 165.699 38.05 L 160 38.05 " />
<path d="M165.699 38.05 A0.44 0.44 0 1 0 166.3 37.4489" /><path id= "91" d=" M 166.3 37.4489 L 166.3 28.5511 " />
<path d="M166.3 28.5511 A0.44 0.44 0 1 0 165.699 27.95" /><path id= "93" d=" M 165.699 27.95 L 160 27.95 " />
<path id= "94" d=" M 160 6 L 160 27.95 " />
<path id= "95" d=" M 184.5 6 L 160 6 " />
<path id= "96" d=" M 184.5 6 L 184.5 2.04281e-14 " />
<path id= "97" d=" M 184.5 2.04281e-14 L 194.5 2.04281e-14 " />
<path id= "98" d=" M 194.5 6 L 194.5 2.04281e-14 " />
<path id= "99" d=" M 195.7 6 L 194.5 6 " />
<path id= "100" d=" M 195.7 10.7 L 195.7 6 " />
<path id= "101" d=" M 194.928 10.7 L 195.7 10.7 " />
<path d="M194.783 10.6167 A0.166667 0.166667 0 0 1 194.928 10.7" /><path d="M194.7 10.9277 A0.166667 0.166667 0 0 1 194.783 10.6167" /><path id= "104" d=" M 194.7 12.9723 L 194.7 10.9277 " />
<path d="M194.928 13.2 A0.166667 0.166667 0 1 1 194.7 12.9723" /><path id= "106" d=" M 194.928 13.2 L 195.7 13.2 " />
<path id= "107" d=" M 195.7 15.7722 L 195.7 13.2 " />
<path d="M196.028 16.1 A0.24 0.24 0 1 1 195.7 15.7722" /><path id= "109" d=" M 196.028 16.1 L 198.972 16.1 " />
<path d="M199.3 15.7722 A0.24 0.24 0 1 1 198.972 16.1" /><path id= "111" d=" M 199.3 15.7722 L 199.3 13.2 " />
<path id= "112" d=" M 199.3 13.2 L 200.072 13.2 " />
<path d="M200.3 12.9723 A0.166667 0.166667 0 1 1 200.072 13.2" /><path id= "114" d=" M 200.3 12.9723 L 200.3 10.9277 " />
<path d="M200.217 10.6167 A0.166667 0.166667 0 0 1 200.3 10.9277" /><path d="M200.072 10.7 A0.166667 0.166667 0 0 1 200.217 10.6167" /><path id= "117" d=" M 199.3 10.7 L 200.072 10.7 " />
<path id= "118" d=" M 199.3 10.7 L 199.3 6 " />
<path id= "119" d=" M 200.5 6 L 199.3 6 " />
<path id= "120" d=" M 200.5 6 L 200.5 1.77636e-14 " />
<path id= "121" d=" M 200.5 1.77636e-14 L 210.5 1.77636e-14 " />
<path id= "122" d=" M 210.5 6 L 210.5 1.77636e-14 " />
<path id= "123" d=" M 259.5 6 L 210.5 6 " />
<path id= "124" d=" M 259.5 6 L 259.5 3.55271e-15 " />
<path id= "125" d=" M 259.5 3.55271e-15 L 269.5 3.55271e-15 " />
<path id= "126" d=" M 269.5 6 L 269.5 3.55271e-15 " />
<path id= "127" d=" M 270.7 6 L 269.5 6 " />
<path id= "128" d=" M 270.7 10.7 L 270.7 6 " />
<path id= "129" d=" M 269.928 10.7 L 270.7 10.7 " />
<path d="M269.783 10.6167 A0.166667 0.166667 0 0 1 269.928 10.7" /><path d="M269.7 10.9277 A0.166667 0.166667 0 0 1 269.783 10.6167" /><path id= "132" d=" M 269.7 12.9723 L 269.7 10.9277 " />
<path d="M269.928 13.2 A0.166667 0.166667 0 1 1 269.7 12.9723" /><path id= "134" d=" M 269.928 13.2 L 270.7 13.2 " />
<path id= "135" d=" M 270.7 15.7722 L 270.7 13.2 " />
<path d="M271.028 16.1 A0.24 0.24 0 1 1 270.7 15.7722" /><path id= "137" d=" M 271.028 16.1 L 273.972 16.1 " />
<path d="M274.3 15.7722 A0.24 0.24 0 1 1 273.972 16.1" /><path id= "139" d=" M 274.3 15.7722 L 274.3 13.2 " />
<path id= "140" d=" M 274.3 13.2 L 275.072 13.2 " />
<path d="M275.3 12.9723 A0.166667 0.166667 0 1 1 275.072 13.2" /><path id= "142" d=" M 275.3 12.9723 L 275.3 10.9277 " />
<path d="M275.217 10.6167 A0.166667 0.166667 0 0 1 275.3 10.9277" /><path d="M275.072 10.7 A0.166667 0.166667 0 0 1 275.217 10.6167" /><circle cx ="235" cy ="32" r ="11" /><circle cx ="307" cy ="41" r ="1.8" /><circle cx ="163" cy ="41" r ="1.8" /></g>
</g>



<g id="Ortho_0_002"
   transform="rotate(0,-244.5,541.5) translate(-244.5,541.5) scale(1,1)"
  >
<g   fill="none"
   stroke="rgb(0, 0, 0)"
   stroke-linecap="butt"
   stroke-linejoin="miter"
   stroke-width="0.350000"
   transform="scale(1,-1)"
  >
<path id= "1" d=" M 434.3 10.7 L 435.072 10.7 " />
<path id= "2" d=" M 434.3 10.7 L 434.3 6 " />
<path id= "3" d=" M 435.5 6 L 434.3 6 " />
<path id= "4" d=" M 435.5 6 L 435.5 8.88178e-16 " />
<path id= "5" d=" M 435.5 8.88178e-16 L 445.5 8.88178e-16 " />
<path id= "6" d=" M 470 27.95 L 470 6 " />
<path id= "7" d=" M 470 27.95 L 464.301 27.95 " />
<path id= "8" d=" M 470 6 L 445.5 6 " />
<path id= "9" d=" M 445.5 6 L 445.5 8.88178e-16 " />
<path d="M463.48 28.17 A0.44 0.44 0 0 1 464.301 27.95" /><path d="M463.7 28.5511 A0.44 0.44 0 0 1 463.48 28.17" /><path id= "12" d=" M 463.7 28.5511 L 463.7 37.4489 " />
<path d="M463.48 37.83 A0.44 0.44 0 0 1 463.7 37.4489" /><path d="M464.301 38.05 A0.44 0.44 0 0 1 463.48 37.83" /><path id= "15" d=" M 470 38.05 L 464.301 38.05 " />
<path id= "16" d=" M 470 43.95 L 470 38.05 " />
<path id= "17" d=" M 470 43.95 L 464.301 43.95 " />
<path d="M463.48 44.17 A0.44 0.44 0 0 1 464.301 43.95" /><path d="M463.7 44.5511 A0.44 0.44 0 0 1 463.48 44.17" /><path id= "20" d=" M 463.7 44.5511 L 463.7 53.4489 " />
<path d="M463.48 53.83 A0.44 0.44 0 0 1 463.7 53.4489" /><path d="M464.301 54.05 A0.44 0.44 0 0 1 463.48 53.83" /><path id= "23" d=" M 470 54.05 L 464.301 54.05 " />
<path id= "24" d=" M 470 76 L 470 54.05 " />
<path id= "25" d=" M 445.5 76 L 470 76 " />
<path id= "26" d=" M 445.5 76 L 445.5 82 " />
<path id= "27" d=" M 445.5 82 L 435.5 82 " />
<path id= "28" d=" M 435.5 76 L 435.5 82 " />
<path id= "29" d=" M 434.3 76 L 435.5 76 " />
<path id= "30" d=" M 434.3 71.3 L 434.3 76 " />
<path id= "31" d=" M 435.072 71.3 L 434.3 71.3 " />
<path d="M435.217 71.3833 A0.166667 0.166667 0 0 1 435.072 71.3" /><path d="M435.3 71.0723 A0.166667 0.166667 0 0 1 435.217 71.3833" /><path id= "34" d=" M 435.3 69.0277 L 435.3 71.0723 " />
<path d="M435.072 68.8 A0.166667 0.166667 0 1 1 435.3 69.0277" /><path id= "36" d=" M 435.072 68.8 L 434.3 68.8 " />
<path id= "37" d=" M 434.3 66.2278 L 434.3 68.8 " />
<path d="M433.972 65.9 A0.24 0.24 0 1 1 434.3 66.2278" /><path id= "39" d=" M 433.972 65.9 L 431.028 65.9 " />
<path d="M430.7 66.2278 A0.24 0.24 0 1 1 431.028 65.9" /><path id= "41" d=" M 430.7 66.2278 L 430.7 68.8 " />
<path id= "42" d=" M 430.7 68.8 L 429.928 68.8 " />
<path d="M429.7 69.0277 A0.166667 0.166667 0 1 1 429.928 68.8" /><path id= "44" d=" M 429.7 69.0277 L 429.7 71.0723 " />
<path d="M429.783 71.3833 A0.166667 0.166667 0 0 1 429.7 71.0723" /><path d="M429.928 71.3 A0.166667 0.166667 0 0 1 429.783 71.3833" /><path id= "47" d=" M 430.7 71.3 L 429.928 71.3 " />
<path id= "48" d=" M 430.7 71.3 L 430.7 76 " />
<path id= "49" d=" M 429.5 76 L 430.7 76 " />
<path id= "50" d=" M 429.5 76 L 429.5 82 " />
<path id= "51" d=" M 429.5 82 L 419.5 82 " />
<path id= "52" d=" M 419.5 76 L 419.5 82 " />
<path id= "53" d=" M 370.5 76 L 419.5 76 " />
<path id= "54" d=" M 370.5 76 L 370.5 82 " />
<path id= "55" d=" M 370.5 82 L 360.5 82 " />
<path id= "56" d=" M 360.5 76 L 360.5 82 " />
<path id= "57" d=" M 359.3 76 L 360.5 76 " />
<path id= "58" d=" M 359.3 71.3 L 359.3 76 " />
<path id= "59" d=" M 360.072 71.3 L 359.3 71.3 " />
<path d="M360.217 71.3833 A0.166667 0.166667 0 0 1 360.072 71.3" /><path d="M360.3 71.0723 A0.166667 0.166667 0 0 1 360.217 71.3833" /><path id= "62" d=" M 360.3 69.0277 L 360.3 71.0723 " />
<path d="M360.072 68.8 A0.166667 0.166667 0 1 1 360.3 69.0277" /><path id= "64" d=" M 360.072 68.8 L 359.3 68.8 " />
<path id= "65" d=" M 359.3 66.2278 L 359.3 68.8 " />
<path d="M358.972 65.9 A0.24 0.24 0 1 1 359.3 66.2278" /><path id= "67" d=" M 358.972 65.9 L 356.028 65.9 " />
<path d="M355.7 66.2278 A0.24 0.24 0 1 1 356.028 65.9" /><path id= "69" d=" M 355.7 66.2278 L 355.7 68.8 " />
<path id= "70" d=" M 355.7 68.8 L 354.928 68.8 " />
<path d="M354.7 69.0277 A0.166667 0.166667 0 1 1 354.928 68.8" /><path id= "72" d=" M 354.7 69.0277 L 354.7 71.0723 " />
<path d="M354.783 71.3833 A0.166667 0.166667 0 0 1 354.7 71.0723" /><path d="M354.928 71.3 A0.166667 0.166667 0 0 1 354.783 71.3833" /><path id= "75" d=" M 355.7 71.3 L 354.928 71.3 " />
<path id= "76" d=" M 355.7 71.3 L 355.7 76 " />
<path id= "77" d=" M 354.5 76 L 355.7 76 " />
<path id= "78" d=" M 354.5 76 L 354.5 82 " />
<path id= "79" d=" M 354.5 82 L 344.5 82 " />
<path id= "80" d=" M 344.5 76 L 344.5 82 " />
<path id= "81" d=" M 320 76 L 344.5 76 " />
<path id= "82" d=" M 320 54.05 L 320 76 " />
<path id= "83" d=" M 325.699 54.05 L 320 54.05 " />
<path d="M326.3 53.4489 A0.44 0.44 0 1 1 325.699 54.05" /><path id= "85" d=" M 326.3 44.5511 L 326.3 53.4489 " />
<path d="M325.699 43.95 A0.44 0.44 0 1 1 326.3 44.5511" /><path id= "87" d=" M 325.699 43.95 L 320 43.95 " />
<path id= "88" d=" M 320 38.05 L 320 43.95 " />
<path id= "89" d=" M 325.699 38.05 L 320 38.05 " />
<path d="M326.3 37.4489 A0.44 0.44 0 1 1 325.699 38.05" /><path id= "91" d=" M 326.3 28.5511 L 326.3 37.4489 " />
<path d="M325.699 27.95 A0.44 0.44 0 1 1 326.3 28.5511" /><path id= "93" d=" M 325.699 27.95 L 320 27.95 " />
<path id= "94" d=" M 320 6 L 320 27.95 " />
<path id= "95" d=" M 344.5 6 L 320 6 " />
<path id= "96" d=" M 344.5 6 L 344.5 2.04281e-14 " />
<path id= "97" d=" M 344.5 2.04281e-14 L 354.5 2.04281e-14 " />
<path id= "98" d=" M 354.5 6 L 354.5 2.04281e-14 " />
<path id= "99" d=" M 355.7 6 L 354.5 6 " />
<path id= "100" d=" M 355.7 10.7 L 355.7 6 " />
<path id= "101" d=" M 354.928 10.7 L 355.7 10.7 " />
<path d="M354.783 10.6167 A0.166667 0.166667 0 0 1 354.928 10.7" /><path d="M354.7 10.9277 A0.166667 0.166667 0 0 1 354.783 10.6167" /><path id= "104" d=" M 354.7 12.9723 L 354.7 10.9277 " />
<path d="M354.928 13.2 A0.166667 0.166667 0 1 1 354.7 12.9723" /><path id= "106" d=" M 354.928 13.2 L 355.7 13.2 " />
<path id= "107" d=" M 355.7 15.7722 L 355.7 13.2 " />
<path d="M356.028 16.1 A0.24 0.24 0 1 1 355.7 15.7722" /><path id= "109" d=" M 356.028 16.1 L 358.972 16.1 " />
<path d="M359.3 15.7722 A0.24 0.24 0 1 1 358.972 16.1" /><path id= "111" d=" M 359.3 15.7722 L 359.3 13.2 " />
<path id= "112" d=" M 359.3 13.2 L 360.072 13.2 " />
<path d="M360.3 12.9723 A0.166667 0.166667 0 1 1 360.072 13.2" /><path id= "114" d=" M 360.3 12.9723 L 360.3 10.9277 " />
<path d="M360.217 10.6167 A0.166667 0.166667 0 0 1 360.3 10.9277" /><path d="M360.072 10.7 A0.166667 0.166667 0 0 1 360.217 10.6167" /><path id= "117" d=" M 359.3 10.7 L 360.072 10.7 " />
<path id= "118" d=" M 359.3 10.7 L 359.3 6 " />
<path id= "119" d=" M 360.5 6 L 359.3 6 " />
<path id= "120" d=" M 360.5 6 L 360.5 1.77636e-14 " />
<path id= "121" d=" M 360.5 1.77636e-14 L 370.5 1.77636e-14 " />
<path id= "122" d=" M 370.5 6 L 370.5 1.77636e-14 " />
<path id= "123" d=" M 419.5 6 L 370.5 6 " />
<path id= "124" d=" M 419.5 6 L 419.5 3.55271e-15 " />
<path id= "125" d=" M 419.5 3.55271e-15 L 429.5 3.55271e-15 " />
<path id= "126" d=" M 429.5 6 L 429.5 3.55271e-15 " />
<path id= "127" d=" M 430.7 6 L 429.5 6 " />
<path id= "128" d=" M 430.7 10.7 L 430.7 6 " />
<path id= "129" d=" M 429.928 10.7 L 430.7 10.7 " />
<path d="M429.783 10.6167 A0.166667 0.166667 0 0 1 429.928 10.7" /><path d="M429.7 10.9277 A0.166667 0.166667 0 0 1 429.783 10.6167" /><path id= "132" d=" M 429.7 12.9723 L 429.7 10.9277 " />
<path d="M429.928 13.2 A0.166667 0.166667 0 1 1 429.7 12.9723" /><path id= "134" d=" M 429.928 13.2 L 430.7 13.2 " />
<path id= "135" d=" M 430.7 15.7722 L 430.7 13.2 " />
<path d="M431.028 16.1 A0.24 0.24 0 1 1 430.7 15.7722" /><path id= "137" d=" M 431.028 16.1 L 433.972 16.1 " />
<path d="M434.3 15.7722 A0.24 0.24 0 1 1 433.972 16.1" /><path id= "139" d=" M 434.3 15.7722 L 434.3 13.2 " />
<path id= "140" d=" M 434.3 13.2 L 435.072 13.2 " />
<path d="M435.3 12.9723 A0.166667 0.166667 0 1 1 435.072 13.2" /><path id= "142" d=" M 435.3 12.9723 L 435.3 10.9277 " />
<path d="M435.217 10.6167 A0.166667 0.166667 0 0 1 435.3 10.9277" /><path d="M435.072 10.7 A0.166667 0.166667 0 0 1 435.217 10.6167" /><circle cx ="395" cy ="32" r ="11" /><circle cx ="467" cy ="41" r ="1.8" /><circle cx ="323" cy ="41" r ="1.8" /></g>
</g>



<g id="Ortho_0_003"
   transform="rotate(0,228.5,417.5) translate(228.5,417.5) scale(1,1)"
  >
<g   fill="none"
   stroke="rgb(0, 0, 0)"
   stroke-linecap="butt"
   stroke-linejoin="miter"
   stroke-width="0.350000"
   transform="scale(1,-1)"
  >
<path id= "1" d=" M 244 330 L 238 330 " />
<path id= "2" d=" M 244 330 L 244 380 " />
<path id= "3" d=" M 238 330 L 238 308 " />
<path id= "4" d=" M 244 380 L 0 380 " />
<path id= "5" d=" M 238 308 L 244 308 " />
<path id= "6" d=" M 0 380 L 0 330 " />
<path id= "7" d=" M 6 330 L 0 330 " />
<path id= "8" d=" M 6 308 L 6 330 " />
<path id= "9" d=" M 244 298 L 244 308 " />
<path id= "10" d=" M 6 308 L -1.33227e-14 308 " />
<path id= "11" d=" M -1.33227e-14 308 L -1.33227e-14 298 " />
<path id= "12" d=" M 6 296.8 L 6 298 " />
<path id= "13" d=" M 10.7 296.8 L 6 296.8 " />
<path id= "14" d=" M 10.7 297.572 L 10.7 296.8 " />
<path id= "15" d=" M 6 298 L -1.33227e-14 298 " />
<path id= "16" d=" M 238 298 L 244 298 " />
<path id= "17" d=" M 233.3 296.8 L 233.3 297.572 " />
<path id= "18" d=" M 233.3 296.8 L 238 296.8 " />
<path id= "19" d=" M 238 298 L 238 296.8 " />
<path d="M10.6167 297.717 A0.166667 0.166667 0 0 1 10.7 297.572" /><path d="M10.9277 297.8 A0.166667 0.166667 0 0 1 10.6167 297.717" /><path id= "22" d=" M 12.9723 297.8 L 10.9277 297.8 " />
<path d="M13.2 297.572 A0.166667 0.166667 0 1 1 12.9723 297.8" /><path id= "24" d=" M 13.2 297.572 L 13.2 296.8 " />
<path id= "25" d=" M 15.7722 296.8 L 13.2 296.8 " />
<path d="M16.1 296.472 A0.24 0.24 0 1 1 15.7722 296.8" /><path id= "27" d=" M 16.1 296.472 L 16.1 293.528 " />
<path d="M15.7722 293.2 A0.24 0.24 0 1 1 16.1 293.528" /><path id= "29" d=" M 15.7722 293.2 L 13.2 293.2 " />
<path id= "30" d=" M 13.2 293.2 L 13.2 292.428 " />
<path d="M12.9723 292.2 A0.166667 0.166667 0 1 1 13.2 292.428" /><path id= "32" d=" M 12.9723 292.2 L 10.9277 292.2 " />
<path d="M10.6167 292.283 A0.166667 0.166667 0 0 1 10.9277 292.2" /><path d="M10.7 292.428 A0.166667 0.166667 0 0 1 10.6167 292.283" /><path id= "35" d=" M 10.7 293.2 L 10.7 292.428 " />
<path id= "36" d=" M 10.7 293.2 L 6 293.2 " />
<path id= "37" d=" M 6 292 L 6 293.2 " />
<path id= "38" d=" M 6 292 L -1.33227e-14 292 " />
<path id= "39" d=" M -1.33227e-14 292 L -1.33227e-14 282 " />
<path id= "40" d=" M 6 282 L -1.33227e-14 282 " />
<path id= "41" d=" M 6 260 L 6 282 " />
<path id= "42" d=" M 31.6667 260 L 6 260 " />
<path id= "43" d=" M 31.6667 260 L 31.6667 254 " />
<path id= "44" d=" M 31.6667 254 L 41.6667 254 " />
<path id= "45" d=" M 41.6667 260 L 41.6667 254 " />
<path id= "46" d=" M 42.8667 260 L 41.6667 260 " />
<path id= "47" d=" M 42.8667 264.7 L 42.8667 260 " />
<path id= "48" d=" M 42.0943 264.7 L 42.8667 264.7 " />
<path d="M41.95 264.617 A0.166667 0.166667 0 0 1 42.0943 264.7" /><path d="M41.8667 264.928 A0.166667 0.166667 0 0 1 41.95 264.617" /><path id= "51" d=" M 41.8667 266.972 L 41.8667 264.928 " />
<path d="M42.0943 267.2 A0.166667 0.166667 0 1 1 41.8667 266.972" /><path id= "53" d=" M 42.0943 267.2 L 42.8667 267.2 " />
<path id= "54" d=" M 42.8667 269.772 L 42.8667 267.2 " />
<path d="M43.1945 270.1 A0.24 0.24 0 1 1 42.8667 269.772" /><path id= "56" d=" M 43.1945 270.1 L 46.1388 270.1 " />
<path d="M46.4667 269.772 A0.24 0.24 0 1 1 46.1388 270.1" /><path id= "58" d=" M 46.4667 269.772 L 46.4667 267.2 " />
<path id= "59" d=" M 46.4667 267.2 L 47.239 267.2 " />
<path d="M47.4667 266.972 A0.166667 0.166667 0 1 1 47.239 267.2" /><path id= "61" d=" M 47.4667 266.972 L 47.4667 264.928 " />
<path d="M47.3833 264.617 A0.166667 0.166667 0 0 1 47.4667 264.928" /><path d="M47.239 264.7 A0.166667 0.166667 0 0 1 47.3833 264.617" /><path id= "64" d=" M 46.4667 264.7 L 47.239 264.7 " />
<path id= "65" d=" M 46.4667 264.7 L 46.4667 260 " />
<path id= "66" d=" M 47.6667 260 L 46.4667 260 " />
<path id= "67" d=" M 47.6667 260 L 47.6667 254 " />
<path id= "68" d=" M 47.6667 254 L 57.6667 254 " />
<path id= "69" d=" M 57.6667 260 L 57.6667 254 " />
<path id= "70" d=" M 109 260 L 57.6667 260 " />
<path id= "71" d=" M 109 260 L 109 254 " />
<path id= "72" d=" M 109 254 L 119 254 " />
<path id= "73" d=" M 119 260 L 119 254 " />
<path id= "74" d=" M 120.2 260 L 119 260 " />
<path id= "75" d=" M 120.2 264.7 L 120.2 260 " />
<path id= "76" d=" M 119.428 264.7 L 120.2 264.7 " />
<path d="M119.283 264.617 A0.166667 0.166667 0 0 1 119.428 264.7" /><path d="M119.2 264.928 A0.166667 0.166667 0 0 1 119.283 264.617" /><path id= "79" d=" M 119.2 266.972 L 119.2 264.928 " />
<path d="M119.428 267.2 A0.166667 0.166667 0 1 1 119.2 266.972" /><path id= "81" d=" M 119.428 267.2 L 120.2 267.2 " />
<path id= "82" d=" M 120.2 269.772 L 120.2 267.2 " />
<path d="M120.528 270.1 A0.24 0.24 0 1 1 120.2 269.772" /><path id= "84" d=" M 120.528 270.1 L 123.472 270.1 " />
<path d="M123.8 269.772 A0.24 0.24 0 1 1 123.472 270.1" /><path id= "86" d=" M 123.8 269.772 L 123.8 267.2 " />
<path id= "87" d=" M 123.8 267.2 L 124.572 267.2 " />
<path d="M124.8 266.972 A0.166667 0.166667 0 1 1 124.572 267.2" /><path id= "89" d=" M 124.8 266.972 L 124.8 264.928 " />
<path d="M124.717 264.617 A0.166667 0.166667 0 0 1 124.8 264.928" /><path d="M124.572 264.7 A0.166667 0.166667 0 0 1 124.717 264.617" /><path id= "92" d=" M 123.8 264.7 L 124.572 264.7 " />
<path id= "93" d=" M 123.8 264.7 L 123.8 260 " />
<path id= "94" d=" M 125 260 L 123.8 260 " />
<path id= "95" d=" M 125 260 L 125 254 " />
<path id= "96" d=" M 125 254 L 135 254 " />
<path id= "97" d=" M 135 260 L 135 254 " />
<path id= "98" d=" M 186.333 260 L 135 260 " />
<path id= "99" d=" M 186.333 260 L 186.333 254 " />
<path id= "100" d=" M 186.333 254 L 196.333 254 " />
<path id= "101" d=" M 196.333 260 L 196.333 254 " />
<path id= "102" d=" M 197.533 260 L 196.333 260 " />
<path id= "103" d=" M 197.533 264.7 L 197.533 260 " />
<path id= "104" d=" M 196.761 264.7 L 197.533 264.7 " />
<path d="M196.617 264.617 A0.166667 0.166667 0 0 1 196.761 264.7" /><path d="M196.533 264.928 A0.166667 0.166667 0 0 1 196.617 264.617" /><path id= "107" d=" M 196.533 266.972 L 196.533 264.928 " />
<path d="M196.761 267.2 A0.166667 0.166667 0 1 1 196.533 266.972" /><path id= "109" d=" M 196.761 267.2 L 197.533 267.2 " />
<path id= "110" d=" M 197.533 269.772 L 197.533 267.2 " />
<path d="M197.861 270.1 A0.24 0.24 0 1 1 197.533 269.772" /><path id= "112" d=" M 197.861 270.1 L 200.805 270.1 " />
<path d="M201.133 269.772 A0.24 0.24 0 1 1 200.805 270.1" /><path id= "114" d=" M 201.133 269.772 L 201.133 267.2 " />
<path id= "115" d=" M 201.133 267.2 L 201.906 267.2 " />
<path d="M202.133 266.972 A0.166667 0.166667 0 1 1 201.906 267.2" /><path id= "117" d=" M 202.133 266.972 L 202.133 264.928 " />
<path d="M202.05 264.617 A0.166667 0.166667 0 0 1 202.133 264.928" /><path d="M201.906 264.7 A0.166667 0.166667 0 0 1 202.05 264.617" /><path id= "120" d=" M 201.133 264.7 L 201.906 264.7 " />
<path id= "121" d=" M 201.133 264.7 L 201.133 260 " />
<path id= "122" d=" M 202.333 260 L 201.133 260 " />
<path id= "123" d=" M 202.333 260 L 202.333 254 " />
<path id= "124" d=" M 202.333 254 L 212.333 254 " />
<path id= "125" d=" M 212.333 260 L 212.333 254 " />
<path id= "126" d=" M 238 260 L 212.333 260 " />
<path id= "127" d=" M 238 282 L 238 260 " />
<path id= "128" d=" M 238 282 L 244 282 " />
<path id= "129" d=" M 244 282 L 244 292 " />
<path id= "130" d=" M 238 292 L 244 292 " />
<path id= "131" d=" M 238 293.2 L 238 292 " />
<path id= "132" d=" M 233.3 293.2 L 238 293.2 " />
<path id= "133" d=" M 233.3 292.428 L 233.3 293.2 " />
<path d="M233.383 292.283 A0.166667 0.166667 0 0 1 233.3 292.428" /><path d="M233.072 292.2 A0.166667 0.166667 0 0 1 233.383 292.283" /><path id= "136" d=" M 231.028 292.2 L 233.072 292.2 " />
<path d="M230.8 292.428 A0.166667 0.166667 0 1 1 231.028 292.2" /><path id= "138" d=" M 230.8 292.428 L 230.8 293.2 " />
<path id= "139" d=" M 228.228 293.2 L 230.8 293.2 " />
<path d="M227.9 293.528 A0.24 0.24 0 1 1 228.228 293.2" /><path id= "141" d=" M 227.9 293.528 L 227.9 296.472 " />
<path d="M228.228 296.8 A0.24 0.24 0 1 1 227.9 296.472" /><path id= "143" d=" M 228.228 296.8 L 230.8 296.8 " />
<path id= "144" d=" M 230.8 296.8 L 230.8 297.572 " />
<path d="M231.028 297.8 A0.166667 0.166667 0 1 1 230.8 297.572" /><path id= "146" d=" M 231.028 297.8 L 233.072 297.8 " />
<path d="M233.383 297.717 A0.166667 0.166667 0 0 1 233.072 297.8" /><path d="M233.3 297.572 A0.166667 0.166667 0 0 1 233.383 297.717" /><path id= "149" d=" M 187.3 290.551 L 187.3 299.449 " />
<path d="M186.699 289.95 A0.44 0.44 0 1 1 187.3 290.551" /><path id= "151" d=" M 186.699 289.95 L 181.461 289.95 " />
<path d="M181 289.737 A0.44 0.44 0 0 1 181.461 289.95" /><path d="M180.539 289.95 A0.44 0.44 0 0 1 181 289.737" /><path id= "154" d=" M 180.539 289.95 L 175.301 289.95 " />
<path d="M174.48 290.17 A0.44 0.44 0 0 1 175.301 289.95" /><path d="M174.7 290.551 A0.44 0.44 0 0 1 174.48 290.17" /><path id= "157" d=" M 174.7 290.551 L 174.7 299.449 " />
<path d="M174.48 299.83 A0.44 0.44 0 0 1 174.7 299.449" /><path d="M175.301 300.05 A0.44 0.44 0 0 1 174.48 299.83" /><path id= "160" d=" M 180.539 300.05 L 175.301 300.05 " />
<path d="M181 300.263 A0.44 0.44 0 0 1 180.539 300.05" /><path d="M181.461 300.05 A0.44 0.44 0 0 1 181 300.263" /><path id= "163" d=" M 186.699 300.05 L 181.461 300.05 " />
<path d="M187.3 299.449 A0.44 0.44 0 1 1 186.699 300.05" /><path id= "165" d=" M 69.3 299.449 L 69.3 290.551 " />
<path d="M69.52 290.17 A0.44 0.44 0 0 1 69.3 290.551" /><path d="M68.6989 289.95 A0.44 0.44 0 0 1 69.52 290.17" /><path id= "168" d=" M 63.4611 289.95 L 68.6989 289.95 " />
<path d="M63 289.737 A0.44 0.44 0 0 1 63.4611 289.95" /><path d="M62.5389 289.95 A0.44 0.44 0 0 1 63 289.737" /><path id= "171" d=" M 57.3011 289.95 L 62.5389 289.95 " />
<path d="M56.7 290.551 A0.44 0.44 0 1 1 57.3011 289.95" /><path id= "173" d=" M 56.7 299.449 L 56.7 290.551 " />
<path d="M57.3011 300.05 A0.44 0.44 0 1 1 56.7 299.449" /><path id= "175" d=" M 57.3011 300.05 L 62.5389 300.05 " />
<path d="M63 300.263 A0.44 0.44 0 0 1 62.5389 300.05" /><path d="M63.4611 300.05 A0.44 0.44 0 0 1 63 300.263" /><path id= "178" d=" M 63.4611 300.05 L 68.6989 300.05 " />
<path d="M69.52 299.83 A0.44 0.44 0 0 1 68.6989 300.05" /><path d="M69.3 299.449 A0.44 0.44 0 0 1 69.52 299.83" /><path id= "181" d=" M 215.782 336.3 L 206.884 336.3 " />
<path d="M216.383 335.699 A0.44 0.44 0 1 1 215.782 336.3" /><path id= "183" d=" M 216.383 335.699 L 216.383 330.301 " />
<path d="M216.163 329.48 A0.44 0.44 0 0 1 216.383 330.301" /><path d="M215.782 329.7 A0.44 0.44 0 0 1 216.163 329.48" /><path id= "186" d=" M 215.782 329.7 L 206.884 329.7 " />
<path d="M206.503 329.48 A0.44 0.44 0 0 1 206.884 329.7" /><path d="M206.283 330.301 A0.44 0.44 0 0 1 206.503 329.48" /><path id= "189" d=" M 206.283 335.699 L 206.283 330.301 " />
<path d="M206.884 336.3 A0.44 0.44 0 1 1 206.283 335.699" /><path id= "191" d=" M 37.1156 336.3 L 28.2177 336.3 " />
<path d="M37.7167 335.699 A0.44 0.44 0 1 1 37.1156 336.3" /><path id= "193" d=" M 37.7167 335.699 L 37.7167 330.301 " />
<path d="M37.4967 329.48 A0.44 0.44 0 0 1 37.7167 330.301" /><path d="M37.1156 329.7 A0.44 0.44 0 0 1 37.4967 329.48" /><path id= "196" d=" M 37.1156 329.7 L 28.2177 329.7 " />
<path d="M27.8367 329.48 A0.44 0.44 0 0 1 28.2177 329.7" /><path d="M27.6167 330.301 A0.44 0.44 0 0 1 27.8367 329.48" /><path id= "199" d=" M 27.6167 335.699 L 27.6167 330.301 " />
<path d="M28.2177 336.3 A0.44 0.44 0 1 1 27.6167 335.699" /><path id= "201" d=" M 199.782 336.3 L 190.884 336.3 " />
<path d="M200.383 335.699 A0.44 0.44 0 1 1 199.782 336.3" /><path id= "203" d=" M 200.383 335.699 L 200.383 330.301 " />
<path d="M200.163 329.48 A0.44 0.44 0 0 1 200.383 330.301" /><path d="M199.782 329.7 A0.44 0.44 0 0 1 200.163 329.48" /><path id= "206" d=" M 199.782 329.7 L 190.884 329.7 " />
<path d="M190.503 329.48 A0.44 0.44 0 0 1 190.884 329.7" /><path d="M190.283 330.301 A0.44 0.44 0 0 1 190.503 329.48" /><path id= "209" d=" M 190.283 335.699 L 190.283 330.301 " />
<path d="M190.884 336.3 A0.44 0.44 0 1 1 190.283 335.699" /><path id= "211" d=" M 53.1156 336.3 L 44.2177 336.3 " />
<path d="M53.7167 335.699 A0.44 0.44 0 1 1 53.1156 336.3" /><path id= "213" d=" M 53.7167 335.699 L 53.7167 330.301 " />
<path d="M53.4967 329.48 A0.44 0.44 0 0 1 53.7167 330.301" /><path d="M53.1156 329.7 A0.44 0.44 0 0 1 53.4967 329.48" /><path id= "216" d=" M 53.1156 329.7 L 44.2177 329.7 " />
<path d="M43.8367 329.48 A0.44 0.44 0 0 1 44.2177 329.7" /><path d="M43.6167 330.301 A0.44 0.44 0 0 1 43.8367 329.48" /><path id= "219" d=" M 43.6167 335.699 L 43.6167 330.301 " />
<path d="M44.2177 336.3 A0.44 0.44 0 1 1 43.6167 335.699" /><path id= "221" d=" M 118.449 336.3 L 109.551 336.3 " />
<path d="M119.05 335.699 A0.44 0.44 0 1 1 118.449 336.3" /><path id= "223" d=" M 119.05 335.699 L 119.05 330.301 " />
<path d="M118.83 329.48 A0.44 0.44 0 0 1 119.05 330.301" /><path d="M118.449 329.7 A0.44 0.44 0 0 1 118.83 329.48" /><path id= "226" d=" M 118.449 329.7 L 109.551 329.7 " />
<path d="M109.17 329.48 A0.44 0.44 0 0 1 109.551 329.7" /><path d="M108.95 330.301 A0.44 0.44 0 0 1 109.17 329.48" /><path id= "229" d=" M 108.95 335.699 L 108.95 330.301 " />
<path d="M109.551 336.3 A0.44 0.44 0 1 1 108.95 335.699" /><path id= "231" d=" M 134.449 336.3 L 125.551 336.3 " />
<path d="M135.05 335.699 A0.44 0.44 0 1 1 134.449 336.3" /><path id= "233" d=" M 135.05 335.699 L 135.05 330.301 " />
<path d="M134.83 329.48 A0.44 0.44 0 0 1 135.05 330.301" /><path d="M134.449 329.7 A0.44 0.44 0 0 1 134.83 329.48" /><path id= "236" d=" M 134.449 329.7 L 125.551 329.7 " />
<path d="M125.17 329.48 A0.44 0.44 0 0 1 125.551 329.7" /><path d="M124.95 330.301 A0.44 0.44 0 0 1 125.17 329.48" /><path id= "239" d=" M 124.95 335.699 L 124.95 330.301 " />
<path d="M125.551 336.3 A0.44 0.44 0 1 1 124.95 335.699" /><circle cx ="203.333" cy ="333" r ="1.8" /><circle cx ="40.6667" cy ="333" r ="1.8" /><circle cx ="122" cy ="333" r ="1.8" /></g>
</g>



<g id="Ortho_0_004"
   transform="rotate(0,-25.5,567.5) translate(-25.5,567.5) scale(1,1)"
  >
<g   fill="none"
   stroke="rgb(0, 0, 0)"
   stroke-linecap="butt"
   stroke-linejoin="miter"
   stroke-width="0.350000"
   transform="scale(1,-1)"
  >
<path id= "1" d=" M 498 330 L 492 330 " />
<path id= "2" d=" M 498 330 L 498 380 " />
<path id= "3" d=" M 492 330 L 492 308 " />
<path id= "4" d=" M 498 380 L 254 380 " />
<path id= "5" d=" M 492 308 L 498 308 " />
<path id= "6" d=" M 254 380 L 254 330 " />
<path id= "7" d=" M 260 330 L 254 330 " />
<path id= "8" d=" M 260 308 L 260 330 " />
<path id= "9" d=" M 498 298 L 498 308 " />
<path id= "10" d=" M 260 308 L 254 308 " />
<path id= "11" d=" M 254 308 L 254 298 " />
<path id= "12" d=" M 260 296.8 L 260 298 " />
<path id= "13" d=" M 264.7 296.8 L 260 296.8 " />
<path id= "14" d=" M 264.7 297.572 L 264.7 296.8 " />
<path id= "15" d=" M 260 298 L 254 298 " />
<path id= "16" d=" M 492 298 L 498 298 " />
<path id= "17" d=" M 487.3 296.8 L 487.3 297.572 " />
<path id= "18" d=" M 487.3 296.8 L 492 296.8 " />
<path id= "19" d=" M 492 298 L 492 296.8 " />
<path d="M264.617 297.717 A0.166667 0.166667 0 0 1 264.7 297.572" /><path d="M264.928 297.8 A0.166667 0.166667 0 0 1 264.617 297.717" /><path id= "22" d=" M 266.972 297.8 L 264.928 297.8 " />
<path d="M267.2 297.572 A0.166667 0.166667 0 1 1 266.972 297.8" /><path id= "24" d=" M 267.2 297.572 L 267.2 296.8 " />
<path id= "25" d=" M 269.772 296.8 L 267.2 296.8 " />
<path d="M270.1 296.472 A0.24 0.24 0 1 1 269.772 296.8" /><path id= "27" d=" M 270.1 296.472 L 270.1 293.528 " />
<path d="M269.772 293.2 A0.24 0.24 0 1 1 270.1 293.528" /><path id= "29" d=" M 269.772 293.2 L 267.2 293.2 " />
<path id= "30" d=" M 267.2 293.2 L 267.2 292.428 " />
<path d="M266.972 292.2 A0.166667 0.166667 0 1 1 267.2 292.428" /><path id= "32" d=" M 266.972 292.2 L 264.928 292.2 " />
<path d="M264.617 292.283 A0.166667 0.166667 0 0 1 264.928 292.2" /><path d="M264.7 292.428 A0.166667 0.166667 0 0 1 264.617 292.283" /><path id= "35" d=" M 264.7 293.2 L 264.7 292.428 " />
<path id= "36" d=" M 264.7 293.2 L 260 293.2 " />
<path id= "37" d=" M 260 292 L 260 293.2 " />
<path id= "38" d=" M 260 292 L 254 292 " />
<path id= "39" d=" M 254 292 L 254 282 " />
<path id= "40" d=" M 260 282 L 254 282 " />
<path id= "41" d=" M 260 260 L 260 282 " />
<path id= "42" d=" M 285.667 260 L 260 260 " />
<path id= "43" d=" M 285.667 260 L 285.667 254 " />
<path id= "44" d=" M 285.667 254 L 295.667 254 " />
<path id= "45" d=" M 295.667 260 L 295.667 254 " />
<path id= "46" d=" M 296.867 260 L 295.667 260 " />
<path id= "47" d=" M 296.867 264.7 L 296.867 260 " />
<path id= "48" d=" M 296.094 264.7 L 296.867 264.7 " />
<path d="M295.95 264.617 A0.166667 0.166667 0 0 1 296.094 264.7" /><path d="M295.867 264.928 A0.166667 0.166667 0 0 1 295.95 264.617" /><path id= "51" d=" M 295.867 266.972 L 295.867 264.928 " />
<path d="M296.094 267.2 A0.166667 0.166667 0 1 1 295.867 266.972" /><path id= "53" d=" M 296.094 267.2 L 296.867 267.2 " />
<path id= "54" d=" M 296.867 269.772 L 296.867 267.2 " />
<path d="M297.195 270.1 A0.24 0.24 0 1 1 296.867 269.772" /><path id= "56" d=" M 297.195 270.1 L 300.139 270.1 " />
<path d="M300.467 269.772 A0.24 0.24 0 1 1 300.139 270.1" /><path id= "58" d=" M 300.467 269.772 L 300.467 267.2 " />
<path id= "59" d=" M 300.467 267.2 L 301.239 267.2 " />
<path d="M301.467 266.972 A0.166667 0.166667 0 1 1 301.239 267.2" /><path id= "61" d=" M 301.467 266.972 L 301.467 264.928 " />
<path d="M301.383 264.617 A0.166667 0.166667 0 0 1 301.467 264.928" /><path d="M301.239 264.7 A0.166667 0.166667 0 0 1 301.383 264.617" /><path id= "64" d=" M 300.467 264.7 L 301.239 264.7 " />
<path id= "65" d=" M 300.467 264.7 L 300.467 260 " />
<path id= "66" d=" M 301.667 260 L 300.467 260 " />
<path id= "67" d=" M 301.667 260 L 301.667 254 " />
<path id= "68" d=" M 301.667 254 L 311.667 254 " />
<path id= "69" d=" M 311.667 260 L 311.667 254 " />
<path id= "70" d=" M 363 260 L 311.667 260 " />
<path id= "71" d=" M 363 260 L 363 254 " />
<path id= "72" d=" M 363 254 L 373 254 " />
<path id= "73" d=" M 373 260 L 373 254 " />
<path id= "74" d=" M 374.2 260 L 373 260 " />
<path id= "75" d=" M 374.2 264.7 L 374.2 260 " />
<path id= "76" d=" M 373.428 264.7 L 374.2 264.7 " />
<path d="M373.283 264.617 A0.166667 0.166667 0 0 1 373.428 264.7" /><path d="M373.2 264.928 A0.166667 0.166667 0 0 1 373.283 264.617" /><path id= "79" d=" M 373.2 266.972 L 373.2 264.928 " />
<path d="M373.428 267.2 A0.166667 0.166667 0 1 1 373.2 266.972" /><path id= "81" d=" M 373.428 267.2 L 374.2 267.2 " />
<path id= "82" d=" M 374.2 269.772 L 374.2 267.2 " />
<path d="M374.528 270.1 A0.24 0.24 0 1 1 374.2 269.772" /><path id= "84" d=" M 374.528 270.1 L 377.472 270.1 " />
<path d="M377.8 269.772 A0.24 0.24 0 1 1 377.472 270.1" /><path id= "86" d=" M 377.8 269.772 L 377.8 267.2 " />
<path id= "87" d=" M 377.8 267.2 L 378.572 267.2 " />
<path d="M378.8 266.972 A0.166667 0.166667 0 1 1 378.572 267.2" /><path id= "89" d=" M 378.8 266.972 L 378.8 264.928 " />
<path d="M378.717 264.617 A0.166667 0.166667 0 0 1 378.8 264.928" /><path d="M378.572 264.7 A0.166667 0.166667 0 0 1 378.717 264.617" /><path id= "92" d=" M 377.8 264.7 L 378.572 264.7 " />
<path id= "93" d=" M 377.8 264.7 L 377.8 260 " />
<path id= "94" d=" M 379 260 L 377.8 260 " />
<path id= "95" d=" M 379 260 L 379 254 " />
<path id= "96" d=" M 379 254 L 389 254 " />
<path id= "97" d=" M 389 260 L 389 254 " />
<path id= "98" d=" M 440.333 260 L 389 260 " />
<path id= "99" d=" M 440.333 260 L 440.333 254 " />
<path id= "100" d=" M 440.333 254 L 450.333 254 " />
<path id= "101" d=" M 450.333 260 L 450.333 254 " />
<path id= "102" d=" M 451.533 260 L 450.333 260 " />
<path id= "103" d=" M 451.533 264.7 L 451.533 260 " />
<path id= "104" d=" M 450.761 264.7 L 451.533 264.7 " />
<path d="M450.617 264.617 A0.166667 0.166667 0 0 1 450.761 264.7" /><path d="M450.533 264.928 A0.166667 0.166667 0 0 1 450.617 264.617" /><path id= "107" d=" M 450.533 266.972 L 450.533 264.928 " />
<path d="M450.761 267.2 A0.166667 0.166667 0 1 1 450.533 266.972" /><path id= "109" d=" M 450.761 267.2 L 451.533 267.2 " />
<path id= "110" d=" M 451.533 269.772 L 451.533 267.2 " />
<path d="M451.861 270.1 A0.24 0.24 0 1 1 451.533 269.772" /><path id= "112" d=" M 451.861 270.1 L 454.805 270.1 " />
<path d="M455.133 269.772 A0.24 0.24 0 1 1 454.805 270.1" /><path id= "114" d=" M 455.133 269.772 L 455.133 267.2 " />
<path id= "115" d=" M 455.133 267.2 L 455.906 267.2 " />
<path d="M456.133 266.972 A0.166667 0.166667 0 1 1 455.906 267.2" /><path id= "117" d=" M 456.133 266.972 L 456.133 264.928 " />
<path d="M456.05 264.617 A0.166667 0.166667 0 0 1 456.133 264.928" /><path d="M455.906 264.7 A0.166667 0.166667 0 0 1 456.05 264.617" /><path id= "120" d=" M 455.133 264.7 L 455.906 264.7 " />
<path id= "121" d=" M 455.133 264.7 L 455.133 260 " />
<path id= "122" d=" M 456.333 260 L 455.133 260 " />
<path id= "123" d=" M 456.333 260 L 456.333 254 " />
<path id= "124" d=" M 456.333 254 L 466.333 254 " />
<path id= "125" d=" M 466.333 260 L 466.333 254 " />
<path id= "126" d=" M 492 260 L 466.333 260 " />
<path id= "127" d=" M 492 282 L 492 260 " />
<path id= "128" d=" M 492 282 L 498 282 " />
<path id= "129" d=" M 498 282 L 498 292 " />
<path id= "130" d=" M 492 292 L 498 292 " />
<path id= "131" d=" M 492 293.2 L 492 292 " />
<path id= "132" d=" M 487.3 293.2 L 492 293.2 " />
<path id= "133" d=" M 487.3 292.428 L 487.3 293.2 " />
<path d="M487.383 292.283 A0.166667 0.166667 0 0 1 487.3 292.428" /><path d="M487.072 292.2 A0.166667 0.166667 0 0 1 487.383 292.283" /><path id= "136" d=" M 485.028 292.2 L 487.072 292.2 " />
<path d="M484.8 292.428 A0.166667 0.166667 0 1 1 485.028 292.2" /><path id= "138" d=" M 484.8 292.428 L 484.8 293.2 " />
<path id= "139" d=" M 482.228 293.2 L 484.8 293.2 " />
<path d="M481.9 293.528 A0.24 0.24 0 1 1 482.228 293.2" /><path id= "141" d=" M 481.9 293.528 L 481.9 296.472 " />
<path d="M482.228 296.8 A0.24 0.24 0 1 1 481.9 296.472" /><path id= "143" d=" M 482.228 296.8 L 484.8 296.8 " />
<path id= "144" d=" M 484.8 296.8 L 484.8 297.572 " />
<path d="M485.028 297.8 A0.166667 0.166667 0 1 1 484.8 297.572" /><path id= "146" d=" M 485.028 297.8 L 487.072 297.8 " />
<path d="M487.383 297.717 A0.166667 0.166667 0 0 1 487.072 297.8" /><path d="M487.3 297.572 A0.166667 0.166667 0 0 1 487.383 297.717" /><path id= "149" d=" M 317.461 289.95 L 322.699 289.95 " />
<path d="M317.461 289.95 A0.44 0.44 0 0 0 317 289.737" /><path d="M317 289.737 A0.44 0.44 0 0 0 316.539 289.95" /><path id= "152" d=" M 311.301 289.95 L 316.539 289.95 " />
<path d="M311.301 289.95 A0.44 0.44 0 1 0 310.7 290.551" /><path id= "154" d=" M 310.7 290.551 L 310.7 299.449 " />
<path d="M310.7 299.449 A0.44 0.44 0 1 0 311.301 300.05" /><path id= "156" d=" M 311.301 300.05 L 316.539 300.05 " />
<path d="M316.539 300.05 A0.44 0.44 0 0 0 317 300.263" /><path d="M317 300.263 A0.44 0.44 0 0 0 317.461 300.05" /><path id= "159" d=" M 317.461 300.05 L 322.699 300.05 " />
<path d="M322.699 300.05 A0.44 0.44 0 0 0 323.52 299.83" /><path d="M323.52 299.83 A0.44 0.44 0 0 0 323.3 299.449" /><path id= "162" d=" M 323.3 290.551 L 323.3 299.449 " />
<path d="M323.3 290.551 A0.44 0.44 0 0 0 323.52 290.17" /><path d="M323.52 290.17 A0.44 0.44 0 0 0 322.699 289.95" /><path d="M441.3 290.551 A0.44 0.44 0 1 0 440.699 289.95" /><path id= "166" d=" M 440.699 289.95 L 435.461 289.95 " />
<path d="M435.461 289.95 A0.44 0.44 0 0 0 435 289.737" /><path d="M435 289.737 A0.44 0.44 0 0 0 434.539 289.95" /><path id= "169" d=" M 434.539 289.95 L 429.301 289.95 " />
<path d="M429.301 289.95 A0.44 0.44 0 0 0 428.48 290.17" /><path d="M428.48 290.17 A0.44 0.44 0 0 0 428.7 290.551" /><path id= "172" d=" M 428.7 299.449 L 428.7 290.551 " />
<path d="M428.7 299.449 A0.44 0.44 0 0 0 428.48 299.83" /><path d="M428.48 299.83 A0.44 0.44 0 0 0 429.301 300.05" /><path id= "175" d=" M 434.539 300.05 L 429.301 300.05 " />
<path d="M434.539 300.05 A0.44 0.44 0 0 0 435 300.263" /><path d="M435 300.263 A0.44 0.44 0 0 0 435.461 300.05" /><path id= "178" d=" M 440.699 300.05 L 435.461 300.05 " />
<path d="M440.699 300.05 A0.44 0.44 0 1 0 441.3 299.449" /><path id= "180" d=" M 441.3 299.449 L 441.3 290.551 " />
<path d="M291.116 336.3 A0.44 0.44 0 1 0 291.717 335.699" /><path id= "182" d=" M 291.717 335.699 L 291.717 330.301 " />
<path d="M291.717 330.301 A0.44 0.44 0 0 0 291.497 329.48" /><path d="M291.497 329.48 A0.44 0.44 0 0 0 291.116 329.7" /><path id= "185" d=" M 282.218 329.7 L 291.116 329.7 " />
<path d="M282.218 329.7 A0.44 0.44 0 0 0 281.837 329.48" /><path d="M281.837 329.48 A0.44 0.44 0 0 0 281.617 330.301" /><path id= "188" d=" M 281.617 335.699 L 281.617 330.301 " />
<path d="M281.617 335.699 A0.44 0.44 0 1 0 282.218 336.3" /><path id= "190" d=" M 282.218 336.3 L 291.116 336.3 " />
<path d="M307.116 336.3 A0.44 0.44 0 1 0 307.717 335.699" /><path id= "192" d=" M 307.717 335.699 L 307.717 330.301 " />
<path d="M307.717 330.301 A0.44 0.44 0 0 0 307.497 329.48" /><path d="M307.497 329.48 A0.44 0.44 0 0 0 307.116 329.7" /><path id= "195" d=" M 298.218 329.7 L 307.116 329.7 " />
<path d="M298.218 329.7 A0.44 0.44 0 0 0 297.837 329.48" /><path d="M297.837 329.48 A0.44 0.44 0 0 0 297.617 330.301" /><path id= "198" d=" M 297.617 335.699 L 297.617 330.301 " />
<path d="M297.617 335.699 A0.44 0.44 0 1 0 298.218 336.3" /><path id= "200" d=" M 298.218 336.3 L 307.116 336.3 " />
<path d="M469.782 336.3 A0.44 0.44 0 1 0 470.383 335.699" /><path id= "202" d=" M 470.383 335.699 L 470.383 330.301 " />
<path d="M470.383 330.301 A0.44 0.44 0 0 0 470.163 329.48" /><path d="M470.163 329.48 A0.44 0.44 0 0 0 469.782 329.7" /><path id= "205" d=" M 460.884 329.7 L 469.782 329.7 " />
<path d="M460.884 329.7 A0.44 0.44 0 0 0 460.503 329.48" /><path d="M460.503 329.48 A0.44 0.44 0 0 0 460.283 330.301" /><path id= "208" d=" M 460.283 335.699 L 460.283 330.301 " />
<path d="M460.283 335.699 A0.44 0.44 0 1 0 460.884 336.3" /><path id= "210" d=" M 460.884 336.3 L 469.782 336.3 " />
<path d="M453.782 336.3 A0.44 0.44 0 1 0 454.383 335.699" /><path id= "212" d=" M 454.383 335.699 L 454.383 330.301 " />
<path d="M454.383 330.301 A0.44 0.44 0 0 0 454.163 329.48" /><path d="M454.163 329.48 A0.44 0.44 0 0 0 453.782 329.7" /><path id= "215" d=" M 444.884 329.7 L 453.782 329.7 " />
<path d="M444.884 329.7 A0.44 0.44 0 0 0 444.503 329.48" /><path d="M444.503 329.48 A0.44 0.44 0 0 0 444.283 330.301" /><path id= "218" d=" M 444.283 335.699 L 444.283 330.301 " />
<path d="M444.283 335.699 A0.44 0.44 0 1 0 444.884 336.3" /><path id= "220" d=" M 444.884 336.3 L 453.782 336.3 " />
<path d="M388.449 336.3 A0.44 0.44 0 1 0 389.05 335.699" /><path id= "222" d=" M 389.05 335.699 L 389.05 330.301 " />
<path d="M389.05 330.301 A0.44 0.44 0 0 0 388.83 329.48" /><path d="M388.83 329.48 A0.44 0.44 0 0 0 388.449 329.7" /><path id= "225" d=" M 379.551 329.7 L 388.449 329.7 " />
<path d="M379.551 329.7 A0.44 0.44 0 0 0 379.17 329.48" /><path d="M379.17 329.48 A0.44 0.44 0 0 0 378.95 330.301" /><path id= "228" d=" M 378.95 335.699 L 378.95 330.301 " />
<path d="M378.95 335.699 A0.44 0.44 0 1 0 379.551 336.3" /><path id= "230" d=" M 379.551 336.3 L 388.449 336.3 " />
<path d="M372.449 336.3 A0.44 0.44 0 1 0 373.05 335.699" /><path id= "232" d=" M 373.05 335.699 L 373.05 330.301 " />
<path d="M373.05 330.301 A0.44 0.44 0 0 0 372.83 329.48" /><path d="M372.83 329.48 A0.44 0.44 0 0 0 372.449 329.7" /><path id= "235" d=" M 363.551 329.7 L 372.449 329.7 " />
<path d="M363.551 329.7 A0.44 0.44 0 0 0 363.17 329.48" /><path d="M363.17 329.48 A0.44 0.44 0 0 0 362.95 330.301" /><path id= "238" d=" M 362.95 335.699 L 362.95 330.301 " />
<path d="M362.95 335.699 A0.44 0.44 0 1 0 363.551 336.3" /><path id= "240" d=" M 363.551 336.3 L 372.449 336.3 " />
<circle cx ="294.667" cy ="333" r ="1.8" /><circle cx ="457.333" cy ="333" r ="1.8" /><circle cx ="376" cy ="333" r ="1.8" /></g>
</g>



<g id="Ortho_0_005"
   transform="rotate(0,16.5,685.5) translate(16.5,685.5) scale(1,1)"
  >
<g   fill="none"
   stroke="rgb(0, 0, 0)"
   stroke-linecap="butt"
   stroke-linejoin="miter"
   stroke-width="0.350000"
   transform="scale(1,-1)"
  >
<path id= "1" d=" M 514 300 L 514 330 " />
<path id= "2" d=" M 514 330 L 543.5 330 " />
<path id= "3" d=" M 514 300 L 508 300 " />
<path id= "4" d=" M 508 300 L 508 290 " />
<path id= "5" d=" M 543.5 260 L 514 260 " />
<path id= "6" d=" M 514 260 L 514 290 " />
<path id= "7" d=" M 543.5 260 L 543.5 254 " />
<path id= "8" d=" M 543.5 254 L 553.5 254 " />
<path id= "9" d=" M 612.5 260 L 553.5 260 " />
<path id= "10" d=" M 612.5 260 L 612.5 254 " />
<path id= "11" d=" M 612.5 254 L 622.5 254 " />
<path id= "12" d=" M 652 260 L 622.5 260 " />
<path id= "13" d=" M 652 290 L 652 260 " />
<path id= "14" d=" M 622.5 260 L 622.5 254 " />
<path id= "15" d=" M 652 290 L 658 290 " />
<path id= "16" d=" M 658 290 L 658 300 " />
<path id= "17" d=" M 652 330 L 652 300 " />
<path id= "18" d=" M 622.5 330 L 652 330 " />
<path id= "19" d=" M 652 300 L 658 300 " />
<path id= "20" d=" M 553.5 260 L 553.5 254 " />
<path id= "21" d=" M 622.5 330 L 622.5 336 " />
<path id= "22" d=" M 622.5 336 L 612.5 336 " />
<path id= "23" d=" M 553.5 330 L 612.5 330 " />
<path id= "24" d=" M 612.5 330 L 612.5 336 " />
<path id= "25" d=" M 514 290 L 508 290 " />
<path id= "26" d=" M 553.5 330 L 553.5 336 " />
<path id= "27" d=" M 543.5 330 L 543.5 336 " />
<path id= "28" d=" M 553.5 336 L 543.5 336 " />
<circle cx ="544.875" cy ="286" r ="13" /><circle cx ="583" cy ="286" r ="11" /><circle cx ="621.125" cy ="286" r ="7" /><circle cx ="621.125" cy ="275" r ="1" /><circle cx ="621.125" cy ="297" r ="1" /><circle cx ="610.125" cy ="286" r ="1" /><circle cx ="632.125" cy ="286" r ="1" /></g>
</g>



<g id="Ortho_0_006"
   transform="rotate(0,245.5,821.5) translate(245.5,821.5) scale(1,1)"
  >
<g   fill="none"
   stroke="rgb(0, 0, 0)"
   stroke-linecap="butt"
   stroke-linejoin="miter"
   stroke-width="0.350000"
   transform="scale(1,-1)"
  >
<path id= "1" d=" M 6 436 L 6 466 " />
<path id= "2" d=" M 6 466 L 35.5 466 " />
<path id= "3" d=" M 6 436 L 0 436 " />
<path id= "4" d=" M 0 436 L 0 426 " />
<path id= "5" d=" M 35.5 396 L 6 396 " />
<path id= "6" d=" M 6 396 L 6 426 " />
<path id= "7" d=" M 35.5 396 L 35.5 390 " />
<path id= "8" d=" M 35.5 390 L 45.5 390 " />
<path id= "9" d=" M 104.5 396 L 45.5 396 " />
<path id= "10" d=" M 104.5 396 L 104.5 390 " />
<path id= "11" d=" M 104.5 390 L 114.5 390 " />
<path id= "12" d=" M 144 396 L 114.5 396 " />
<path id= "13" d=" M 144 426 L 144 396 " />
<path id= "14" d=" M 114.5 396 L 114.5 390 " />
<path id= "15" d=" M 144 426 L 150 426 " />
<path id= "16" d=" M 150 426 L 150 436 " />
<path id= "17" d=" M 144 466 L 144 436 " />
<path id= "18" d=" M 114.5 466 L 144 466 " />
<path id= "19" d=" M 144 436 L 150 436 " />
<path id= "20" d=" M 45.5 396 L 45.5 390 " />
<path id= "21" d=" M 114.5 466 L 114.5 472 " />
<path id= "22" d=" M 114.5 472 L 104.5 472 " />
<path id= "23" d=" M 45.5 466 L 104.5 466 " />
<path id= "24" d=" M 104.5 466 L 104.5 472 " />
<path id= "25" d=" M 6 426 L 0 426 " />
<path id= "26" d=" M 45.5 466 L 45.5 472 " />
<path id= "27" d=" M 35.5 466 L 35.5 472 " />
<path id= "28" d=" M 45.5 472 L 35.5 472 " />
<circle cx ="36.875" cy ="422" r ="13" /><circle cx ="113.125" cy ="422" r ="13" /><circle cx ="75" cy ="422" r ="11" /></g>
</g>



<g id="Ortho_0_007"
   transform="rotate(0,165.5,931.5) translate(165.5,931.5) scale(1,1)"
  >
<g   fill="none"
   stroke="rgb(0, 0, 0)"
   stroke-linecap="butt"
   stroke-linejoin="miter"
   stroke-width="0.350000"
   transform="scale(1,-1)"
  >
<path id= "1" d=" M 166 436 L 166 466 " />
<path id= "2" d=" M 166 466 L 195.5 466 " />
<path id= "3" d=" M 166 436 L 160 436 " />
<path id= "4" d=" M 160 436 L 160 426 " />
<path id= "5" d=" M 195.5 396 L 166 396 " />
<path id= "6" d=" M 166 396 L 166 426 " />
<path id= "7" d=" M 195.5 396 L 195.5 390 " />
<path id= "8" d=" M 195.5 390 L 205.5 390 " />
<path id= "9" d=" M 264.5 396 L 205.5 396 " />
<path id= "10" d=" M 264.5 396 L 264.5 390 " />
<path id= "11" d=" M 264.5 390 L 274.5 390 " />
<path id= "12" d=" M 304 396 L 274.5 396 " />
<path id= "13" d=" M 304 426 L 304 396 " />
<path id= "14" d=" M 274.5 396 L 274.5 390 " />
<path id= "15" d=" M 304 426 L 310 426 " />
<path id= "16" d=" M 310 426 L 310 436 " />
<path id= "17" d=" M 304 466 L 304 436 " />
<path id= "18" d=" M 274.5 466 L 304 466 " />
<path id= "19" d=" M 304 436 L 310 436 " />
<path id= "20" d=" M 205.5 396 L 205.5 390 " />
<path id= "21" d=" M 274.5 466 L 274.5 472 " />
<path id= "22" d=" M 274.5 472 L 264.5 472 " />
<path id= "23" d=" M 205.5 466 L 264.5 466 " />
<path id= "24" d=" M 264.5 466 L 264.5 472 " />
<path id= "25" d=" M 166 426 L 160 426 " />
<path id= "26" d=" M 205.5 466 L 205.5 472 " />
<path id= "27" d=" M 195.5 466 L 195.5 472 " />
<path id= "28" d=" M 205.5 472 L 195.5 472 " />
<circle cx ="196.875" cy ="422" r ="13" /><circle cx ="273.125" cy ="422" r ="13" /><circle cx ="235" cy ="422" r ="11" /></g>
</g>



<g id="Ortho_0_008"
   transform="rotate(0,204.5,631.5) translate(204.5,631.5) scale(1,1)"
  >
<g   fill="none"
   stroke="rgb(0, 0, 0)"
   stroke-linecap="butt"
   stroke-linejoin="miter"
   stroke-width="0.350000"
   transform="scale(1,-1)"
  >
<path id= "1" d=" M 326 436 L 326 466 " />
<path id= "2" d=" M 326 466 L 355.5 466 " />
<path id= "3" d=" M 326 436 L 320 436 " />
<path id= "4" d=" M 320 436 L 320 426 " />
<path id= "5" d=" M 355.5 396 L 326 396 " />
<path id= "6" d=" M 326 396 L 326 426 " />
<path id= "7" d=" M 355.5 396 L 355.5 390 " />
<path id= "8" d=" M 355.5 390 L 365.5 390 " />
<path id= "9" d=" M 424.5 396 L 365.5 396 " />
<path id= "10" d=" M 424.5 396 L 424.5 390 " />
<path id= "11" d=" M 424.5 390 L 434.5 390 " />
<path id= "12" d=" M 464 396 L 434.5 396 " />
<path id= "13" d=" M 464 426 L 464 396 " />
<path id= "14" d=" M 434.5 396 L 434.5 390 " />
<path id= "15" d=" M 464 426 L 470 426 " />
<path id= "16" d=" M 470 426 L 470 436 " />
<path id= "17" d=" M 464 466 L 464 436 " />
<path id= "18" d=" M 434.5 466 L 464 466 " />
<path id= "19" d=" M 464 436 L 470 436 " />
<path id= "20" d=" M 365.5 396 L 365.5 390 " />
<path id= "21" d=" M 434.5 466 L 434.5 472 " />
<path id= "22" d=" M 434.5 472 L 424.5 472 " />
<path id= "23" d=" M 365.5 466 L 424.5 466 " />
<path id= "24" d=" M 424.5 466 L 424.5 472 " />
<path id= "25" d=" M 326 426 L 320 426 " />
<path id= "26" d=" M 365.5 466 L 365.5 472 " />
<path id= "27" d=" M 355.5 466 L 355.5 472 " />
<path id= "28" d=" M 365.5 472 L 355.5 472 " />
<circle cx ="356.875" cy ="422" r ="13" /><circle cx ="395" cy ="422" r ="11" /><circle cx ="433.125" cy ="422" r ="7" /><circle cx ="433.125" cy ="411" r ="1" /><circle cx ="433.125" cy ="433" r ="1" /><circle cx ="422.125" cy ="422" r ="1" /><circle cx ="444.125" cy ="422" r ="1" /></g>
</g>



<g id="Ortho_0_009"
   transform="rotate(0,684.5,1024.5) translate(684.5,1024.5) scale(1,1)"
  >
<g   fill="none"
   stroke="rgb(0, 0, 0)"
   stroke-linecap="butt"
   stroke-linejoin="miter"
   stroke-width="0.350000"
   transform="scale(1,-1)"
  >
<path id= "1" d=" M 139.3 687.133 L 139.3 687.906 " />
<path id= "2" d=" M 139.3 687.133 L 144 687.133 " />
<path id= "3" d=" M 144 688.333 L 144 687.133 " />
<path id= "4" d=" M 144 688.333 L 150 688.333 " />
<path id= "5" d=" M 150 688.333 L 150 698.333 " />
<path id= "6" d=" M 125.55 726 L 144 726 " />
<path id= "7" d=" M 125.55 726 L 125.55 720.301 " />
<path id= "8" d=" M 144 726 L 144 698.333 " />
<path id= "9" d=" M 144 698.333 L 150 698.333 " />
<path d="M125.55 720.301 A0.44 0.44 0 0 0 125.33 719.48" /><path d="M125.33 719.48 A0.44 0.44 0 0 0 124.949 719.7" /><path id= "12" d=" M 116.051 719.7 L 124.949 719.7 " />
<path d="M116.051 719.7 A0.44 0.44 0 0 0 115.67 719.48" /><path d="M115.67 719.48 A0.44 0.44 0 0 0 115.45 720.301" /><path id= "15" d=" M 115.45 726 L 115.45 720.301 " />
<path id= "16" d=" M 109.55 726 L 115.45 726 " />
<path id= "17" d=" M 109.55 726 L 109.55 720.301 " />
<path d="M109.55 720.301 A0.44 0.44 0 0 0 109.33 719.48" /><path d="M109.33 719.48 A0.44 0.44 0 0 0 108.949 719.7" /><path id= "20" d=" M 100.051 719.7 L 108.949 719.7 " />
<path d="M100.051 719.7 A0.44 0.44 0 0 0 99.67 719.48" /><path d="M99.67 719.48 A0.44 0.44 0 0 0 99.45 720.301" /><path id= "23" d=" M 99.45 726 L 99.45 720.301 " />
<path id= "24" d=" M 50.55 726 L 99.45 726 " />
<path id= "25" d=" M 50.55 726 L 50.55 720.301 " />
<path d="M50.55 720.301 A0.44 0.44 0 0 0 50.33 719.48" /><path d="M50.33 719.48 A0.44 0.44 0 0 0 49.9489 719.7" /><path id= "28" d=" M 41.0511 719.7 L 49.9489 719.7 " />
<path d="M41.0511 719.7 A0.44 0.44 0 0 0 40.67 719.48" /><path d="M40.67 719.48 A0.44 0.44 0 0 0 40.45 720.301" /><path id= "31" d=" M 40.45 726 L 40.45 720.301 " />
<path id= "32" d=" M 34.55 726 L 40.45 726 " />
<path id= "33" d=" M 34.55 726 L 34.55 720.301 " />
<path d="M34.55 720.301 A0.44 0.44 0 0 0 34.33 719.48" /><path d="M34.33 719.48 A0.44 0.44 0 0 0 33.9489 719.7" /><path id= "36" d=" M 25.0511 719.7 L 33.9489 719.7 " />
<path d="M25.0511 719.7 A0.44 0.44 0 0 0 24.67 719.48" /><path d="M24.67 719.48 A0.44 0.44 0 0 0 24.45 720.301" /><path id= "39" d=" M 24.45 726 L 24.45 720.301 " />
<path id= "40" d=" M 6 726 L 24.45 726 " />
<path id= "41" d=" M 6 698.333 L 6 726 " />
<path id= "42" d=" M 6 698.333 L 5.68434e-14 698.333 " />
<path id= "43" d=" M 5.68434e-14 698.333 L 5.68434e-14 688.333 " />
<path id= "44" d=" M 6 688.333 L 5.68434e-14 688.333 " />
<path id= "45" d=" M 6 687.133 L 6 688.333 " />
<path id= "46" d=" M 10.7 687.133 L 6 687.133 " />
<path id= "47" d=" M 10.7 687.906 L 10.7 687.133 " />
<path d="M10.6167 688.05 A0.166667 0.166667 0 0 1 10.7 687.906" /><path d="M10.9277 688.133 A0.166667 0.166667 0 0 1 10.6167 688.05" /><path id= "50" d=" M 12.9723 688.133 L 10.9277 688.133 " />
<path d="M13.2 687.906 A0.166667 0.166667 0 1 1 12.9723 688.133" /><path id= "52" d=" M 13.2 687.906 L 13.2 687.133 " />
<path id= "53" d=" M 15.7722 687.133 L 13.2 687.133 " />
<path d="M16.1 686.805 A0.24 0.24 0 1 1 15.7722 687.133" /><path id= "55" d=" M 16.1 686.805 L 16.1 683.861 " />
<path d="M15.7722 683.533 A0.24 0.24 0 1 1 16.1 683.861" /><path id= "57" d=" M 15.7722 683.533 L 13.2 683.533 " />
<path id= "58" d=" M 13.2 683.533 L 13.2 682.761 " />
<path d="M12.9723 682.533 A0.166667 0.166667 0 1 1 13.2 682.761" /><path id= "60" d=" M 12.9723 682.533 L 10.9277 682.533 " />
<path d="M10.6167 682.617 A0.166667 0.166667 0 0 1 10.9277 682.533" /><path d="M10.7 682.761 A0.166667 0.166667 0 0 1 10.6167 682.617" /><path id= "63" d=" M 10.7 683.533 L 10.7 682.761 " />
<path id= "64" d=" M 10.7 683.533 L 6 683.533 " />
<path id= "65" d=" M 6 682.333 L 6 683.533 " />
<path id= "66" d=" M 6 682.333 L 5.68434e-14 682.333 " />
<path id= "67" d=" M 5.68434e-14 682.333 L 5.68434e-14 672.333 " />
<path id= "68" d=" M 6 672.333 L 5.68434e-14 672.333 " />
<path id= "69" d=" M 6 617 L 6 672.333 " />
<path id= "70" d=" M 6 617 L 5.68434e-14 617 " />
<path id= "71" d=" M 5.68434e-14 617 L 5.68434e-14 607 " />
<path id= "72" d=" M 6 607 L 5.68434e-14 607 " />
<path id= "73" d=" M 6 605.8 L 6 607 " />
<path id= "74" d=" M 10.7 605.8 L 6 605.8 " />
<path id= "75" d=" M 10.7 606.572 L 10.7 605.8 " />
<path d="M10.6167 606.717 A0.166667 0.166667 0 0 1 10.7 606.572" /><path d="M10.9277 606.8 A0.166667 0.166667 0 0 1 10.6167 606.717" /><path id= "78" d=" M 12.9723 606.8 L 10.9277 606.8 " />
<path d="M13.2 606.572 A0.166667 0.166667 0 1 1 12.9723 606.8" /><path id= "80" d=" M 13.2 606.572 L 13.2 605.8 " />
<path id= "81" d=" M 15.7722 605.8 L 13.2 605.8 " />
<path d="M16.1 605.472 A0.24 0.24 0 1 1 15.7722 605.8" /><path id= "83" d=" M 16.1 605.472 L 16.1 602.528 " />
<path d="M15.7722 602.2 A0.24 0.24 0 1 1 16.1 602.528" /><path id= "85" d=" M 15.7722 602.2 L 13.2 602.2 " />
<path id= "86" d=" M 13.2 602.2 L 13.2 601.428 " />
<path d="M12.9723 601.2 A0.166667 0.166667 0 1 1 13.2 601.428" /><path id= "88" d=" M 12.9723 601.2 L 10.9277 601.2 " />
<path d="M10.6167 601.283 A0.166667 0.166667 0 0 1 10.9277 601.2" /><path d="M10.7 601.428 A0.166667 0.166667 0 0 1 10.6167 601.283" /><path id= "91" d=" M 10.7 602.2 L 10.7 601.428 " />
<path id= "92" d=" M 10.7 602.2 L 6 602.2 " />
<path id= "93" d=" M 6 601 L 6 602.2 " />
<path id= "94" d=" M 6 601 L 5.68434e-14 601 " />
<path id= "95" d=" M 5.68434e-14 601 L 5.68434e-14 591 " />
<path id= "96" d=" M 6 591 L 5.68434e-14 591 " />
<path id= "97" d=" M 6 535.667 L 6 591 " />
<path id= "98" d=" M 6 535.667 L 5.68434e-14 535.667 " />
<path id= "99" d=" M 5.68434e-14 535.667 L 5.68434e-14 525.667 " />
<path id= "100" d=" M 6 525.667 L 5.68434e-14 525.667 " />
<path id= "101" d=" M 6 524.467 L 6 525.667 " />
<path id= "102" d=" M 10.7 524.467 L 6 524.467 " />
<path id= "103" d=" M 10.7 525.239 L 10.7 524.467 " />
<path d="M10.6167 525.383 A0.166667 0.166667 0 0 1 10.7 525.239" /><path d="M10.9277 525.467 A0.166667 0.166667 0 0 1 10.6167 525.383" /><path id= "106" d=" M 12.9723 525.467 L 10.9277 525.467 " />
<path d="M13.2 525.239 A0.166667 0.166667 0 1 1 12.9723 525.467" /><path id= "108" d=" M 13.2 525.239 L 13.2 524.467 " />
<path id= "109" d=" M 15.7722 524.467 L 13.2 524.467 " />
<path d="M16.1 524.139 A0.24 0.24 0 1 1 15.7722 524.467" /><path id= "111" d=" M 16.1 524.139 L 16.1 521.195 " />
<path d="M15.7722 520.867 A0.24 0.24 0 1 1 16.1 521.195" /><path id= "113" d=" M 15.7722 520.867 L 13.2 520.867 " />
<path id= "114" d=" M 13.2 520.867 L 13.2 520.094 " />
<path d="M12.9723 519.867 A0.166667 0.166667 0 1 1 13.2 520.094" /><path id= "116" d=" M 12.9723 519.867 L 10.9277 519.867 " />
<path d="M10.6167 519.95 A0.166667 0.166667 0 0 1 10.9277 519.867" /><path d="M10.7 520.094 A0.166667 0.166667 0 0 1 10.6167 519.95" /><path id= "119" d=" M 10.7 520.867 L 10.7 520.094 " />
<path id= "120" d=" M 10.7 520.867 L 6 520.867 " />
<path id= "121" d=" M 6 519.667 L 6 520.867 " />
<path id= "122" d=" M 6 519.667 L 5.68434e-14 519.667 " />
<path id= "123" d=" M 5.68434e-14 519.667 L 5.68434e-14 509.667 " />
<path id= "124" d=" M 6 509.667 L 5.68434e-14 509.667 " />
<path id= "125" d=" M 6 482 L 6 509.667 " />
<path id= "126" d=" M 24.45 482 L 6 482 " />
<path id= "127" d=" M 24.45 487.699 L 24.45 482 " />
<path d="M24.45 487.699 A0.44 0.44 0 1 0 25.0511 488.3" /><path id= "129" d=" M 25.0511 488.3 L 33.9489 488.3 " />
<path d="M33.9489 488.3 A0.44 0.44 0 1 0 34.55 487.699" /><path id= "131" d=" M 34.55 487.699 L 34.55 482 " />
<path id= "132" d=" M 40.45 482 L 34.55 482 " />
<path id= "133" d=" M 40.45 487.699 L 40.45 482 " />
<path d="M40.45 487.699 A0.44 0.44 0 1 0 41.0511 488.3" /><path id= "135" d=" M 41.0511 488.3 L 49.9489 488.3 " />
<path d="M49.9489 488.3 A0.44 0.44 0 1 0 50.55 487.699" /><path id= "137" d=" M 50.55 487.699 L 50.55 482 " />
<path id= "138" d=" M 99.45 482 L 50.55 482 " />
<path id= "139" d=" M 99.45 487.699 L 99.45 482 " />
<path d="M99.45 487.699 A0.44 0.44 0 1 0 100.051 488.3" /><path id= "141" d=" M 100.051 488.3 L 108.949 488.3 " />
<path d="M108.949 488.3 A0.44 0.44 0 1 0 109.55 487.699" /><path id= "143" d=" M 109.55 487.699 L 109.55 482 " />
<path id= "144" d=" M 115.45 482 L 109.55 482 " />
<path id= "145" d=" M 115.45 487.699 L 115.45 482 " />
<path d="M115.45 487.699 A0.44 0.44 0 1 0 116.051 488.3" /><path id= "147" d=" M 116.051 488.3 L 124.949 488.3 " />
<path d="M124.949 488.3 A0.44 0.44 0 1 0 125.55 487.699" /><path id= "149" d=" M 125.55 487.699 L 125.55 482 " />
<path id= "150" d=" M 144 482 L 125.55 482 " />
<path id= "151" d=" M 144 509.667 L 144 482 " />
<path id= "152" d=" M 144 509.667 L 150 509.667 " />
<path id= "153" d=" M 150 509.667 L 150 519.667 " />
<path id= "154" d=" M 144 519.667 L 150 519.667 " />
<path id= "155" d=" M 144 520.867 L 144 519.667 " />
<path id= "156" d=" M 139.3 520.867 L 144 520.867 " />
<path id= "157" d=" M 139.3 520.094 L 139.3 520.867 " />
<path d="M139.383 519.95 A0.166667 0.166667 0 0 1 139.3 520.094" /><path d="M139.072 519.867 A0.166667 0.166667 0 0 1 139.383 519.95" /><path id= "160" d=" M 137.028 519.867 L 139.072 519.867 " />
<path d="M136.8 520.094 A0.166667 0.166667 0 1 1 137.028 519.867" /><path id= "162" d=" M 136.8 520.094 L 136.8 520.867 " />
<path id= "163" d=" M 134.228 520.867 L 136.8 520.867 " />
<path d="M133.9 521.195 A0.24 0.24 0 1 1 134.228 520.867" /><path id= "165" d=" M 133.9 521.195 L 133.9 524.139 " />
<path d="M134.228 524.467 A0.24 0.24 0 1 1 133.9 524.139" /><path id= "167" d=" M 134.228 524.467 L 136.8 524.467 " />
<path id= "168" d=" M 136.8 524.467 L 136.8 525.239 " />
<path d="M137.028 525.467 A0.166667 0.166667 0 1 1 136.8 525.239" /><path id= "170" d=" M 137.028 525.467 L 139.072 525.467 " />
<path d="M139.383 525.383 A0.166667 0.166667 0 0 1 139.072 525.467" /><path d="M139.3 525.239 A0.166667 0.166667 0 0 1 139.383 525.383" /><path id= "173" d=" M 139.3 524.467 L 139.3 525.239 " />
<path id= "174" d=" M 139.3 524.467 L 144 524.467 " />
<path id= "175" d=" M 144 525.667 L 144 524.467 " />
<path id= "176" d=" M 144 525.667 L 150 525.667 " />
<path id= "177" d=" M 150 525.667 L 150 535.667 " />
<path id= "178" d=" M 144 535.667 L 150 535.667 " />
<path id= "179" d=" M 144 591 L 144 535.667 " />
<path id= "180" d=" M 144 591 L 150 591 " />
<path id= "181" d=" M 150 591 L 150 601 " />
<path id= "182" d=" M 144 601 L 150 601 " />
<path id= "183" d=" M 144 602.2 L 144 601 " />
<path id= "184" d=" M 139.3 602.2 L 144 602.2 " />
<path id= "185" d=" M 139.3 601.428 L 139.3 602.2 " />
<path d="M139.383 601.283 A0.166667 0.166667 0 0 1 139.3 601.428" /><path d="M139.072 601.2 A0.166667 0.166667 0 0 1 139.383 601.283" /><path id= "188" d=" M 137.028 601.2 L 139.072 601.2 " />
<path d="M136.8 601.428 A0.166667 0.166667 0 1 1 137.028 601.2" /><path id= "190" d=" M 136.8 601.428 L 136.8 602.2 " />
<path id= "191" d=" M 134.228 602.2 L 136.8 602.2 " />
<path d="M133.9 602.528 A0.24 0.24 0 1 1 134.228 602.2" /><path id= "193" d=" M 133.9 602.528 L 133.9 605.472 " />
<path d="M134.228 605.8 A0.24 0.24 0 1 1 133.9 605.472" /><path id= "195" d=" M 134.228 605.8 L 136.8 605.8 " />
<path id= "196" d=" M 136.8 605.8 L 136.8 606.572 " />
<path d="M137.028 606.8 A0.166667 0.166667 0 1 1 136.8 606.572" /><path id= "198" d=" M 137.028 606.8 L 139.072 606.8 " />
<path d="M139.383 606.717 A0.166667 0.166667 0 0 1 139.072 606.8" /><path d="M139.3 606.572 A0.166667 0.166667 0 0 1 139.383 606.717" /><path id= "201" d=" M 139.3 605.8 L 139.3 606.572 " />
<path id= "202" d=" M 139.3 605.8 L 144 605.8 " />
<path id= "203" d=" M 144 607 L 144 605.8 " />
<path id= "204" d=" M 144 607 L 150 607 " />
<path id= "205" d=" M 150 607 L 150 617 " />
<path id= "206" d=" M 144 617 L 150 617 " />
<path id= "207" d=" M 144 672.333 L 144 617 " />
<path id= "208" d=" M 144 672.333 L 150 672.333 " />
<path id= "209" d=" M 150 672.333 L 150 682.333 " />
<path id= "210" d=" M 144 682.333 L 150 682.333 " />
<path id= "211" d=" M 144 683.533 L 144 682.333 " />
<path id= "212" d=" M 139.3 683.533 L 144 683.533 " />
<path id= "213" d=" M 139.3 682.761 L 139.3 683.533 " />
<path d="M139.383 682.617 A0.166667 0.166667 0 0 1 139.3 682.761" /><path d="M139.072 682.533 A0.166667 0.166667 0 0 1 139.383 682.617" /><path id= "216" d=" M 137.028 682.533 L 139.072 682.533 " />
<path d="M136.8 682.761 A0.166667 0.166667 0 1 1 137.028 682.533" /><path id= "218" d=" M 136.8 682.761 L 136.8 683.533 " />
<path id= "219" d=" M 134.228 683.533 L 136.8 683.533 " />
<path d="M133.9 683.861 A0.24 0.24 0 1 1 134.228 683.533" /><path id= "221" d=" M 133.9 683.861 L 133.9 686.805 " />
<path d="M134.228 687.133 A0.24 0.24 0 1 1 133.9 686.805" /><path id= "223" d=" M 134.228 687.133 L 136.8 687.133 " />
<path id= "224" d=" M 136.8 687.133 L 136.8 687.906 " />
<path d="M137.028 688.133 A0.166667 0.166667 0 1 1 136.8 687.906" /><path id= "226" d=" M 137.028 688.133 L 139.072 688.133 " />
<path d="M139.383 688.05 A0.166667 0.166667 0 0 1 139.072 688.133" /><path d="M139.3 687.906 A0.166667 0.166667 0 0 1 139.383 688.05" /><path id= "229" d=" M 35.45 662.539 L 35.45 657.301 " />
<path d="M35.45 662.539 A0.44 0.44 0 0 0 35.2373 663" /><path d="M35.2373 663 A0.44 0.44 0 0 0 35.45 663.461" /><path id= "232" d=" M 35.45 668.699 L 35.45 663.461 " />
<path d="M35.45 668.699 A0.44 0.44 0 1 0 36.0511 669.3" /><path id= "234" d=" M 36.0511 669.3 L 44.9489 669.3 " />
<path d="M44.9489 669.3 A0.44 0.44 0 1 0 45.55 668.699" /><path id= "236" d=" M 45.55 668.699 L 45.55 663.461 " />
<path d="M45.55 663.461 A0.44 0.44 0 0 0 45.7627 663" /><path d="M45.7627 663 A0.44 0.44 0 0 0 45.55 662.539" /><path id= "239" d=" M 45.55 662.539 L 45.55 657.301 " />
<path d="M45.55 657.301 A0.44 0.44 0 0 0 45.33 656.48" /><path d="M45.33 656.48 A0.44 0.44 0 0 0 44.9489 656.7" /><path id= "242" d=" M 36.0511 656.7 L 44.9489 656.7 " />
<path d="M36.0511 656.7 A0.44 0.44 0 0 0 35.67 656.48" /><path d="M35.67 656.48 A0.44 0.44 0 0 0 35.45 657.301" /><path d="M105.051 538.7 A0.44 0.44 0 1 0 104.45 539.301" /><path id= "246" d=" M 104.45 539.301 L 104.45 544.539 " />
<path d="M104.45 544.539 A0.44 0.44 0 0 0 104.237 545" /><path d="M104.237 545 A0.44 0.44 0 0 0 104.45 545.461" /><path id= "249" d=" M 104.45 545.461 L 104.45 550.699 " />
<path d="M104.45 550.699 A0.44 0.44 0 0 0 104.67 551.52" /><path d="M104.67 551.52 A0.44 0.44 0 0 0 105.051 551.3" /><path id= "252" d=" M 113.949 551.3 L 105.051 551.3 " />
<path d="M113.949 551.3 A0.44 0.44 0 0 0 114.33 551.52" /><path d="M114.33 551.52 A0.44 0.44 0 0 0 114.55 550.699" /><path id= "255" d=" M 114.55 545.461 L 114.55 550.699 " />
<path d="M114.55 545.461 A0.44 0.44 0 0 0 114.763 545" /><path d="M114.763 545 A0.44 0.44 0 0 0 114.55 544.539" /><path id= "258" d=" M 114.55 539.301 L 114.55 544.539 " />
<path d="M114.55 539.301 A0.44 0.44 0 1 0 113.949 538.7" /><path id= "260" d=" M 113.949 538.7 L 105.051 538.7 " />
<path id= "261" d=" M 104.45 662.539 L 104.45 657.301 " />
<path d="M104.45 662.539 A0.44 0.44 0 0 0 104.237 663" /><path d="M104.237 663 A0.44 0.44 0 0 0 104.45 663.461" /><path id= "264" d=" M 104.45 668.699 L 104.45 663.461 " />
<path d="M104.45 668.699 A0.44 0.44 0 1 0 105.051 669.3" /><path id= "266" d=" M 105.051 669.3 L 113.949 669.3 " />
<path d="M113.949 669.3 A0.44 0.44 0 1 0 114.55 668.699" /><path id= "268" d=" M 114.55 668.699 L 114.55 663.461 " />
<path d="M114.55 663.461 A0.44 0.44 0 0 0 114.763 663" /><path d="M114.763 663 A0.44 0.44 0 0 0 114.55 662.539" /><path id= "271" d=" M 114.55 662.539 L 114.55 657.301 " />
<path d="M114.55 657.301 A0.44 0.44 0 0 0 114.33 656.48" /><path d="M114.33 656.48 A0.44 0.44 0 0 0 113.949 656.7" /><path id= "274" d=" M 105.051 656.7 L 113.949 656.7 " />
<path d="M105.051 656.7 A0.44 0.44 0 0 0 104.67 656.48" /><path d="M104.67 656.48 A0.44 0.44 0 0 0 104.45 657.301" /><path d="M36.0511 538.7 A0.44 0.44 0 1 0 35.45 539.301" /><path id= "278" d=" M 35.45 539.301 L 35.45 544.539 " />
<path d="M35.45 544.539 A0.44 0.44 0 0 0 35.2373 545" /><path d="M35.2373 545 A0.44 0.44 0 0 0 35.45 545.461" /><path id= "281" d=" M 35.45 545.461 L 35.45 550.699 " />
<path d="M35.45 550.699 A0.44 0.44 0 0 0 35.67 551.52" /><path d="M35.67 551.52 A0.44 0.44 0 0 0 36.0511 551.3" /><path id= "284" d=" M 44.9489 551.3 L 36.0511 551.3 " />
<path d="M44.9489 551.3 A0.44 0.44 0 0 0 45.33 551.52" /><path d="M45.33 551.52 A0.44 0.44 0 0 0 45.55 550.699" /><path id= "287" d=" M 45.55 545.461 L 45.55 550.699 " />
<path d="M45.55 545.461 A0.44 0.44 0 0 0 45.7627 545" /><path d="M45.7627 545 A0.44 0.44 0 0 0 45.55 544.539" /><path id= "290" d=" M 45.55 539.301 L 45.55 544.539 " />
<path d="M45.55 539.301 A0.44 0.44 0 1 0 44.9489 538.7" /><path id= "292" d=" M 44.9489 538.7 L 36.0511 538.7 " />
<circle cx ="37.5" cy ="485" r ="1.8" /><circle cx ="112.5" cy ="485" r ="1.8" /><circle cx ="37.5" cy ="723" r ="1.8" /><circle cx ="112.5" cy ="723" r ="1.8" /></g>
</g>



</svg>

