<?xml version="1.0" encoding="UTF-8" standalone="no"?>

<svg
	xmlns="http://www.w3.org/2000/svg" version="1.1"
	xmlns:freecad="http://www.freecadweb.org/wiki/index.php?title=Svg_Namespace"
	width="1189mm"
	height="841mm"
	viewBox="0 0 1189 841">
	<!-- Working space 20 10 1179 831 -->
	<!-- Title block 999 771 1179 831 -->
	<g>
		<rect
			id="drawing-border"
			style="fill:none;stroke:#000000;stroke-width:0.7;stroke-linecap:miter;stroke-miterlimit:4"
			width="1159"
			height="821"
			x="20"
			y="10" />
			<!-- width-30, height-20 -->
		<g
			transform="translate(979,544)">
			<!-- A4 Portrait based for other formats width-210, height-297 -->
			<!--        page       rect   translation
			               w    h    rw   rh   tx   ty
			        A4-P  210  297  180  277    0    0
			        A3-L  420  297  390  277  210    0
			        A2-L  594  420  564  400  384  123
			        A1-L  841  594  811  574  631  297
			        A0-L 1189  841 1159  821  979  544
			-->
			<g
				id="titleblock-structure"
				style="fill:none;stroke:#000000;stroke-width:0.35;stroke-linecap:miter;stroke-miterlimit:4">
				<rect width="180" height="60" x="20" y="227" />
				<path d="m 20,239 h 180" />
				<path d="m 80,227 v 12" />
				<path d="m 140,239 v 48" />
				<path d="m 160,239 v 12" />
				<path d="m 180,239 v 12" />
				<path d="m 140,251 h 60" />
				<path d="m 140,275 h 60" />
				<path d="m 180,275 v 12" />
			</g>
			<g
				id="titleblock-text-non-editable"
				style="font-size:3px;text-anchor:start;fill:#000000;font-family:osifont"
				xml:space="preserve">
				<text x="21" y="230">Created by:</text>
				<text x="81" y="230">Title:</text>
				<text x="21" y="242">Supplementary information:</text>
				<text x="141" y="242">Size:</text>
				<text x="161" y="242">Sheet:</text>
				<text x="181" y="242">Scale:</text>
				<text x="141" y="254">Part number:</text>
				<text x="141" y="266">Drawing number:</text>
				<text x="141" y="278">Date:</text>
				<text x="181" y="278">Revision:</text>
			</g>
			<g
				id="titleblock-text-editable"
				style="font-size:5px;text-anchor:middle;fill:#000000;font-family:osifont"
				xml:space="preserve">
				<text freecad:editable="AUTHOR NAME" x="50" y="236"><tspan>AUTHOR NAME</tspan></text>
				<text freecad:editable="DRAWING TITLE" x="140" y="236"><tspan>DRAWING TITLE</tspan></text>
				<text freecad:editable="SI-1" x="80" y="248"><tspan></tspan></text>
				<text freecad:editable="SI-2" x="80" y="255"><tspan></tspan></text>
				<text freecad:editable="FreeCAD DRAWING" x="80" y="262"><tspan>FreeCAD DRAWING</tspan></text>
				<text freecad:editable="SI-4" x="80" y="269"><tspan></tspan></text>
				<text freecad:editable="SI-5" x="80" y="276"><tspan></tspan></text>
				<text freecad:editable="SI-6" x="80" y="283"><tspan></tspan></text>
				<text freecad:editable="FC-SI" x="150" y="248"><tspan>A0</tspan></text>
				<text freecad:editable="FC-SH" x="170" y="248"><tspan>X / Y</tspan></text>
				<text freecad:editable="FC-SC" x="190" y="248"><tspan>SCALE</tspan></text>
				<text freecad:editable="PN" x="170" y="260"><tspan>PN</tspan></text>
				<text freecad:editable="DN" x="170" y="272"><tspan>DN</tspan></text>
				<text freecad:editable="FC-DATE" x="160" y="284"><tspan>DD/MM/YYYY</tspan></text>
				<text freecad:editable="FC-REV" x="190" y="284"><tspan>REV A</tspan></text>
			</g>
			<!-- Set display:none to hide FreeCAD Logo -->
			<g
				style="display:inline"
				id="freecad-logo"
				transform="translate(128.5,276)"
				fill-rule="evenodd"
				stroke="#000"
				stroke-width="0.35"
				fill="none">
					<path d="m0.1524 0.15254v8.8549h1.9744v-3.4652h1.396v-1.3661h-1.396v-1.4745h3.4391v-2.5441l-5.4135-0.005z"/>
					<path d="m7.7927 3.4504-0.50715-0.176-0.48387-1.2366-0.76115 0.04-0.34718 1.2787-0.4859 0.23269-1.2119-0.53015-0.51188 0.56882 0.65892 1.1485-0.18006 0.50567-1.2366 0.48387 0.044064 0.76263 1.2787 0.34718 0.23269 0.4859-0.53421 1.2104 0.56882 0.51188 1.1485-0.65891 0.50973 0.18155 0.4798 1.2351 0.7667-0.04258 0.34311-1.2802 0.4859-0.23269 1.2145 0.5357 0.51188-0.56882-0.65891-1.1485 0.17748-0.51122 1.2351-0.4798-0.03851-0.76521-1.2802-0.34311-0.23269-0.4859 0.53163-1.216-0.56881-0.51184zm-0.5715 1.2244 0.23576 0.13679 0.20426 0.18519 0.16353 0.22101 0.11763 0.24572 0.06916 0.26489 0.01146 0.27146-0.03921 0.27139-0.08948 0.25764-0.14234 0.23834-0.17964 0.20167-0.22101 0.16353-0.24572 0.11763-0.26489 0.06916-0.27295 0.01553-0.2719-0.04-0.2576-0.089-0.2383-0.143-0.2002-0.183-0.165-0.217-0.1177-0.246-0.0676-0.269-0.0156-0.273 0.039206-0.2714 0.089484-0.25764 0.14085-0.23427 0.18113-0.20574 0.22101-0.16352 0.24572-0.11763 0.26895-0.06768 0.27147-0.01146 0.27139 0.03921 0.25764 0.08948z"/>
			</g>
		</g>
	</g>
<g id="View"
   transform="rotate(0,500,500) translate(500,500) scale(1,1)"
  >
<g   fill="none"
   stroke="rgb(0, 0, 0)"
   stroke-linecap="butt"
   stroke-linejoin="miter"
   stroke-width="0.350000"
   transform="scale(1,-1)"
  >
<path id= "1" d=" M 150 214 L 150 187.383 " />
<path id= "2" d=" M 125.55 214 L 150 214 " />
<path id= "3" d=" M 125.55 214 L 125.55 208.301 " />
<path d="M125.33 207.48 A0.44 0.44 0 0 1 125.55 208.301" /><path d="M124.949 207.7 A0.44 0.44 0 0 1 125.33 207.48" /><path id= "6" d=" M 124.949 207.7 L 116.051 207.7 " />
<path d="M115.67 207.48 A0.44 0.44 0 0 1 116.051 207.7" /><path d="M115.45 208.301 A0.44 0.44 0 0 1 115.67 207.48" /><path id= "9" d=" M 115.45 214 L 115.45 208.301 " />
<path id= "10" d=" M 109.55 214 L 115.45 214 " />
<path id= "11" d=" M 109.55 214 L 109.55 208.301 " />
<path d="M109.33 207.48 A0.44 0.44 0 0 1 109.55 208.301" /><path d="M108.949 207.7 A0.44 0.44 0 0 1 109.33 207.48" /><path id= "14" d=" M 108.949 207.7 L 100.051 207.7 " />
<path d="M99.67 207.48 A0.44 0.44 0 0 1 100.051 207.7" /><path d="M99.45 208.301 A0.44 0.44 0 0 1 99.67 207.48" /><path id= "17" d=" M 99.45 214 L 99.45 208.301 " />
<path id= "18" d=" M 50.55 214 L 99.45 214 " />
<path id= "19" d=" M 50.55 214 L 50.55 208.301 " />
<path d="M50.33 207.48 A0.44 0.44 0 0 1 50.55 208.301" /><path d="M49.9489 207.7 A0.44 0.44 0 0 1 50.33 207.48" /><path id= "22" d=" M 49.9489 207.7 L 41.0511 207.7 " />
<path d="M40.67 207.48 A0.44 0.44 0 0 1 41.0511 207.7" /><path d="M40.45 208.301 A0.44 0.44 0 0 1 40.67 207.48" /><path id= "25" d=" M 40.45 214 L 40.45 208.301 " />
<path id= "26" d=" M 34.55 214 L 40.45 214 " />
<path id= "27" d=" M 34.55 214 L 34.55 208.301 " />
<path d="M34.33 207.48 A0.44 0.44 0 0 1 34.55 208.301" /><path d="M33.9489 207.7 A0.44 0.44 0 0 1 34.33 207.48" /><path id= "30" d=" M 33.9489 207.7 L 25.0511 207.7 " />
<path d="M24.67 207.48 A0.44 0.44 0 0 1 25.0511 207.7" /><path d="M24.45 208.301 A0.44 0.44 0 0 1 24.67 207.48" /><path id= "33" d=" M 24.45 214 L 24.45 208.301 " />
<path id= "34" d=" M 2.84217e-014 214 L 24.45 214 " />
<path id= "35" d=" M 2.84217e-014 187.383 L 2.84217e-014 214 " />
<path id= "36" d=" M 1.02696e-014 187.383 L 5.69895 187.383 " />
<path d="M6.52 187.163 A0.44 0.44 0 0 1 5.69895 187.383" /><path d="M6.3 186.782 A0.44 0.44 0 0 1 6.52 187.163" /><path id= "39" d=" M 6.3 186.782 L 6.3 177.884 " />
<path d="M6.52 177.503 A0.44 0.44 0 0 1 6.3 177.884" /><path d="M5.69895 177.283 A0.44 0.44 0 0 1 6.52 177.503" /><path id= "42" d=" M 1.02696e-014 177.283 L 5.69895 177.283 " />
<path id= "43" d=" M 2.84217e-014 171.383 L 2.84217e-014 177.283 " />
<path id= "44" d=" M 1.02696e-014 171.383 L 5.69895 171.383 " />
<path d="M6.52 171.163 A0.44 0.44 0 0 1 5.69895 171.383" /><path d="M6.3 170.782 A0.44 0.44 0 0 1 6.52 171.163" /><path id= "47" d=" M 6.3 170.782 L 6.3 161.884 " />
<path d="M6.52 161.503 A0.44 0.44 0 0 1 6.3 161.884" /><path d="M5.69895 161.283 A0.44 0.44 0 0 1 6.52 161.503" /><path id= "50" d=" M 1.02696e-014 161.283 L 5.69895 161.283 " />
<path id= "51" d=" M 2.84217e-014 120.05 L 2.84217e-014 161.283 " />
<path id= "52" d=" M 1.02696e-014 120.05 L 5.69895 120.05 " />
<path d="M6.52 119.83 A0.44 0.44 0 0 1 5.69895 120.05" /><path d="M6.3 119.449 A0.44 0.44 0 0 1 6.52 119.83" /><path id= "55" d=" M 6.3 119.449 L 6.3 110.551 " />
<path d="M6.52 110.17 A0.44 0.44 0 0 1 6.3 110.551" /><path d="M5.69895 109.95 A0.44 0.44 0 0 1 6.52 110.17" /><path id= "58" d=" M 1.02696e-014 109.95 L 5.69895 109.95 " />
<path id= "59" d=" M 2.84217e-014 104.05 L 2.84217e-014 109.95 " />
<path id= "60" d=" M 1.02696e-014 104.05 L 5.69895 104.05 " />
<path d="M6.52 103.83 A0.44 0.44 0 0 1 5.69895 104.05" /><path d="M6.3 103.449 A0.44 0.44 0 0 1 6.52 103.83" /><path id= "63" d=" M 6.3 103.449 L 6.3 94.5511 " />
<path d="M6.52 94.17 A0.44 0.44 0 0 1 6.3 94.5511" /><path d="M5.69895 93.95 A0.44 0.44 0 0 1 6.52 94.17" /><path id= "66" d=" M 1.02696e-014 93.95 L 5.69895 93.95 " />
<path id= "67" d=" M 2.84217e-014 52.7167 L 2.84217e-014 93.95 " />
<path id= "68" d=" M 1.02696e-014 52.7167 L 5.69895 52.7167 " />
<path d="M6.52 52.4967 A0.44 0.44 0 0 1 5.69895 52.7167" /><path d="M6.3 52.1156 A0.44 0.44 0 0 1 6.52 52.4967" /><path id= "71" d=" M 6.3 52.1156 L 6.3 43.2177 " />
<path d="M6.52 42.8367 A0.44 0.44 0 0 1 6.3 43.2177" /><path d="M5.69895 42.6167 A0.44 0.44 0 0 1 6.52 42.8367" /><path id= "74" d=" M 1.02696e-014 42.6167 L 5.69895 42.6167 " />
<path id= "75" d=" M 2.84217e-014 36.7167 L 2.84217e-014 42.6167 " />
<path id= "76" d=" M 1.02696e-014 36.7167 L 5.69895 36.7167 " />
<path d="M6.52 36.4967 A0.44 0.44 0 0 1 5.69895 36.7167" /><path d="M6.3 36.1156 A0.44 0.44 0 0 1 6.52 36.4967" /><path id= "79" d=" M 6.3 36.1156 L 6.3 27.2177 " />
<path d="M6.52 26.8367 A0.44 0.44 0 0 1 6.3 27.2177" /><path d="M5.69895 26.6167 A0.44 0.44 0 0 1 6.52 26.8367" /><path id= "82" d=" M 1.02696e-014 26.6167 L 5.69895 26.6167 " />
<path id= "83" d=" M 2.84217e-014 0 L 2.84217e-014 26.6167 " />
<path id= "84" d=" M 24.45 0 L 5.68434e-014 0 " />
<path id= "85" d=" M 24.45 5.69895 L 24.45 5.32907e-015 " />
<path d="M25.0511 6.3 A0.44 0.44 0 1 1 24.45 5.69895" /><path id= "87" d=" M 33.9489 6.3 L 25.0511 6.3 " />
<path d="M34.55 5.69895 A0.44 0.44 0 1 1 33.9489 6.3" /><path id= "89" d=" M 34.55 5.69895 L 34.55 5.32907e-015 " />
<path id= "90" d=" M 40.45 0 L 34.55 0 " />
<path id= "91" d=" M 40.45 5.69895 L 40.45 5.32907e-015 " />
<path d="M41.0511 6.3 A0.44 0.44 0 1 1 40.45 5.69895" /><path id= "93" d=" M 49.9489 6.3 L 41.0511 6.3 " />
<path d="M50.55 5.69895 A0.44 0.44 0 1 1 49.9489 6.3" /><path id= "95" d=" M 50.55 5.69895 L 50.55 5.32907e-015 " />
<path id= "96" d=" M 99.45 0 L 50.55 0 " />
<path id= "97" d=" M 99.45 5.69895 L 99.45 5.32907e-015 " />
<path d="M100.051 6.3 A0.44 0.44 0 1 1 99.45 5.69895" /><path id= "99" d=" M 108.949 6.3 L 100.051 6.3 " />
<path d="M109.55 5.69895 A0.44 0.44 0 1 1 108.949 6.3" /><path id= "101" d=" M 109.55 5.69895 L 109.55 5.32907e-015 " />
<path id= "102" d=" M 115.45 0 L 109.55 0 " />
<path id= "103" d=" M 115.45 5.69895 L 115.45 5.32907e-015 " />
<path d="M116.051 6.3 A0.44 0.44 0 1 1 115.45 5.69895" /><path id= "105" d=" M 124.949 6.3 L 116.051 6.3 " />
<path d="M125.55 5.69895 A0.44 0.44 0 1 1 124.949 6.3" /><path id= "107" d=" M 125.55 5.69895 L 125.55 5.32907e-015 " />
<path id= "108" d=" M 150 0 L 125.55 0 " />
<path id= "109" d=" M 150 26.6167 L 150 5.68434e-014 " />
<path id= "110" d=" M 144.301 26.6167 L 150 26.6167 " />
<path d="M143.7 27.2177 A0.44 0.44 0 1 1 144.301 26.6167" /><path id= "112" d=" M 143.7 36.1156 L 143.7 27.2177 " />
<path d="M144.301 36.7167 A0.44 0.44 0 1 1 143.7 36.1156" /><path id= "114" d=" M 144.301 36.7167 L 150 36.7167 " />
<path id= "115" d=" M 150 42.6167 L 150 36.7167 " />
<path id= "116" d=" M 144.301 42.6167 L 150 42.6167 " />
<path d="M143.7 43.2177 A0.44 0.44 0 1 1 144.301 42.6167" /><path id= "118" d=" M 143.7 52.1156 L 143.7 43.2177 " />
<path d="M144.301 52.7167 A0.44 0.44 0 1 1 143.7 52.1156" /><path id= "120" d=" M 144.301 52.7167 L 150 52.7167 " />
<path id= "121" d=" M 150 93.95 L 150 52.7167 " />
<path id= "122" d=" M 144.301 93.95 L 150 93.95 " />
<path d="M143.7 94.5511 A0.44 0.44 0 1 1 144.301 93.95" /><path id= "124" d=" M 143.7 103.449 L 143.7 94.5511 " />
<path d="M144.301 104.05 A0.44 0.44 0 1 1 143.7 103.449" /><path id= "126" d=" M 144.301 104.05 L 150 104.05 " />
<path id= "127" d=" M 150 109.95 L 150 104.05 " />
<path id= "128" d=" M 144.301 109.95 L 150 109.95 " />
<path d="M143.7 110.551 A0.44 0.44 0 1 1 144.301 109.95" /><path id= "130" d=" M 143.7 119.449 L 143.7 110.551 " />
<path d="M144.301 120.05 A0.44 0.44 0 1 1 143.7 119.449" /><path id= "132" d=" M 144.301 120.05 L 150 120.05 " />
<path id= "133" d=" M 150 161.283 L 150 120.05 " />
<path id= "134" d=" M 144.301 161.283 L 150 161.283 " />
<path d="M143.7 161.884 A0.44 0.44 0 1 1 144.301 161.283" /><path id= "136" d=" M 143.7 170.782 L 143.7 161.884 " />
<path d="M144.301 171.383 A0.44 0.44 0 1 1 143.7 170.782" /><path id= "138" d=" M 144.301 171.383 L 150 171.383 " />
<path id= "139" d=" M 150 177.283 L 150 171.383 " />
<path id= "140" d=" M 144.301 177.283 L 150 177.283 " />
<path d="M143.7 177.884 A0.44 0.44 0 1 1 144.301 177.283" /><path id= "142" d=" M 143.7 186.782 L 143.7 177.884 " />
<path d="M144.301 187.383 A0.44 0.44 0 1 1 143.7 186.782" /><path id= "144" d=" M 144.301 187.383 L 150 187.383 " />
<circle cx ="112.5" cy ="3" r ="1.8" /><path id= "146" d=" M 36.0511 56.7 L 44.9489 56.7 " />
<path d="M35.45 57.3011 A0.44 0.44 0 1 1 36.0511 56.7" /><path id= "148" d=" M 35.45 57.3011 L 35.45 62.5389 " />
<path d="M35.2373 63 A0.44 0.44 0 0 1 35.45 62.5389" /><path d="M35.45 63.4611 A0.44 0.44 0 0 1 35.2373 63" /><path id= "151" d=" M 35.45 63.4611 L 35.45 68.6989 " />
<path d="M35.67 69.52 A0.44 0.44 0 0 1 35.45 68.6989" /><path d="M36.0511 69.3 A0.44 0.44 0 0 1 35.67 69.52" /><path id= "154" d=" M 36.0511 69.3 L 44.9489 69.3 " />
<path d="M45.33 69.52 A0.44 0.44 0 0 1 44.9489 69.3" /><path d="M45.55 68.6989 A0.44 0.44 0 0 1 45.33 69.52" /><path id= "157" d=" M 45.55 63.4611 L 45.55 68.6989 " />
<path d="M45.7627 63 A0.44 0.44 0 0 1 45.55 63.4611" /><path d="M45.55 62.5389 A0.44 0.44 0 0 1 45.7627 63" /><path id= "160" d=" M 45.55 57.3011 L 45.55 62.5389 " />
<path d="M44.9489 56.7 A0.44 0.44 0 1 1 45.55 57.3011" /><path id= "162" d=" M 105.051 56.7 L 113.949 56.7 " />
<path d="M104.45 57.3011 A0.44 0.44 0 1 1 105.051 56.7" /><path id= "164" d=" M 104.45 57.3011 L 104.45 62.5389 " />
<path d="M104.237 63 A0.44 0.44 0 0 1 104.45 62.5389" /><path d="M104.45 63.4611 A0.44 0.44 0 0 1 104.237 63" /><path id= "167" d=" M 104.45 63.4611 L 104.45 68.6989 " />
<path d="M104.67 69.52 A0.44 0.44 0 0 1 104.45 68.6989" /><path d="M105.051 69.3 A0.44 0.44 0 0 1 104.67 69.52" /><path id= "170" d=" M 105.051 69.3 L 113.949 69.3 " />
<path d="M114.33 69.52 A0.44 0.44 0 0 1 113.949 69.3" /><path d="M114.55 68.6989 A0.44 0.44 0 0 1 114.33 69.52" /><path id= "173" d=" M 114.55 63.4611 L 114.55 68.6989 " />
<path d="M114.763 63 A0.44 0.44 0 0 1 114.55 63.4611" /><path d="M114.55 62.5389 A0.44 0.44 0 0 1 114.763 63" /><path id= "176" d=" M 114.55 57.3011 L 114.55 62.5389 " />
<path d="M113.949 56.7 A0.44 0.44 0 1 1 114.55 57.3011" /><circle cx ="37.5" cy ="3" r ="1.8" /><path id= "179" d=" M 35 42 L 35 12 " />
<path id= "180" d=" M 115 42 L 35 42 " />
<path id= "181" d=" M 35 12 L 115 12 " />
<path id= "182" d=" M 115 12 L 115 42 " />
<circle cx ="37.5" cy ="211" r ="1.8" /><path id= "184" d=" M 113.949 144.7 L 105.051 144.7 " />
<path d="M104.67 144.48 A0.44 0.44 0 0 1 105.051 144.7" /><path d="M104.45 145.301 A0.44 0.44 0 0 1 104.67 144.48" /><path id= "187" d=" M 104.45 150.539 L 104.45 145.301 " />
<path d="M104.237 151 A0.44 0.44 0 0 1 104.45 150.539" /><path d="M104.45 151.461 A0.44 0.44 0 0 1 104.237 151" /><path id= "190" d=" M 104.45 156.699 L 104.45 151.461 " />
<path d="M105.051 157.3 A0.44 0.44 0 1 1 104.45 156.699" /><path id= "192" d=" M 113.949 157.3 L 105.051 157.3 " />
<path d="M114.55 156.699 A0.44 0.44 0 1 1 113.949 157.3" /><path id= "194" d=" M 114.55 156.699 L 114.55 151.461 " />
<path d="M114.763 151 A0.44 0.44 0 0 1 114.55 151.461" /><path d="M114.55 150.539 A0.44 0.44 0 0 1 114.763 151" /><path id= "197" d=" M 114.55 150.539 L 114.55 145.301 " />
<path d="M114.33 144.48 A0.44 0.44 0 0 1 114.55 145.301" /><path d="M113.949 144.7 A0.44 0.44 0 0 1 114.33 144.48" /><path id= "200" d=" M 44.9489 144.7 L 36.0511 144.7 " />
<path d="M35.67 144.48 A0.44 0.44 0 0 1 36.0511 144.7" /><path d="M35.45 145.301 A0.44 0.44 0 0 1 35.67 144.48" /><path id= "203" d=" M 35.45 150.539 L 35.45 145.301 " />
<path d="M35.2373 151 A0.44 0.44 0 0 1 35.45 150.539" /><path d="M35.45 151.461 A0.44 0.44 0 0 1 35.2373 151" /><path id= "206" d=" M 35.45 156.699 L 35.45 151.461 " />
<path d="M36.0511 157.3 A0.44 0.44 0 1 1 35.45 156.699" /><path id= "208" d=" M 44.9489 157.3 L 36.0511 157.3 " />
<path d="M45.55 156.699 A0.44 0.44 0 1 1 44.9489 157.3" /><path id= "210" d=" M 45.55 156.699 L 45.55 151.461 " />
<path d="M45.7627 151 A0.44 0.44 0 0 1 45.55 151.461" /><path d="M45.55 150.539 A0.44 0.44 0 0 1 45.7627 151" /><path id= "213" d=" M 45.55 150.539 L 45.55 145.301 " />
<path d="M45.33 144.48 A0.44 0.44 0 0 1 45.55 145.301" /><path d="M44.9489 144.7 A0.44 0.44 0 0 1 45.33 144.48" /><circle cx ="112.5" cy ="211" r ="1.8" /><path id= "217" d=" M 35 202 L 35 172 " />
<path id= "218" d=" M 115 202 L 35 202 " />
<path id= "219" d=" M 35 172 L 115 172 " />
<path id= "220" d=" M 115 172 L 115 202 " />
<circle cx ="147" cy ="107" r ="1.8" /><circle cx ="147" cy ="39.6667" r ="1.8" /><circle cx ="147" cy ="174.333" r ="1.8" /><circle cx ="3" cy ="174.333" r ="1.8" /><circle cx ="3" cy ="107" r ="1.8" /><circle cx ="3" cy ="39.6667" r ="1.8" /></g>
</g>



<g id="View001"
   transform="rotate(0,500,500) translate(500,500) scale(1,1)"
  >
<g   fill="none"
   stroke="rgb(0, 0, 0)"
   stroke-linecap="butt"
   stroke-linejoin="miter"
   stroke-width="0.350000"
   transform="scale(1,-1)"
  >
<path id= "1" d=" M 275.5 6 L 274.3 6 " />
<path id= "2" d=" M 274.3 15.7 L 274.3 6 " />
<path id= "3" d=" M 274.3 15.7 L 275.072 15.7 " />
<path id= "4" d=" M 275.5 6 L 275.5 0 " />
<path id= "5" d=" M 275.5 0 L 285.5 0 " />
<path id= "6" d=" M 310 6 L 285.5 6 " />
<path id= "7" d=" M 310 27.95 L 310 6 " />
<path id= "8" d=" M 310 27.95 L 304.301 27.95 " />
<path id= "9" d=" M 285.5 6 L 285.5 0 " />
<path d="M304.301 27.95 A0.44 0.44 0 0 0 303.48 28.17" /><path d="M303.48 28.17 A0.44 0.44 0 0 0 303.7 28.5511" /><path id= "12" d=" M 303.7 37.4489 L 303.7 28.5511 " />
<path d="M303.7 37.4489 A0.44 0.44 0 0 0 303.48 37.83" /><path d="M303.48 37.83 A0.44 0.44 0 0 0 304.301 38.05" /><path id= "15" d=" M 310 38.05 L 304.301 38.05 " />
<path id= "16" d=" M 310 43.95 L 310 38.05 " />
<path id= "17" d=" M 310 43.95 L 304.301 43.95 " />
<path d="M304.301 43.95 A0.44 0.44 0 0 0 303.48 44.17" /><path d="M303.48 44.17 A0.44 0.44 0 0 0 303.7 44.5511" /><path id= "20" d=" M 303.7 53.4489 L 303.7 44.5511 " />
<path d="M303.7 53.4489 A0.44 0.44 0 0 0 303.48 53.83" /><path d="M303.48 53.83 A0.44 0.44 0 0 0 304.301 54.05" /><path id= "23" d=" M 310 54.05 L 304.301 54.05 " />
<path id= "24" d=" M 310 76 L 310 54.05 " />
<path id= "25" d=" M 285.5 76 L 310 76 " />
<path id= "26" d=" M 285.5 76 L 285.5 82 " />
<path id= "27" d=" M 285.5 82 L 275.5 82 " />
<path id= "28" d=" M 275.5 76 L 275.5 82 " />
<path id= "29" d=" M 274.3 76 L 275.5 76 " />
<path id= "30" d=" M 274.3 66.3 L 274.3 76 " />
<path id= "31" d=" M 275.072 66.3 L 274.3 66.3 " />
<path d="M275.217 66.3833 A0.166667 0.166667 0 0 1 275.072 66.3" /><path d="M275.3 66.0723 A0.166667 0.166667 0 0 1 275.217 66.3833" /><path id= "34" d=" M 275.3 64.0277 L 275.3 66.0723 " />
<path d="M275.072 63.8 A0.166667 0.166667 0 1 1 275.3 64.0277" /><path id= "36" d=" M 275.072 63.8 L 274.3 63.8 " />
<path id= "37" d=" M 274.3 61.2278 L 274.3 63.8 " />
<path d="M273.972 60.9 A0.24 0.24 0 1 1 274.3 61.2278" /><path id= "39" d=" M 273.972 60.9 L 271.028 60.9 " />
<path d="M270.7 61.2278 A0.24 0.24 0 1 1 271.028 60.9" /><path id= "41" d=" M 270.7 61.2278 L 270.7 63.8 " />
<path id= "42" d=" M 270.7 63.8 L 269.928 63.8 " />
<path d="M269.7 64.0277 A0.166667 0.166667 0 1 1 269.928 63.8" /><path id= "44" d=" M 269.7 64.0277 L 269.7 66.0723 " />
<path d="M269.783 66.3833 A0.166667 0.166667 0 0 1 269.7 66.0723" /><path d="M269.928 66.3 A0.166667 0.166667 0 0 1 269.783 66.3833" /><path id= "47" d=" M 270.7 66.3 L 269.928 66.3 " />
<path id= "48" d=" M 270.7 66.3 L 270.7 76 " />
<path id= "49" d=" M 269.5 76 L 270.7 76 " />
<path id= "50" d=" M 269.5 76 L 269.5 82 " />
<path id= "51" d=" M 269.5 82 L 259.5 82 " />
<path id= "52" d=" M 259.5 76 L 259.5 82 " />
<path id= "53" d=" M 210.5 76 L 259.5 76 " />
<path id= "54" d=" M 210.5 76 L 210.5 82 " />
<path id= "55" d=" M 210.5 82 L 200.5 82 " />
<path id= "56" d=" M 200.5 76 L 200.5 82 " />
<path id= "57" d=" M 199.3 76 L 200.5 76 " />
<path id= "58" d=" M 199.3 66.3 L 199.3 76 " />
<path id= "59" d=" M 200.072 66.3 L 199.3 66.3 " />
<path d="M200.217 66.3833 A0.166667 0.166667 0 0 1 200.072 66.3" /><path d="M200.3 66.0723 A0.166667 0.166667 0 0 1 200.217 66.3833" /><path id= "62" d=" M 200.3 64.0277 L 200.3 66.0723 " />
<path d="M200.072 63.8 A0.166667 0.166667 0 1 1 200.3 64.0277" /><path id= "64" d=" M 200.072 63.8 L 199.3 63.8 " />
<path id= "65" d=" M 199.3 61.2278 L 199.3 63.8 " />
<path d="M198.972 60.9 A0.24 0.24 0 1 1 199.3 61.2278" /><path id= "67" d=" M 198.972 60.9 L 196.028 60.9 " />
<path d="M195.7 61.2278 A0.24 0.24 0 1 1 196.028 60.9" /><path id= "69" d=" M 195.7 61.2278 L 195.7 63.8 " />
<path id= "70" d=" M 195.7 63.8 L 194.928 63.8 " />
<path d="M194.7 64.0277 A0.166667 0.166667 0 1 1 194.928 63.8" /><path id= "72" d=" M 194.7 64.0277 L 194.7 66.0723 " />
<path d="M194.783 66.3833 A0.166667 0.166667 0 0 1 194.7 66.0723" /><path d="M194.928 66.3 A0.166667 0.166667 0 0 1 194.783 66.3833" /><path id= "75" d=" M 195.7 66.3 L 194.928 66.3 " />
<path id= "76" d=" M 195.7 66.3 L 195.7 76 " />
<path id= "77" d=" M 194.5 76 L 195.7 76 " />
<path id= "78" d=" M 194.5 76 L 194.5 82 " />
<path id= "79" d=" M 194.5 82 L 184.5 82 " />
<path id= "80" d=" M 184.5 76 L 184.5 82 " />
<path id= "81" d=" M 160 76 L 184.5 76 " />
<path id= "82" d=" M 160 54.05 L 160 76 " />
<path id= "83" d=" M 165.699 54.05 L 160 54.05 " />
<path d="M165.699 54.05 A0.44 0.44 0 1 0 166.3 53.4489" /><path id= "85" d=" M 166.3 53.4489 L 166.3 44.5511 " />
<path d="M166.3 44.5511 A0.44 0.44 0 1 0 165.699 43.95" /><path id= "87" d=" M 165.699 43.95 L 160 43.95 " />
<path id= "88" d=" M 160 38.05 L 160 43.95 " />
<path id= "89" d=" M 165.699 38.05 L 160 38.05 " />
<path d="M165.699 38.05 A0.44 0.44 0 1 0 166.3 37.4489" /><path id= "91" d=" M 166.3 37.4489 L 166.3 28.5511 " />
<path d="M166.3 28.5511 A0.44 0.44 0 1 0 165.699 27.95" /><path id= "93" d=" M 165.699 27.95 L 160 27.95 " />
<path id= "94" d=" M 160 6 L 160 27.95 " />
<path id= "95" d=" M 184.5 6 L 160 6 " />
<path id= "96" d=" M 184.5 6 L 184.5 1.95399e-014 " />
<path id= "97" d=" M 184.5 1.95399e-014 L 194.5 1.95399e-014 " />
<path id= "98" d=" M 194.5 6 L 194.5 1.95399e-014 " />
<path id= "99" d=" M 195.7 6 L 194.5 6 " />
<path id= "100" d=" M 195.7 15.7 L 195.7 6 " />
<path id= "101" d=" M 194.928 15.7 L 195.7 15.7 " />
<path d="M194.783 15.6167 A0.166667 0.166667 0 0 1 194.928 15.7" /><path d="M194.7 15.9277 A0.166667 0.166667 0 0 1 194.783 15.6167" /><path id= "104" d=" M 194.7 17.9723 L 194.7 15.9277 " />
<path d="M194.928 18.2 A0.166667 0.166667 0 1 1 194.7 17.9723" /><path id= "106" d=" M 194.928 18.2 L 195.7 18.2 " />
<path id= "107" d=" M 195.7 20.7722 L 195.7 18.2 " />
<path d="M196.028 21.1 A0.24 0.24 0 1 1 195.7 20.7722" /><path id= "109" d=" M 196.028 21.1 L 198.972 21.1 " />
<path d="M199.3 20.7722 A0.24 0.24 0 1 1 198.972 21.1" /><path id= "111" d=" M 199.3 20.7722 L 199.3 18.2 " />
<path id= "112" d=" M 199.3 18.2 L 200.072 18.2 " />
<path d="M200.3 17.9723 A0.166667 0.166667 0 1 1 200.072 18.2" /><path id= "114" d=" M 200.3 17.9723 L 200.3 15.9277 " />
<path d="M200.217 15.6167 A0.166667 0.166667 0 0 1 200.3 15.9277" /><path d="M200.072 15.7 A0.166667 0.166667 0 0 1 200.217 15.6167" /><path id= "117" d=" M 199.3 15.7 L 200.072 15.7 " />
<path id= "118" d=" M 199.3 15.7 L 199.3 6 " />
<path id= "119" d=" M 200.5 6 L 199.3 6 " />
<path id= "120" d=" M 200.5 6 L 200.5 1.68754e-014 " />
<path id= "121" d=" M 200.5 1.68754e-014 L 210.5 1.68754e-014 " />
<path id= "122" d=" M 210.5 6 L 210.5 1.68754e-014 " />
<path id= "123" d=" M 259.5 6 L 210.5 6 " />
<path id= "124" d=" M 259.5 6 L 259.5 2.66454e-015 " />
<path id= "125" d=" M 259.5 2.66454e-015 L 269.5 2.66454e-015 " />
<path id= "126" d=" M 269.5 6 L 269.5 2.66454e-015 " />
<path id= "127" d=" M 270.7 6 L 269.5 6 " />
<path id= "128" d=" M 270.7 15.7 L 270.7 6 " />
<path id= "129" d=" M 269.928 15.7 L 270.7 15.7 " />
<path d="M269.783 15.6167 A0.166667 0.166667 0 0 1 269.928 15.7" /><path d="M269.7 15.9277 A0.166667 0.166667 0 0 1 269.783 15.6167" /><path id= "132" d=" M 269.7 17.9723 L 269.7 15.9277 " />
<path d="M269.928 18.2 A0.166667 0.166667 0 1 1 269.7 17.9723" /><path id= "134" d=" M 269.928 18.2 L 270.7 18.2 " />
<path id= "135" d=" M 270.7 20.7722 L 270.7 18.2 " />
<path d="M271.028 21.1 A0.24 0.24 0 1 1 270.7 20.7722" /><path id= "137" d=" M 271.028 21.1 L 273.972 21.1 " />
<path d="M274.3 20.7722 A0.24 0.24 0 1 1 273.972 21.1" /><path id= "139" d=" M 274.3 20.7722 L 274.3 18.2 " />
<path id= "140" d=" M 274.3 18.2 L 275.072 18.2 " />
<path d="M275.3 17.9723 A0.166667 0.166667 0 1 1 275.072 18.2" /><path id= "142" d=" M 275.3 17.9723 L 275.3 15.9277 " />
<path d="M275.217 15.6167 A0.166667 0.166667 0 0 1 275.3 15.9277" /><path d="M275.072 15.7 A0.166667 0.166667 0 0 1 275.217 15.6167" /><circle cx ="235" cy ="32" r ="11" /><circle cx ="307" cy ="41" r ="1.8" /><circle cx ="163" cy ="41" r ="1.8" /><circle cx ="222.01" cy ="24.5" r ="1.5" /><circle cx ="247.99" cy ="24.5" r ="1.5" /><circle cx ="235" cy ="47" r ="1.5" /></g>
</g>



<g id="View002"
   transform="rotate(0,500,500) translate(500,500) scale(1,1)"
  >
<g   fill="none"
   stroke="rgb(0, 0, 0)"
   stroke-linecap="butt"
   stroke-linejoin="miter"
   stroke-width="0.350000"
   transform="scale(1,-1)"
  >
<path id= "1" d=" M 435.5 6 L 434.3 6 " />
<path id= "2" d=" M 434.3 15.7 L 434.3 6 " />
<path id= "3" d=" M 434.3 15.7 L 435.072 15.7 " />
<path id= "4" d=" M 435.5 6 L 435.5 0 " />
<path id= "5" d=" M 435.5 0 L 445.5 0 " />
<path id= "6" d=" M 470 6 L 445.5 6 " />
<path id= "7" d=" M 470 27.95 L 470 6 " />
<path id= "8" d=" M 470 27.95 L 464.301 27.95 " />
<path id= "9" d=" M 445.5 6 L 445.5 0 " />
<path d="M463.48 28.17 A0.44 0.44 0 0 1 464.301 27.95" /><path d="M463.7 28.5511 A0.44 0.44 0 0 1 463.48 28.17" /><path id= "12" d=" M 463.7 28.5511 L 463.7 37.4489 " />
<path d="M463.48 37.83 A0.44 0.44 0 0 1 463.7 37.4489" /><path d="M464.301 38.05 A0.44 0.44 0 0 1 463.48 37.83" /><path id= "15" d=" M 470 38.05 L 464.301 38.05 " />
<path id= "16" d=" M 470 43.95 L 470 38.05 " />
<path id= "17" d=" M 470 43.95 L 464.301 43.95 " />
<path d="M463.48 44.17 A0.44 0.44 0 0 1 464.301 43.95" /><path d="M463.7 44.5511 A0.44 0.44 0 0 1 463.48 44.17" /><path id= "20" d=" M 463.7 44.5511 L 463.7 53.4489 " />
<path d="M463.48 53.83 A0.44 0.44 0 0 1 463.7 53.4489" /><path d="M464.301 54.05 A0.44 0.44 0 0 1 463.48 53.83" /><path id= "23" d=" M 470 54.05 L 464.301 54.05 " />
<path id= "24" d=" M 470 76 L 470 54.05 " />
<path id= "25" d=" M 445.5 76 L 470 76 " />
<path id= "26" d=" M 445.5 76 L 445.5 82 " />
<path id= "27" d=" M 445.5 82 L 435.5 82 " />
<path id= "28" d=" M 435.5 76 L 435.5 82 " />
<path id= "29" d=" M 434.3 76 L 435.5 76 " />
<path id= "30" d=" M 434.3 66.3 L 434.3 76 " />
<path id= "31" d=" M 435.072 66.3 L 434.3 66.3 " />
<path d="M435.217 66.3833 A0.166667 0.166667 0 0 1 435.072 66.3" /><path d="M435.3 66.0723 A0.166667 0.166667 0 0 1 435.217 66.3833" /><path id= "34" d=" M 435.3 64.0277 L 435.3 66.0723 " />
<path d="M435.072 63.8 A0.166667 0.166667 0 1 1 435.3 64.0277" /><path id= "36" d=" M 435.072 63.8 L 434.3 63.8 " />
<path id= "37" d=" M 434.3 61.2278 L 434.3 63.8 " />
<path d="M433.972 60.9 A0.24 0.24 0 1 1 434.3 61.2278" /><path id= "39" d=" M 433.972 60.9 L 431.028 60.9 " />
<path d="M430.7 61.2278 A0.24 0.24 0 1 1 431.028 60.9" /><path id= "41" d=" M 430.7 61.2278 L 430.7 63.8 " />
<path id= "42" d=" M 430.7 63.8 L 429.928 63.8 " />
<path d="M429.7 64.0277 A0.166667 0.166667 0 1 1 429.928 63.8" /><path id= "44" d=" M 429.7 64.0277 L 429.7 66.0723 " />
<path d="M429.783 66.3833 A0.166667 0.166667 0 0 1 429.7 66.0723" /><path d="M429.928 66.3 A0.166667 0.166667 0 0 1 429.783 66.3833" /><path id= "47" d=" M 430.7 66.3 L 429.928 66.3 " />
<path id= "48" d=" M 430.7 66.3 L 430.7 76 " />
<path id= "49" d=" M 429.5 76 L 430.7 76 " />
<path id= "50" d=" M 429.5 76 L 429.5 82 " />
<path id= "51" d=" M 429.5 82 L 419.5 82 " />
<path id= "52" d=" M 419.5 76 L 419.5 82 " />
<path id= "53" d=" M 370.5 76 L 419.5 76 " />
<path id= "54" d=" M 370.5 76 L 370.5 82 " />
<path id= "55" d=" M 370.5 82 L 360.5 82 " />
<path id= "56" d=" M 360.5 76 L 360.5 82 " />
<path id= "57" d=" M 359.3 76 L 360.5 76 " />
<path id= "58" d=" M 359.3 66.3 L 359.3 76 " />
<path id= "59" d=" M 360.072 66.3 L 359.3 66.3 " />
<path d="M360.217 66.3833 A0.166667 0.166667 0 0 1 360.072 66.3" /><path d="M360.3 66.0723 A0.166667 0.166667 0 0 1 360.217 66.3833" /><path id= "62" d=" M 360.3 64.0277 L 360.3 66.0723 " />
<path d="M360.072 63.8 A0.166667 0.166667 0 1 1 360.3 64.0277" /><path id= "64" d=" M 360.072 63.8 L 359.3 63.8 " />
<path id= "65" d=" M 359.3 61.2278 L 359.3 63.8 " />
<path d="M358.972 60.9 A0.24 0.24 0 1 1 359.3 61.2278" /><path id= "67" d=" M 358.972 60.9 L 356.028 60.9 " />
<path d="M355.7 61.2278 A0.24 0.24 0 1 1 356.028 60.9" /><path id= "69" d=" M 355.7 61.2278 L 355.7 63.8 " />
<path id= "70" d=" M 355.7 63.8 L 354.928 63.8 " />
<path d="M354.7 64.0277 A0.166667 0.166667 0 1 1 354.928 63.8" /><path id= "72" d=" M 354.7 64.0277 L 354.7 66.0723 " />
<path d="M354.783 66.3833 A0.166667 0.166667 0 0 1 354.7 66.0723" /><path d="M354.928 66.3 A0.166667 0.166667 0 0 1 354.783 66.3833" /><path id= "75" d=" M 355.7 66.3 L 354.928 66.3 " />
<path id= "76" d=" M 355.7 66.3 L 355.7 76 " />
<path id= "77" d=" M 354.5 76 L 355.7 76 " />
<path id= "78" d=" M 354.5 76 L 354.5 82 " />
<path id= "79" d=" M 354.5 82 L 344.5 82 " />
<path id= "80" d=" M 344.5 76 L 344.5 82 " />
<path id= "81" d=" M 320 76 L 344.5 76 " />
<path id= "82" d=" M 320 54.05 L 320 76 " />
<path id= "83" d=" M 325.699 54.05 L 320 54.05 " />
<path d="M326.3 53.4489 A0.44 0.44 0 1 1 325.699 54.05" /><path id= "85" d=" M 326.3 44.5511 L 326.3 53.4489 " />
<path d="M325.699 43.95 A0.44 0.44 0 1 1 326.3 44.5511" /><path id= "87" d=" M 325.699 43.95 L 320 43.95 " />
<path id= "88" d=" M 320 38.05 L 320 43.95 " />
<path id= "89" d=" M 325.699 38.05 L 320 38.05 " />
<path d="M326.3 37.4489 A0.44 0.44 0 1 1 325.699 38.05" /><path id= "91" d=" M 326.3 28.5511 L 326.3 37.4489 " />
<path d="M325.699 27.95 A0.44 0.44 0 1 1 326.3 28.5511" /><path id= "93" d=" M 325.699 27.95 L 320 27.95 " />
<path id= "94" d=" M 320 6 L 320 27.95 " />
<path id= "95" d=" M 344.5 6 L 320 6 " />
<path id= "96" d=" M 344.5 6 L 344.5 1.95399e-014 " />
<path id= "97" d=" M 344.5 1.95399e-014 L 354.5 1.95399e-014 " />
<path id= "98" d=" M 354.5 6 L 354.5 1.95399e-014 " />
<path id= "99" d=" M 355.7 6 L 354.5 6 " />
<path id= "100" d=" M 355.7 15.7 L 355.7 6 " />
<path id= "101" d=" M 354.928 15.7 L 355.7 15.7 " />
<path d="M354.783 15.6167 A0.166667 0.166667 0 0 1 354.928 15.7" /><path d="M354.7 15.9277 A0.166667 0.166667 0 0 1 354.783 15.6167" /><path id= "104" d=" M 354.7 17.9723 L 354.7 15.9277 " />
<path d="M354.928 18.2 A0.166667 0.166667 0 1 1 354.7 17.9723" /><path id= "106" d=" M 354.928 18.2 L 355.7 18.2 " />
<path id= "107" d=" M 355.7 20.7722 L 355.7 18.2 " />
<path d="M356.028 21.1 A0.24 0.24 0 1 1 355.7 20.7722" /><path id= "109" d=" M 356.028 21.1 L 358.972 21.1 " />
<path d="M359.3 20.7722 A0.24 0.24 0 1 1 358.972 21.1" /><path id= "111" d=" M 359.3 20.7722 L 359.3 18.2 " />
<path id= "112" d=" M 359.3 18.2 L 360.072 18.2 " />
<path d="M360.3 17.9723 A0.166667 0.166667 0 1 1 360.072 18.2" /><path id= "114" d=" M 360.3 17.9723 L 360.3 15.9277 " />
<path d="M360.217 15.6167 A0.166667 0.166667 0 0 1 360.3 15.9277" /><path d="M360.072 15.7 A0.166667 0.166667 0 0 1 360.217 15.6167" /><path id= "117" d=" M 359.3 15.7 L 360.072 15.7 " />
<path id= "118" d=" M 359.3 15.7 L 359.3 6 " />
<path id= "119" d=" M 360.5 6 L 359.3 6 " />
<path id= "120" d=" M 360.5 6 L 360.5 1.68754e-014 " />
<path id= "121" d=" M 360.5 1.68754e-014 L 370.5 1.68754e-014 " />
<path id= "122" d=" M 370.5 6 L 370.5 1.68754e-014 " />
<path id= "123" d=" M 419.5 6 L 370.5 6 " />
<path id= "124" d=" M 419.5 6 L 419.5 2.66454e-015 " />
<path id= "125" d=" M 419.5 2.66454e-015 L 429.5 2.66454e-015 " />
<path id= "126" d=" M 429.5 6 L 429.5 2.66454e-015 " />
<path id= "127" d=" M 430.7 6 L 429.5 6 " />
<path id= "128" d=" M 430.7 15.7 L 430.7 6 " />
<path id= "129" d=" M 429.928 15.7 L 430.7 15.7 " />
<path d="M429.783 15.6167 A0.166667 0.166667 0 0 1 429.928 15.7" /><path d="M429.7 15.9277 A0.166667 0.166667 0 0 1 429.783 15.6167" /><path id= "132" d=" M 429.7 17.9723 L 429.7 15.9277 " />
<path d="M429.928 18.2 A0.166667 0.166667 0 1 1 429.7 17.9723" /><path id= "134" d=" M 429.928 18.2 L 430.7 18.2 " />
<path id= "135" d=" M 430.7 20.7722 L 430.7 18.2 " />
<path d="M431.028 21.1 A0.24 0.24 0 1 1 430.7 20.7722" /><path id= "137" d=" M 431.028 21.1 L 433.972 21.1 " />
<path d="M434.3 20.7722 A0.24 0.24 0 1 1 433.972 21.1" /><path id= "139" d=" M 434.3 20.7722 L 434.3 18.2 " />
<path id= "140" d=" M 434.3 18.2 L 435.072 18.2 " />
<path d="M435.3 17.9723 A0.166667 0.166667 0 1 1 435.072 18.2" /><path id= "142" d=" M 435.3 17.9723 L 435.3 15.9277 " />
<path d="M435.217 15.6167 A0.166667 0.166667 0 0 1 435.3 15.9277" /><path d="M435.072 15.7 A0.166667 0.166667 0 0 1 435.217 15.6167" /><circle cx ="395" cy ="32" r ="11" /><circle cx ="467" cy ="41" r ="1.8" /><circle cx ="323" cy ="41" r ="1.8" /><circle cx ="382.01" cy ="24.5" r ="1.5" /><circle cx ="407.99" cy ="24.5" r ="1.5" /><circle cx ="395" cy ="47" r ="1.5" /></g>
</g>



<g id="View003"
   transform="rotate(0,500,500) translate(500,500) scale(1,1)"
  >
<g   fill="none"
   stroke="rgb(0, 0, 0)"
   stroke-linecap="butt"
   stroke-linejoin="miter"
   stroke-width="0.350000"
   transform="scale(1,-1)"
  >
<path id= "1" d=" M 214 300 L 208 300 " />
<path id= "2" d=" M 214 300 L 214 350 " />
<path id= "3" d=" M 208 300 L 208 278 " />
<path id= "4" d=" M 214 350 L 5.68434e-014 350 " />
<path id= "5" d=" M 208 278 L 214 278 " />
<path id= "6" d=" M 0 350 L 0 300 " />
<path id= "7" d=" M 6 300 L 0 300 " />
<path id= "8" d=" M 6 278 L 6 300 " />
<path id= "9" d=" M 214 268 L 214 278 " />
<path id= "10" d=" M 6 278 L 1.33227e-014 278 " />
<path id= "11" d=" M 1.15463e-014 278 L 1.15463e-014 268 " />
<path id= "12" d=" M 6 266.8 L 6 268 " />
<path id= "13" d=" M 15.7 266.8 L 6 266.8 " />
<path id= "14" d=" M 15.7 267.572 L 15.7 266.8 " />
<path id= "15" d=" M 6 268 L 1.33227e-014 268 " />
<path id= "16" d=" M 208 268 L 214 268 " />
<path id= "17" d=" M 198.3 266.8 L 198.3 267.572 " />
<path id= "18" d=" M 198.3 266.8 L 208 266.8 " />
<path id= "19" d=" M 208 268 L 208 266.8 " />
<path d="M15.6167 267.717 A0.166667 0.166667 0 0 1 15.7 267.572" /><path d="M15.9277 267.8 A0.166667 0.166667 0 0 1 15.6167 267.717" /><path id= "22" d=" M 17.9723 267.8 L 15.9277 267.8 " />
<path d="M18.2 267.572 A0.166667 0.166667 0 1 1 17.9723 267.8" /><path id= "24" d=" M 18.2 267.572 L 18.2 266.8 " />
<path id= "25" d=" M 20.7722 266.8 L 18.2 266.8 " />
<path d="M21.1 266.472 A0.24 0.24 0 1 1 20.7722 266.8" /><path id= "27" d=" M 21.1 266.472 L 21.1 263.528 " />
<path d="M20.7722 263.2 A0.24 0.24 0 1 1 21.1 263.528" /><path id= "29" d=" M 20.7722 263.2 L 18.2 263.2 " />
<path id= "30" d=" M 18.2 263.2 L 18.2 262.428 " />
<path d="M17.9723 262.2 A0.166667 0.166667 0 1 1 18.2 262.428" /><path id= "32" d=" M 17.9723 262.2 L 15.9277 262.2 " />
<path d="M15.6167 262.283 A0.166667 0.166667 0 0 1 15.9277 262.2" /><path d="M15.7 262.428 A0.166667 0.166667 0 0 1 15.6167 262.283" /><path id= "35" d=" M 15.7 263.2 L 15.7 262.428 " />
<path id= "36" d=" M 15.7 263.2 L 6 263.2 " />
<path id= "37" d=" M 6 262 L 6 263.2 " />
<path id= "38" d=" M 6 262 L 1.33227e-014 262 " />
<path id= "39" d=" M 1.15463e-014 262 L 1.15463e-014 252 " />
<path id= "40" d=" M 6 252 L 1.33227e-014 252 " />
<path id= "41" d=" M 6 230 L 6 252 " />
<path id= "42" d=" M 26.6667 230 L 6 230 " />
<path id= "43" d=" M 26.6667 230 L 26.6667 224 " />
<path id= "44" d=" M 26.6667 224 L 36.6667 224 " />
<path id= "45" d=" M 36.6667 230 L 36.6667 224 " />
<path id= "46" d=" M 37.8667 230 L 36.6667 230 " />
<path id= "47" d=" M 37.8667 239.7 L 37.8667 230 " />
<path id= "48" d=" M 37.0943 239.7 L 37.8667 239.7 " />
<path d="M36.95 239.617 A0.166667 0.166667 0 0 1 37.0943 239.7" /><path d="M36.8667 239.928 A0.166667 0.166667 0 0 1 36.95 239.617" /><path id= "51" d=" M 36.8667 241.972 L 36.8667 239.928 " />
<path d="M37.0943 242.2 A0.166667 0.166667 0 1 1 36.8667 241.972" /><path id= "53" d=" M 37.0943 242.2 L 37.8667 242.2 " />
<path id= "54" d=" M 37.8667 244.772 L 37.8667 242.2 " />
<path d="M38.1945 245.1 A0.24 0.24 0 1 1 37.8667 244.772" /><path id= "56" d=" M 38.1945 245.1 L 41.1388 245.1 " />
<path d="M41.4667 244.772 A0.24 0.24 0 1 1 41.1388 245.1" /><path id= "58" d=" M 41.4667 244.772 L 41.4667 242.2 " />
<path id= "59" d=" M 41.4667 242.2 L 42.239 242.2 " />
<path d="M42.4667 241.972 A0.166667 0.166667 0 1 1 42.239 242.2" /><path id= "61" d=" M 42.4667 241.972 L 42.4667 239.928 " />
<path d="M42.3833 239.617 A0.166667 0.166667 0 0 1 42.4667 239.928" /><path d="M42.239 239.7 A0.166667 0.166667 0 0 1 42.3833 239.617" /><path id= "64" d=" M 41.4667 239.7 L 42.239 239.7 " />
<path id= "65" d=" M 41.4667 239.7 L 41.4667 230 " />
<path id= "66" d=" M 42.6667 230 L 41.4667 230 " />
<path id= "67" d=" M 42.6667 230 L 42.6667 224 " />
<path id= "68" d=" M 42.6667 224 L 52.6667 224 " />
<path id= "69" d=" M 52.6667 230 L 52.6667 224 " />
<path id= "70" d=" M 94 230 L 52.6667 230 " />
<path id= "71" d=" M 94 230 L 94 224 " />
<path id= "72" d=" M 94 224 L 104 224 " />
<path id= "73" d=" M 104 230 L 104 224 " />
<path id= "74" d=" M 105.2 230 L 104 230 " />
<path id= "75" d=" M 105.2 239.7 L 105.2 230 " />
<path id= "76" d=" M 104.428 239.7 L 105.2 239.7 " />
<path d="M104.283 239.617 A0.166667 0.166667 0 0 1 104.428 239.7" /><path d="M104.2 239.928 A0.166667 0.166667 0 0 1 104.283 239.617" /><path id= "79" d=" M 104.2 241.972 L 104.2 239.928 " />
<path d="M104.428 242.2 A0.166667 0.166667 0 1 1 104.2 241.972" /><path id= "81" d=" M 104.428 242.2 L 105.2 242.2 " />
<path id= "82" d=" M 105.2 244.772 L 105.2 242.2 " />
<path d="M105.528 245.1 A0.24 0.24 0 1 1 105.2 244.772" /><path id= "84" d=" M 105.528 245.1 L 108.472 245.1 " />
<path d="M108.8 244.772 A0.24 0.24 0 1 1 108.472 245.1" /><path id= "86" d=" M 108.8 244.772 L 108.8 242.2 " />
<path id= "87" d=" M 108.8 242.2 L 109.572 242.2 " />
<path d="M109.8 241.972 A0.166667 0.166667 0 1 1 109.572 242.2" /><path id= "89" d=" M 109.8 241.972 L 109.8 239.928 " />
<path d="M109.717 239.617 A0.166667 0.166667 0 0 1 109.8 239.928" /><path d="M109.572 239.7 A0.166667 0.166667 0 0 1 109.717 239.617" /><path id= "92" d=" M 108.8 239.7 L 109.572 239.7 " />
<path id= "93" d=" M 108.8 239.7 L 108.8 230 " />
<path id= "94" d=" M 110 230 L 108.8 230 " />
<path id= "95" d=" M 110 230 L 110 224 " />
<path id= "96" d=" M 110 224 L 120 224 " />
<path id= "97" d=" M 120 230 L 120 224 " />
<path id= "98" d=" M 161.333 230 L 120 230 " />
<path id= "99" d=" M 161.333 230 L 161.333 224 " />
<path id= "100" d=" M 161.333 224 L 171.333 224 " />
<path id= "101" d=" M 171.333 230 L 171.333 224 " />
<path id= "102" d=" M 172.533 230 L 171.333 230 " />
<path id= "103" d=" M 172.533 239.7 L 172.533 230 " />
<path id= "104" d=" M 171.761 239.7 L 172.533 239.7 " />
<path d="M171.617 239.617 A0.166667 0.166667 0 0 1 171.761 239.7" /><path d="M171.533 239.928 A0.166667 0.166667 0 0 1 171.617 239.617" /><path id= "107" d=" M 171.533 241.972 L 171.533 239.928 " />
<path d="M171.761 242.2 A0.166667 0.166667 0 1 1 171.533 241.972" /><path id= "109" d=" M 171.761 242.2 L 172.533 242.2 " />
<path id= "110" d=" M 172.533 244.772 L 172.533 242.2 " />
<path d="M172.861 245.1 A0.24 0.24 0 1 1 172.533 244.772" /><path id= "112" d=" M 172.861 245.1 L 175.805 245.1 " />
<path d="M176.133 244.772 A0.24 0.24 0 1 1 175.805 245.1" /><path id= "114" d=" M 176.133 244.772 L 176.133 242.2 " />
<path id= "115" d=" M 176.133 242.2 L 176.906 242.2 " />
<path d="M177.133 241.972 A0.166667 0.166667 0 1 1 176.906 242.2" /><path id= "117" d=" M 177.133 241.972 L 177.133 239.928 " />
<path d="M177.05 239.617 A0.166667 0.166667 0 0 1 177.133 239.928" /><path d="M176.906 239.7 A0.166667 0.166667 0 0 1 177.05 239.617" /><path id= "120" d=" M 176.133 239.7 L 176.906 239.7 " />
<path id= "121" d=" M 176.133 239.7 L 176.133 230 " />
<path id= "122" d=" M 177.333 230 L 176.133 230 " />
<path id= "123" d=" M 177.333 230 L 177.333 224 " />
<path id= "124" d=" M 177.333 224 L 187.333 224 " />
<path id= "125" d=" M 187.333 230 L 187.333 224 " />
<path id= "126" d=" M 208 230 L 187.333 230 " />
<path id= "127" d=" M 208 252 L 208 230 " />
<path id= "128" d=" M 208 252 L 214 252 " />
<path id= "129" d=" M 214 252 L 214 262 " />
<path id= "130" d=" M 208 262 L 214 262 " />
<path id= "131" d=" M 208 263.2 L 208 262 " />
<path id= "132" d=" M 198.3 263.2 L 208 263.2 " />
<path id= "133" d=" M 198.3 262.428 L 198.3 263.2 " />
<path d="M198.383 262.283 A0.166667 0.166667 0 0 1 198.3 262.428" /><path d="M198.072 262.2 A0.166667 0.166667 0 0 1 198.383 262.283" /><path id= "136" d=" M 196.028 262.2 L 198.072 262.2 " />
<path d="M195.8 262.428 A0.166667 0.166667 0 1 1 196.028 262.2" /><path id= "138" d=" M 195.8 262.428 L 195.8 263.2 " />
<path id= "139" d=" M 193.228 263.2 L 195.8 263.2 " />
<path d="M192.9 263.528 A0.24 0.24 0 1 1 193.228 263.2" /><path id= "141" d=" M 192.9 263.528 L 192.9 266.472 " />
<path d="M193.228 266.8 A0.24 0.24 0 1 1 192.9 266.472" /><path id= "143" d=" M 193.228 266.8 L 195.8 266.8 " />
<path id= "144" d=" M 195.8 266.8 L 195.8 267.572 " />
<path d="M196.028 267.8 A0.166667 0.166667 0 1 1 195.8 267.572" /><path id= "146" d=" M 196.028 267.8 L 198.072 267.8 " />
<path d="M198.383 267.717 A0.166667 0.166667 0 0 1 198.072 267.8" /><path d="M198.3 267.572 A0.166667 0.166667 0 0 1 198.383 267.717" /><path id= "149" d=" M 157.3 260.551 L 157.3 269.449 " />
<path d="M156.699 259.95 A0.44 0.44 0 1 1 157.3 260.551" /><path id= "151" d=" M 156.699 259.95 L 151.461 259.95 " />
<path d="M151 259.737 A0.44 0.44 0 0 1 151.461 259.95" /><path d="M150.539 259.95 A0.44 0.44 0 0 1 151 259.737" /><path id= "154" d=" M 150.539 259.95 L 145.301 259.95 " />
<path d="M144.48 260.17 A0.44 0.44 0 0 1 145.301 259.95" /><path d="M144.7 260.551 A0.44 0.44 0 0 1 144.48 260.17" /><path id= "157" d=" M 144.7 260.551 L 144.7 269.449 " />
<path d="M144.48 269.83 A0.44 0.44 0 0 1 144.7 269.449" /><path d="M145.301 270.05 A0.44 0.44 0 0 1 144.48 269.83" /><path id= "160" d=" M 150.539 270.05 L 145.301 270.05 " />
<path d="M151 270.263 A0.44 0.44 0 0 1 150.539 270.05" /><path d="M151.461 270.05 A0.44 0.44 0 0 1 151 270.263" /><path id= "163" d=" M 156.699 270.05 L 151.461 270.05 " />
<path d="M157.3 269.449 A0.44 0.44 0 1 1 156.699 270.05" /><path id= "165" d=" M 69.3 269.449 L 69.3 260.551 " />
<path d="M69.52 260.17 A0.44 0.44 0 0 1 69.3 260.551" /><path d="M68.6989 259.95 A0.44 0.44 0 0 1 69.52 260.17" /><path id= "168" d=" M 63.4611 259.95 L 68.6989 259.95 " />
<path d="M63 259.737 A0.44 0.44 0 0 1 63.4611 259.95" /><path d="M62.5389 259.95 A0.44 0.44 0 0 1 63 259.737" /><path id= "171" d=" M 57.3011 259.95 L 62.5389 259.95 " />
<path d="M56.7 260.551 A0.44 0.44 0 1 1 57.3011 259.95" /><path id= "173" d=" M 56.7 269.449 L 56.7 260.551 " />
<path d="M57.3011 270.05 A0.44 0.44 0 1 1 56.7 269.449" /><path id= "175" d=" M 57.3011 270.05 L 62.5389 270.05 " />
<path d="M63 270.263 A0.44 0.44 0 0 1 62.5389 270.05" /><path d="M63.4611 270.05 A0.44 0.44 0 0 1 63 270.263" /><path id= "178" d=" M 63.4611 270.05 L 68.6989 270.05 " />
<path d="M69.52 269.83 A0.44 0.44 0 0 1 68.6989 270.05" /><path d="M69.3 269.449 A0.44 0.44 0 0 1 69.52 269.83" /><path id= "181" d=" M 190.782 306.3 L 181.884 306.3 " />
<path d="M191.383 305.699 A0.44 0.44 0 1 1 190.782 306.3" /><path id= "183" d=" M 191.383 305.699 L 191.383 300.301 " />
<path d="M191.163 299.48 A0.44 0.44 0 0 1 191.383 300.301" /><path d="M190.782 299.7 A0.44 0.44 0 0 1 191.163 299.48" /><path id= "186" d=" M 190.782 299.7 L 181.884 299.7 " />
<path d="M181.503 299.48 A0.44 0.44 0 0 1 181.884 299.7" /><path d="M181.283 300.301 A0.44 0.44 0 0 1 181.503 299.48" /><path id= "189" d=" M 181.283 305.699 L 181.283 300.301 " />
<path d="M181.884 306.3 A0.44 0.44 0 1 1 181.283 305.699" /><path id= "191" d=" M 174.782 306.3 L 165.884 306.3 " />
<path d="M175.383 305.699 A0.44 0.44 0 1 1 174.782 306.3" /><path id= "193" d=" M 175.383 305.699 L 175.383 300.301 " />
<path d="M175.163 299.48 A0.44 0.44 0 0 1 175.383 300.301" /><path d="M174.782 299.7 A0.44 0.44 0 0 1 175.163 299.48" /><path id= "196" d=" M 174.782 299.7 L 165.884 299.7 " />
<path d="M165.503 299.48 A0.44 0.44 0 0 1 165.884 299.7" /><path d="M165.283 300.301 A0.44 0.44 0 0 1 165.503 299.48" /><path id= "199" d=" M 165.283 305.699 L 165.283 300.301 " />
<path d="M165.884 306.3 A0.44 0.44 0 1 1 165.283 305.699" /><path id= "201" d=" M 32.1156 306.3 L 23.2177 306.3 " />
<path d="M32.7167 305.699 A0.44 0.44 0 1 1 32.1156 306.3" /><path id= "203" d=" M 32.7167 305.699 L 32.7167 300.301 " />
<path d="M32.4967 299.48 A0.44 0.44 0 0 1 32.7167 300.301" /><path d="M32.1156 299.7 A0.44 0.44 0 0 1 32.4967 299.48" /><path id= "206" d=" M 32.1156 299.7 L 23.2177 299.7 " />
<path d="M22.8367 299.48 A0.44 0.44 0 0 1 23.2177 299.7" /><path d="M22.6167 300.301 A0.44 0.44 0 0 1 22.8367 299.48" /><path id= "209" d=" M 22.6167 305.699 L 22.6167 300.301 " />
<path d="M23.2177 306.3 A0.44 0.44 0 1 1 22.6167 305.699" /><path id= "211" d=" M 48.1156 306.3 L 39.2177 306.3 " />
<path d="M48.7167 305.699 A0.44 0.44 0 1 1 48.1156 306.3" /><path id= "213" d=" M 48.7167 305.699 L 48.7167 300.301 " />
<path d="M48.4967 299.48 A0.44 0.44 0 0 1 48.7167 300.301" /><path d="M48.1156 299.7 A0.44 0.44 0 0 1 48.4967 299.48" /><path id= "216" d=" M 48.1156 299.7 L 39.2177 299.7 " />
<path d="M38.8367 299.48 A0.44 0.44 0 0 1 39.2177 299.7" /><path d="M38.6167 300.301 A0.44 0.44 0 0 1 38.8367 299.48" /><path id= "219" d=" M 38.6167 305.699 L 38.6167 300.301 " />
<path d="M39.2177 306.3 A0.44 0.44 0 1 1 38.6167 305.699" /><path id= "221" d=" M 119.449 306.3 L 110.551 306.3 " />
<path d="M120.05 305.699 A0.44 0.44 0 1 1 119.449 306.3" /><path id= "223" d=" M 120.05 305.699 L 120.05 300.301 " />
<path d="M119.83 299.48 A0.44 0.44 0 0 1 120.05 300.301" /><path d="M119.449 299.7 A0.44 0.44 0 0 1 119.83 299.48" /><path id= "226" d=" M 119.449 299.7 L 110.551 299.7 " />
<path d="M110.17 299.48 A0.44 0.44 0 0 1 110.551 299.7" /><path d="M109.95 300.301 A0.44 0.44 0 0 1 110.17 299.48" /><path id= "229" d=" M 109.95 305.699 L 109.95 300.301 " />
<path d="M110.551 306.3 A0.44 0.44 0 1 1 109.95 305.699" /><path id= "231" d=" M 103.449 306.3 L 94.5511 306.3 " />
<path d="M104.05 305.699 A0.44 0.44 0 1 1 103.449 306.3" /><path id= "233" d=" M 104.05 305.699 L 104.05 300.301 " />
<path d="M103.83 299.48 A0.44 0.44 0 0 1 104.05 300.301" /><path d="M103.449 299.7 A0.44 0.44 0 0 1 103.83 299.48" /><path id= "236" d=" M 103.449 299.7 L 94.5511 299.7 " />
<path d="M94.17 299.48 A0.44 0.44 0 0 1 94.5511 299.7" /><path d="M93.95 300.301 A0.44 0.44 0 0 1 94.17 299.48" /><path id= "239" d=" M 93.95 305.699 L 93.95 300.301 " />
<path d="M94.5511 306.3 A0.44 0.44 0 1 1 93.95 305.699" /><circle cx ="178.333" cy ="303" r ="1.8" /><circle cx ="107" cy ="303" r ="1.8" /><circle cx ="35.6667" cy ="303" r ="1.8" /><circle cx ="132" cy ="337.5" r ="1.5" /><circle cx ="132" cy ="312.5" r ="1.5" /><circle cx ="197" cy ="312.5" r ="1.5" /><circle cx ="197" cy ="337.5" r ="1.5" /><circle cx ="82" cy ="312.5" r ="1.5" /><circle cx ="82" cy ="337.5" r ="1.5" /><circle cx ="17" cy ="337.5" r ="1.5" /><circle cx ="17" cy ="312.5" r ="1.5" /></g>
</g>



<g id="View004"
   transform="rotate(0,500,500) translate(500,500) scale(1,1)"
  >
<g   fill="none"
   stroke="rgb(0, 0, 0)"
   stroke-linecap="butt"
   stroke-linejoin="miter"
   stroke-width="0.350000"
   transform="scale(1,-1)"
  >
<path id= "1" d=" M 438 300 L 432 300 " />
<path id= "2" d=" M 438 300 L 438 350 " />
<path id= "3" d=" M 432 300 L 432 278 " />
<path id= "4" d=" M 438 350 L 224 350 " />
<path id= "5" d=" M 432 278 L 438 278 " />
<path id= "6" d=" M 224 350 L 224 300 " />
<path id= "7" d=" M 230 300 L 224 300 " />
<path id= "8" d=" M 230 278 L 230 300 " />
<path id= "9" d=" M 438 268 L 438 278 " />
<path id= "10" d=" M 230 278 L 224 278 " />
<path id= "11" d=" M 224 278 L 224 268 " />
<path id= "12" d=" M 230 266.8 L 230 268 " />
<path id= "13" d=" M 239.7 266.8 L 230 266.8 " />
<path id= "14" d=" M 239.7 267.572 L 239.7 266.8 " />
<path id= "15" d=" M 230 268 L 224 268 " />
<path id= "16" d=" M 432 268 L 438 268 " />
<path id= "17" d=" M 422.3 266.8 L 422.3 267.572 " />
<path id= "18" d=" M 422.3 266.8 L 432 266.8 " />
<path id= "19" d=" M 432 268 L 432 266.8 " />
<path d="M239.617 267.717 A0.166667 0.166667 0 0 1 239.7 267.572" /><path d="M239.928 267.8 A0.166667 0.166667 0 0 1 239.617 267.717" /><path id= "22" d=" M 241.972 267.8 L 239.928 267.8 " />
<path d="M242.2 267.572 A0.166667 0.166667 0 1 1 241.972 267.8" /><path id= "24" d=" M 242.2 267.572 L 242.2 266.8 " />
<path id= "25" d=" M 244.772 266.8 L 242.2 266.8 " />
<path d="M245.1 266.472 A0.24 0.24 0 1 1 244.772 266.8" /><path id= "27" d=" M 245.1 266.472 L 245.1 263.528 " />
<path d="M244.772 263.2 A0.24 0.24 0 1 1 245.1 263.528" /><path id= "29" d=" M 244.772 263.2 L 242.2 263.2 " />
<path id= "30" d=" M 242.2 263.2 L 242.2 262.428 " />
<path d="M241.972 262.2 A0.166667 0.166667 0 1 1 242.2 262.428" /><path id= "32" d=" M 241.972 262.2 L 239.928 262.2 " />
<path d="M239.617 262.283 A0.166667 0.166667 0 0 1 239.928 262.2" /><path d="M239.7 262.428 A0.166667 0.166667 0 0 1 239.617 262.283" /><path id= "35" d=" M 239.7 263.2 L 239.7 262.428 " />
<path id= "36" d=" M 239.7 263.2 L 230 263.2 " />
<path id= "37" d=" M 230 262 L 230 263.2 " />
<path id= "38" d=" M 230 262 L 224 262 " />
<path id= "39" d=" M 224 262 L 224 252 " />
<path id= "40" d=" M 230 252 L 224 252 " />
<path id= "41" d=" M 230 230 L 230 252 " />
<path id= "42" d=" M 250.667 230 L 230 230 " />
<path id= "43" d=" M 250.667 230 L 250.667 224 " />
<path id= "44" d=" M 250.667 224 L 260.667 224 " />
<path id= "45" d=" M 260.667 230 L 260.667 224 " />
<path id= "46" d=" M 261.867 230 L 260.667 230 " />
<path id= "47" d=" M 261.867 239.7 L 261.867 230 " />
<path id= "48" d=" M 261.094 239.7 L 261.867 239.7 " />
<path d="M260.95 239.617 A0.166667 0.166667 0 0 1 261.094 239.7" /><path d="M260.867 239.928 A0.166667 0.166667 0 0 1 260.95 239.617" /><path id= "51" d=" M 260.867 241.972 L 260.867 239.928 " />
<path d="M261.094 242.2 A0.166667 0.166667 0 1 1 260.867 241.972" /><path id= "53" d=" M 261.094 242.2 L 261.867 242.2 " />
<path id= "54" d=" M 261.867 244.772 L 261.867 242.2 " />
<path d="M262.195 245.1 A0.24 0.24 0 1 1 261.867 244.772" /><path id= "56" d=" M 262.195 245.1 L 265.139 245.1 " />
<path d="M265.467 244.772 A0.24 0.24 0 1 1 265.139 245.1" /><path id= "58" d=" M 265.467 244.772 L 265.467 242.2 " />
<path id= "59" d=" M 265.467 242.2 L 266.239 242.2 " />
<path d="M266.467 241.972 A0.166667 0.166667 0 1 1 266.239 242.2" /><path id= "61" d=" M 266.467 241.972 L 266.467 239.928 " />
<path d="M266.383 239.617 A0.166667 0.166667 0 0 1 266.467 239.928" /><path d="M266.239 239.7 A0.166667 0.166667 0 0 1 266.383 239.617" /><path id= "64" d=" M 265.467 239.7 L 266.239 239.7 " />
<path id= "65" d=" M 265.467 239.7 L 265.467 230 " />
<path id= "66" d=" M 266.667 230 L 265.467 230 " />
<path id= "67" d=" M 266.667 230 L 266.667 224 " />
<path id= "68" d=" M 266.667 224 L 276.667 224 " />
<path id= "69" d=" M 276.667 230 L 276.667 224 " />
<path id= "70" d=" M 318 230 L 276.667 230 " />
<path id= "71" d=" M 318 230 L 318 224 " />
<path id= "72" d=" M 318 224 L 328 224 " />
<path id= "73" d=" M 328 230 L 328 224 " />
<path id= "74" d=" M 329.2 230 L 328 230 " />
<path id= "75" d=" M 329.2 239.7 L 329.2 230 " />
<path id= "76" d=" M 328.428 239.7 L 329.2 239.7 " />
<path d="M328.283 239.617 A0.166667 0.166667 0 0 1 328.428 239.7" /><path d="M328.2 239.928 A0.166667 0.166667 0 0 1 328.283 239.617" /><path id= "79" d=" M 328.2 241.972 L 328.2 239.928 " />
<path d="M328.428 242.2 A0.166667 0.166667 0 1 1 328.2 241.972" /><path id= "81" d=" M 328.428 242.2 L 329.2 242.2 " />
<path id= "82" d=" M 329.2 244.772 L 329.2 242.2 " />
<path d="M329.528 245.1 A0.24 0.24 0 1 1 329.2 244.772" /><path id= "84" d=" M 329.528 245.1 L 332.472 245.1 " />
<path d="M332.8 244.772 A0.24 0.24 0 1 1 332.472 245.1" /><path id= "86" d=" M 332.8 244.772 L 332.8 242.2 " />
<path id= "87" d=" M 332.8 242.2 L 333.572 242.2 " />
<path d="M333.8 241.972 A0.166667 0.166667 0 1 1 333.572 242.2" /><path id= "89" d=" M 333.8 241.972 L 333.8 239.928 " />
<path d="M333.717 239.617 A0.166667 0.166667 0 0 1 333.8 239.928" /><path d="M333.572 239.7 A0.166667 0.166667 0 0 1 333.717 239.617" /><path id= "92" d=" M 332.8 239.7 L 333.572 239.7 " />
<path id= "93" d=" M 332.8 239.7 L 332.8 230 " />
<path id= "94" d=" M 334 230 L 332.8 230 " />
<path id= "95" d=" M 334 230 L 334 224 " />
<path id= "96" d=" M 334 224 L 344 224 " />
<path id= "97" d=" M 344 230 L 344 224 " />
<path id= "98" d=" M 385.333 230 L 344 230 " />
<path id= "99" d=" M 385.333 230 L 385.333 224 " />
<path id= "100" d=" M 385.333 224 L 395.333 224 " />
<path id= "101" d=" M 395.333 230 L 395.333 224 " />
<path id= "102" d=" M 396.533 230 L 395.333 230 " />
<path id= "103" d=" M 396.533 239.7 L 396.533 230 " />
<path id= "104" d=" M 395.761 239.7 L 396.533 239.7 " />
<path d="M395.617 239.617 A0.166667 0.166667 0 0 1 395.761 239.7" /><path d="M395.533 239.928 A0.166667 0.166667 0 0 1 395.617 239.617" /><path id= "107" d=" M 395.533 241.972 L 395.533 239.928 " />
<path d="M395.761 242.2 A0.166667 0.166667 0 1 1 395.533 241.972" /><path id= "109" d=" M 395.761 242.2 L 396.533 242.2 " />
<path id= "110" d=" M 396.533 244.772 L 396.533 242.2 " />
<path d="M396.861 245.1 A0.24 0.24 0 1 1 396.533 244.772" /><path id= "112" d=" M 396.861 245.1 L 399.805 245.1 " />
<path d="M400.133 244.772 A0.24 0.24 0 1 1 399.805 245.1" /><path id= "114" d=" M 400.133 244.772 L 400.133 242.2 " />
<path id= "115" d=" M 400.133 242.2 L 400.906 242.2 " />
<path d="M401.133 241.972 A0.166667 0.166667 0 1 1 400.906 242.2" /><path id= "117" d=" M 401.133 241.972 L 401.133 239.928 " />
<path d="M401.05 239.617 A0.166667 0.166667 0 0 1 401.133 239.928" /><path d="M400.906 239.7 A0.166667 0.166667 0 0 1 401.05 239.617" /><path id= "120" d=" M 400.133 239.7 L 400.906 239.7 " />
<path id= "121" d=" M 400.133 239.7 L 400.133 230 " />
<path id= "122" d=" M 401.333 230 L 400.133 230 " />
<path id= "123" d=" M 401.333 230 L 401.333 224 " />
<path id= "124" d=" M 401.333 224 L 411.333 224 " />
<path id= "125" d=" M 411.333 230 L 411.333 224 " />
<path id= "126" d=" M 432 230 L 411.333 230 " />
<path id= "127" d=" M 432 252 L 432 230 " />
<path id= "128" d=" M 432 252 L 438 252 " />
<path id= "129" d=" M 438 252 L 438 262 " />
<path id= "130" d=" M 432 262 L 438 262 " />
<path id= "131" d=" M 432 263.2 L 432 262 " />
<path id= "132" d=" M 422.3 263.2 L 432 263.2 " />
<path id= "133" d=" M 422.3 262.428 L 422.3 263.2 " />
<path d="M422.383 262.283 A0.166667 0.166667 0 0 1 422.3 262.428" /><path d="M422.072 262.2 A0.166667 0.166667 0 0 1 422.383 262.283" /><path id= "136" d=" M 420.028 262.2 L 422.072 262.2 " />
<path d="M419.8 262.428 A0.166667 0.166667 0 1 1 420.028 262.2" /><path id= "138" d=" M 419.8 262.428 L 419.8 263.2 " />
<path id= "139" d=" M 417.228 263.2 L 419.8 263.2 " />
<path d="M416.9 263.528 A0.24 0.24 0 1 1 417.228 263.2" /><path id= "141" d=" M 416.9 263.528 L 416.9 266.472 " />
<path d="M417.228 266.8 A0.24 0.24 0 1 1 416.9 266.472" /><path id= "143" d=" M 417.228 266.8 L 419.8 266.8 " />
<path id= "144" d=" M 419.8 266.8 L 419.8 267.572 " />
<path d="M420.028 267.8 A0.166667 0.166667 0 1 1 419.8 267.572" /><path id= "146" d=" M 420.028 267.8 L 422.072 267.8 " />
<path d="M422.383 267.717 A0.166667 0.166667 0 0 1 422.072 267.8" /><path d="M422.3 267.572 A0.166667 0.166667 0 0 1 422.383 267.717" /><path d="M381.3 260.551 A0.44 0.44 0 1 0 380.699 259.95" /><path id= "150" d=" M 380.699 259.95 L 375.461 259.95 " />
<path d="M375.461 259.95 A0.44 0.44 0 0 0 375 259.737" /><path d="M375 259.737 A0.44 0.44 0 0 0 374.539 259.95" /><path id= "153" d=" M 374.539 259.95 L 369.301 259.95 " />
<path d="M369.301 259.95 A0.44 0.44 0 0 0 368.48 260.17" /><path d="M368.48 260.17 A0.44 0.44 0 0 0 368.7 260.551" /><path id= "156" d=" M 368.7 269.449 L 368.7 260.551 " />
<path d="M368.7 269.449 A0.44 0.44 0 0 0 368.48 269.83" /><path d="M368.48 269.83 A0.44 0.44 0 0 0 369.301 270.05" /><path id= "159" d=" M 374.539 270.05 L 369.301 270.05 " />
<path d="M374.539 270.05 A0.44 0.44 0 0 0 375 270.263" /><path d="M375 270.263 A0.44 0.44 0 0 0 375.461 270.05" /><path id= "162" d=" M 380.699 270.05 L 375.461 270.05 " />
<path d="M380.699 270.05 A0.44 0.44 0 1 0 381.3 269.449" /><path id= "164" d=" M 381.3 269.449 L 381.3 260.551 " />
<path id= "165" d=" M 287.461 259.95 L 292.699 259.95 " />
<path d="M287.461 259.95 A0.44 0.44 0 0 0 287 259.737" /><path d="M287 259.737 A0.44 0.44 0 0 0 286.539 259.95" /><path id= "168" d=" M 281.301 259.95 L 286.539 259.95 " />
<path d="M281.301 259.95 A0.44 0.44 0 1 0 280.7 260.551" /><path id= "170" d=" M 280.7 260.551 L 280.7 269.449 " />
<path d="M280.7 269.449 A0.44 0.44 0 1 0 281.301 270.05" /><path id= "172" d=" M 281.301 270.05 L 286.539 270.05 " />
<path d="M286.539 270.05 A0.44 0.44 0 0 0 287 270.263" /><path d="M287 270.263 A0.44 0.44 0 0 0 287.461 270.05" /><path id= "175" d=" M 287.461 270.05 L 292.699 270.05 " />
<path d="M292.699 270.05 A0.44 0.44 0 0 0 293.52 269.83" /><path d="M293.52 269.83 A0.44 0.44 0 0 0 293.3 269.449" /><path id= "178" d=" M 293.3 260.551 L 293.3 269.449 " />
<path d="M293.3 260.551 A0.44 0.44 0 0 0 293.52 260.17" /><path d="M293.52 260.17 A0.44 0.44 0 0 0 292.699 259.95" /><path d="M272.116 306.3 A0.44 0.44 0 1 0 272.717 305.699" /><path id= "182" d=" M 272.717 305.699 L 272.717 300.301 " />
<path d="M272.717 300.301 A0.44 0.44 0 0 0 272.497 299.48" /><path d="M272.497 299.48 A0.44 0.44 0 0 0 272.116 299.7" /><path id= "185" d=" M 263.218 299.7 L 272.116 299.7 " />
<path d="M263.218 299.7 A0.44 0.44 0 0 0 262.837 299.48" /><path d="M262.837 299.48 A0.44 0.44 0 0 0 262.617 300.301" /><path id= "188" d=" M 262.617 305.699 L 262.617 300.301 " />
<path d="M262.617 305.699 A0.44 0.44 0 1 0 263.218 306.3" /><path id= "190" d=" M 263.218 306.3 L 272.116 306.3 " />
<path d="M414.782 306.3 A0.44 0.44 0 1 0 415.383 305.699" /><path id= "192" d=" M 415.383 305.699 L 415.383 300.301 " />
<path d="M415.383 300.301 A0.44 0.44 0 0 0 415.163 299.48" /><path d="M415.163 299.48 A0.44 0.44 0 0 0 414.782 299.7" /><path id= "195" d=" M 405.884 299.7 L 414.782 299.7 " />
<path d="M405.884 299.7 A0.44 0.44 0 0 0 405.503 299.48" /><path d="M405.503 299.48 A0.44 0.44 0 0 0 405.283 300.301" /><path id= "198" d=" M 405.283 305.699 L 405.283 300.301 " />
<path d="M405.283 305.699 A0.44 0.44 0 1 0 405.884 306.3" /><path id= "200" d=" M 405.884 306.3 L 414.782 306.3 " />
<path d="M398.782 306.3 A0.44 0.44 0 1 0 399.383 305.699" /><path id= "202" d=" M 399.383 305.699 L 399.383 300.301 " />
<path d="M399.383 300.301 A0.44 0.44 0 0 0 399.163 299.48" /><path d="M399.163 299.48 A0.44 0.44 0 0 0 398.782 299.7" /><path id= "205" d=" M 389.884 299.7 L 398.782 299.7 " />
<path d="M389.884 299.7 A0.44 0.44 0 0 0 389.503 299.48" /><path d="M389.503 299.48 A0.44 0.44 0 0 0 389.283 300.301" /><path id= "208" d=" M 389.283 305.699 L 389.283 300.301 " />
<path d="M389.283 305.699 A0.44 0.44 0 1 0 389.884 306.3" /><path id= "210" d=" M 389.884 306.3 L 398.782 306.3 " />
<path d="M256.116 306.3 A0.44 0.44 0 1 0 256.717 305.699" /><path id= "212" d=" M 256.717 305.699 L 256.717 300.301 " />
<path d="M256.717 300.301 A0.44 0.44 0 0 0 256.497 299.48" /><path d="M256.497 299.48 A0.44 0.44 0 0 0 256.116 299.7" /><path id= "215" d=" M 247.218 299.7 L 256.116 299.7 " />
<path d="M247.218 299.7 A0.44 0.44 0 0 0 246.837 299.48" /><path d="M246.837 299.48 A0.44 0.44 0 0 0 246.617 300.301" /><path id= "218" d=" M 246.617 305.699 L 246.617 300.301 " />
<path d="M246.617 305.699 A0.44 0.44 0 1 0 247.218 306.3" /><path id= "220" d=" M 247.218 306.3 L 256.116 306.3 " />
<path d="M327.449 306.3 A0.44 0.44 0 1 0 328.05 305.699" /><path id= "222" d=" M 328.05 305.699 L 328.05 300.301 " />
<path d="M328.05 300.301 A0.44 0.44 0 0 0 327.83 299.48" /><path d="M327.83 299.48 A0.44 0.44 0 0 0 327.449 299.7" /><path id= "225" d=" M 318.551 299.7 L 327.449 299.7 " />
<path d="M318.551 299.7 A0.44 0.44 0 0 0 318.17 299.48" /><path d="M318.17 299.48 A0.44 0.44 0 0 0 317.95 300.301" /><path id= "228" d=" M 317.95 305.699 L 317.95 300.301 " />
<path d="M317.95 305.699 A0.44 0.44 0 1 0 318.551 306.3" /><path id= "230" d=" M 318.551 306.3 L 327.449 306.3 " />
<path d="M343.449 306.3 A0.44 0.44 0 1 0 344.05 305.699" /><path id= "232" d=" M 344.05 305.699 L 344.05 300.301 " />
<path d="M344.05 300.301 A0.44 0.44 0 0 0 343.83 299.48" /><path d="M343.83 299.48 A0.44 0.44 0 0 0 343.449 299.7" /><path id= "235" d=" M 334.551 299.7 L 343.449 299.7 " />
<path d="M334.551 299.7 A0.44 0.44 0 0 0 334.17 299.48" /><path d="M334.17 299.48 A0.44 0.44 0 0 0 333.95 300.301" /><path id= "238" d=" M 333.95 305.699 L 333.95 300.301 " />
<path d="M333.95 305.699 A0.44 0.44 0 1 0 334.551 306.3" /><path id= "240" d=" M 334.551 306.3 L 343.449 306.3 " />
<circle cx ="402.333" cy ="303" r ="1.8" /><circle cx ="259.667" cy ="303" r ="1.8" /><circle cx ="331" cy ="303" r ="1.8" /><circle cx ="356" cy ="337.5" r ="1.5" /><circle cx ="356" cy ="312.5" r ="1.5" /><circle cx ="421" cy ="312.5" r ="1.5" /><circle cx ="421" cy ="337.5" r ="1.5" /><circle cx ="306" cy ="312.5" r ="1.5" /><circle cx ="306" cy ="337.5" r ="1.5" /><circle cx ="241" cy ="337.5" r ="1.5" /><circle cx ="241" cy ="312.5" r ="1.5" /></g>
</g>



<g id="View005"
   transform="rotate(0,500,500) translate(500,500) scale(1,1)"
  >
<g   fill="none"
   stroke="rgb(0, 0, 0)"
   stroke-linecap="butt"
   stroke-linejoin="miter"
   stroke-width="0.350000"
   transform="scale(1,-1)"
  >
<path id= "1" d=" M 454 270 L 454 300 " />
<path id= "2" d=" M 454 300 L 483.5 300 " />
<path id= "3" d=" M 454 270 L 448 270 " />
<path id= "4" d=" M 448 270 L 448 260 " />
<path id= "5" d=" M 483.5 230 L 454 230 " />
<path id= "6" d=" M 454 230 L 454 260 " />
<path id= "7" d=" M 483.5 230 L 483.5 224 " />
<path id= "8" d=" M 483.5 224 L 493.5 224 " />
<path id= "9" d=" M 552.5 230 L 493.5 230 " />
<path id= "10" d=" M 552.5 230 L 552.5 224 " />
<path id= "11" d=" M 552.5 224 L 562.5 224 " />
<path id= "12" d=" M 592 230 L 562.5 230 " />
<path id= "13" d=" M 592 260 L 592 230 " />
<path id= "14" d=" M 562.5 230 L 562.5 224 " />
<path id= "15" d=" M 592 260 L 598 260 " />
<path id= "16" d=" M 598 260 L 598 270 " />
<path id= "17" d=" M 592 300 L 592 270 " />
<path id= "18" d=" M 562.5 300 L 592 300 " />
<path id= "19" d=" M 592 270 L 598 270 " />
<path id= "20" d=" M 493.5 230 L 493.5 224 " />
<path id= "21" d=" M 562.5 300 L 562.5 306 " />
<path id= "22" d=" M 562.5 306 L 552.5 306 " />
<path id= "23" d=" M 493.5 300 L 552.5 300 " />
<path id= "24" d=" M 552.5 300 L 552.5 306 " />
<path id= "25" d=" M 454 260 L 448 260 " />
<path id= "26" d=" M 493.5 300 L 493.5 306 " />
<path id= "27" d=" M 483.5 300 L 483.5 306 " />
<path id= "28" d=" M 493.5 306 L 483.5 306 " />
<circle cx ="484.875" cy ="256" r ="13" /><circle cx ="523" cy ="256" r ="11" /><circle cx ="505.829" cy ="280.6" r ="10" /><circle cx ="561.125" cy ="256" r ="7" /><circle cx ="505.829" cy ="294.6" r ="1.5" /><circle cx ="517.953" cy ="273.6" r ="1.5" /><circle cx ="493.705" cy ="273.6" r ="1.5" /><circle cx ="561.125" cy ="266" r ="1.5" /><circle cx ="561.125" cy ="246" r ="1.5" /><circle cx ="551.125" cy ="256" r ="1.5" /><circle cx ="571.125" cy ="256" r ="1.5" /></g>
</g>



<g id="View006"
   transform="rotate(0,500,500) translate(500,500) scale(1,1)"
  >
<g   fill="none"
   stroke="rgb(0, 0, 0)"
   stroke-linecap="butt"
   stroke-linejoin="miter"
   stroke-width="0.350000"
   transform="scale(1,-1)"
  >
<path id= "1" d=" M 6 406 L 6 436 " />
<path id= "2" d=" M 6 436 L 35.5 436 " />
<path id= "3" d=" M 6 406 L 0 406 " />
<path id= "4" d=" M 0 406 L 0 396 " />
<path id= "5" d=" M 35.5 366 L 6 366 " />
<path id= "6" d=" M 6 366 L 6 396 " />
<path id= "7" d=" M 35.5 366 L 35.5 360 " />
<path id= "8" d=" M 35.5 360 L 45.5 360 " />
<path id= "9" d=" M 104.5 366 L 45.5 366 " />
<path id= "10" d=" M 104.5 366 L 104.5 360 " />
<path id= "11" d=" M 104.5 360 L 114.5 360 " />
<path id= "12" d=" M 144 366 L 114.5 366 " />
<path id= "13" d=" M 144 396 L 144 366 " />
<path id= "14" d=" M 114.5 366 L 114.5 360 " />
<path id= "15" d=" M 144 396 L 150 396 " />
<path id= "16" d=" M 150 396 L 150 406 " />
<path id= "17" d=" M 144 436 L 144 406 " />
<path id= "18" d=" M 114.5 436 L 144 436 " />
<path id= "19" d=" M 144 406 L 150 406 " />
<path id= "20" d=" M 45.5 366 L 45.5 360 " />
<path id= "21" d=" M 114.5 436 L 114.5 442 " />
<path id= "22" d=" M 114.5 442 L 104.5 442 " />
<path id= "23" d=" M 45.5 436 L 104.5 436 " />
<path id= "24" d=" M 104.5 436 L 104.5 442 " />
<path id= "25" d=" M 6 396 L 0 396 " />
<path id= "26" d=" M 45.5 436 L 45.5 442 " />
<path id= "27" d=" M 35.5 436 L 35.5 442 " />
<path id= "28" d=" M 45.5 442 L 35.5 442 " />
<circle cx ="57.8291" cy ="416.6" r ="19.25" /><circle cx ="36.875" cy ="392" r ="13" /><circle cx ="113.125" cy ="392" r ="13" /><circle cx ="75" cy ="392" r ="7" /></g>
</g>



<g id="View007"
   transform="rotate(0,500,500) translate(500,500) scale(1,1)"
  >
<g   fill="none"
   stroke="rgb(0, 0, 0)"
   stroke-linecap="butt"
   stroke-linejoin="miter"
   stroke-width="0.350000"
   transform="scale(1,-1)"
  >
<path id= "1" d=" M 166 406 L 166 436 " />
<path id= "2" d=" M 166 436 L 195.5 436 " />
<path id= "3" d=" M 166 406 L 160 406 " />
<path id= "4" d=" M 160 406 L 160 396 " />
<path id= "5" d=" M 195.5 366 L 166 366 " />
<path id= "6" d=" M 166 366 L 166 396 " />
<path id= "7" d=" M 195.5 366 L 195.5 360 " />
<path id= "8" d=" M 195.5 360 L 205.5 360 " />
<path id= "9" d=" M 264.5 366 L 205.5 366 " />
<path id= "10" d=" M 264.5 366 L 264.5 360 " />
<path id= "11" d=" M 264.5 360 L 274.5 360 " />
<path id= "12" d=" M 304 366 L 274.5 366 " />
<path id= "13" d=" M 304 396 L 304 366 " />
<path id= "14" d=" M 274.5 366 L 274.5 360 " />
<path id= "15" d=" M 304 396 L 310 396 " />
<path id= "16" d=" M 310 396 L 310 406 " />
<path id= "17" d=" M 304 436 L 304 406 " />
<path id= "18" d=" M 274.5 436 L 304 436 " />
<path id= "19" d=" M 304 406 L 310 406 " />
<path id= "20" d=" M 205.5 366 L 205.5 360 " />
<path id= "21" d=" M 274.5 436 L 274.5 442 " />
<path id= "22" d=" M 274.5 442 L 264.5 442 " />
<path id= "23" d=" M 205.5 436 L 264.5 436 " />
<path id= "24" d=" M 264.5 436 L 264.5 442 " />
<path id= "25" d=" M 166 396 L 160 396 " />
<path id= "26" d=" M 205.5 436 L 205.5 442 " />
<path id= "27" d=" M 195.5 436 L 195.5 442 " />
<path id= "28" d=" M 205.5 442 L 195.5 442 " />
<circle cx ="217.829" cy ="416.6" r ="19.25" /><circle cx ="196.875" cy ="392" r ="13" /><circle cx ="273.125" cy ="392" r ="13" /><circle cx ="235" cy ="392" r ="7" /></g>
</g>



<g id="View008"
   transform="rotate(0,500,500) translate(500,500) scale(1,1)"
  >
<g   fill="none"
   stroke="rgb(0, 0, 0)"
   stroke-linecap="butt"
   stroke-linejoin="miter"
   stroke-width="0.350000"
   transform="scale(1,-1)"
  >
<path id= "1" d=" M 326 406 L 326 436 " />
<path id= "2" d=" M 326 436 L 355.5 436 " />
<path id= "3" d=" M 326 406 L 320 406 " />
<path id= "4" d=" M 320 406 L 320 396 " />
<path id= "5" d=" M 355.5 366 L 326 366 " />
<path id= "6" d=" M 326 366 L 326 396 " />
<path id= "7" d=" M 355.5 366 L 355.5 360 " />
<path id= "8" d=" M 355.5 360 L 365.5 360 " />
<path id= "9" d=" M 424.5 366 L 365.5 366 " />
<path id= "10" d=" M 424.5 366 L 424.5 360 " />
<path id= "11" d=" M 424.5 360 L 434.5 360 " />
<path id= "12" d=" M 464 366 L 434.5 366 " />
<path id= "13" d=" M 464 396 L 464 366 " />
<path id= "14" d=" M 434.5 366 L 434.5 360 " />
<path id= "15" d=" M 464 396 L 470 396 " />
<path id= "16" d=" M 470 396 L 470 406 " />
<path id= "17" d=" M 464 436 L 464 406 " />
<path id= "18" d=" M 434.5 436 L 464 436 " />
<path id= "19" d=" M 464 406 L 470 406 " />
<path id= "20" d=" M 365.5 366 L 365.5 360 " />
<path id= "21" d=" M 434.5 436 L 434.5 442 " />
<path id= "22" d=" M 434.5 442 L 424.5 442 " />
<path id= "23" d=" M 365.5 436 L 424.5 436 " />
<path id= "24" d=" M 424.5 436 L 424.5 442 " />
<path id= "25" d=" M 326 396 L 320 396 " />
<path id= "26" d=" M 365.5 436 L 365.5 442 " />
<path id= "27" d=" M 355.5 436 L 355.5 442 " />
<path id= "28" d=" M 365.5 442 L 355.5 442 " />
<circle cx ="356.875" cy ="392" r ="13" /><circle cx ="395" cy ="392" r ="11" /><circle cx ="377.829" cy ="416.6" r ="10" /><circle cx ="433.125" cy ="392" r ="7" /><circle cx ="377.829" cy ="430.6" r ="1.5" /><circle cx ="389.953" cy ="409.6" r ="1.5" /><circle cx ="365.705" cy ="409.6" r ="1.5" /><circle cx ="433.125" cy ="402" r ="1.5" /><circle cx ="433.125" cy ="382" r ="1.5" /><circle cx ="423.125" cy ="392" r ="1.5" /><circle cx ="443.125" cy ="392" r ="1.5" /></g>
</g>



<g id="View009"
   transform="rotate(0,300,700) translate(300,700) scale(1,1)"
  >
<g   fill="none"
   stroke="rgb(0, 0, 0)"
   stroke-linecap="butt"
   stroke-linejoin="miter"
   stroke-width="0.350000"
   transform="scale(1,-1)"
  >
<path id= "1" d=" M 134.3 632.133 L 134.3 632.906 " />
<path id= "2" d=" M 134.3 632.133 L 144 632.133 " />
<path id= "3" d=" M 144 633.333 L 144 632.133 " />
<path id= "4" d=" M 144 633.333 L 150 633.333 " />
<path id= "5" d=" M 150 633.333 L 150 643.333 " />
<path id= "6" d=" M 125.55 666 L 144 666 " />
<path id= "7" d=" M 125.55 666 L 125.55 660.301 " />
<path id= "8" d=" M 144 666 L 144 643.333 " />
<path id= "9" d=" M 144 643.333 L 150 643.333 " />
<path d="M125.55 660.301 A0.44 0.44 0 0 0 125.33 659.48" /><path d="M125.33 659.48 A0.44 0.44 0 0 0 124.949 659.7" /><path id= "12" d=" M 116.051 659.7 L 124.949 659.7 " />
<path d="M116.051 659.7 A0.44 0.44 0 0 0 115.67 659.48" /><path d="M115.67 659.48 A0.44 0.44 0 0 0 115.45 660.301" /><path id= "15" d=" M 115.45 666 L 115.45 660.301 " />
<path id= "16" d=" M 109.55 666 L 115.45 666 " />
<path id= "17" d=" M 109.55 666 L 109.55 660.301 " />
<path d="M109.55 660.301 A0.44 0.44 0 0 0 109.33 659.48" /><path d="M109.33 659.48 A0.44 0.44 0 0 0 108.949 659.7" /><path id= "20" d=" M 100.051 659.7 L 108.949 659.7 " />
<path d="M100.051 659.7 A0.44 0.44 0 0 0 99.67 659.48" /><path d="M99.67 659.48 A0.44 0.44 0 0 0 99.45 660.301" /><path id= "23" d=" M 99.45 666 L 99.45 660.301 " />
<path id= "24" d=" M 50.55 666 L 99.45 666 " />
<path id= "25" d=" M 50.55 666 L 50.55 660.301 " />
<path d="M50.55 660.301 A0.44 0.44 0 0 0 50.33 659.48" /><path d="M50.33 659.48 A0.44 0.44 0 0 0 49.9489 659.7" /><path id= "28" d=" M 41.0511 659.7 L 49.9489 659.7 " />
<path d="M41.0511 659.7 A0.44 0.44 0 0 0 40.67 659.48" /><path d="M40.67 659.48 A0.44 0.44 0 0 0 40.45 660.301" /><path id= "31" d=" M 40.45 666 L 40.45 660.301 " />
<path id= "32" d=" M 34.55 666 L 40.45 666 " />
<path id= "33" d=" M 34.55 666 L 34.55 660.301 " />
<path d="M34.55 660.301 A0.44 0.44 0 0 0 34.33 659.48" /><path d="M34.33 659.48 A0.44 0.44 0 0 0 33.9489 659.7" /><path id= "36" d=" M 25.0511 659.7 L 33.9489 659.7 " />
<path d="M25.0511 659.7 A0.44 0.44 0 0 0 24.67 659.48" /><path d="M24.67 659.48 A0.44 0.44 0 0 0 24.45 660.301" /><path id= "39" d=" M 24.45 666 L 24.45 660.301 " />
<path id= "40" d=" M 6 666 L 24.45 666 " />
<path id= "41" d=" M 6 643.333 L 6 666 " />
<path id= "42" d=" M 6 643.333 L 0 643.333 " />
<path id= "43" d=" M -1.77636e-015 643.333 L -1.77636e-015 633.333 " />
<path id= "44" d=" M 6 633.333 L 0 633.333 " />
<path id= "45" d=" M 6 632.133 L 6 633.333 " />
<path id= "46" d=" M 15.7 632.133 L 6 632.133 " />
<path id= "47" d=" M 15.7 632.906 L 15.7 632.133 " />
<path d="M15.6167 633.05 A0.166667 0.166667 0 0 1 15.7 632.906" /><path d="M15.9277 633.133 A0.166667 0.166667 0 0 1 15.6167 633.05" /><path id= "50" d=" M 17.9723 633.133 L 15.9277 633.133 " />
<path d="M18.2 632.906 A0.166667 0.166667 0 1 1 17.9723 633.133" /><path id= "52" d=" M 18.2 632.906 L 18.2 632.133 " />
<path id= "53" d=" M 20.7722 632.133 L 18.2 632.133 " />
<path d="M21.1 631.805 A0.24 0.24 0 1 1 20.7722 632.133" /><path id= "55" d=" M 21.1 631.805 L 21.1 628.861 " />
<path d="M20.7722 628.533 A0.24 0.24 0 1 1 21.1 628.861" /><path id= "57" d=" M 20.7722 628.533 L 18.2 628.533 " />
<path id= "58" d=" M 18.2 628.533 L 18.2 627.761 " />
<path d="M17.9723 627.533 A0.166667 0.166667 0 1 1 18.2 627.761" /><path id= "60" d=" M 17.9723 627.533 L 15.9277 627.533 " />
<path d="M15.6167 627.617 A0.166667 0.166667 0 0 1 15.9277 627.533" /><path d="M15.7 627.761 A0.166667 0.166667 0 0 1 15.6167 627.617" /><path id= "63" d=" M 15.7 628.533 L 15.7 627.761 " />
<path id= "64" d=" M 15.7 628.533 L 6 628.533 " />
<path id= "65" d=" M 6 627.333 L 6 628.533 " />
<path id= "66" d=" M 6 627.333 L 0 627.333 " />
<path id= "67" d=" M -1.77636e-015 627.333 L -1.77636e-015 617.333 " />
<path id= "68" d=" M 6 617.333 L 0 617.333 " />
<path id= "69" d=" M 6 572 L 6 617.333 " />
<path id= "70" d=" M 6 572 L 0 572 " />
<path id= "71" d=" M -1.77636e-015 572 L -1.77636e-015 562 " />
<path id= "72" d=" M 6 562 L 0 562 " />
<path id= "73" d=" M 6 560.8 L 6 562 " />
<path id= "74" d=" M 15.7 560.8 L 6 560.8 " />
<path id= "75" d=" M 15.7 561.572 L 15.7 560.8 " />
<path d="M15.6167 561.717 A0.166667 0.166667 0 0 1 15.7 561.572" /><path d="M15.9277 561.8 A0.166667 0.166667 0 0 1 15.6167 561.717" /><path id= "78" d=" M 17.9723 561.8 L 15.9277 561.8 " />
<path d="M18.2 561.572 A0.166667 0.166667 0 1 1 17.9723 561.8" /><path id= "80" d=" M 18.2 561.572 L 18.2 560.8 " />
<path id= "81" d=" M 20.7722 560.8 L 18.2 560.8 " />
<path d="M21.1 560.472 A0.24 0.24 0 1 1 20.7722 560.8" /><path id= "83" d=" M 21.1 560.472 L 21.1 557.528 " />
<path d="M20.7722 557.2 A0.24 0.24 0 1 1 21.1 557.528" /><path id= "85" d=" M 20.7722 557.2 L 18.2 557.2 " />
<path id= "86" d=" M 18.2 557.2 L 18.2 556.428 " />
<path d="M17.9723 556.2 A0.166667 0.166667 0 1 1 18.2 556.428" /><path id= "88" d=" M 17.9723 556.2 L 15.9277 556.2 " />
<path d="M15.6167 556.283 A0.166667 0.166667 0 0 1 15.9277 556.2" /><path d="M15.7 556.428 A0.166667 0.166667 0 0 1 15.6167 556.283" /><path id= "91" d=" M 15.7 557.2 L 15.7 556.428 " />
<path id= "92" d=" M 15.7 557.2 L 6 557.2 " />
<path id= "93" d=" M 6 556 L 6 557.2 " />
<path id= "94" d=" M 6 556 L 0 556 " />
<path id= "95" d=" M -1.77636e-015 556 L -1.77636e-015 546 " />
<path id= "96" d=" M 6 546 L 0 546 " />
<path id= "97" d=" M 6 500.667 L 6 546 " />
<path id= "98" d=" M 6 500.667 L 0 500.667 " />
<path id= "99" d=" M -1.77636e-015 500.667 L -1.77636e-015 490.667 " />
<path id= "100" d=" M 6 490.667 L 0 490.667 " />
<path id= "101" d=" M 6 489.467 L 6 490.667 " />
<path id= "102" d=" M 15.7 489.467 L 6 489.467 " />
<path id= "103" d=" M 15.7 490.239 L 15.7 489.467 " />
<path d="M15.6167 490.383 A0.166667 0.166667 0 0 1 15.7 490.239" /><path d="M15.9277 490.467 A0.166667 0.166667 0 0 1 15.6167 490.383" /><path id= "106" d=" M 17.9723 490.467 L 15.9277 490.467 " />
<path d="M18.2 490.239 A0.166667 0.166667 0 1 1 17.9723 490.467" /><path id= "108" d=" M 18.2 490.239 L 18.2 489.467 " />
<path id= "109" d=" M 20.7722 489.467 L 18.2 489.467 " />
<path d="M21.1 489.139 A0.24 0.24 0 1 1 20.7722 489.467" /><path id= "111" d=" M 21.1 489.139 L 21.1 486.195 " />
<path d="M20.7722 485.867 A0.24 0.24 0 1 1 21.1 486.195" /><path id= "113" d=" M 20.7722 485.867 L 18.2 485.867 " />
<path id= "114" d=" M 18.2 485.867 L 18.2 485.094 " />
<path d="M17.9723 484.867 A0.166667 0.166667 0 1 1 18.2 485.094" /><path id= "116" d=" M 17.9723 484.867 L 15.9277 484.867 " />
<path d="M15.6167 484.95 A0.166667 0.166667 0 0 1 15.9277 484.867" /><path d="M15.7 485.094 A0.166667 0.166667 0 0 1 15.6167 484.95" /><path id= "119" d=" M 15.7 485.867 L 15.7 485.094 " />
<path id= "120" d=" M 15.7 485.867 L 6 485.867 " />
<path id= "121" d=" M 6 484.667 L 6 485.867 " />
<path id= "122" d=" M 6 484.667 L 0 484.667 " />
<path id= "123" d=" M -1.77636e-015 484.667 L -1.77636e-015 474.667 " />
<path id= "124" d=" M 6 474.667 L 0 474.667 " />
<path id= "125" d=" M 6 452 L 6 474.667 " />
<path id= "126" d=" M 24.45 452 L 6 452 " />
<path id= "127" d=" M 24.45 457.699 L 24.45 452 " />
<path d="M24.45 457.699 A0.44 0.44 0 1 0 25.0511 458.3" /><path id= "129" d=" M 25.0511 458.3 L 33.9489 458.3 " />
<path d="M33.9489 458.3 A0.44 0.44 0 1 0 34.55 457.699" /><path id= "131" d=" M 34.55 457.699 L 34.55 452 " />
<path id= "132" d=" M 40.45 452 L 34.55 452 " />
<path id= "133" d=" M 40.45 457.699 L 40.45 452 " />
<path d="M40.45 457.699 A0.44 0.44 0 1 0 41.0511 458.3" /><path id= "135" d=" M 41.0511 458.3 L 49.9489 458.3 " />
<path d="M49.9489 458.3 A0.44 0.44 0 1 0 50.55 457.699" /><path id= "137" d=" M 50.55 457.699 L 50.55 452 " />
<path id= "138" d=" M 99.45 452 L 50.55 452 " />
<path id= "139" d=" M 99.45 457.699 L 99.45 452 " />
<path d="M99.45 457.699 A0.44 0.44 0 1 0 100.051 458.3" /><path id= "141" d=" M 100.051 458.3 L 108.949 458.3 " />
<path d="M108.949 458.3 A0.44 0.44 0 1 0 109.55 457.699" /><path id= "143" d=" M 109.55 457.699 L 109.55 452 " />
<path id= "144" d=" M 115.45 452 L 109.55 452 " />
<path id= "145" d=" M 115.45 457.699 L 115.45 452 " />
<path d="M115.45 457.699 A0.44 0.44 0 1 0 116.051 458.3" /><path id= "147" d=" M 116.051 458.3 L 124.949 458.3 " />
<path d="M124.949 458.3 A0.44 0.44 0 1 0 125.55 457.699" /><path id= "149" d=" M 125.55 457.699 L 125.55 452 " />
<path id= "150" d=" M 144 452 L 125.55 452 " />
<path id= "151" d=" M 144 474.667 L 144 452 " />
<path id= "152" d=" M 144 474.667 L 150 474.667 " />
<path id= "153" d=" M 150 474.667 L 150 484.667 " />
<path id= "154" d=" M 144 484.667 L 150 484.667 " />
<path id= "155" d=" M 144 485.867 L 144 484.667 " />
<path id= "156" d=" M 134.3 485.867 L 144 485.867 " />
<path id= "157" d=" M 134.3 485.094 L 134.3 485.867 " />
<path d="M134.383 484.95 A0.166667 0.166667 0 0 1 134.3 485.094" /><path d="M134.072 484.867 A0.166667 0.166667 0 0 1 134.383 484.95" /><path id= "160" d=" M 132.028 484.867 L 134.072 484.867 " />
<path d="M131.8 485.094 A0.166667 0.166667 0 1 1 132.028 484.867" /><path id= "162" d=" M 131.8 485.094 L 131.8 485.867 " />
<path id= "163" d=" M 129.228 485.867 L 131.8 485.867 " />
<path d="M128.9 486.195 A0.24 0.24 0 1 1 129.228 485.867" /><path id= "165" d=" M 128.9 486.195 L 128.9 489.139 " />
<path d="M129.228 489.467 A0.24 0.24 0 1 1 128.9 489.139" /><path id= "167" d=" M 129.228 489.467 L 131.8 489.467 " />
<path id= "168" d=" M 131.8 489.467 L 131.8 490.239 " />
<path d="M132.028 490.467 A0.166667 0.166667 0 1 1 131.8 490.239" /><path id= "170" d=" M 132.028 490.467 L 134.072 490.467 " />
<path d="M134.383 490.383 A0.166667 0.166667 0 0 1 134.072 490.467" /><path d="M134.3 490.239 A0.166667 0.166667 0 0 1 134.383 490.383" /><path id= "173" d=" M 134.3 489.467 L 134.3 490.239 " />
<path id= "174" d=" M 134.3 489.467 L 144 489.467 " />
<path id= "175" d=" M 144 490.667 L 144 489.467 " />
<path id= "176" d=" M 144 490.667 L 150 490.667 " />
<path id= "177" d=" M 150 490.667 L 150 500.667 " />
<path id= "178" d=" M 144 500.667 L 150 500.667 " />
<path id= "179" d=" M 144 546 L 144 500.667 " />
<path id= "180" d=" M 144 546 L 150 546 " />
<path id= "181" d=" M 150 546 L 150 556 " />
<path id= "182" d=" M 144 556 L 150 556 " />
<path id= "183" d=" M 144 557.2 L 144 556 " />
<path id= "184" d=" M 134.3 557.2 L 144 557.2 " />
<path id= "185" d=" M 134.3 556.428 L 134.3 557.2 " />
<path d="M134.383 556.283 A0.166667 0.166667 0 0 1 134.3 556.428" /><path d="M134.072 556.2 A0.166667 0.166667 0 0 1 134.383 556.283" /><path id= "188" d=" M 132.028 556.2 L 134.072 556.2 " />
<path d="M131.8 556.428 A0.166667 0.166667 0 1 1 132.028 556.2" /><path id= "190" d=" M 131.8 556.428 L 131.8 557.2 " />
<path id= "191" d=" M 129.228 557.2 L 131.8 557.2 " />
<path d="M128.9 557.528 A0.24 0.24 0 1 1 129.228 557.2" /><path id= "193" d=" M 128.9 557.528 L 128.9 560.472 " />
<path d="M129.228 560.8 A0.24 0.24 0 1 1 128.9 560.472" /><path id= "195" d=" M 129.228 560.8 L 131.8 560.8 " />
<path id= "196" d=" M 131.8 560.8 L 131.8 561.572 " />
<path d="M132.028 561.8 A0.166667 0.166667 0 1 1 131.8 561.572" /><path id= "198" d=" M 132.028 561.8 L 134.072 561.8 " />
<path d="M134.383 561.717 A0.166667 0.166667 0 0 1 134.072 561.8" /><path d="M134.3 561.572 A0.166667 0.166667 0 0 1 134.383 561.717" /><path id= "201" d=" M 134.3 560.8 L 134.3 561.572 " />
<path id= "202" d=" M 134.3 560.8 L 144 560.8 " />
<path id= "203" d=" M 144 562 L 144 560.8 " />
<path id= "204" d=" M 144 562 L 150 562 " />
<path id= "205" d=" M 150 562 L 150 572 " />
<path id= "206" d=" M 144 572 L 150 572 " />
<path id= "207" d=" M 144 617.333 L 144 572 " />
<path id= "208" d=" M 144 617.333 L 150 617.333 " />
<path id= "209" d=" M 150 617.333 L 150 627.333 " />
<path id= "210" d=" M 144 627.333 L 150 627.333 " />
<path id= "211" d=" M 144 628.533 L 144 627.333 " />
<path id= "212" d=" M 134.3 628.533 L 144 628.533 " />
<path id= "213" d=" M 134.3 627.761 L 134.3 628.533 " />
<path d="M134.383 627.617 A0.166667 0.166667 0 0 1 134.3 627.761" /><path d="M134.072 627.533 A0.166667 0.166667 0 0 1 134.383 627.617" /><path id= "216" d=" M 132.028 627.533 L 134.072 627.533 " />
<path d="M131.8 627.761 A0.166667 0.166667 0 1 1 132.028 627.533" /><path id= "218" d=" M 131.8 627.761 L 131.8 628.533 " />
<path id= "219" d=" M 129.228 628.533 L 131.8 628.533 " />
<path d="M128.9 628.861 A0.24 0.24 0 1 1 129.228 628.533" /><path id= "221" d=" M 128.9 628.861 L 128.9 631.805 " />
<path d="M129.228 632.133 A0.24 0.24 0 1 1 128.9 631.805" /><path id= "223" d=" M 129.228 632.133 L 131.8 632.133 " />
<path id= "224" d=" M 131.8 632.133 L 131.8 632.906 " />
<path d="M132.028 633.133 A0.166667 0.166667 0 1 1 131.8 632.906" /><path id= "226" d=" M 132.028 633.133 L 134.072 633.133 " />
<path d="M134.383 633.05 A0.166667 0.166667 0 0 1 134.072 633.133" /><path d="M134.3 632.906 A0.166667 0.166667 0 0 1 134.383 633.05" /><path d="M105.051 508.7 A0.44 0.44 0 1 0 104.45 509.301" /><path id= "230" d=" M 104.45 509.301 L 104.45 514.539 " />
<path d="M104.45 514.539 A0.44 0.44 0 0 0 104.237 515" /><path d="M104.237 515 A0.44 0.44 0 0 0 104.45 515.461" /><path id= "233" d=" M 104.45 515.461 L 104.45 520.699 " />
<path d="M104.45 520.699 A0.44 0.44 0 0 0 104.67 521.52" /><path d="M104.67 521.52 A0.44 0.44 0 0 0 105.051 521.3" /><path id= "236" d=" M 113.949 521.3 L 105.051 521.3 " />
<path d="M113.949 521.3 A0.44 0.44 0 0 0 114.33 521.52" /><path d="M114.33 521.52 A0.44 0.44 0 0 0 114.55 520.699" /><path id= "239" d=" M 114.55 515.461 L 114.55 520.699 " />
<path d="M114.55 515.461 A0.44 0.44 0 0 0 114.763 515" /><path d="M114.763 515 A0.44 0.44 0 0 0 114.55 514.539" /><path id= "242" d=" M 114.55 509.301 L 114.55 514.539 " />
<path d="M114.55 509.301 A0.44 0.44 0 1 0 113.949 508.7" /><path id= "244" d=" M 113.949 508.7 L 105.051 508.7 " />
<path id= "245" d=" M 35.45 602.539 L 35.45 597.301 " />
<path d="M35.45 602.539 A0.44 0.44 0 0 0 35.2373 603" /><path d="M35.2373 603 A0.44 0.44 0 0 0 35.45 603.461" /><path id= "248" d=" M 35.45 608.699 L 35.45 603.461 " />
<path d="M35.45 608.699 A0.44 0.44 0 1 0 36.0511 609.3" /><path id= "250" d=" M 36.0511 609.3 L 44.9489 609.3 " />
<path d="M44.9489 609.3 A0.44 0.44 0 1 0 45.55 608.699" /><path id= "252" d=" M 45.55 608.699 L 45.55 603.461 " />
<path d="M45.55 603.461 A0.44 0.44 0 0 0 45.7627 603" /><path d="M45.7627 603 A0.44 0.44 0 0 0 45.55 602.539" /><path id= "255" d=" M 45.55 602.539 L 45.55 597.301 " />
<path d="M45.55 597.301 A0.44 0.44 0 0 0 45.33 596.48" /><path d="M45.33 596.48 A0.44 0.44 0 0 0 44.9489 596.7" /><path id= "258" d=" M 36.0511 596.7 L 44.9489 596.7 " />
<path d="M36.0511 596.7 A0.44 0.44 0 0 0 35.67 596.48" /><path d="M35.67 596.48 A0.44 0.44 0 0 0 35.45 597.301" /><path id= "261" d=" M 104.45 602.539 L 104.45 597.301 " />
<path d="M104.45 602.539 A0.44 0.44 0 0 0 104.237 603" /><path d="M104.237 603 A0.44 0.44 0 0 0 104.45 603.461" /><path id= "264" d=" M 104.45 608.699 L 104.45 603.461 " />
<path d="M104.45 608.699 A0.44 0.44 0 1 0 105.051 609.3" /><path id= "266" d=" M 105.051 609.3 L 113.949 609.3 " />
<path d="M113.949 609.3 A0.44 0.44 0 1 0 114.55 608.699" /><path id= "268" d=" M 114.55 608.699 L 114.55 603.461 " />
<path d="M114.55 603.461 A0.44 0.44 0 0 0 114.763 603" /><path d="M114.763 603 A0.44 0.44 0 0 0 114.55 602.539" /><path id= "271" d=" M 114.55 602.539 L 114.55 597.301 " />
<path d="M114.55 597.301 A0.44 0.44 0 0 0 114.33 596.48" /><path d="M114.33 596.48 A0.44 0.44 0 0 0 113.949 596.7" /><path id= "274" d=" M 105.051 596.7 L 113.949 596.7 " />
<path d="M105.051 596.7 A0.44 0.44 0 0 0 104.67 596.48" /><path d="M104.67 596.48 A0.44 0.44 0 0 0 104.45 597.301" /><path d="M36.0511 508.7 A0.44 0.44 0 1 0 35.45 509.301" /><path id= "278" d=" M 35.45 509.301 L 35.45 514.539 " />
<path d="M35.45 514.539 A0.44 0.44 0 0 0 35.2373 515" /><path d="M35.2373 515 A0.44 0.44 0 0 0 35.45 515.461" /><path id= "281" d=" M 35.45 515.461 L 35.45 520.699 " />
<path d="M35.45 520.699 A0.44 0.44 0 0 0 35.67 521.52" /><path d="M35.67 521.52 A0.44 0.44 0 0 0 36.0511 521.3" /><path id= "284" d=" M 44.9489 521.3 L 36.0511 521.3 " />
<path d="M44.9489 521.3 A0.44 0.44 0 0 0 45.33 521.52" /><path d="M45.33 521.52 A0.44 0.44 0 0 0 45.55 520.699" /><path id= "287" d=" M 45.55 515.461 L 45.55 520.699 " />
<path d="M45.55 515.461 A0.44 0.44 0 0 0 45.7627 515" /><path d="M45.7627 515 A0.44 0.44 0 0 0 45.55 514.539" /><path id= "290" d=" M 45.55 509.301 L 45.55 514.539 " />
<path d="M45.55 509.301 A0.44 0.44 0 1 0 44.9489 508.7" /><path id= "292" d=" M 44.9489 508.7 L 36.0511 508.7 " />
<circle cx ="37.5" cy ="455" r ="1.8" /><circle cx ="37.5" cy ="663" r ="1.8" /><circle cx ="112.5" cy ="455" r ="1.8" /><circle cx ="112.5" cy ="663" r ="1.8" /></g>
</g>



</svg>

