G04 #@! TF.GenerationSoftware,KiCad,Pcbnew,(5.0.1)-3*
G04 #@! TF.CreationDate,2019-01-28T22:50:12+00:00*
G04 #@! TF.ProjectId,Encoder,456E636F6465722E6B696361645F7063,rev?*
G04 #@! TF.SameCoordinates,Original*
G04 #@! TF.FileFunction,Legend,Top*
G04 #@! TF.FilePolarity,Positive*
%FSLAX46Y46*%
G04 Gerber Fmt 4.6, Leading zero omitted, Abs format (unit mm)*
G04 Created by KiCad (PCBNEW (5.0.1)-3) date 28/01/2019 22:50:12*
%MOMM*%
%LPD*%
G01*
G04 APERTURE LIST*
%ADD10C,0.120000*%
%ADD11C,0.150000*%
G04 APERTURE END LIST*
D10*
G04 #@! TO.C,C1*
X94490000Y-76371267D02*
X94490000Y-76028733D01*
X93470000Y-76371267D02*
X93470000Y-76028733D01*
G04 #@! TO.C,C2*
X104650000Y-58248733D02*
X104650000Y-58591267D01*
X103630000Y-58248733D02*
X103630000Y-58591267D01*
G04 #@! TO.C,C3*
X103380000Y-58591267D02*
X103380000Y-58248733D01*
X102360000Y-58591267D02*
X102360000Y-58248733D01*
G04 #@! TO.C,C4*
X100501267Y-57910000D02*
X100158733Y-57910000D01*
X100501267Y-58930000D02*
X100158733Y-58930000D01*
G04 #@! TO.C,C5*
X97030000Y-76371267D02*
X97030000Y-76028733D01*
X96010000Y-76371267D02*
X96010000Y-76028733D01*
G04 #@! TO.C,C6*
X94740000Y-76371267D02*
X94740000Y-76028733D01*
X95760000Y-76371267D02*
X95760000Y-76028733D01*
G04 #@! TO.C,C7*
X106170000Y-55708733D02*
X106170000Y-56051267D01*
X107190000Y-55708733D02*
X107190000Y-56051267D01*
G04 #@! TO.C,C8*
X108460000Y-55708733D02*
X108460000Y-56051267D01*
X107440000Y-55708733D02*
X107440000Y-56051267D01*
G04 #@! TO.C,C9*
X103041267Y-74170000D02*
X102698733Y-74170000D01*
X103041267Y-73150000D02*
X102698733Y-73150000D01*
G04 #@! TO.C,C10*
X100840000Y-73831267D02*
X100840000Y-73488733D01*
X99820000Y-73831267D02*
X99820000Y-73488733D01*
G04 #@! TO.C,C11*
X99570000Y-73488733D02*
X99570000Y-73831267D01*
X98550000Y-73488733D02*
X98550000Y-73831267D01*
G04 #@! TO.C,C12*
X109730000Y-55708733D02*
X109730000Y-56051267D01*
X108710000Y-55708733D02*
X108710000Y-56051267D01*
G04 #@! TO.C,J1*
X92770000Y-54550000D02*
X90110000Y-54550000D01*
X92770000Y-74930000D02*
X92770000Y-54550000D01*
X90110000Y-74930000D02*
X90110000Y-54550000D01*
X92770000Y-74930000D02*
X90110000Y-74930000D01*
X92770000Y-76200000D02*
X92770000Y-77530000D01*
X92770000Y-77530000D02*
X91440000Y-77530000D01*
G04 #@! TO.C,J2*
X110110000Y-54550000D02*
X111440000Y-54550000D01*
X110110000Y-55880000D02*
X110110000Y-54550000D01*
X110110000Y-57150000D02*
X112770000Y-57150000D01*
X112770000Y-57150000D02*
X112770000Y-77530000D01*
X110110000Y-57150000D02*
X110110000Y-77530000D01*
X110110000Y-77530000D02*
X112770000Y-77530000D01*
G04 #@! TO.C,U1*
X105000000Y-69600000D02*
X104580000Y-69600000D01*
X97880000Y-69600000D02*
X98300000Y-69600000D01*
X97880000Y-62480000D02*
X98300000Y-62480000D01*
X105000000Y-62480000D02*
X105000000Y-62900000D01*
X97880000Y-69600000D02*
X97880000Y-69180000D01*
X105000000Y-69600000D02*
X105000000Y-69180000D01*
X104580000Y-62480000D02*
X104580000Y-61100000D01*
X105000000Y-62480000D02*
X104580000Y-62480000D01*
X97880000Y-62480000D02*
X97880000Y-62900000D01*
G04 #@! TO.C,C7*
D11*
X108467142Y-56046666D02*
X108514761Y-56094285D01*
X108562380Y-56237142D01*
X108562380Y-56332380D01*
X108514761Y-56475238D01*
X108419523Y-56570476D01*
X108324285Y-56618095D01*
X108133809Y-56665714D01*
X107990952Y-56665714D01*
X107800476Y-56618095D01*
X107705238Y-56570476D01*
X107610000Y-56475238D01*
X107562380Y-56332380D01*
X107562380Y-56237142D01*
X107610000Y-56094285D01*
X107657619Y-56046666D01*
X107562380Y-55713333D02*
X107562380Y-55046666D01*
X108562380Y-55475238D01*
G04 #@! TO.C,REF\002A\002A*
X106616666Y-56142380D02*
X106283333Y-55666190D01*
X106045238Y-56142380D02*
X106045238Y-55142380D01*
X106426190Y-55142380D01*
X106521428Y-55190000D01*
X106569047Y-55237619D01*
X106616666Y-55332857D01*
X106616666Y-55475714D01*
X106569047Y-55570952D01*
X106521428Y-55618571D01*
X106426190Y-55666190D01*
X106045238Y-55666190D01*
X107045238Y-55618571D02*
X107378571Y-55618571D01*
X107521428Y-56142380D02*
X107045238Y-56142380D01*
X107045238Y-55142380D01*
X107521428Y-55142380D01*
X108283333Y-55618571D02*
X107950000Y-55618571D01*
X107950000Y-56142380D02*
X107950000Y-55142380D01*
X108426190Y-55142380D01*
X108950000Y-55142380D02*
X108950000Y-55380476D01*
X108711904Y-55285238D02*
X108950000Y-55380476D01*
X109188095Y-55285238D01*
X108807142Y-55570952D02*
X108950000Y-55380476D01*
X109092857Y-55570952D01*
X109711904Y-55142380D02*
X109711904Y-55380476D01*
X109473809Y-55285238D02*
X109711904Y-55380476D01*
X109950000Y-55285238D01*
X109569047Y-55570952D02*
X109711904Y-55380476D01*
X109854761Y-55570952D01*
G04 #@! TD*
M02*
