G04 #@! TF.GenerationSoftware,KiCad,Pcbnew,(5.0.1)-3*
G04 #@! TF.CreationDate,2019-01-28T22:50:12+00:00*
G04 #@! TF.ProjectId,Encoder,456E636F6465722E6B696361645F7063,rev?*
G04 #@! TF.SameCoordinates,Original*
G04 #@! TF.FileFunction,Copper,L1,Top,Signal*
G04 #@! TF.FilePolarity,Positive*
%FSLAX46Y46*%
G04 Gerber Fmt 4.6, Leading zero omitted, Abs format (unit mm)*
G04 Created by KiCad (PCBNEW (5.0.1)-3) date 28/01/2019 22:50:12*
%MOMM*%
%LPD*%
G01*
G04 APERTURE LIST*
G04 #@! TA.AperFunction,Conductor*
%ADD10C,0.100000*%
G04 #@! TD*
G04 #@! TA.AperFunction,SMDPad,CuDef*
%ADD11C,0.950000*%
G04 #@! TD*
G04 #@! TA.AperFunction,ComponentPad*
%ADD12R,1.700000X1.700000*%
G04 #@! TD*
G04 #@! TA.AperFunction,ComponentPad*
%ADD13O,1.700000X1.700000*%
G04 #@! TD*
G04 #@! TA.AperFunction,SMDPad,CuDef*
%ADD14R,0.250000X1.300000*%
G04 #@! TD*
G04 #@! TA.AperFunction,SMDPad,CuDef*
%ADD15R,1.300000X0.250000*%
G04 #@! TD*
G04 #@! TA.AperFunction,ViaPad*
%ADD16C,0.800000*%
G04 #@! TD*
G04 #@! TA.AperFunction,Conductor*
%ADD17C,0.250000*%
G04 #@! TD*
G04 APERTURE END LIST*
D10*
G04 #@! TO.N,GND*
G04 #@! TO.C,C1*
G36*
X94240779Y-74801144D02*
X94263834Y-74804563D01*
X94286443Y-74810227D01*
X94308387Y-74818079D01*
X94329457Y-74828044D01*
X94349448Y-74840026D01*
X94368168Y-74853910D01*
X94385438Y-74869562D01*
X94401090Y-74886832D01*
X94414974Y-74905552D01*
X94426956Y-74925543D01*
X94436921Y-74946613D01*
X94444773Y-74968557D01*
X94450437Y-74991166D01*
X94453856Y-75014221D01*
X94455000Y-75037500D01*
X94455000Y-75612500D01*
X94453856Y-75635779D01*
X94450437Y-75658834D01*
X94444773Y-75681443D01*
X94436921Y-75703387D01*
X94426956Y-75724457D01*
X94414974Y-75744448D01*
X94401090Y-75763168D01*
X94385438Y-75780438D01*
X94368168Y-75796090D01*
X94349448Y-75809974D01*
X94329457Y-75821956D01*
X94308387Y-75831921D01*
X94286443Y-75839773D01*
X94263834Y-75845437D01*
X94240779Y-75848856D01*
X94217500Y-75850000D01*
X93742500Y-75850000D01*
X93719221Y-75848856D01*
X93696166Y-75845437D01*
X93673557Y-75839773D01*
X93651613Y-75831921D01*
X93630543Y-75821956D01*
X93610552Y-75809974D01*
X93591832Y-75796090D01*
X93574562Y-75780438D01*
X93558910Y-75763168D01*
X93545026Y-75744448D01*
X93533044Y-75724457D01*
X93523079Y-75703387D01*
X93515227Y-75681443D01*
X93509563Y-75658834D01*
X93506144Y-75635779D01*
X93505000Y-75612500D01*
X93505000Y-75037500D01*
X93506144Y-75014221D01*
X93509563Y-74991166D01*
X93515227Y-74968557D01*
X93523079Y-74946613D01*
X93533044Y-74925543D01*
X93545026Y-74905552D01*
X93558910Y-74886832D01*
X93574562Y-74869562D01*
X93591832Y-74853910D01*
X93610552Y-74840026D01*
X93630543Y-74828044D01*
X93651613Y-74818079D01*
X93673557Y-74810227D01*
X93696166Y-74804563D01*
X93719221Y-74801144D01*
X93742500Y-74800000D01*
X94217500Y-74800000D01*
X94240779Y-74801144D01*
X94240779Y-74801144D01*
G37*
D11*
G04 #@! TD*
G04 #@! TO.P,C1,2*
G04 #@! TO.N,GND*
X93980000Y-75325000D03*
D10*
G04 #@! TO.N,+5V*
G04 #@! TO.C,C1*
G36*
X94240779Y-76551144D02*
X94263834Y-76554563D01*
X94286443Y-76560227D01*
X94308387Y-76568079D01*
X94329457Y-76578044D01*
X94349448Y-76590026D01*
X94368168Y-76603910D01*
X94385438Y-76619562D01*
X94401090Y-76636832D01*
X94414974Y-76655552D01*
X94426956Y-76675543D01*
X94436921Y-76696613D01*
X94444773Y-76718557D01*
X94450437Y-76741166D01*
X94453856Y-76764221D01*
X94455000Y-76787500D01*
X94455000Y-77362500D01*
X94453856Y-77385779D01*
X94450437Y-77408834D01*
X94444773Y-77431443D01*
X94436921Y-77453387D01*
X94426956Y-77474457D01*
X94414974Y-77494448D01*
X94401090Y-77513168D01*
X94385438Y-77530438D01*
X94368168Y-77546090D01*
X94349448Y-77559974D01*
X94329457Y-77571956D01*
X94308387Y-77581921D01*
X94286443Y-77589773D01*
X94263834Y-77595437D01*
X94240779Y-77598856D01*
X94217500Y-77600000D01*
X93742500Y-77600000D01*
X93719221Y-77598856D01*
X93696166Y-77595437D01*
X93673557Y-77589773D01*
X93651613Y-77581921D01*
X93630543Y-77571956D01*
X93610552Y-77559974D01*
X93591832Y-77546090D01*
X93574562Y-77530438D01*
X93558910Y-77513168D01*
X93545026Y-77494448D01*
X93533044Y-77474457D01*
X93523079Y-77453387D01*
X93515227Y-77431443D01*
X93509563Y-77408834D01*
X93506144Y-77385779D01*
X93505000Y-77362500D01*
X93505000Y-76787500D01*
X93506144Y-76764221D01*
X93509563Y-76741166D01*
X93515227Y-76718557D01*
X93523079Y-76696613D01*
X93533044Y-76675543D01*
X93545026Y-76655552D01*
X93558910Y-76636832D01*
X93574562Y-76619562D01*
X93591832Y-76603910D01*
X93610552Y-76590026D01*
X93630543Y-76578044D01*
X93651613Y-76568079D01*
X93673557Y-76560227D01*
X93696166Y-76554563D01*
X93719221Y-76551144D01*
X93742500Y-76550000D01*
X94217500Y-76550000D01*
X94240779Y-76551144D01*
X94240779Y-76551144D01*
G37*
D11*
G04 #@! TD*
G04 #@! TO.P,C1,1*
G04 #@! TO.N,+5V*
X93980000Y-77075000D03*
D10*
G04 #@! TO.N,GND*
G04 #@! TO.C,C2*
G36*
X104400779Y-57021144D02*
X104423834Y-57024563D01*
X104446443Y-57030227D01*
X104468387Y-57038079D01*
X104489457Y-57048044D01*
X104509448Y-57060026D01*
X104528168Y-57073910D01*
X104545438Y-57089562D01*
X104561090Y-57106832D01*
X104574974Y-57125552D01*
X104586956Y-57145543D01*
X104596921Y-57166613D01*
X104604773Y-57188557D01*
X104610437Y-57211166D01*
X104613856Y-57234221D01*
X104615000Y-57257500D01*
X104615000Y-57832500D01*
X104613856Y-57855779D01*
X104610437Y-57878834D01*
X104604773Y-57901443D01*
X104596921Y-57923387D01*
X104586956Y-57944457D01*
X104574974Y-57964448D01*
X104561090Y-57983168D01*
X104545438Y-58000438D01*
X104528168Y-58016090D01*
X104509448Y-58029974D01*
X104489457Y-58041956D01*
X104468387Y-58051921D01*
X104446443Y-58059773D01*
X104423834Y-58065437D01*
X104400779Y-58068856D01*
X104377500Y-58070000D01*
X103902500Y-58070000D01*
X103879221Y-58068856D01*
X103856166Y-58065437D01*
X103833557Y-58059773D01*
X103811613Y-58051921D01*
X103790543Y-58041956D01*
X103770552Y-58029974D01*
X103751832Y-58016090D01*
X103734562Y-58000438D01*
X103718910Y-57983168D01*
X103705026Y-57964448D01*
X103693044Y-57944457D01*
X103683079Y-57923387D01*
X103675227Y-57901443D01*
X103669563Y-57878834D01*
X103666144Y-57855779D01*
X103665000Y-57832500D01*
X103665000Y-57257500D01*
X103666144Y-57234221D01*
X103669563Y-57211166D01*
X103675227Y-57188557D01*
X103683079Y-57166613D01*
X103693044Y-57145543D01*
X103705026Y-57125552D01*
X103718910Y-57106832D01*
X103734562Y-57089562D01*
X103751832Y-57073910D01*
X103770552Y-57060026D01*
X103790543Y-57048044D01*
X103811613Y-57038079D01*
X103833557Y-57030227D01*
X103856166Y-57024563D01*
X103879221Y-57021144D01*
X103902500Y-57020000D01*
X104377500Y-57020000D01*
X104400779Y-57021144D01*
X104400779Y-57021144D01*
G37*
D11*
G04 #@! TD*
G04 #@! TO.P,C2,1*
G04 #@! TO.N,GND*
X104140000Y-57545000D03*
D10*
G04 #@! TO.N,Net-(C2-Pad2)*
G04 #@! TO.C,C2*
G36*
X104400779Y-58771144D02*
X104423834Y-58774563D01*
X104446443Y-58780227D01*
X104468387Y-58788079D01*
X104489457Y-58798044D01*
X104509448Y-58810026D01*
X104528168Y-58823910D01*
X104545438Y-58839562D01*
X104561090Y-58856832D01*
X104574974Y-58875552D01*
X104586956Y-58895543D01*
X104596921Y-58916613D01*
X104604773Y-58938557D01*
X104610437Y-58961166D01*
X104613856Y-58984221D01*
X104615000Y-59007500D01*
X104615000Y-59582500D01*
X104613856Y-59605779D01*
X104610437Y-59628834D01*
X104604773Y-59651443D01*
X104596921Y-59673387D01*
X104586956Y-59694457D01*
X104574974Y-59714448D01*
X104561090Y-59733168D01*
X104545438Y-59750438D01*
X104528168Y-59766090D01*
X104509448Y-59779974D01*
X104489457Y-59791956D01*
X104468387Y-59801921D01*
X104446443Y-59809773D01*
X104423834Y-59815437D01*
X104400779Y-59818856D01*
X104377500Y-59820000D01*
X103902500Y-59820000D01*
X103879221Y-59818856D01*
X103856166Y-59815437D01*
X103833557Y-59809773D01*
X103811613Y-59801921D01*
X103790543Y-59791956D01*
X103770552Y-59779974D01*
X103751832Y-59766090D01*
X103734562Y-59750438D01*
X103718910Y-59733168D01*
X103705026Y-59714448D01*
X103693044Y-59694457D01*
X103683079Y-59673387D01*
X103675227Y-59651443D01*
X103669563Y-59628834D01*
X103666144Y-59605779D01*
X103665000Y-59582500D01*
X103665000Y-59007500D01*
X103666144Y-58984221D01*
X103669563Y-58961166D01*
X103675227Y-58938557D01*
X103683079Y-58916613D01*
X103693044Y-58895543D01*
X103705026Y-58875552D01*
X103718910Y-58856832D01*
X103734562Y-58839562D01*
X103751832Y-58823910D01*
X103770552Y-58810026D01*
X103790543Y-58798044D01*
X103811613Y-58788079D01*
X103833557Y-58780227D01*
X103856166Y-58774563D01*
X103879221Y-58771144D01*
X103902500Y-58770000D01*
X104377500Y-58770000D01*
X104400779Y-58771144D01*
X104400779Y-58771144D01*
G37*
D11*
G04 #@! TD*
G04 #@! TO.P,C2,2*
G04 #@! TO.N,Net-(C2-Pad2)*
X104140000Y-59295000D03*
D10*
G04 #@! TO.N,GND*
G04 #@! TO.C,C3*
G36*
X103130779Y-57021144D02*
X103153834Y-57024563D01*
X103176443Y-57030227D01*
X103198387Y-57038079D01*
X103219457Y-57048044D01*
X103239448Y-57060026D01*
X103258168Y-57073910D01*
X103275438Y-57089562D01*
X103291090Y-57106832D01*
X103304974Y-57125552D01*
X103316956Y-57145543D01*
X103326921Y-57166613D01*
X103334773Y-57188557D01*
X103340437Y-57211166D01*
X103343856Y-57234221D01*
X103345000Y-57257500D01*
X103345000Y-57832500D01*
X103343856Y-57855779D01*
X103340437Y-57878834D01*
X103334773Y-57901443D01*
X103326921Y-57923387D01*
X103316956Y-57944457D01*
X103304974Y-57964448D01*
X103291090Y-57983168D01*
X103275438Y-58000438D01*
X103258168Y-58016090D01*
X103239448Y-58029974D01*
X103219457Y-58041956D01*
X103198387Y-58051921D01*
X103176443Y-58059773D01*
X103153834Y-58065437D01*
X103130779Y-58068856D01*
X103107500Y-58070000D01*
X102632500Y-58070000D01*
X102609221Y-58068856D01*
X102586166Y-58065437D01*
X102563557Y-58059773D01*
X102541613Y-58051921D01*
X102520543Y-58041956D01*
X102500552Y-58029974D01*
X102481832Y-58016090D01*
X102464562Y-58000438D01*
X102448910Y-57983168D01*
X102435026Y-57964448D01*
X102423044Y-57944457D01*
X102413079Y-57923387D01*
X102405227Y-57901443D01*
X102399563Y-57878834D01*
X102396144Y-57855779D01*
X102395000Y-57832500D01*
X102395000Y-57257500D01*
X102396144Y-57234221D01*
X102399563Y-57211166D01*
X102405227Y-57188557D01*
X102413079Y-57166613D01*
X102423044Y-57145543D01*
X102435026Y-57125552D01*
X102448910Y-57106832D01*
X102464562Y-57089562D01*
X102481832Y-57073910D01*
X102500552Y-57060026D01*
X102520543Y-57048044D01*
X102541613Y-57038079D01*
X102563557Y-57030227D01*
X102586166Y-57024563D01*
X102609221Y-57021144D01*
X102632500Y-57020000D01*
X103107500Y-57020000D01*
X103130779Y-57021144D01*
X103130779Y-57021144D01*
G37*
D11*
G04 #@! TD*
G04 #@! TO.P,C3,2*
G04 #@! TO.N,GND*
X102870000Y-57545000D03*
D10*
G04 #@! TO.N,Net-(C3-Pad1)*
G04 #@! TO.C,C3*
G36*
X103130779Y-58771144D02*
X103153834Y-58774563D01*
X103176443Y-58780227D01*
X103198387Y-58788079D01*
X103219457Y-58798044D01*
X103239448Y-58810026D01*
X103258168Y-58823910D01*
X103275438Y-58839562D01*
X103291090Y-58856832D01*
X103304974Y-58875552D01*
X103316956Y-58895543D01*
X103326921Y-58916613D01*
X103334773Y-58938557D01*
X103340437Y-58961166D01*
X103343856Y-58984221D01*
X103345000Y-59007500D01*
X103345000Y-59582500D01*
X103343856Y-59605779D01*
X103340437Y-59628834D01*
X103334773Y-59651443D01*
X103326921Y-59673387D01*
X103316956Y-59694457D01*
X103304974Y-59714448D01*
X103291090Y-59733168D01*
X103275438Y-59750438D01*
X103258168Y-59766090D01*
X103239448Y-59779974D01*
X103219457Y-59791956D01*
X103198387Y-59801921D01*
X103176443Y-59809773D01*
X103153834Y-59815437D01*
X103130779Y-59818856D01*
X103107500Y-59820000D01*
X102632500Y-59820000D01*
X102609221Y-59818856D01*
X102586166Y-59815437D01*
X102563557Y-59809773D01*
X102541613Y-59801921D01*
X102520543Y-59791956D01*
X102500552Y-59779974D01*
X102481832Y-59766090D01*
X102464562Y-59750438D01*
X102448910Y-59733168D01*
X102435026Y-59714448D01*
X102423044Y-59694457D01*
X102413079Y-59673387D01*
X102405227Y-59651443D01*
X102399563Y-59628834D01*
X102396144Y-59605779D01*
X102395000Y-59582500D01*
X102395000Y-59007500D01*
X102396144Y-58984221D01*
X102399563Y-58961166D01*
X102405227Y-58938557D01*
X102413079Y-58916613D01*
X102423044Y-58895543D01*
X102435026Y-58875552D01*
X102448910Y-58856832D01*
X102464562Y-58839562D01*
X102481832Y-58823910D01*
X102500552Y-58810026D01*
X102520543Y-58798044D01*
X102541613Y-58788079D01*
X102563557Y-58780227D01*
X102586166Y-58774563D01*
X102609221Y-58771144D01*
X102632500Y-58770000D01*
X103107500Y-58770000D01*
X103130779Y-58771144D01*
X103130779Y-58771144D01*
G37*
D11*
G04 #@! TD*
G04 #@! TO.P,C3,1*
G04 #@! TO.N,Net-(C3-Pad1)*
X102870000Y-59295000D03*
D10*
G04 #@! TO.N,Net-(C4-Pad2)*
G04 #@! TO.C,C4*
G36*
X99765779Y-57946144D02*
X99788834Y-57949563D01*
X99811443Y-57955227D01*
X99833387Y-57963079D01*
X99854457Y-57973044D01*
X99874448Y-57985026D01*
X99893168Y-57998910D01*
X99910438Y-58014562D01*
X99926090Y-58031832D01*
X99939974Y-58050552D01*
X99951956Y-58070543D01*
X99961921Y-58091613D01*
X99969773Y-58113557D01*
X99975437Y-58136166D01*
X99978856Y-58159221D01*
X99980000Y-58182500D01*
X99980000Y-58657500D01*
X99978856Y-58680779D01*
X99975437Y-58703834D01*
X99969773Y-58726443D01*
X99961921Y-58748387D01*
X99951956Y-58769457D01*
X99939974Y-58789448D01*
X99926090Y-58808168D01*
X99910438Y-58825438D01*
X99893168Y-58841090D01*
X99874448Y-58854974D01*
X99854457Y-58866956D01*
X99833387Y-58876921D01*
X99811443Y-58884773D01*
X99788834Y-58890437D01*
X99765779Y-58893856D01*
X99742500Y-58895000D01*
X99167500Y-58895000D01*
X99144221Y-58893856D01*
X99121166Y-58890437D01*
X99098557Y-58884773D01*
X99076613Y-58876921D01*
X99055543Y-58866956D01*
X99035552Y-58854974D01*
X99016832Y-58841090D01*
X98999562Y-58825438D01*
X98983910Y-58808168D01*
X98970026Y-58789448D01*
X98958044Y-58769457D01*
X98948079Y-58748387D01*
X98940227Y-58726443D01*
X98934563Y-58703834D01*
X98931144Y-58680779D01*
X98930000Y-58657500D01*
X98930000Y-58182500D01*
X98931144Y-58159221D01*
X98934563Y-58136166D01*
X98940227Y-58113557D01*
X98948079Y-58091613D01*
X98958044Y-58070543D01*
X98970026Y-58050552D01*
X98983910Y-58031832D01*
X98999562Y-58014562D01*
X99016832Y-57998910D01*
X99035552Y-57985026D01*
X99055543Y-57973044D01*
X99076613Y-57963079D01*
X99098557Y-57955227D01*
X99121166Y-57949563D01*
X99144221Y-57946144D01*
X99167500Y-57945000D01*
X99742500Y-57945000D01*
X99765779Y-57946144D01*
X99765779Y-57946144D01*
G37*
D11*
G04 #@! TD*
G04 #@! TO.P,C4,2*
G04 #@! TO.N,Net-(C4-Pad2)*
X99455000Y-58420000D03*
D10*
G04 #@! TO.N,GND*
G04 #@! TO.C,C4*
G36*
X101515779Y-57946144D02*
X101538834Y-57949563D01*
X101561443Y-57955227D01*
X101583387Y-57963079D01*
X101604457Y-57973044D01*
X101624448Y-57985026D01*
X101643168Y-57998910D01*
X101660438Y-58014562D01*
X101676090Y-58031832D01*
X101689974Y-58050552D01*
X101701956Y-58070543D01*
X101711921Y-58091613D01*
X101719773Y-58113557D01*
X101725437Y-58136166D01*
X101728856Y-58159221D01*
X101730000Y-58182500D01*
X101730000Y-58657500D01*
X101728856Y-58680779D01*
X101725437Y-58703834D01*
X101719773Y-58726443D01*
X101711921Y-58748387D01*
X101701956Y-58769457D01*
X101689974Y-58789448D01*
X101676090Y-58808168D01*
X101660438Y-58825438D01*
X101643168Y-58841090D01*
X101624448Y-58854974D01*
X101604457Y-58866956D01*
X101583387Y-58876921D01*
X101561443Y-58884773D01*
X101538834Y-58890437D01*
X101515779Y-58893856D01*
X101492500Y-58895000D01*
X100917500Y-58895000D01*
X100894221Y-58893856D01*
X100871166Y-58890437D01*
X100848557Y-58884773D01*
X100826613Y-58876921D01*
X100805543Y-58866956D01*
X100785552Y-58854974D01*
X100766832Y-58841090D01*
X100749562Y-58825438D01*
X100733910Y-58808168D01*
X100720026Y-58789448D01*
X100708044Y-58769457D01*
X100698079Y-58748387D01*
X100690227Y-58726443D01*
X100684563Y-58703834D01*
X100681144Y-58680779D01*
X100680000Y-58657500D01*
X100680000Y-58182500D01*
X100681144Y-58159221D01*
X100684563Y-58136166D01*
X100690227Y-58113557D01*
X100698079Y-58091613D01*
X100708044Y-58070543D01*
X100720026Y-58050552D01*
X100733910Y-58031832D01*
X100749562Y-58014562D01*
X100766832Y-57998910D01*
X100785552Y-57985026D01*
X100805543Y-57973044D01*
X100826613Y-57963079D01*
X100848557Y-57955227D01*
X100871166Y-57949563D01*
X100894221Y-57946144D01*
X100917500Y-57945000D01*
X101492500Y-57945000D01*
X101515779Y-57946144D01*
X101515779Y-57946144D01*
G37*
D11*
G04 #@! TD*
G04 #@! TO.P,C4,1*
G04 #@! TO.N,GND*
X101205000Y-58420000D03*
D10*
G04 #@! TO.N,GND*
G04 #@! TO.C,C5*
G36*
X96780779Y-74801144D02*
X96803834Y-74804563D01*
X96826443Y-74810227D01*
X96848387Y-74818079D01*
X96869457Y-74828044D01*
X96889448Y-74840026D01*
X96908168Y-74853910D01*
X96925438Y-74869562D01*
X96941090Y-74886832D01*
X96954974Y-74905552D01*
X96966956Y-74925543D01*
X96976921Y-74946613D01*
X96984773Y-74968557D01*
X96990437Y-74991166D01*
X96993856Y-75014221D01*
X96995000Y-75037500D01*
X96995000Y-75612500D01*
X96993856Y-75635779D01*
X96990437Y-75658834D01*
X96984773Y-75681443D01*
X96976921Y-75703387D01*
X96966956Y-75724457D01*
X96954974Y-75744448D01*
X96941090Y-75763168D01*
X96925438Y-75780438D01*
X96908168Y-75796090D01*
X96889448Y-75809974D01*
X96869457Y-75821956D01*
X96848387Y-75831921D01*
X96826443Y-75839773D01*
X96803834Y-75845437D01*
X96780779Y-75848856D01*
X96757500Y-75850000D01*
X96282500Y-75850000D01*
X96259221Y-75848856D01*
X96236166Y-75845437D01*
X96213557Y-75839773D01*
X96191613Y-75831921D01*
X96170543Y-75821956D01*
X96150552Y-75809974D01*
X96131832Y-75796090D01*
X96114562Y-75780438D01*
X96098910Y-75763168D01*
X96085026Y-75744448D01*
X96073044Y-75724457D01*
X96063079Y-75703387D01*
X96055227Y-75681443D01*
X96049563Y-75658834D01*
X96046144Y-75635779D01*
X96045000Y-75612500D01*
X96045000Y-75037500D01*
X96046144Y-75014221D01*
X96049563Y-74991166D01*
X96055227Y-74968557D01*
X96063079Y-74946613D01*
X96073044Y-74925543D01*
X96085026Y-74905552D01*
X96098910Y-74886832D01*
X96114562Y-74869562D01*
X96131832Y-74853910D01*
X96150552Y-74840026D01*
X96170543Y-74828044D01*
X96191613Y-74818079D01*
X96213557Y-74810227D01*
X96236166Y-74804563D01*
X96259221Y-74801144D01*
X96282500Y-74800000D01*
X96757500Y-74800000D01*
X96780779Y-74801144D01*
X96780779Y-74801144D01*
G37*
D11*
G04 #@! TD*
G04 #@! TO.P,C5,2*
G04 #@! TO.N,GND*
X96520000Y-75325000D03*
D10*
G04 #@! TO.N,+5V*
G04 #@! TO.C,C5*
G36*
X96780779Y-76551144D02*
X96803834Y-76554563D01*
X96826443Y-76560227D01*
X96848387Y-76568079D01*
X96869457Y-76578044D01*
X96889448Y-76590026D01*
X96908168Y-76603910D01*
X96925438Y-76619562D01*
X96941090Y-76636832D01*
X96954974Y-76655552D01*
X96966956Y-76675543D01*
X96976921Y-76696613D01*
X96984773Y-76718557D01*
X96990437Y-76741166D01*
X96993856Y-76764221D01*
X96995000Y-76787500D01*
X96995000Y-77362500D01*
X96993856Y-77385779D01*
X96990437Y-77408834D01*
X96984773Y-77431443D01*
X96976921Y-77453387D01*
X96966956Y-77474457D01*
X96954974Y-77494448D01*
X96941090Y-77513168D01*
X96925438Y-77530438D01*
X96908168Y-77546090D01*
X96889448Y-77559974D01*
X96869457Y-77571956D01*
X96848387Y-77581921D01*
X96826443Y-77589773D01*
X96803834Y-77595437D01*
X96780779Y-77598856D01*
X96757500Y-77600000D01*
X96282500Y-77600000D01*
X96259221Y-77598856D01*
X96236166Y-77595437D01*
X96213557Y-77589773D01*
X96191613Y-77581921D01*
X96170543Y-77571956D01*
X96150552Y-77559974D01*
X96131832Y-77546090D01*
X96114562Y-77530438D01*
X96098910Y-77513168D01*
X96085026Y-77494448D01*
X96073044Y-77474457D01*
X96063079Y-77453387D01*
X96055227Y-77431443D01*
X96049563Y-77408834D01*
X96046144Y-77385779D01*
X96045000Y-77362500D01*
X96045000Y-76787500D01*
X96046144Y-76764221D01*
X96049563Y-76741166D01*
X96055227Y-76718557D01*
X96063079Y-76696613D01*
X96073044Y-76675543D01*
X96085026Y-76655552D01*
X96098910Y-76636832D01*
X96114562Y-76619562D01*
X96131832Y-76603910D01*
X96150552Y-76590026D01*
X96170543Y-76578044D01*
X96191613Y-76568079D01*
X96213557Y-76560227D01*
X96236166Y-76554563D01*
X96259221Y-76551144D01*
X96282500Y-76550000D01*
X96757500Y-76550000D01*
X96780779Y-76551144D01*
X96780779Y-76551144D01*
G37*
D11*
G04 #@! TD*
G04 #@! TO.P,C5,1*
G04 #@! TO.N,+5V*
X96520000Y-77075000D03*
D10*
G04 #@! TO.N,+5V*
G04 #@! TO.C,C6*
G36*
X95510779Y-76551144D02*
X95533834Y-76554563D01*
X95556443Y-76560227D01*
X95578387Y-76568079D01*
X95599457Y-76578044D01*
X95619448Y-76590026D01*
X95638168Y-76603910D01*
X95655438Y-76619562D01*
X95671090Y-76636832D01*
X95684974Y-76655552D01*
X95696956Y-76675543D01*
X95706921Y-76696613D01*
X95714773Y-76718557D01*
X95720437Y-76741166D01*
X95723856Y-76764221D01*
X95725000Y-76787500D01*
X95725000Y-77362500D01*
X95723856Y-77385779D01*
X95720437Y-77408834D01*
X95714773Y-77431443D01*
X95706921Y-77453387D01*
X95696956Y-77474457D01*
X95684974Y-77494448D01*
X95671090Y-77513168D01*
X95655438Y-77530438D01*
X95638168Y-77546090D01*
X95619448Y-77559974D01*
X95599457Y-77571956D01*
X95578387Y-77581921D01*
X95556443Y-77589773D01*
X95533834Y-77595437D01*
X95510779Y-77598856D01*
X95487500Y-77600000D01*
X95012500Y-77600000D01*
X94989221Y-77598856D01*
X94966166Y-77595437D01*
X94943557Y-77589773D01*
X94921613Y-77581921D01*
X94900543Y-77571956D01*
X94880552Y-77559974D01*
X94861832Y-77546090D01*
X94844562Y-77530438D01*
X94828910Y-77513168D01*
X94815026Y-77494448D01*
X94803044Y-77474457D01*
X94793079Y-77453387D01*
X94785227Y-77431443D01*
X94779563Y-77408834D01*
X94776144Y-77385779D01*
X94775000Y-77362500D01*
X94775000Y-76787500D01*
X94776144Y-76764221D01*
X94779563Y-76741166D01*
X94785227Y-76718557D01*
X94793079Y-76696613D01*
X94803044Y-76675543D01*
X94815026Y-76655552D01*
X94828910Y-76636832D01*
X94844562Y-76619562D01*
X94861832Y-76603910D01*
X94880552Y-76590026D01*
X94900543Y-76578044D01*
X94921613Y-76568079D01*
X94943557Y-76560227D01*
X94966166Y-76554563D01*
X94989221Y-76551144D01*
X95012500Y-76550000D01*
X95487500Y-76550000D01*
X95510779Y-76551144D01*
X95510779Y-76551144D01*
G37*
D11*
G04 #@! TD*
G04 #@! TO.P,C6,1*
G04 #@! TO.N,+5V*
X95250000Y-77075000D03*
D10*
G04 #@! TO.N,GND*
G04 #@! TO.C,C6*
G36*
X95510779Y-74801144D02*
X95533834Y-74804563D01*
X95556443Y-74810227D01*
X95578387Y-74818079D01*
X95599457Y-74828044D01*
X95619448Y-74840026D01*
X95638168Y-74853910D01*
X95655438Y-74869562D01*
X95671090Y-74886832D01*
X95684974Y-74905552D01*
X95696956Y-74925543D01*
X95706921Y-74946613D01*
X95714773Y-74968557D01*
X95720437Y-74991166D01*
X95723856Y-75014221D01*
X95725000Y-75037500D01*
X95725000Y-75612500D01*
X95723856Y-75635779D01*
X95720437Y-75658834D01*
X95714773Y-75681443D01*
X95706921Y-75703387D01*
X95696956Y-75724457D01*
X95684974Y-75744448D01*
X95671090Y-75763168D01*
X95655438Y-75780438D01*
X95638168Y-75796090D01*
X95619448Y-75809974D01*
X95599457Y-75821956D01*
X95578387Y-75831921D01*
X95556443Y-75839773D01*
X95533834Y-75845437D01*
X95510779Y-75848856D01*
X95487500Y-75850000D01*
X95012500Y-75850000D01*
X94989221Y-75848856D01*
X94966166Y-75845437D01*
X94943557Y-75839773D01*
X94921613Y-75831921D01*
X94900543Y-75821956D01*
X94880552Y-75809974D01*
X94861832Y-75796090D01*
X94844562Y-75780438D01*
X94828910Y-75763168D01*
X94815026Y-75744448D01*
X94803044Y-75724457D01*
X94793079Y-75703387D01*
X94785227Y-75681443D01*
X94779563Y-75658834D01*
X94776144Y-75635779D01*
X94775000Y-75612500D01*
X94775000Y-75037500D01*
X94776144Y-75014221D01*
X94779563Y-74991166D01*
X94785227Y-74968557D01*
X94793079Y-74946613D01*
X94803044Y-74925543D01*
X94815026Y-74905552D01*
X94828910Y-74886832D01*
X94844562Y-74869562D01*
X94861832Y-74853910D01*
X94880552Y-74840026D01*
X94900543Y-74828044D01*
X94921613Y-74818079D01*
X94943557Y-74810227D01*
X94966166Y-74804563D01*
X94989221Y-74801144D01*
X95012500Y-74800000D01*
X95487500Y-74800000D01*
X95510779Y-74801144D01*
X95510779Y-74801144D01*
G37*
D11*
G04 #@! TD*
G04 #@! TO.P,C6,2*
G04 #@! TO.N,GND*
X95250000Y-75325000D03*
D10*
G04 #@! TO.N,GNDA*
G04 #@! TO.C,C7*
G36*
X106940779Y-56231144D02*
X106963834Y-56234563D01*
X106986443Y-56240227D01*
X107008387Y-56248079D01*
X107029457Y-56258044D01*
X107049448Y-56270026D01*
X107068168Y-56283910D01*
X107085438Y-56299562D01*
X107101090Y-56316832D01*
X107114974Y-56335552D01*
X107126956Y-56355543D01*
X107136921Y-56376613D01*
X107144773Y-56398557D01*
X107150437Y-56421166D01*
X107153856Y-56444221D01*
X107155000Y-56467500D01*
X107155000Y-57042500D01*
X107153856Y-57065779D01*
X107150437Y-57088834D01*
X107144773Y-57111443D01*
X107136921Y-57133387D01*
X107126956Y-57154457D01*
X107114974Y-57174448D01*
X107101090Y-57193168D01*
X107085438Y-57210438D01*
X107068168Y-57226090D01*
X107049448Y-57239974D01*
X107029457Y-57251956D01*
X107008387Y-57261921D01*
X106986443Y-57269773D01*
X106963834Y-57275437D01*
X106940779Y-57278856D01*
X106917500Y-57280000D01*
X106442500Y-57280000D01*
X106419221Y-57278856D01*
X106396166Y-57275437D01*
X106373557Y-57269773D01*
X106351613Y-57261921D01*
X106330543Y-57251956D01*
X106310552Y-57239974D01*
X106291832Y-57226090D01*
X106274562Y-57210438D01*
X106258910Y-57193168D01*
X106245026Y-57174448D01*
X106233044Y-57154457D01*
X106223079Y-57133387D01*
X106215227Y-57111443D01*
X106209563Y-57088834D01*
X106206144Y-57065779D01*
X106205000Y-57042500D01*
X106205000Y-56467500D01*
X106206144Y-56444221D01*
X106209563Y-56421166D01*
X106215227Y-56398557D01*
X106223079Y-56376613D01*
X106233044Y-56355543D01*
X106245026Y-56335552D01*
X106258910Y-56316832D01*
X106274562Y-56299562D01*
X106291832Y-56283910D01*
X106310552Y-56270026D01*
X106330543Y-56258044D01*
X106351613Y-56248079D01*
X106373557Y-56240227D01*
X106396166Y-56234563D01*
X106419221Y-56231144D01*
X106442500Y-56230000D01*
X106917500Y-56230000D01*
X106940779Y-56231144D01*
X106940779Y-56231144D01*
G37*
D11*
G04 #@! TD*
G04 #@! TO.P,C7,2*
G04 #@! TO.N,GNDA*
X106680000Y-56755000D03*
D10*
G04 #@! TO.N,+5VA*
G04 #@! TO.C,C7*
G36*
X106940779Y-54481144D02*
X106963834Y-54484563D01*
X106986443Y-54490227D01*
X107008387Y-54498079D01*
X107029457Y-54508044D01*
X107049448Y-54520026D01*
X107068168Y-54533910D01*
X107085438Y-54549562D01*
X107101090Y-54566832D01*
X107114974Y-54585552D01*
X107126956Y-54605543D01*
X107136921Y-54626613D01*
X107144773Y-54648557D01*
X107150437Y-54671166D01*
X107153856Y-54694221D01*
X107155000Y-54717500D01*
X107155000Y-55292500D01*
X107153856Y-55315779D01*
X107150437Y-55338834D01*
X107144773Y-55361443D01*
X107136921Y-55383387D01*
X107126956Y-55404457D01*
X107114974Y-55424448D01*
X107101090Y-55443168D01*
X107085438Y-55460438D01*
X107068168Y-55476090D01*
X107049448Y-55489974D01*
X107029457Y-55501956D01*
X107008387Y-55511921D01*
X106986443Y-55519773D01*
X106963834Y-55525437D01*
X106940779Y-55528856D01*
X106917500Y-55530000D01*
X106442500Y-55530000D01*
X106419221Y-55528856D01*
X106396166Y-55525437D01*
X106373557Y-55519773D01*
X106351613Y-55511921D01*
X106330543Y-55501956D01*
X106310552Y-55489974D01*
X106291832Y-55476090D01*
X106274562Y-55460438D01*
X106258910Y-55443168D01*
X106245026Y-55424448D01*
X106233044Y-55404457D01*
X106223079Y-55383387D01*
X106215227Y-55361443D01*
X106209563Y-55338834D01*
X106206144Y-55315779D01*
X106205000Y-55292500D01*
X106205000Y-54717500D01*
X106206144Y-54694221D01*
X106209563Y-54671166D01*
X106215227Y-54648557D01*
X106223079Y-54626613D01*
X106233044Y-54605543D01*
X106245026Y-54585552D01*
X106258910Y-54566832D01*
X106274562Y-54549562D01*
X106291832Y-54533910D01*
X106310552Y-54520026D01*
X106330543Y-54508044D01*
X106351613Y-54498079D01*
X106373557Y-54490227D01*
X106396166Y-54484563D01*
X106419221Y-54481144D01*
X106442500Y-54480000D01*
X106917500Y-54480000D01*
X106940779Y-54481144D01*
X106940779Y-54481144D01*
G37*
D11*
G04 #@! TD*
G04 #@! TO.P,C7,1*
G04 #@! TO.N,+5VA*
X106680000Y-55005000D03*
D10*
G04 #@! TO.N,+5VA*
G04 #@! TO.C,C8*
G36*
X108210779Y-54481144D02*
X108233834Y-54484563D01*
X108256443Y-54490227D01*
X108278387Y-54498079D01*
X108299457Y-54508044D01*
X108319448Y-54520026D01*
X108338168Y-54533910D01*
X108355438Y-54549562D01*
X108371090Y-54566832D01*
X108384974Y-54585552D01*
X108396956Y-54605543D01*
X108406921Y-54626613D01*
X108414773Y-54648557D01*
X108420437Y-54671166D01*
X108423856Y-54694221D01*
X108425000Y-54717500D01*
X108425000Y-55292500D01*
X108423856Y-55315779D01*
X108420437Y-55338834D01*
X108414773Y-55361443D01*
X108406921Y-55383387D01*
X108396956Y-55404457D01*
X108384974Y-55424448D01*
X108371090Y-55443168D01*
X108355438Y-55460438D01*
X108338168Y-55476090D01*
X108319448Y-55489974D01*
X108299457Y-55501956D01*
X108278387Y-55511921D01*
X108256443Y-55519773D01*
X108233834Y-55525437D01*
X108210779Y-55528856D01*
X108187500Y-55530000D01*
X107712500Y-55530000D01*
X107689221Y-55528856D01*
X107666166Y-55525437D01*
X107643557Y-55519773D01*
X107621613Y-55511921D01*
X107600543Y-55501956D01*
X107580552Y-55489974D01*
X107561832Y-55476090D01*
X107544562Y-55460438D01*
X107528910Y-55443168D01*
X107515026Y-55424448D01*
X107503044Y-55404457D01*
X107493079Y-55383387D01*
X107485227Y-55361443D01*
X107479563Y-55338834D01*
X107476144Y-55315779D01*
X107475000Y-55292500D01*
X107475000Y-54717500D01*
X107476144Y-54694221D01*
X107479563Y-54671166D01*
X107485227Y-54648557D01*
X107493079Y-54626613D01*
X107503044Y-54605543D01*
X107515026Y-54585552D01*
X107528910Y-54566832D01*
X107544562Y-54549562D01*
X107561832Y-54533910D01*
X107580552Y-54520026D01*
X107600543Y-54508044D01*
X107621613Y-54498079D01*
X107643557Y-54490227D01*
X107666166Y-54484563D01*
X107689221Y-54481144D01*
X107712500Y-54480000D01*
X108187500Y-54480000D01*
X108210779Y-54481144D01*
X108210779Y-54481144D01*
G37*
D11*
G04 #@! TD*
G04 #@! TO.P,C8,1*
G04 #@! TO.N,+5VA*
X107950000Y-55005000D03*
D10*
G04 #@! TO.N,GNDA*
G04 #@! TO.C,C8*
G36*
X108210779Y-56231144D02*
X108233834Y-56234563D01*
X108256443Y-56240227D01*
X108278387Y-56248079D01*
X108299457Y-56258044D01*
X108319448Y-56270026D01*
X108338168Y-56283910D01*
X108355438Y-56299562D01*
X108371090Y-56316832D01*
X108384974Y-56335552D01*
X108396956Y-56355543D01*
X108406921Y-56376613D01*
X108414773Y-56398557D01*
X108420437Y-56421166D01*
X108423856Y-56444221D01*
X108425000Y-56467500D01*
X108425000Y-57042500D01*
X108423856Y-57065779D01*
X108420437Y-57088834D01*
X108414773Y-57111443D01*
X108406921Y-57133387D01*
X108396956Y-57154457D01*
X108384974Y-57174448D01*
X108371090Y-57193168D01*
X108355438Y-57210438D01*
X108338168Y-57226090D01*
X108319448Y-57239974D01*
X108299457Y-57251956D01*
X108278387Y-57261921D01*
X108256443Y-57269773D01*
X108233834Y-57275437D01*
X108210779Y-57278856D01*
X108187500Y-57280000D01*
X107712500Y-57280000D01*
X107689221Y-57278856D01*
X107666166Y-57275437D01*
X107643557Y-57269773D01*
X107621613Y-57261921D01*
X107600543Y-57251956D01*
X107580552Y-57239974D01*
X107561832Y-57226090D01*
X107544562Y-57210438D01*
X107528910Y-57193168D01*
X107515026Y-57174448D01*
X107503044Y-57154457D01*
X107493079Y-57133387D01*
X107485227Y-57111443D01*
X107479563Y-57088834D01*
X107476144Y-57065779D01*
X107475000Y-57042500D01*
X107475000Y-56467500D01*
X107476144Y-56444221D01*
X107479563Y-56421166D01*
X107485227Y-56398557D01*
X107493079Y-56376613D01*
X107503044Y-56355543D01*
X107515026Y-56335552D01*
X107528910Y-56316832D01*
X107544562Y-56299562D01*
X107561832Y-56283910D01*
X107580552Y-56270026D01*
X107600543Y-56258044D01*
X107621613Y-56248079D01*
X107643557Y-56240227D01*
X107666166Y-56234563D01*
X107689221Y-56231144D01*
X107712500Y-56230000D01*
X108187500Y-56230000D01*
X108210779Y-56231144D01*
X108210779Y-56231144D01*
G37*
D11*
G04 #@! TD*
G04 #@! TO.P,C8,2*
G04 #@! TO.N,GNDA*
X107950000Y-56755000D03*
D10*
G04 #@! TO.N,Net-(C9-Pad1)*
G04 #@! TO.C,C9*
G36*
X104055779Y-73186144D02*
X104078834Y-73189563D01*
X104101443Y-73195227D01*
X104123387Y-73203079D01*
X104144457Y-73213044D01*
X104164448Y-73225026D01*
X104183168Y-73238910D01*
X104200438Y-73254562D01*
X104216090Y-73271832D01*
X104229974Y-73290552D01*
X104241956Y-73310543D01*
X104251921Y-73331613D01*
X104259773Y-73353557D01*
X104265437Y-73376166D01*
X104268856Y-73399221D01*
X104270000Y-73422500D01*
X104270000Y-73897500D01*
X104268856Y-73920779D01*
X104265437Y-73943834D01*
X104259773Y-73966443D01*
X104251921Y-73988387D01*
X104241956Y-74009457D01*
X104229974Y-74029448D01*
X104216090Y-74048168D01*
X104200438Y-74065438D01*
X104183168Y-74081090D01*
X104164448Y-74094974D01*
X104144457Y-74106956D01*
X104123387Y-74116921D01*
X104101443Y-74124773D01*
X104078834Y-74130437D01*
X104055779Y-74133856D01*
X104032500Y-74135000D01*
X103457500Y-74135000D01*
X103434221Y-74133856D01*
X103411166Y-74130437D01*
X103388557Y-74124773D01*
X103366613Y-74116921D01*
X103345543Y-74106956D01*
X103325552Y-74094974D01*
X103306832Y-74081090D01*
X103289562Y-74065438D01*
X103273910Y-74048168D01*
X103260026Y-74029448D01*
X103248044Y-74009457D01*
X103238079Y-73988387D01*
X103230227Y-73966443D01*
X103224563Y-73943834D01*
X103221144Y-73920779D01*
X103220000Y-73897500D01*
X103220000Y-73422500D01*
X103221144Y-73399221D01*
X103224563Y-73376166D01*
X103230227Y-73353557D01*
X103238079Y-73331613D01*
X103248044Y-73310543D01*
X103260026Y-73290552D01*
X103273910Y-73271832D01*
X103289562Y-73254562D01*
X103306832Y-73238910D01*
X103325552Y-73225026D01*
X103345543Y-73213044D01*
X103366613Y-73203079D01*
X103388557Y-73195227D01*
X103411166Y-73189563D01*
X103434221Y-73186144D01*
X103457500Y-73185000D01*
X104032500Y-73185000D01*
X104055779Y-73186144D01*
X104055779Y-73186144D01*
G37*
D11*
G04 #@! TD*
G04 #@! TO.P,C9,1*
G04 #@! TO.N,Net-(C9-Pad1)*
X103745000Y-73660000D03*
D10*
G04 #@! TO.N,GNDA*
G04 #@! TO.C,C9*
G36*
X102305779Y-73186144D02*
X102328834Y-73189563D01*
X102351443Y-73195227D01*
X102373387Y-73203079D01*
X102394457Y-73213044D01*
X102414448Y-73225026D01*
X102433168Y-73238910D01*
X102450438Y-73254562D01*
X102466090Y-73271832D01*
X102479974Y-73290552D01*
X102491956Y-73310543D01*
X102501921Y-73331613D01*
X102509773Y-73353557D01*
X102515437Y-73376166D01*
X102518856Y-73399221D01*
X102520000Y-73422500D01*
X102520000Y-73897500D01*
X102518856Y-73920779D01*
X102515437Y-73943834D01*
X102509773Y-73966443D01*
X102501921Y-73988387D01*
X102491956Y-74009457D01*
X102479974Y-74029448D01*
X102466090Y-74048168D01*
X102450438Y-74065438D01*
X102433168Y-74081090D01*
X102414448Y-74094974D01*
X102394457Y-74106956D01*
X102373387Y-74116921D01*
X102351443Y-74124773D01*
X102328834Y-74130437D01*
X102305779Y-74133856D01*
X102282500Y-74135000D01*
X101707500Y-74135000D01*
X101684221Y-74133856D01*
X101661166Y-74130437D01*
X101638557Y-74124773D01*
X101616613Y-74116921D01*
X101595543Y-74106956D01*
X101575552Y-74094974D01*
X101556832Y-74081090D01*
X101539562Y-74065438D01*
X101523910Y-74048168D01*
X101510026Y-74029448D01*
X101498044Y-74009457D01*
X101488079Y-73988387D01*
X101480227Y-73966443D01*
X101474563Y-73943834D01*
X101471144Y-73920779D01*
X101470000Y-73897500D01*
X101470000Y-73422500D01*
X101471144Y-73399221D01*
X101474563Y-73376166D01*
X101480227Y-73353557D01*
X101488079Y-73331613D01*
X101498044Y-73310543D01*
X101510026Y-73290552D01*
X101523910Y-73271832D01*
X101539562Y-73254562D01*
X101556832Y-73238910D01*
X101575552Y-73225026D01*
X101595543Y-73213044D01*
X101616613Y-73203079D01*
X101638557Y-73195227D01*
X101661166Y-73189563D01*
X101684221Y-73186144D01*
X101707500Y-73185000D01*
X102282500Y-73185000D01*
X102305779Y-73186144D01*
X102305779Y-73186144D01*
G37*
D11*
G04 #@! TD*
G04 #@! TO.P,C9,2*
G04 #@! TO.N,GNDA*
X101995000Y-73660000D03*
D10*
G04 #@! TO.N,Net-(C10-Pad2)*
G04 #@! TO.C,C10*
G36*
X100590779Y-72261144D02*
X100613834Y-72264563D01*
X100636443Y-72270227D01*
X100658387Y-72278079D01*
X100679457Y-72288044D01*
X100699448Y-72300026D01*
X100718168Y-72313910D01*
X100735438Y-72329562D01*
X100751090Y-72346832D01*
X100764974Y-72365552D01*
X100776956Y-72385543D01*
X100786921Y-72406613D01*
X100794773Y-72428557D01*
X100800437Y-72451166D01*
X100803856Y-72474221D01*
X100805000Y-72497500D01*
X100805000Y-73072500D01*
X100803856Y-73095779D01*
X100800437Y-73118834D01*
X100794773Y-73141443D01*
X100786921Y-73163387D01*
X100776956Y-73184457D01*
X100764974Y-73204448D01*
X100751090Y-73223168D01*
X100735438Y-73240438D01*
X100718168Y-73256090D01*
X100699448Y-73269974D01*
X100679457Y-73281956D01*
X100658387Y-73291921D01*
X100636443Y-73299773D01*
X100613834Y-73305437D01*
X100590779Y-73308856D01*
X100567500Y-73310000D01*
X100092500Y-73310000D01*
X100069221Y-73308856D01*
X100046166Y-73305437D01*
X100023557Y-73299773D01*
X100001613Y-73291921D01*
X99980543Y-73281956D01*
X99960552Y-73269974D01*
X99941832Y-73256090D01*
X99924562Y-73240438D01*
X99908910Y-73223168D01*
X99895026Y-73204448D01*
X99883044Y-73184457D01*
X99873079Y-73163387D01*
X99865227Y-73141443D01*
X99859563Y-73118834D01*
X99856144Y-73095779D01*
X99855000Y-73072500D01*
X99855000Y-72497500D01*
X99856144Y-72474221D01*
X99859563Y-72451166D01*
X99865227Y-72428557D01*
X99873079Y-72406613D01*
X99883044Y-72385543D01*
X99895026Y-72365552D01*
X99908910Y-72346832D01*
X99924562Y-72329562D01*
X99941832Y-72313910D01*
X99960552Y-72300026D01*
X99980543Y-72288044D01*
X100001613Y-72278079D01*
X100023557Y-72270227D01*
X100046166Y-72264563D01*
X100069221Y-72261144D01*
X100092500Y-72260000D01*
X100567500Y-72260000D01*
X100590779Y-72261144D01*
X100590779Y-72261144D01*
G37*
D11*
G04 #@! TD*
G04 #@! TO.P,C10,2*
G04 #@! TO.N,Net-(C10-Pad2)*
X100330000Y-72785000D03*
D10*
G04 #@! TO.N,GNDA*
G04 #@! TO.C,C10*
G36*
X100590779Y-74011144D02*
X100613834Y-74014563D01*
X100636443Y-74020227D01*
X100658387Y-74028079D01*
X100679457Y-74038044D01*
X100699448Y-74050026D01*
X100718168Y-74063910D01*
X100735438Y-74079562D01*
X100751090Y-74096832D01*
X100764974Y-74115552D01*
X100776956Y-74135543D01*
X100786921Y-74156613D01*
X100794773Y-74178557D01*
X100800437Y-74201166D01*
X100803856Y-74224221D01*
X100805000Y-74247500D01*
X100805000Y-74822500D01*
X100803856Y-74845779D01*
X100800437Y-74868834D01*
X100794773Y-74891443D01*
X100786921Y-74913387D01*
X100776956Y-74934457D01*
X100764974Y-74954448D01*
X100751090Y-74973168D01*
X100735438Y-74990438D01*
X100718168Y-75006090D01*
X100699448Y-75019974D01*
X100679457Y-75031956D01*
X100658387Y-75041921D01*
X100636443Y-75049773D01*
X100613834Y-75055437D01*
X100590779Y-75058856D01*
X100567500Y-75060000D01*
X100092500Y-75060000D01*
X100069221Y-75058856D01*
X100046166Y-75055437D01*
X100023557Y-75049773D01*
X100001613Y-75041921D01*
X99980543Y-75031956D01*
X99960552Y-75019974D01*
X99941832Y-75006090D01*
X99924562Y-74990438D01*
X99908910Y-74973168D01*
X99895026Y-74954448D01*
X99883044Y-74934457D01*
X99873079Y-74913387D01*
X99865227Y-74891443D01*
X99859563Y-74868834D01*
X99856144Y-74845779D01*
X99855000Y-74822500D01*
X99855000Y-74247500D01*
X99856144Y-74224221D01*
X99859563Y-74201166D01*
X99865227Y-74178557D01*
X99873079Y-74156613D01*
X99883044Y-74135543D01*
X99895026Y-74115552D01*
X99908910Y-74096832D01*
X99924562Y-74079562D01*
X99941832Y-74063910D01*
X99960552Y-74050026D01*
X99980543Y-74038044D01*
X100001613Y-74028079D01*
X100023557Y-74020227D01*
X100046166Y-74014563D01*
X100069221Y-74011144D01*
X100092500Y-74010000D01*
X100567500Y-74010000D01*
X100590779Y-74011144D01*
X100590779Y-74011144D01*
G37*
D11*
G04 #@! TD*
G04 #@! TO.P,C10,1*
G04 #@! TO.N,GNDA*
X100330000Y-74535000D03*
D10*
G04 #@! TO.N,Net-(C11-Pad1)*
G04 #@! TO.C,C11*
G36*
X99320779Y-72261144D02*
X99343834Y-72264563D01*
X99366443Y-72270227D01*
X99388387Y-72278079D01*
X99409457Y-72288044D01*
X99429448Y-72300026D01*
X99448168Y-72313910D01*
X99465438Y-72329562D01*
X99481090Y-72346832D01*
X99494974Y-72365552D01*
X99506956Y-72385543D01*
X99516921Y-72406613D01*
X99524773Y-72428557D01*
X99530437Y-72451166D01*
X99533856Y-72474221D01*
X99535000Y-72497500D01*
X99535000Y-73072500D01*
X99533856Y-73095779D01*
X99530437Y-73118834D01*
X99524773Y-73141443D01*
X99516921Y-73163387D01*
X99506956Y-73184457D01*
X99494974Y-73204448D01*
X99481090Y-73223168D01*
X99465438Y-73240438D01*
X99448168Y-73256090D01*
X99429448Y-73269974D01*
X99409457Y-73281956D01*
X99388387Y-73291921D01*
X99366443Y-73299773D01*
X99343834Y-73305437D01*
X99320779Y-73308856D01*
X99297500Y-73310000D01*
X98822500Y-73310000D01*
X98799221Y-73308856D01*
X98776166Y-73305437D01*
X98753557Y-73299773D01*
X98731613Y-73291921D01*
X98710543Y-73281956D01*
X98690552Y-73269974D01*
X98671832Y-73256090D01*
X98654562Y-73240438D01*
X98638910Y-73223168D01*
X98625026Y-73204448D01*
X98613044Y-73184457D01*
X98603079Y-73163387D01*
X98595227Y-73141443D01*
X98589563Y-73118834D01*
X98586144Y-73095779D01*
X98585000Y-73072500D01*
X98585000Y-72497500D01*
X98586144Y-72474221D01*
X98589563Y-72451166D01*
X98595227Y-72428557D01*
X98603079Y-72406613D01*
X98613044Y-72385543D01*
X98625026Y-72365552D01*
X98638910Y-72346832D01*
X98654562Y-72329562D01*
X98671832Y-72313910D01*
X98690552Y-72300026D01*
X98710543Y-72288044D01*
X98731613Y-72278079D01*
X98753557Y-72270227D01*
X98776166Y-72264563D01*
X98799221Y-72261144D01*
X98822500Y-72260000D01*
X99297500Y-72260000D01*
X99320779Y-72261144D01*
X99320779Y-72261144D01*
G37*
D11*
G04 #@! TD*
G04 #@! TO.P,C11,1*
G04 #@! TO.N,Net-(C11-Pad1)*
X99060000Y-72785000D03*
D10*
G04 #@! TO.N,GNDA*
G04 #@! TO.C,C11*
G36*
X99320779Y-74011144D02*
X99343834Y-74014563D01*
X99366443Y-74020227D01*
X99388387Y-74028079D01*
X99409457Y-74038044D01*
X99429448Y-74050026D01*
X99448168Y-74063910D01*
X99465438Y-74079562D01*
X99481090Y-74096832D01*
X99494974Y-74115552D01*
X99506956Y-74135543D01*
X99516921Y-74156613D01*
X99524773Y-74178557D01*
X99530437Y-74201166D01*
X99533856Y-74224221D01*
X99535000Y-74247500D01*
X99535000Y-74822500D01*
X99533856Y-74845779D01*
X99530437Y-74868834D01*
X99524773Y-74891443D01*
X99516921Y-74913387D01*
X99506956Y-74934457D01*
X99494974Y-74954448D01*
X99481090Y-74973168D01*
X99465438Y-74990438D01*
X99448168Y-75006090D01*
X99429448Y-75019974D01*
X99409457Y-75031956D01*
X99388387Y-75041921D01*
X99366443Y-75049773D01*
X99343834Y-75055437D01*
X99320779Y-75058856D01*
X99297500Y-75060000D01*
X98822500Y-75060000D01*
X98799221Y-75058856D01*
X98776166Y-75055437D01*
X98753557Y-75049773D01*
X98731613Y-75041921D01*
X98710543Y-75031956D01*
X98690552Y-75019974D01*
X98671832Y-75006090D01*
X98654562Y-74990438D01*
X98638910Y-74973168D01*
X98625026Y-74954448D01*
X98613044Y-74934457D01*
X98603079Y-74913387D01*
X98595227Y-74891443D01*
X98589563Y-74868834D01*
X98586144Y-74845779D01*
X98585000Y-74822500D01*
X98585000Y-74247500D01*
X98586144Y-74224221D01*
X98589563Y-74201166D01*
X98595227Y-74178557D01*
X98603079Y-74156613D01*
X98613044Y-74135543D01*
X98625026Y-74115552D01*
X98638910Y-74096832D01*
X98654562Y-74079562D01*
X98671832Y-74063910D01*
X98690552Y-74050026D01*
X98710543Y-74038044D01*
X98731613Y-74028079D01*
X98753557Y-74020227D01*
X98776166Y-74014563D01*
X98799221Y-74011144D01*
X98822500Y-74010000D01*
X99297500Y-74010000D01*
X99320779Y-74011144D01*
X99320779Y-74011144D01*
G37*
D11*
G04 #@! TD*
G04 #@! TO.P,C11,2*
G04 #@! TO.N,GNDA*
X99060000Y-74535000D03*
D10*
G04 #@! TO.N,+5VA*
G04 #@! TO.C,C12*
G36*
X109480779Y-54481144D02*
X109503834Y-54484563D01*
X109526443Y-54490227D01*
X109548387Y-54498079D01*
X109569457Y-54508044D01*
X109589448Y-54520026D01*
X109608168Y-54533910D01*
X109625438Y-54549562D01*
X109641090Y-54566832D01*
X109654974Y-54585552D01*
X109666956Y-54605543D01*
X109676921Y-54626613D01*
X109684773Y-54648557D01*
X109690437Y-54671166D01*
X109693856Y-54694221D01*
X109695000Y-54717500D01*
X109695000Y-55292500D01*
X109693856Y-55315779D01*
X109690437Y-55338834D01*
X109684773Y-55361443D01*
X109676921Y-55383387D01*
X109666956Y-55404457D01*
X109654974Y-55424448D01*
X109641090Y-55443168D01*
X109625438Y-55460438D01*
X109608168Y-55476090D01*
X109589448Y-55489974D01*
X109569457Y-55501956D01*
X109548387Y-55511921D01*
X109526443Y-55519773D01*
X109503834Y-55525437D01*
X109480779Y-55528856D01*
X109457500Y-55530000D01*
X108982500Y-55530000D01*
X108959221Y-55528856D01*
X108936166Y-55525437D01*
X108913557Y-55519773D01*
X108891613Y-55511921D01*
X108870543Y-55501956D01*
X108850552Y-55489974D01*
X108831832Y-55476090D01*
X108814562Y-55460438D01*
X108798910Y-55443168D01*
X108785026Y-55424448D01*
X108773044Y-55404457D01*
X108763079Y-55383387D01*
X108755227Y-55361443D01*
X108749563Y-55338834D01*
X108746144Y-55315779D01*
X108745000Y-55292500D01*
X108745000Y-54717500D01*
X108746144Y-54694221D01*
X108749563Y-54671166D01*
X108755227Y-54648557D01*
X108763079Y-54626613D01*
X108773044Y-54605543D01*
X108785026Y-54585552D01*
X108798910Y-54566832D01*
X108814562Y-54549562D01*
X108831832Y-54533910D01*
X108850552Y-54520026D01*
X108870543Y-54508044D01*
X108891613Y-54498079D01*
X108913557Y-54490227D01*
X108936166Y-54484563D01*
X108959221Y-54481144D01*
X108982500Y-54480000D01*
X109457500Y-54480000D01*
X109480779Y-54481144D01*
X109480779Y-54481144D01*
G37*
D11*
G04 #@! TD*
G04 #@! TO.P,C12,1*
G04 #@! TO.N,+5VA*
X109220000Y-55005000D03*
D10*
G04 #@! TO.N,GNDA*
G04 #@! TO.C,C12*
G36*
X109480779Y-56231144D02*
X109503834Y-56234563D01*
X109526443Y-56240227D01*
X109548387Y-56248079D01*
X109569457Y-56258044D01*
X109589448Y-56270026D01*
X109608168Y-56283910D01*
X109625438Y-56299562D01*
X109641090Y-56316832D01*
X109654974Y-56335552D01*
X109666956Y-56355543D01*
X109676921Y-56376613D01*
X109684773Y-56398557D01*
X109690437Y-56421166D01*
X109693856Y-56444221D01*
X109695000Y-56467500D01*
X109695000Y-57042500D01*
X109693856Y-57065779D01*
X109690437Y-57088834D01*
X109684773Y-57111443D01*
X109676921Y-57133387D01*
X109666956Y-57154457D01*
X109654974Y-57174448D01*
X109641090Y-57193168D01*
X109625438Y-57210438D01*
X109608168Y-57226090D01*
X109589448Y-57239974D01*
X109569457Y-57251956D01*
X109548387Y-57261921D01*
X109526443Y-57269773D01*
X109503834Y-57275437D01*
X109480779Y-57278856D01*
X109457500Y-57280000D01*
X108982500Y-57280000D01*
X108959221Y-57278856D01*
X108936166Y-57275437D01*
X108913557Y-57269773D01*
X108891613Y-57261921D01*
X108870543Y-57251956D01*
X108850552Y-57239974D01*
X108831832Y-57226090D01*
X108814562Y-57210438D01*
X108798910Y-57193168D01*
X108785026Y-57174448D01*
X108773044Y-57154457D01*
X108763079Y-57133387D01*
X108755227Y-57111443D01*
X108749563Y-57088834D01*
X108746144Y-57065779D01*
X108745000Y-57042500D01*
X108745000Y-56467500D01*
X108746144Y-56444221D01*
X108749563Y-56421166D01*
X108755227Y-56398557D01*
X108763079Y-56376613D01*
X108773044Y-56355543D01*
X108785026Y-56335552D01*
X108798910Y-56316832D01*
X108814562Y-56299562D01*
X108831832Y-56283910D01*
X108850552Y-56270026D01*
X108870543Y-56258044D01*
X108891613Y-56248079D01*
X108913557Y-56240227D01*
X108936166Y-56234563D01*
X108959221Y-56231144D01*
X108982500Y-56230000D01*
X109457500Y-56230000D01*
X109480779Y-56231144D01*
X109480779Y-56231144D01*
G37*
D11*
G04 #@! TD*
G04 #@! TO.P,C12,2*
G04 #@! TO.N,GNDA*
X109220000Y-56755000D03*
D12*
G04 #@! TO.P,J1,1*
G04 #@! TO.N,+5V*
X91440000Y-76200000D03*
D13*
G04 #@! TO.P,J1,2*
G04 #@! TO.N,GND*
X91440000Y-73660000D03*
G04 #@! TO.P,J1,3*
G04 #@! TO.N,Net-(J1-Pad3)*
X91440000Y-71120000D03*
G04 #@! TO.P,J1,4*
G04 #@! TO.N,Net-(J1-Pad4)*
X91440000Y-68580000D03*
G04 #@! TO.P,J1,5*
G04 #@! TO.N,Net-(J1-Pad5)*
X91440000Y-66040000D03*
G04 #@! TO.P,J1,6*
G04 #@! TO.N,Net-(J1-Pad6)*
X91440000Y-63500000D03*
G04 #@! TO.P,J1,7*
G04 #@! TO.N,Net-(J1-Pad7)*
X91440000Y-60960000D03*
G04 #@! TO.P,J1,8*
G04 #@! TO.N,Net-(J1-Pad8)*
X91440000Y-58420000D03*
G04 #@! TO.P,J1,9*
G04 #@! TO.N,Net-(J1-Pad9)*
X91440000Y-55880000D03*
G04 #@! TD*
G04 #@! TO.P,J2,9*
G04 #@! TO.N,Net-(J2-Pad9)*
X111440000Y-76200000D03*
G04 #@! TO.P,J2,8*
G04 #@! TO.N,Net-(J2-Pad8)*
X111440000Y-73660000D03*
G04 #@! TO.P,J2,7*
G04 #@! TO.N,Net-(J2-Pad7)*
X111440000Y-71120000D03*
G04 #@! TO.P,J2,6*
G04 #@! TO.N,Net-(J2-Pad6)*
X111440000Y-68580000D03*
G04 #@! TO.P,J2,5*
G04 #@! TO.N,Net-(J2-Pad5)*
X111440000Y-66040000D03*
G04 #@! TO.P,J2,4*
G04 #@! TO.N,Net-(J2-Pad4)*
X111440000Y-63500000D03*
G04 #@! TO.P,J2,3*
G04 #@! TO.N,Net-(J2-Pad3)*
X111440000Y-60960000D03*
G04 #@! TO.P,J2,2*
G04 #@! TO.N,GNDA*
X111440000Y-58420000D03*
D12*
G04 #@! TO.P,J2,1*
G04 #@! TO.N,+5VA*
X111440000Y-55880000D03*
G04 #@! TD*
D14*
G04 #@! TO.P,U1,1*
G04 #@! TO.N,Net-(C2-Pad2)*
X104190000Y-61690000D03*
G04 #@! TO.P,U1,2*
G04 #@! TO.N,Net-(U1-Pad2)*
X103690000Y-61690000D03*
G04 #@! TO.P,U1,3*
G04 #@! TO.N,Net-(C3-Pad1)*
X103190000Y-61690000D03*
G04 #@! TO.P,U1,4*
G04 #@! TO.N,Net-(U1-Pad4)*
X102690000Y-61690000D03*
G04 #@! TO.P,U1,5*
G04 #@! TO.N,GND*
X102190000Y-61690000D03*
G04 #@! TO.P,U1,6*
G04 #@! TO.N,Net-(U1-Pad6)*
X101690000Y-61690000D03*
G04 #@! TO.P,U1,7*
G04 #@! TO.N,+5V*
X101190000Y-61690000D03*
G04 #@! TO.P,U1,8*
G04 #@! TO.N,Net-(U1-Pad8)*
X100690000Y-61690000D03*
G04 #@! TO.P,U1,9*
G04 #@! TO.N,GND*
X100190000Y-61690000D03*
G04 #@! TO.P,U1,10*
G04 #@! TO.N,Net-(J1-Pad9)*
X99690000Y-61690000D03*
G04 #@! TO.P,U1,11*
G04 #@! TO.N,Net-(U1-Pad11)*
X99190000Y-61690000D03*
G04 #@! TO.P,U1,12*
G04 #@! TO.N,Net-(C4-Pad2)*
X98690000Y-61690000D03*
D15*
G04 #@! TO.P,U1,13*
G04 #@! TO.N,Net-(J1-Pad8)*
X97090000Y-63290000D03*
G04 #@! TO.P,U1,14*
G04 #@! TO.N,Net-(J1-Pad7)*
X97090000Y-63790000D03*
G04 #@! TO.P,U1,15*
G04 #@! TO.N,Net-(J1-Pad6)*
X97090000Y-64290000D03*
G04 #@! TO.P,U1,16*
G04 #@! TO.N,Net-(J1-Pad3)*
X97090000Y-64790000D03*
G04 #@! TO.P,U1,17*
G04 #@! TO.N,Net-(J1-Pad5)*
X97090000Y-65290000D03*
G04 #@! TO.P,U1,18*
G04 #@! TO.N,Net-(J1-Pad4)*
X97090000Y-65790000D03*
G04 #@! TO.P,U1,19*
G04 #@! TO.N,Net-(U1-Pad19)*
X97090000Y-66290000D03*
G04 #@! TO.P,U1,20*
G04 #@! TO.N,+5VA*
X97090000Y-66790000D03*
G04 #@! TO.P,U1,21*
G04 #@! TO.N,Net-(U1-Pad21)*
X97090000Y-67290000D03*
G04 #@! TO.P,U1,22*
G04 #@! TO.N,Net-(U1-Pad22)*
X97090000Y-67790000D03*
G04 #@! TO.P,U1,23*
G04 #@! TO.N,GNDA*
X97090000Y-68290000D03*
G04 #@! TO.P,U1,24*
G04 #@! TO.N,Net-(U1-Pad24)*
X97090000Y-68790000D03*
D14*
G04 #@! TO.P,U1,25*
G04 #@! TO.N,Net-(C11-Pad1)*
X98690000Y-70390000D03*
G04 #@! TO.P,U1,26*
G04 #@! TO.N,Net-(U1-Pad26)*
X99190000Y-70390000D03*
G04 #@! TO.P,U1,27*
G04 #@! TO.N,Net-(C10-Pad2)*
X99690000Y-70390000D03*
G04 #@! TO.P,U1,28*
G04 #@! TO.N,Net-(U1-Pad28)*
X100190000Y-70390000D03*
G04 #@! TO.P,U1,29*
G04 #@! TO.N,GNDA*
X100690000Y-70390000D03*
G04 #@! TO.P,U1,30*
G04 #@! TO.N,Net-(U1-Pad30)*
X101190000Y-70390000D03*
G04 #@! TO.P,U1,31*
G04 #@! TO.N,+5VA*
X101690000Y-70390000D03*
G04 #@! TO.P,U1,32*
G04 #@! TO.N,Net-(U1-Pad32)*
X102190000Y-70390000D03*
G04 #@! TO.P,U1,33*
G04 #@! TO.N,GNDA*
X102690000Y-70390000D03*
G04 #@! TO.P,U1,34*
G04 #@! TO.N,Net-(J2-Pad9)*
X103190000Y-70390000D03*
G04 #@! TO.P,U1,35*
G04 #@! TO.N,Net-(U1-Pad35)*
X103690000Y-70390000D03*
G04 #@! TO.P,U1,36*
G04 #@! TO.N,Net-(C9-Pad1)*
X104190000Y-70390000D03*
D15*
G04 #@! TO.P,U1,37*
G04 #@! TO.N,Net-(J2-Pad8)*
X105790000Y-68790000D03*
G04 #@! TO.P,U1,38*
G04 #@! TO.N,Net-(J2-Pad7)*
X105790000Y-68290000D03*
G04 #@! TO.P,U1,39*
G04 #@! TO.N,Net-(J2-Pad6)*
X105790000Y-67790000D03*
G04 #@! TO.P,U1,40*
G04 #@! TO.N,Net-(J2-Pad3)*
X105790000Y-67290000D03*
G04 #@! TO.P,U1,41*
G04 #@! TO.N,Net-(J2-Pad5)*
X105790000Y-66790000D03*
G04 #@! TO.P,U1,42*
G04 #@! TO.N,Net-(J2-Pad4)*
X105790000Y-66290000D03*
G04 #@! TO.P,U1,43*
G04 #@! TO.N,Net-(U1-Pad43)*
X105790000Y-65790000D03*
G04 #@! TO.P,U1,44*
G04 #@! TO.N,+5V*
X105790000Y-65290000D03*
G04 #@! TO.P,U1,45*
G04 #@! TO.N,Net-(U1-Pad45)*
X105790000Y-64790000D03*
G04 #@! TO.P,U1,46*
G04 #@! TO.N,Net-(U1-Pad46)*
X105790000Y-64290000D03*
G04 #@! TO.P,U1,47*
G04 #@! TO.N,GND*
X105790000Y-63790000D03*
G04 #@! TO.P,U1,48*
G04 #@! TO.N,Net-(U1-Pad48)*
X105790000Y-63290000D03*
G04 #@! TD*
D16*
G04 #@! TO.N,+5V*
X102870000Y-66040000D03*
X97790000Y-76200000D03*
G04 #@! TO.N,+5VA*
X100330000Y-66040000D03*
X105410000Y-55880000D03*
G04 #@! TD*
D17*
G04 #@! TO.N,GND*
X91835000Y-74055000D02*
X91440000Y-73660000D01*
X102870000Y-57545000D02*
X104140000Y-57545000D01*
X100190000Y-60829998D02*
X100190000Y-60960000D01*
X100304999Y-60714999D02*
X100190000Y-60829998D01*
X102114999Y-60714999D02*
X100304999Y-60714999D01*
X102190000Y-60790000D02*
X102114999Y-60714999D01*
X102190000Y-61690000D02*
X102190000Y-60790000D01*
X100190000Y-61690000D02*
X100190000Y-60960000D01*
X89719990Y-55060010D02*
X90274072Y-54505928D01*
X89719990Y-71939990D02*
X89719990Y-55060010D01*
X91440000Y-73660000D02*
X89719990Y-71939990D01*
X102190000Y-62590000D02*
X102190000Y-61690000D01*
X103390000Y-63790000D02*
X102190000Y-62590000D01*
X105790000Y-63790000D02*
X103390000Y-63790000D01*
X96520000Y-75325000D02*
X93980000Y-75325000D01*
X93105000Y-75325000D02*
X93980000Y-75325000D01*
X91440000Y-73660000D02*
X93105000Y-75325000D01*
X102080000Y-57545000D02*
X101205000Y-58420000D01*
X102870000Y-57545000D02*
X102080000Y-57545000D01*
X101205000Y-58995000D02*
X100330000Y-59870000D01*
X101205000Y-58420000D02*
X101205000Y-58995000D01*
X100330000Y-59870000D02*
X100330000Y-60714999D01*
X101205000Y-57845000D02*
X101205000Y-58420000D01*
X97865928Y-54505928D02*
X101205000Y-57845000D01*
X90274072Y-54505928D02*
X97865928Y-54505928D01*
G04 #@! TO.N,+5V*
X91835000Y-75805000D02*
X91440000Y-76200000D01*
X104890000Y-65290000D02*
X105790000Y-65290000D01*
X103890000Y-65290000D02*
X104890000Y-65290000D01*
X101190000Y-62590000D02*
X103890000Y-65290000D01*
X101190000Y-61690000D02*
X101190000Y-62590000D01*
X103620000Y-65290000D02*
X103890000Y-65290000D01*
X102870000Y-66040000D02*
X103620000Y-65290000D01*
X92315000Y-77075000D02*
X91440000Y-76200000D01*
X96520000Y-77075000D02*
X92315000Y-77075000D01*
X96520000Y-77075000D02*
X97395000Y-76200000D01*
X97395000Y-76200000D02*
X97790000Y-76200000D01*
G04 #@! TO.N,Net-(C2-Pad2)*
X104190000Y-59345000D02*
X104140000Y-59295000D01*
X104190000Y-61690000D02*
X104190000Y-59345000D01*
G04 #@! TO.N,Net-(C3-Pad1)*
X103190000Y-60790000D02*
X103190000Y-61690000D01*
X103190000Y-60240000D02*
X103190000Y-60790000D01*
X102870000Y-59920000D02*
X103190000Y-60240000D01*
X102870000Y-59295000D02*
X102870000Y-59920000D01*
G04 #@! TO.N,Net-(C4-Pad2)*
X98690000Y-59185000D02*
X99455000Y-58420000D01*
X98690000Y-61690000D02*
X98690000Y-59185000D01*
G04 #@! TO.N,GNDA*
X100690000Y-70390000D02*
X100690000Y-71290000D01*
X111045000Y-58025000D02*
X111440000Y-58420000D01*
X100330000Y-74535000D02*
X99060000Y-74535000D01*
X113065011Y-76313991D02*
X111804930Y-77574072D01*
X113065011Y-60045011D02*
X113065011Y-76313991D01*
X111440000Y-58420000D02*
X113065011Y-60045011D01*
X100690000Y-69490000D02*
X100690000Y-70390000D01*
X99490000Y-68290000D02*
X100690000Y-69490000D01*
X97090000Y-68290000D02*
X99490000Y-68290000D01*
X109775000Y-56755000D02*
X111440000Y-58420000D01*
X106680000Y-56755000D02*
X109775000Y-56755000D01*
X101205000Y-73660000D02*
X100330000Y-74535000D01*
X101995000Y-73660000D02*
X101205000Y-73660000D01*
X101995000Y-73660000D02*
X101995000Y-71995000D01*
X102690000Y-71300000D02*
X102690000Y-70390000D01*
X101995000Y-71995000D02*
X102690000Y-71300000D01*
X102624999Y-71365001D02*
X102690000Y-71300000D01*
X100765001Y-71365001D02*
X102624999Y-71365001D01*
X100690000Y-71290000D02*
X100765001Y-71365001D01*
X101995000Y-74235000D02*
X101995000Y-73660000D01*
X105334072Y-77574072D02*
X101995000Y-74235000D01*
X111804930Y-77574072D02*
X105334072Y-77574072D01*
G04 #@! TO.N,+5VA*
X111045000Y-56275000D02*
X111440000Y-55880000D01*
X97990000Y-66790000D02*
X97090000Y-66790000D01*
X98990000Y-66790000D02*
X97990000Y-66790000D01*
X101690000Y-69490000D02*
X98990000Y-66790000D01*
X101690000Y-70390000D02*
X101690000Y-69490000D01*
X99740000Y-66040000D02*
X98990000Y-66790000D01*
X100330000Y-66040000D02*
X99740000Y-66040000D01*
X110565000Y-55005000D02*
X111440000Y-55880000D01*
X106680000Y-55005000D02*
X110565000Y-55005000D01*
X106680000Y-55005000D02*
X106285000Y-55005000D01*
X106285000Y-55005000D02*
X105410000Y-55880000D01*
G04 #@! TO.N,Net-(C9-Pad1)*
X104190000Y-73215000D02*
X103745000Y-73660000D01*
X104190000Y-70390000D02*
X104190000Y-73215000D01*
G04 #@! TO.N,Net-(C10-Pad2)*
X99690000Y-72145000D02*
X100330000Y-72785000D01*
X99690000Y-70390000D02*
X99690000Y-72145000D01*
G04 #@! TO.N,Net-(C11-Pad1)*
X98690000Y-71290000D02*
X98690000Y-70390000D01*
X98690000Y-71790000D02*
X98690000Y-71290000D01*
X99060000Y-72160000D02*
X98690000Y-71790000D01*
X99060000Y-72785000D02*
X99060000Y-72160000D01*
G04 #@! TO.N,Net-(J1-Pad3)*
X97090000Y-64790000D02*
X90190000Y-64790000D01*
X90190000Y-64790000D02*
X90170000Y-64810000D01*
X90170000Y-69850000D02*
X91440000Y-71120000D01*
X90170000Y-64810000D02*
X90170000Y-69850000D01*
G04 #@! TO.N,Net-(J1-Pad4)*
X96190000Y-65790000D02*
X93400000Y-68580000D01*
X97090000Y-65790000D02*
X96190000Y-65790000D01*
X93400000Y-68580000D02*
X91440000Y-68580000D01*
G04 #@! TO.N,Net-(J1-Pad5)*
X92190000Y-65290000D02*
X91440000Y-66040000D01*
X97090000Y-65290000D02*
X92190000Y-65290000D01*
G04 #@! TO.N,Net-(J1-Pad6)*
X92230000Y-64290000D02*
X91440000Y-63500000D01*
X97090000Y-64290000D02*
X92230000Y-64290000D01*
G04 #@! TO.N,Net-(J1-Pad7)*
X94270000Y-63790000D02*
X91440000Y-60960000D01*
X97090000Y-63790000D02*
X94270000Y-63790000D01*
G04 #@! TO.N,Net-(J1-Pad8)*
X97090000Y-63290000D02*
X96565000Y-63290000D01*
X97090000Y-63290000D02*
X94406410Y-63290000D01*
X94406410Y-63290000D02*
X92710000Y-61593590D01*
X92710000Y-61593590D02*
X92710000Y-59690000D01*
X92710000Y-59690000D02*
X91440000Y-58420000D01*
G04 #@! TO.N,Net-(J1-Pad9)*
X91440000Y-55880000D02*
X97790000Y-55880000D01*
X99690000Y-59505510D02*
X100330000Y-58865510D01*
X99690000Y-61690000D02*
X99690000Y-59505510D01*
X98235510Y-55880000D02*
X97790000Y-55880000D01*
X100330000Y-57974490D02*
X98235510Y-55880000D01*
X100330000Y-58865510D02*
X100330000Y-57974490D01*
G04 #@! TO.N,Net-(J2-Pad9)*
X105410000Y-76200000D02*
X111440000Y-76200000D01*
X103190000Y-70390000D02*
X103190000Y-72340010D01*
X104964490Y-76200000D02*
X105410000Y-76200000D01*
X102870000Y-74105510D02*
X104964490Y-76200000D01*
X102870000Y-72660010D02*
X102870000Y-74105510D01*
X103190000Y-72340010D02*
X102870000Y-72660010D01*
G04 #@! TO.N,Net-(J2-Pad8)*
X105790000Y-68790000D02*
X106315000Y-68790000D01*
X106470000Y-68790000D02*
X106519990Y-68740010D01*
X105790000Y-68790000D02*
X106470000Y-68790000D01*
X106519990Y-68740010D02*
X108743600Y-68740010D01*
X110590001Y-72810001D02*
X111440000Y-73660000D01*
X110039990Y-72259990D02*
X110590001Y-72810001D01*
X110039990Y-70036400D02*
X110039990Y-72259990D01*
X108743600Y-68740010D02*
X110039990Y-70036400D01*
G04 #@! TO.N,Net-(J2-Pad7)*
X110490000Y-70170000D02*
X111440000Y-71120000D01*
X110490000Y-69850000D02*
X110490000Y-70170000D01*
X105790000Y-68290000D02*
X108930000Y-68290000D01*
X108930000Y-68290000D02*
X110490000Y-69850000D01*
G04 #@! TO.N,Net-(J2-Pad6)*
X110650000Y-67790000D02*
X111440000Y-68580000D01*
X105790000Y-67790000D02*
X110650000Y-67790000D01*
G04 #@! TO.N,Net-(J2-Pad5)*
X110690000Y-66790000D02*
X111440000Y-66040000D01*
X105790000Y-66790000D02*
X110690000Y-66790000D01*
G04 #@! TO.N,Net-(J2-Pad4)*
X106690000Y-66290000D02*
X109480000Y-63500000D01*
X105790000Y-66290000D02*
X106690000Y-66290000D01*
X109480000Y-63500000D02*
X111440000Y-63500000D01*
G04 #@! TO.N,Net-(J2-Pad3)*
X112289999Y-61809999D02*
X111440000Y-60960000D01*
X112615001Y-62135001D02*
X112289999Y-61809999D01*
X112615001Y-66604001D02*
X112615001Y-62135001D01*
X111929002Y-67290000D02*
X112615001Y-66604001D01*
X105790000Y-67290000D02*
X111929002Y-67290000D01*
G04 #@! TD*
M02*
