M48
;DRILL file {KiCad (5.0.1)-3} date 28/01/2019 22:50:33
;FORMAT={-:-/ absolute / inch / decimal}
FMAT,2
INCH,TZ
T1C0.0157
T2C0.0394
%
G90
G05
M72
T1
X3.85Y-3.
X3.95Y-2.6
X4.05Y-2.6
X4.15Y-2.2
T2
X4.3874Y-2.2
X4.3874Y-2.3
X4.3874Y-2.4
X4.3874Y-2.5
X4.3874Y-2.6
X4.3874Y-2.7
X4.3874Y-2.8
X4.3874Y-2.9
X4.3874Y-3.
X3.6Y-2.2
X3.6Y-2.3
X3.6Y-2.4
X3.6Y-2.5
X3.6Y-2.6
X3.6Y-2.7
X3.6Y-2.8
X3.6Y-2.9
X3.6Y-3.
T0
M30
