G04 #@! TF.GenerationSoftware,KiCad,Pcbnew,(5.0.1)-3*
G04 #@! TF.CreationDate,2019-01-28T22:50:12+00:00*
G04 #@! TF.ProjectId,Encoder,456E636F6465722E6B696361645F7063,rev?*
G04 #@! TF.SameCoordinates,Original*
G04 #@! TF.FileFunction,Soldermask,Top*
G04 #@! TF.FilePolarity,Negative*
%FSLAX46Y46*%
G04 Gerber Fmt 4.6, Leading zero omitted, Abs format (unit mm)*
G04 Created by KiCad (PCBNEW (5.0.1)-3) date 28/01/2019 22:50:12*
%MOMM*%
%LPD*%
G01*
G04 APERTURE LIST*
%ADD10C,0.100000*%
G04 APERTURE END LIST*
D10*
G36*
X94433530Y-76355877D02*
X94485010Y-76371493D01*
X94532446Y-76396848D01*
X94535700Y-76399519D01*
X94556074Y-76413133D01*
X94578713Y-76422511D01*
X94602746Y-76427292D01*
X94627250Y-76427292D01*
X94651284Y-76422512D01*
X94673923Y-76413135D01*
X94694300Y-76399519D01*
X94697554Y-76396848D01*
X94744990Y-76371493D01*
X94796470Y-76355877D01*
X94856140Y-76350000D01*
X95643860Y-76350000D01*
X95703530Y-76355877D01*
X95755010Y-76371493D01*
X95802446Y-76396848D01*
X95805700Y-76399519D01*
X95826074Y-76413133D01*
X95848713Y-76422511D01*
X95872746Y-76427292D01*
X95897250Y-76427292D01*
X95921284Y-76422512D01*
X95943923Y-76413135D01*
X95964300Y-76399519D01*
X95967554Y-76396848D01*
X96014990Y-76371493D01*
X96066470Y-76355877D01*
X96126140Y-76350000D01*
X96913860Y-76350000D01*
X96973530Y-76355877D01*
X97025010Y-76371493D01*
X97072442Y-76396846D01*
X97114027Y-76430973D01*
X97148154Y-76472558D01*
X97173507Y-76519990D01*
X97189123Y-76571470D01*
X97195000Y-76631140D01*
X97195000Y-77518860D01*
X97189123Y-77578530D01*
X97173507Y-77630010D01*
X97148154Y-77677442D01*
X97114027Y-77719027D01*
X97072442Y-77753154D01*
X97025010Y-77778507D01*
X96973530Y-77794123D01*
X96913860Y-77800000D01*
X96126140Y-77800000D01*
X96066470Y-77794123D01*
X96014990Y-77778507D01*
X95967554Y-77753152D01*
X95964300Y-77750481D01*
X95943926Y-77736867D01*
X95921287Y-77727489D01*
X95897254Y-77722708D01*
X95872750Y-77722708D01*
X95848716Y-77727488D01*
X95826077Y-77736865D01*
X95805700Y-77750481D01*
X95802446Y-77753152D01*
X95755010Y-77778507D01*
X95703530Y-77794123D01*
X95643860Y-77800000D01*
X94856140Y-77800000D01*
X94796470Y-77794123D01*
X94744990Y-77778507D01*
X94697554Y-77753152D01*
X94694300Y-77750481D01*
X94673926Y-77736867D01*
X94651287Y-77727489D01*
X94627254Y-77722708D01*
X94602750Y-77722708D01*
X94578716Y-77727488D01*
X94556077Y-77736865D01*
X94535700Y-77750481D01*
X94532446Y-77753152D01*
X94485010Y-77778507D01*
X94433530Y-77794123D01*
X94373860Y-77800000D01*
X93586140Y-77800000D01*
X93526470Y-77794123D01*
X93474990Y-77778507D01*
X93427558Y-77753154D01*
X93385973Y-77719027D01*
X93351846Y-77677442D01*
X93326493Y-77630010D01*
X93310877Y-77578530D01*
X93305000Y-77518860D01*
X93305000Y-76631140D01*
X93310877Y-76571470D01*
X93326493Y-76519990D01*
X93351846Y-76472558D01*
X93385973Y-76430973D01*
X93427558Y-76396846D01*
X93474990Y-76371493D01*
X93526470Y-76355877D01*
X93586140Y-76350000D01*
X94373860Y-76350000D01*
X94433530Y-76355877D01*
X94433530Y-76355877D01*
G37*
G36*
X111568707Y-75157597D02*
X111645836Y-75165193D01*
X111770868Y-75203121D01*
X111843763Y-75225233D01*
X112026172Y-75322733D01*
X112186054Y-75453946D01*
X112317267Y-75613828D01*
X112414767Y-75796237D01*
X112414767Y-75796238D01*
X112474807Y-75994164D01*
X112495080Y-76200000D01*
X112474807Y-76405836D01*
X112454567Y-76472558D01*
X112414767Y-76603763D01*
X112317267Y-76786172D01*
X112186054Y-76946054D01*
X112026172Y-77077267D01*
X111843763Y-77174767D01*
X111777787Y-77194780D01*
X111645836Y-77234807D01*
X111568707Y-77242404D01*
X111491580Y-77250000D01*
X111388420Y-77250000D01*
X111311293Y-77242404D01*
X111234164Y-77234807D01*
X111102213Y-77194780D01*
X111036237Y-77174767D01*
X110853828Y-77077267D01*
X110693946Y-76946054D01*
X110562733Y-76786172D01*
X110465233Y-76603763D01*
X110425433Y-76472558D01*
X110405193Y-76405836D01*
X110384920Y-76200000D01*
X110405193Y-75994164D01*
X110465233Y-75796238D01*
X110465233Y-75796237D01*
X110562733Y-75613828D01*
X110693946Y-75453946D01*
X110853828Y-75322733D01*
X111036237Y-75225233D01*
X111109132Y-75203121D01*
X111234164Y-75165193D01*
X111311293Y-75157597D01*
X111388420Y-75150000D01*
X111491580Y-75150000D01*
X111568707Y-75157597D01*
X111568707Y-75157597D01*
G37*
G36*
X92490000Y-77250000D02*
X90390000Y-77250000D01*
X90390000Y-75150000D01*
X92490000Y-75150000D01*
X92490000Y-77250000D01*
X92490000Y-77250000D01*
G37*
G36*
X94433530Y-74605877D02*
X94485010Y-74621493D01*
X94532446Y-74646848D01*
X94535700Y-74649519D01*
X94556074Y-74663133D01*
X94578713Y-74672511D01*
X94602746Y-74677292D01*
X94627250Y-74677292D01*
X94651284Y-74672512D01*
X94673923Y-74663135D01*
X94694300Y-74649519D01*
X94697554Y-74646848D01*
X94744990Y-74621493D01*
X94796470Y-74605877D01*
X94856140Y-74600000D01*
X95643860Y-74600000D01*
X95703530Y-74605877D01*
X95755010Y-74621493D01*
X95802446Y-74646848D01*
X95805700Y-74649519D01*
X95826074Y-74663133D01*
X95848713Y-74672511D01*
X95872746Y-74677292D01*
X95897250Y-74677292D01*
X95921284Y-74672512D01*
X95943923Y-74663135D01*
X95964300Y-74649519D01*
X95967554Y-74646848D01*
X96014990Y-74621493D01*
X96066470Y-74605877D01*
X96126140Y-74600000D01*
X96913860Y-74600000D01*
X96973530Y-74605877D01*
X97025010Y-74621493D01*
X97072442Y-74646846D01*
X97114027Y-74680973D01*
X97148154Y-74722558D01*
X97173507Y-74769990D01*
X97189123Y-74821470D01*
X97195000Y-74881140D01*
X97195000Y-75768860D01*
X97189123Y-75828530D01*
X97173507Y-75880010D01*
X97148154Y-75927442D01*
X97114027Y-75969027D01*
X97072442Y-76003154D01*
X97025010Y-76028507D01*
X96973530Y-76044123D01*
X96913860Y-76050000D01*
X96126140Y-76050000D01*
X96066470Y-76044123D01*
X96014990Y-76028507D01*
X95967554Y-76003152D01*
X95964300Y-76000481D01*
X95943926Y-75986867D01*
X95921287Y-75977489D01*
X95897254Y-75972708D01*
X95872750Y-75972708D01*
X95848716Y-75977488D01*
X95826077Y-75986865D01*
X95805700Y-76000481D01*
X95802446Y-76003152D01*
X95755010Y-76028507D01*
X95703530Y-76044123D01*
X95643860Y-76050000D01*
X94856140Y-76050000D01*
X94796470Y-76044123D01*
X94744990Y-76028507D01*
X94697554Y-76003152D01*
X94694300Y-76000481D01*
X94673926Y-75986867D01*
X94651287Y-75977489D01*
X94627254Y-75972708D01*
X94602750Y-75972708D01*
X94578716Y-75977488D01*
X94556077Y-75986865D01*
X94535700Y-76000481D01*
X94532446Y-76003152D01*
X94485010Y-76028507D01*
X94433530Y-76044123D01*
X94373860Y-76050000D01*
X93586140Y-76050000D01*
X93526470Y-76044123D01*
X93474990Y-76028507D01*
X93427558Y-76003154D01*
X93385973Y-75969027D01*
X93351846Y-75927442D01*
X93326493Y-75880010D01*
X93310877Y-75828530D01*
X93305000Y-75768860D01*
X93305000Y-74881140D01*
X93310877Y-74821470D01*
X93326493Y-74769990D01*
X93351846Y-74722558D01*
X93385973Y-74680973D01*
X93427558Y-74646846D01*
X93474990Y-74621493D01*
X93526470Y-74605877D01*
X93586140Y-74600000D01*
X94373860Y-74600000D01*
X94433530Y-74605877D01*
X94433530Y-74605877D01*
G37*
G36*
X99513530Y-73815877D02*
X99565010Y-73831493D01*
X99612446Y-73856848D01*
X99615700Y-73859519D01*
X99636074Y-73873133D01*
X99658713Y-73882511D01*
X99682746Y-73887292D01*
X99707250Y-73887292D01*
X99731284Y-73882512D01*
X99753923Y-73873135D01*
X99774300Y-73859519D01*
X99777554Y-73856848D01*
X99824990Y-73831493D01*
X99876470Y-73815877D01*
X99936140Y-73810000D01*
X100723860Y-73810000D01*
X100783530Y-73815877D01*
X100835010Y-73831493D01*
X100882442Y-73856846D01*
X100924027Y-73890973D01*
X100958154Y-73932558D01*
X100983507Y-73979990D01*
X100999123Y-74031470D01*
X101005000Y-74091140D01*
X101005000Y-74978860D01*
X100999123Y-75038530D01*
X100983507Y-75090010D01*
X100958154Y-75137442D01*
X100924027Y-75179027D01*
X100882442Y-75213154D01*
X100835010Y-75238507D01*
X100783530Y-75254123D01*
X100723860Y-75260000D01*
X99936140Y-75260000D01*
X99876470Y-75254123D01*
X99824990Y-75238507D01*
X99777554Y-75213152D01*
X99774300Y-75210481D01*
X99753926Y-75196867D01*
X99731287Y-75187489D01*
X99707254Y-75182708D01*
X99682750Y-75182708D01*
X99658716Y-75187488D01*
X99636077Y-75196865D01*
X99615700Y-75210481D01*
X99612446Y-75213152D01*
X99565010Y-75238507D01*
X99513530Y-75254123D01*
X99453860Y-75260000D01*
X98666140Y-75260000D01*
X98606470Y-75254123D01*
X98554990Y-75238507D01*
X98507558Y-75213154D01*
X98465973Y-75179027D01*
X98431846Y-75137442D01*
X98406493Y-75090010D01*
X98390877Y-75038530D01*
X98385000Y-74978860D01*
X98385000Y-74091140D01*
X98390877Y-74031470D01*
X98406493Y-73979990D01*
X98431846Y-73932558D01*
X98465973Y-73890973D01*
X98507558Y-73856846D01*
X98554990Y-73831493D01*
X98606470Y-73815877D01*
X98666140Y-73810000D01*
X99453860Y-73810000D01*
X99513530Y-73815877D01*
X99513530Y-73815877D01*
G37*
G36*
X111568707Y-72617597D02*
X111645836Y-72625193D01*
X111777787Y-72665220D01*
X111843763Y-72685233D01*
X112026172Y-72782733D01*
X112186054Y-72913946D01*
X112317267Y-73073828D01*
X112414767Y-73256237D01*
X112414767Y-73256238D01*
X112474807Y-73454164D01*
X112495080Y-73660000D01*
X112474807Y-73865836D01*
X112454567Y-73932558D01*
X112414767Y-74063763D01*
X112317267Y-74246172D01*
X112186054Y-74406054D01*
X112026172Y-74537267D01*
X111843763Y-74634767D01*
X111795131Y-74649519D01*
X111645836Y-74694807D01*
X111568707Y-74702403D01*
X111491580Y-74710000D01*
X111388420Y-74710000D01*
X111311293Y-74702403D01*
X111234164Y-74694807D01*
X111084869Y-74649519D01*
X111036237Y-74634767D01*
X110853828Y-74537267D01*
X110693946Y-74406054D01*
X110562733Y-74246172D01*
X110465233Y-74063763D01*
X110425433Y-73932558D01*
X110405193Y-73865836D01*
X110384920Y-73660000D01*
X110405193Y-73454164D01*
X110465233Y-73256238D01*
X110465233Y-73256237D01*
X110562733Y-73073828D01*
X110693946Y-72913946D01*
X110853828Y-72782733D01*
X111036237Y-72685233D01*
X111102213Y-72665220D01*
X111234164Y-72625193D01*
X111311293Y-72617597D01*
X111388420Y-72610000D01*
X111491580Y-72610000D01*
X111568707Y-72617597D01*
X111568707Y-72617597D01*
G37*
G36*
X91568707Y-72617597D02*
X91645836Y-72625193D01*
X91777787Y-72665220D01*
X91843763Y-72685233D01*
X92026172Y-72782733D01*
X92186054Y-72913946D01*
X92317267Y-73073828D01*
X92414767Y-73256237D01*
X92414767Y-73256238D01*
X92474807Y-73454164D01*
X92495080Y-73660000D01*
X92474807Y-73865836D01*
X92454567Y-73932558D01*
X92414767Y-74063763D01*
X92317267Y-74246172D01*
X92186054Y-74406054D01*
X92026172Y-74537267D01*
X91843763Y-74634767D01*
X91795131Y-74649519D01*
X91645836Y-74694807D01*
X91568707Y-74702403D01*
X91491580Y-74710000D01*
X91388420Y-74710000D01*
X91311293Y-74702403D01*
X91234164Y-74694807D01*
X91084869Y-74649519D01*
X91036237Y-74634767D01*
X90853828Y-74537267D01*
X90693946Y-74406054D01*
X90562733Y-74246172D01*
X90465233Y-74063763D01*
X90425433Y-73932558D01*
X90405193Y-73865836D01*
X90384920Y-73660000D01*
X90405193Y-73454164D01*
X90465233Y-73256238D01*
X90465233Y-73256237D01*
X90562733Y-73073828D01*
X90693946Y-72913946D01*
X90853828Y-72782733D01*
X91036237Y-72685233D01*
X91102213Y-72665220D01*
X91234164Y-72625193D01*
X91311293Y-72617597D01*
X91388420Y-72610000D01*
X91491580Y-72610000D01*
X91568707Y-72617597D01*
X91568707Y-72617597D01*
G37*
G36*
X102498530Y-72990877D02*
X102550010Y-73006493D01*
X102597442Y-73031846D01*
X102639027Y-73065973D01*
X102673154Y-73107558D01*
X102698507Y-73154990D01*
X102714123Y-73206470D01*
X102720000Y-73266140D01*
X102720000Y-74053860D01*
X102714123Y-74113530D01*
X102698507Y-74165010D01*
X102673154Y-74212442D01*
X102639027Y-74254027D01*
X102597442Y-74288154D01*
X102550010Y-74313507D01*
X102498530Y-74329123D01*
X102438860Y-74335000D01*
X101551140Y-74335000D01*
X101491470Y-74329123D01*
X101439990Y-74313507D01*
X101392558Y-74288154D01*
X101350973Y-74254027D01*
X101316846Y-74212442D01*
X101291493Y-74165010D01*
X101275877Y-74113530D01*
X101270000Y-74053860D01*
X101270000Y-73266140D01*
X101275877Y-73206470D01*
X101291493Y-73154990D01*
X101316846Y-73107558D01*
X101350973Y-73065973D01*
X101392558Y-73031846D01*
X101439990Y-73006493D01*
X101491470Y-72990877D01*
X101551140Y-72985000D01*
X102438860Y-72985000D01*
X102498530Y-72990877D01*
X102498530Y-72990877D01*
G37*
G36*
X104248530Y-72990877D02*
X104300010Y-73006493D01*
X104347442Y-73031846D01*
X104389027Y-73065973D01*
X104423154Y-73107558D01*
X104448507Y-73154990D01*
X104464123Y-73206470D01*
X104470000Y-73266140D01*
X104470000Y-74053860D01*
X104464123Y-74113530D01*
X104448507Y-74165010D01*
X104423154Y-74212442D01*
X104389027Y-74254027D01*
X104347442Y-74288154D01*
X104300010Y-74313507D01*
X104248530Y-74329123D01*
X104188860Y-74335000D01*
X103301140Y-74335000D01*
X103241470Y-74329123D01*
X103189990Y-74313507D01*
X103142558Y-74288154D01*
X103100973Y-74254027D01*
X103066846Y-74212442D01*
X103041493Y-74165010D01*
X103025877Y-74113530D01*
X103020000Y-74053860D01*
X103020000Y-73266140D01*
X103025877Y-73206470D01*
X103041493Y-73154990D01*
X103066846Y-73107558D01*
X103100973Y-73065973D01*
X103142558Y-73031846D01*
X103189990Y-73006493D01*
X103241470Y-72990877D01*
X103301140Y-72985000D01*
X104188860Y-72985000D01*
X104248530Y-72990877D01*
X104248530Y-72990877D01*
G37*
G36*
X108249338Y-70716237D02*
X108445872Y-70755330D01*
X108755252Y-70883479D01*
X109033687Y-71069523D01*
X109270477Y-71306313D01*
X109456521Y-71584748D01*
X109506816Y-71706172D01*
X109584670Y-71894129D01*
X109650000Y-72222563D01*
X109650000Y-72557437D01*
X109606447Y-72776393D01*
X109584670Y-72885872D01*
X109456521Y-73195252D01*
X109270477Y-73473687D01*
X109033687Y-73710477D01*
X108755252Y-73896521D01*
X108445872Y-74024670D01*
X108336393Y-74046447D01*
X108117437Y-74090000D01*
X107782563Y-74090000D01*
X107563607Y-74046447D01*
X107454128Y-74024670D01*
X107144748Y-73896521D01*
X106866313Y-73710477D01*
X106629523Y-73473687D01*
X106443479Y-73195252D01*
X106315330Y-72885872D01*
X106293553Y-72776393D01*
X106250000Y-72557437D01*
X106250000Y-72222563D01*
X106315330Y-71894129D01*
X106393184Y-71706172D01*
X106443479Y-71584748D01*
X106629523Y-71306313D01*
X106866313Y-71069523D01*
X107144748Y-70883479D01*
X107454128Y-70755330D01*
X107650662Y-70716237D01*
X107782563Y-70690000D01*
X108117437Y-70690000D01*
X108249338Y-70716237D01*
X108249338Y-70716237D01*
G37*
G36*
X95549338Y-70716237D02*
X95745872Y-70755330D01*
X96055252Y-70883479D01*
X96333687Y-71069523D01*
X96570477Y-71306313D01*
X96756521Y-71584748D01*
X96806816Y-71706172D01*
X96884670Y-71894129D01*
X96950000Y-72222563D01*
X96950000Y-72557437D01*
X96906447Y-72776393D01*
X96884670Y-72885872D01*
X96756521Y-73195252D01*
X96570477Y-73473687D01*
X96333687Y-73710477D01*
X96055252Y-73896521D01*
X95745872Y-74024670D01*
X95636393Y-74046447D01*
X95417437Y-74090000D01*
X95082563Y-74090000D01*
X94863607Y-74046447D01*
X94754128Y-74024670D01*
X94444748Y-73896521D01*
X94166313Y-73710477D01*
X93929523Y-73473687D01*
X93743479Y-73195252D01*
X93615330Y-72885872D01*
X93593553Y-72776393D01*
X93550000Y-72557437D01*
X93550000Y-72222563D01*
X93615330Y-71894129D01*
X93693184Y-71706172D01*
X93743479Y-71584748D01*
X93929523Y-71306313D01*
X94166313Y-71069523D01*
X94444748Y-70883479D01*
X94754128Y-70755330D01*
X94950662Y-70716237D01*
X95082563Y-70690000D01*
X95417437Y-70690000D01*
X95549338Y-70716237D01*
X95549338Y-70716237D01*
G37*
G36*
X99513530Y-72065877D02*
X99565010Y-72081493D01*
X99612446Y-72106848D01*
X99615700Y-72109519D01*
X99636074Y-72123133D01*
X99658713Y-72132511D01*
X99682746Y-72137292D01*
X99707250Y-72137292D01*
X99731284Y-72132512D01*
X99753923Y-72123135D01*
X99774300Y-72109519D01*
X99777554Y-72106848D01*
X99824990Y-72081493D01*
X99876470Y-72065877D01*
X99936140Y-72060000D01*
X100723860Y-72060000D01*
X100783530Y-72065877D01*
X100835010Y-72081493D01*
X100882442Y-72106846D01*
X100924027Y-72140973D01*
X100958154Y-72182558D01*
X100983507Y-72229990D01*
X100999123Y-72281470D01*
X101005000Y-72341140D01*
X101005000Y-73228860D01*
X100999123Y-73288530D01*
X100983507Y-73340010D01*
X100958154Y-73387442D01*
X100924027Y-73429027D01*
X100882442Y-73463154D01*
X100835010Y-73488507D01*
X100783530Y-73504123D01*
X100723860Y-73510000D01*
X99936140Y-73510000D01*
X99876470Y-73504123D01*
X99824990Y-73488507D01*
X99777554Y-73463152D01*
X99774300Y-73460481D01*
X99753926Y-73446867D01*
X99731287Y-73437489D01*
X99707254Y-73432708D01*
X99682750Y-73432708D01*
X99658716Y-73437488D01*
X99636077Y-73446865D01*
X99615700Y-73460481D01*
X99612446Y-73463152D01*
X99565010Y-73488507D01*
X99513530Y-73504123D01*
X99453860Y-73510000D01*
X98666140Y-73510000D01*
X98606470Y-73504123D01*
X98554990Y-73488507D01*
X98507558Y-73463154D01*
X98465973Y-73429027D01*
X98431846Y-73387442D01*
X98406493Y-73340010D01*
X98390877Y-73288530D01*
X98385000Y-73228860D01*
X98385000Y-72341140D01*
X98390877Y-72281470D01*
X98406493Y-72229990D01*
X98431846Y-72182558D01*
X98465973Y-72140973D01*
X98507558Y-72106846D01*
X98554990Y-72081493D01*
X98606470Y-72065877D01*
X98666140Y-72060000D01*
X99453860Y-72060000D01*
X99513530Y-72065877D01*
X99513530Y-72065877D01*
G37*
G36*
X111568707Y-70077596D02*
X111645836Y-70085193D01*
X111777787Y-70125220D01*
X111843763Y-70145233D01*
X112026172Y-70242733D01*
X112186054Y-70373946D01*
X112317267Y-70533828D01*
X112414767Y-70716237D01*
X112434780Y-70782213D01*
X112474807Y-70914164D01*
X112495080Y-71120000D01*
X112474807Y-71325836D01*
X112434780Y-71457787D01*
X112414767Y-71523763D01*
X112317267Y-71706172D01*
X112186054Y-71866054D01*
X112026172Y-71997267D01*
X111843763Y-72094767D01*
X111795131Y-72109519D01*
X111645836Y-72154807D01*
X111568707Y-72162404D01*
X111491580Y-72170000D01*
X111388420Y-72170000D01*
X111311293Y-72162404D01*
X111234164Y-72154807D01*
X111084869Y-72109519D01*
X111036237Y-72094767D01*
X110853828Y-71997267D01*
X110693946Y-71866054D01*
X110562733Y-71706172D01*
X110465233Y-71523763D01*
X110445220Y-71457787D01*
X110405193Y-71325836D01*
X110384920Y-71120000D01*
X110405193Y-70914164D01*
X110445220Y-70782213D01*
X110465233Y-70716237D01*
X110562733Y-70533828D01*
X110693946Y-70373946D01*
X110853828Y-70242733D01*
X111036237Y-70145233D01*
X111102213Y-70125220D01*
X111234164Y-70085193D01*
X111311293Y-70077596D01*
X111388420Y-70070000D01*
X111491580Y-70070000D01*
X111568707Y-70077596D01*
X111568707Y-70077596D01*
G37*
G36*
X91568707Y-70077596D02*
X91645836Y-70085193D01*
X91777787Y-70125220D01*
X91843763Y-70145233D01*
X92026172Y-70242733D01*
X92186054Y-70373946D01*
X92317267Y-70533828D01*
X92414767Y-70716237D01*
X92434780Y-70782213D01*
X92474807Y-70914164D01*
X92495080Y-71120000D01*
X92474807Y-71325836D01*
X92434780Y-71457787D01*
X92414767Y-71523763D01*
X92317267Y-71706172D01*
X92186054Y-71866054D01*
X92026172Y-71997267D01*
X91843763Y-72094767D01*
X91795131Y-72109519D01*
X91645836Y-72154807D01*
X91568707Y-72162404D01*
X91491580Y-72170000D01*
X91388420Y-72170000D01*
X91311293Y-72162404D01*
X91234164Y-72154807D01*
X91084869Y-72109519D01*
X91036237Y-72094767D01*
X90853828Y-71997267D01*
X90693946Y-71866054D01*
X90562733Y-71706172D01*
X90465233Y-71523763D01*
X90445220Y-71457787D01*
X90405193Y-71325836D01*
X90384920Y-71120000D01*
X90405193Y-70914164D01*
X90445220Y-70782213D01*
X90465233Y-70716237D01*
X90562733Y-70533828D01*
X90693946Y-70373946D01*
X90853828Y-70242733D01*
X91036237Y-70145233D01*
X91102213Y-70125220D01*
X91234164Y-70085193D01*
X91311293Y-70077596D01*
X91388420Y-70070000D01*
X91491580Y-70070000D01*
X91568707Y-70077596D01*
X91568707Y-70077596D01*
G37*
G36*
X104515000Y-71240000D02*
X98365000Y-71240000D01*
X98365000Y-69540000D01*
X104515000Y-69540000D01*
X104515000Y-71240000D01*
X104515000Y-71240000D01*
G37*
G36*
X111568707Y-67537596D02*
X111645836Y-67545193D01*
X111777787Y-67585220D01*
X111843763Y-67605233D01*
X112026172Y-67702733D01*
X112186054Y-67833946D01*
X112317267Y-67993828D01*
X112414767Y-68176237D01*
X112414767Y-68176238D01*
X112474807Y-68374164D01*
X112495080Y-68580000D01*
X112474807Y-68785836D01*
X112434780Y-68917787D01*
X112414767Y-68983763D01*
X112317267Y-69166172D01*
X112186054Y-69326054D01*
X112026172Y-69457267D01*
X111843763Y-69554767D01*
X111777787Y-69574780D01*
X111645836Y-69614807D01*
X111568707Y-69622404D01*
X111491580Y-69630000D01*
X111388420Y-69630000D01*
X111311293Y-69622404D01*
X111234164Y-69614807D01*
X111102213Y-69574780D01*
X111036237Y-69554767D01*
X110853828Y-69457267D01*
X110693946Y-69326054D01*
X110562733Y-69166172D01*
X110465233Y-68983763D01*
X110445220Y-68917787D01*
X110405193Y-68785836D01*
X110384920Y-68580000D01*
X110405193Y-68374164D01*
X110465233Y-68176238D01*
X110465233Y-68176237D01*
X110562733Y-67993828D01*
X110693946Y-67833946D01*
X110853828Y-67702733D01*
X111036237Y-67605233D01*
X111102213Y-67585220D01*
X111234164Y-67545193D01*
X111311293Y-67537596D01*
X111388420Y-67530000D01*
X111491580Y-67530000D01*
X111568707Y-67537596D01*
X111568707Y-67537596D01*
G37*
G36*
X91568707Y-67537596D02*
X91645836Y-67545193D01*
X91777787Y-67585220D01*
X91843763Y-67605233D01*
X92026172Y-67702733D01*
X92186054Y-67833946D01*
X92317267Y-67993828D01*
X92414767Y-68176237D01*
X92414767Y-68176238D01*
X92474807Y-68374164D01*
X92495080Y-68580000D01*
X92474807Y-68785836D01*
X92434780Y-68917787D01*
X92414767Y-68983763D01*
X92317267Y-69166172D01*
X92186054Y-69326054D01*
X92026172Y-69457267D01*
X91843763Y-69554767D01*
X91777787Y-69574780D01*
X91645836Y-69614807D01*
X91568707Y-69622404D01*
X91491580Y-69630000D01*
X91388420Y-69630000D01*
X91311293Y-69622404D01*
X91234164Y-69614807D01*
X91102213Y-69574780D01*
X91036237Y-69554767D01*
X90853828Y-69457267D01*
X90693946Y-69326054D01*
X90562733Y-69166172D01*
X90465233Y-68983763D01*
X90445220Y-68917787D01*
X90405193Y-68785836D01*
X90384920Y-68580000D01*
X90405193Y-68374164D01*
X90465233Y-68176238D01*
X90465233Y-68176237D01*
X90562733Y-67993828D01*
X90693946Y-67833946D01*
X90853828Y-67702733D01*
X91036237Y-67605233D01*
X91102213Y-67585220D01*
X91234164Y-67545193D01*
X91311293Y-67537596D01*
X91388420Y-67530000D01*
X91491580Y-67530000D01*
X91568707Y-67537596D01*
X91568707Y-67537596D01*
G37*
G36*
X97940000Y-69115000D02*
X96240000Y-69115000D01*
X96240000Y-62965000D01*
X97940000Y-62965000D01*
X97940000Y-69115000D01*
X97940000Y-69115000D01*
G37*
G36*
X106640000Y-69115000D02*
X104940000Y-69115000D01*
X104940000Y-62965000D01*
X106640000Y-62965000D01*
X106640000Y-69115000D01*
X106640000Y-69115000D01*
G37*
G36*
X91568707Y-64997596D02*
X91645836Y-65005193D01*
X91777787Y-65045220D01*
X91843763Y-65065233D01*
X92026172Y-65162733D01*
X92186054Y-65293946D01*
X92317267Y-65453828D01*
X92414767Y-65636237D01*
X92414767Y-65636238D01*
X92474807Y-65834164D01*
X92495080Y-66040000D01*
X92474807Y-66245836D01*
X92434780Y-66377787D01*
X92414767Y-66443763D01*
X92317267Y-66626172D01*
X92186054Y-66786054D01*
X92026172Y-66917267D01*
X91843763Y-67014767D01*
X91777787Y-67034780D01*
X91645836Y-67074807D01*
X91568707Y-67082404D01*
X91491580Y-67090000D01*
X91388420Y-67090000D01*
X91311293Y-67082404D01*
X91234164Y-67074807D01*
X91102213Y-67034780D01*
X91036237Y-67014767D01*
X90853828Y-66917267D01*
X90693946Y-66786054D01*
X90562733Y-66626172D01*
X90465233Y-66443763D01*
X90445220Y-66377787D01*
X90405193Y-66245836D01*
X90384920Y-66040000D01*
X90405193Y-65834164D01*
X90465233Y-65636238D01*
X90465233Y-65636237D01*
X90562733Y-65453828D01*
X90693946Y-65293946D01*
X90853828Y-65162733D01*
X91036237Y-65065233D01*
X91102213Y-65045220D01*
X91234164Y-65005193D01*
X91311293Y-64997596D01*
X91388420Y-64990000D01*
X91491580Y-64990000D01*
X91568707Y-64997596D01*
X91568707Y-64997596D01*
G37*
G36*
X111568707Y-64997596D02*
X111645836Y-65005193D01*
X111777787Y-65045220D01*
X111843763Y-65065233D01*
X112026172Y-65162733D01*
X112186054Y-65293946D01*
X112317267Y-65453828D01*
X112414767Y-65636237D01*
X112414767Y-65636238D01*
X112474807Y-65834164D01*
X112495080Y-66040000D01*
X112474807Y-66245836D01*
X112434780Y-66377787D01*
X112414767Y-66443763D01*
X112317267Y-66626172D01*
X112186054Y-66786054D01*
X112026172Y-66917267D01*
X111843763Y-67014767D01*
X111777787Y-67034780D01*
X111645836Y-67074807D01*
X111568707Y-67082404D01*
X111491580Y-67090000D01*
X111388420Y-67090000D01*
X111311293Y-67082404D01*
X111234164Y-67074807D01*
X111102213Y-67034780D01*
X111036237Y-67014767D01*
X110853828Y-66917267D01*
X110693946Y-66786054D01*
X110562733Y-66626172D01*
X110465233Y-66443763D01*
X110445220Y-66377787D01*
X110405193Y-66245836D01*
X110384920Y-66040000D01*
X110405193Y-65834164D01*
X110465233Y-65636238D01*
X110465233Y-65636237D01*
X110562733Y-65453828D01*
X110693946Y-65293946D01*
X110853828Y-65162733D01*
X111036237Y-65065233D01*
X111102213Y-65045220D01*
X111234164Y-65005193D01*
X111311293Y-64997596D01*
X111388420Y-64990000D01*
X111491580Y-64990000D01*
X111568707Y-64997596D01*
X111568707Y-64997596D01*
G37*
G36*
X111568707Y-62457596D02*
X111645836Y-62465193D01*
X111777787Y-62505220D01*
X111843763Y-62525233D01*
X112026172Y-62622733D01*
X112186054Y-62753946D01*
X112317267Y-62913828D01*
X112414767Y-63096237D01*
X112414767Y-63096238D01*
X112474807Y-63294164D01*
X112495080Y-63500000D01*
X112474807Y-63705836D01*
X112434780Y-63837787D01*
X112414767Y-63903763D01*
X112317267Y-64086172D01*
X112186054Y-64246054D01*
X112026172Y-64377267D01*
X111843763Y-64474767D01*
X111777787Y-64494780D01*
X111645836Y-64534807D01*
X111568707Y-64542403D01*
X111491580Y-64550000D01*
X111388420Y-64550000D01*
X111311293Y-64542403D01*
X111234164Y-64534807D01*
X111102213Y-64494780D01*
X111036237Y-64474767D01*
X110853828Y-64377267D01*
X110693946Y-64246054D01*
X110562733Y-64086172D01*
X110465233Y-63903763D01*
X110445220Y-63837787D01*
X110405193Y-63705836D01*
X110384920Y-63500000D01*
X110405193Y-63294164D01*
X110465233Y-63096238D01*
X110465233Y-63096237D01*
X110562733Y-62913828D01*
X110693946Y-62753946D01*
X110853828Y-62622733D01*
X111036237Y-62525233D01*
X111102213Y-62505220D01*
X111234164Y-62465193D01*
X111311293Y-62457596D01*
X111388420Y-62450000D01*
X111491580Y-62450000D01*
X111568707Y-62457596D01*
X111568707Y-62457596D01*
G37*
G36*
X91568707Y-62457596D02*
X91645836Y-62465193D01*
X91777787Y-62505220D01*
X91843763Y-62525233D01*
X92026172Y-62622733D01*
X92186054Y-62753946D01*
X92317267Y-62913828D01*
X92414767Y-63096237D01*
X92414767Y-63096238D01*
X92474807Y-63294164D01*
X92495080Y-63500000D01*
X92474807Y-63705836D01*
X92434780Y-63837787D01*
X92414767Y-63903763D01*
X92317267Y-64086172D01*
X92186054Y-64246054D01*
X92026172Y-64377267D01*
X91843763Y-64474767D01*
X91777787Y-64494780D01*
X91645836Y-64534807D01*
X91568707Y-64542403D01*
X91491580Y-64550000D01*
X91388420Y-64550000D01*
X91311293Y-64542403D01*
X91234164Y-64534807D01*
X91102213Y-64494780D01*
X91036237Y-64474767D01*
X90853828Y-64377267D01*
X90693946Y-64246054D01*
X90562733Y-64086172D01*
X90465233Y-63903763D01*
X90445220Y-63837787D01*
X90405193Y-63705836D01*
X90384920Y-63500000D01*
X90405193Y-63294164D01*
X90465233Y-63096238D01*
X90465233Y-63096237D01*
X90562733Y-62913828D01*
X90693946Y-62753946D01*
X90853828Y-62622733D01*
X91036237Y-62525233D01*
X91102213Y-62505220D01*
X91234164Y-62465193D01*
X91311293Y-62457596D01*
X91388420Y-62450000D01*
X91491580Y-62450000D01*
X91568707Y-62457596D01*
X91568707Y-62457596D01*
G37*
G36*
X104515000Y-62540000D02*
X98365000Y-62540000D01*
X98365000Y-60840000D01*
X104515000Y-60840000D01*
X104515000Y-62540000D01*
X104515000Y-62540000D01*
G37*
G36*
X111568707Y-59917596D02*
X111645836Y-59925193D01*
X111770868Y-59963121D01*
X111843763Y-59985233D01*
X112026172Y-60082733D01*
X112186054Y-60213946D01*
X112317267Y-60373828D01*
X112414767Y-60556237D01*
X112414767Y-60556238D01*
X112474807Y-60754164D01*
X112495080Y-60960000D01*
X112474807Y-61165836D01*
X112434780Y-61297787D01*
X112414767Y-61363763D01*
X112317267Y-61546172D01*
X112186054Y-61706054D01*
X112026172Y-61837267D01*
X111843763Y-61934767D01*
X111777787Y-61954780D01*
X111645836Y-61994807D01*
X111568707Y-62002403D01*
X111491580Y-62010000D01*
X111388420Y-62010000D01*
X111311293Y-62002403D01*
X111234164Y-61994807D01*
X111102213Y-61954780D01*
X111036237Y-61934767D01*
X110853828Y-61837267D01*
X110693946Y-61706054D01*
X110562733Y-61546172D01*
X110465233Y-61363763D01*
X110445220Y-61297787D01*
X110405193Y-61165836D01*
X110384920Y-60960000D01*
X110405193Y-60754164D01*
X110465233Y-60556238D01*
X110465233Y-60556237D01*
X110562733Y-60373828D01*
X110693946Y-60213946D01*
X110853828Y-60082733D01*
X111036237Y-59985233D01*
X111109132Y-59963121D01*
X111234164Y-59925193D01*
X111311293Y-59917596D01*
X111388420Y-59910000D01*
X111491580Y-59910000D01*
X111568707Y-59917596D01*
X111568707Y-59917596D01*
G37*
G36*
X91568707Y-59917596D02*
X91645836Y-59925193D01*
X91770868Y-59963121D01*
X91843763Y-59985233D01*
X92026172Y-60082733D01*
X92186054Y-60213946D01*
X92317267Y-60373828D01*
X92414767Y-60556237D01*
X92414767Y-60556238D01*
X92474807Y-60754164D01*
X92495080Y-60960000D01*
X92474807Y-61165836D01*
X92434780Y-61297787D01*
X92414767Y-61363763D01*
X92317267Y-61546172D01*
X92186054Y-61706054D01*
X92026172Y-61837267D01*
X91843763Y-61934767D01*
X91777787Y-61954780D01*
X91645836Y-61994807D01*
X91568707Y-62002403D01*
X91491580Y-62010000D01*
X91388420Y-62010000D01*
X91311293Y-62002403D01*
X91234164Y-61994807D01*
X91102213Y-61954780D01*
X91036237Y-61934767D01*
X90853828Y-61837267D01*
X90693946Y-61706054D01*
X90562733Y-61546172D01*
X90465233Y-61363763D01*
X90445220Y-61297787D01*
X90405193Y-61165836D01*
X90384920Y-60960000D01*
X90405193Y-60754164D01*
X90465233Y-60556238D01*
X90465233Y-60556237D01*
X90562733Y-60373828D01*
X90693946Y-60213946D01*
X90853828Y-60082733D01*
X91036237Y-59985233D01*
X91109132Y-59963121D01*
X91234164Y-59925193D01*
X91311293Y-59917596D01*
X91388420Y-59910000D01*
X91491580Y-59910000D01*
X91568707Y-59917596D01*
X91568707Y-59917596D01*
G37*
G36*
X95599124Y-58026140D02*
X95745872Y-58055330D01*
X96055252Y-58183479D01*
X96333687Y-58369523D01*
X96570477Y-58606313D01*
X96756521Y-58884748D01*
X96873041Y-59166054D01*
X96884670Y-59194129D01*
X96950000Y-59522563D01*
X96950000Y-59857437D01*
X96922774Y-59994309D01*
X96884670Y-60185872D01*
X96756521Y-60495252D01*
X96570477Y-60773687D01*
X96333687Y-61010477D01*
X96055252Y-61196521D01*
X95745872Y-61324670D01*
X95636393Y-61346447D01*
X95417437Y-61390000D01*
X95082563Y-61390000D01*
X94863607Y-61346447D01*
X94754128Y-61324670D01*
X94444748Y-61196521D01*
X94166313Y-61010477D01*
X93929523Y-60773687D01*
X93743479Y-60495252D01*
X93615330Y-60185872D01*
X93577226Y-59994309D01*
X93550000Y-59857437D01*
X93550000Y-59522563D01*
X93615330Y-59194129D01*
X93626959Y-59166054D01*
X93743479Y-58884748D01*
X93929523Y-58606313D01*
X94166313Y-58369523D01*
X94444748Y-58183479D01*
X94754128Y-58055330D01*
X94900876Y-58026140D01*
X95082563Y-57990000D01*
X95417437Y-57990000D01*
X95599124Y-58026140D01*
X95599124Y-58026140D01*
G37*
G36*
X108299124Y-58026140D02*
X108445872Y-58055330D01*
X108755252Y-58183479D01*
X109033687Y-58369523D01*
X109270477Y-58606313D01*
X109456521Y-58884748D01*
X109573041Y-59166054D01*
X109584670Y-59194129D01*
X109650000Y-59522563D01*
X109650000Y-59857437D01*
X109622774Y-59994309D01*
X109584670Y-60185872D01*
X109456521Y-60495252D01*
X109270477Y-60773687D01*
X109033687Y-61010477D01*
X108755252Y-61196521D01*
X108445872Y-61324670D01*
X108336393Y-61346447D01*
X108117437Y-61390000D01*
X107782563Y-61390000D01*
X107563607Y-61346447D01*
X107454128Y-61324670D01*
X107144748Y-61196521D01*
X106866313Y-61010477D01*
X106629523Y-60773687D01*
X106443479Y-60495252D01*
X106315330Y-60185872D01*
X106277226Y-59994309D01*
X106250000Y-59857437D01*
X106250000Y-59522563D01*
X106315330Y-59194129D01*
X106326959Y-59166054D01*
X106443479Y-58884748D01*
X106629523Y-58606313D01*
X106866313Y-58369523D01*
X107144748Y-58183479D01*
X107454128Y-58055330D01*
X107600876Y-58026140D01*
X107782563Y-57990000D01*
X108117437Y-57990000D01*
X108299124Y-58026140D01*
X108299124Y-58026140D01*
G37*
G36*
X103323530Y-58575877D02*
X103375010Y-58591493D01*
X103422446Y-58616848D01*
X103425700Y-58619519D01*
X103446074Y-58633133D01*
X103468713Y-58642511D01*
X103492746Y-58647292D01*
X103517250Y-58647292D01*
X103541284Y-58642512D01*
X103563923Y-58633135D01*
X103584300Y-58619519D01*
X103587554Y-58616848D01*
X103634990Y-58591493D01*
X103686470Y-58575877D01*
X103746140Y-58570000D01*
X104533860Y-58570000D01*
X104593530Y-58575877D01*
X104645010Y-58591493D01*
X104692442Y-58616846D01*
X104734027Y-58650973D01*
X104768154Y-58692558D01*
X104793507Y-58739990D01*
X104809123Y-58791470D01*
X104815000Y-58851140D01*
X104815000Y-59738860D01*
X104809123Y-59798530D01*
X104793507Y-59850010D01*
X104768154Y-59897442D01*
X104734027Y-59939027D01*
X104692442Y-59973154D01*
X104645010Y-59998507D01*
X104593530Y-60014123D01*
X104533860Y-60020000D01*
X103746140Y-60020000D01*
X103686470Y-60014123D01*
X103634990Y-59998507D01*
X103587554Y-59973152D01*
X103584300Y-59970481D01*
X103563926Y-59956867D01*
X103541287Y-59947489D01*
X103517254Y-59942708D01*
X103492750Y-59942708D01*
X103468716Y-59947488D01*
X103446077Y-59956865D01*
X103425700Y-59970481D01*
X103422446Y-59973152D01*
X103375010Y-59998507D01*
X103323530Y-60014123D01*
X103263860Y-60020000D01*
X102476140Y-60020000D01*
X102416470Y-60014123D01*
X102364990Y-59998507D01*
X102317558Y-59973154D01*
X102275973Y-59939027D01*
X102241846Y-59897442D01*
X102216493Y-59850010D01*
X102200877Y-59798530D01*
X102195000Y-59738860D01*
X102195000Y-58851140D01*
X102200877Y-58791470D01*
X102216493Y-58739990D01*
X102241846Y-58692558D01*
X102275973Y-58650973D01*
X102317558Y-58616846D01*
X102364990Y-58591493D01*
X102416470Y-58575877D01*
X102476140Y-58570000D01*
X103263860Y-58570000D01*
X103323530Y-58575877D01*
X103323530Y-58575877D01*
G37*
G36*
X111568707Y-57377596D02*
X111645836Y-57385193D01*
X111770868Y-57423121D01*
X111843763Y-57445233D01*
X112026172Y-57542733D01*
X112186054Y-57673946D01*
X112317267Y-57833828D01*
X112414767Y-58016237D01*
X112428544Y-58061656D01*
X112474807Y-58214164D01*
X112495080Y-58420000D01*
X112474807Y-58625836D01*
X112454567Y-58692558D01*
X112414767Y-58823763D01*
X112317267Y-59006172D01*
X112186054Y-59166054D01*
X112026172Y-59297267D01*
X111843763Y-59394767D01*
X111777787Y-59414780D01*
X111645836Y-59454807D01*
X111568707Y-59462403D01*
X111491580Y-59470000D01*
X111388420Y-59470000D01*
X111311293Y-59462403D01*
X111234164Y-59454807D01*
X111102213Y-59414780D01*
X111036237Y-59394767D01*
X110853828Y-59297267D01*
X110693946Y-59166054D01*
X110562733Y-59006172D01*
X110465233Y-58823763D01*
X110425433Y-58692558D01*
X110405193Y-58625836D01*
X110384920Y-58420000D01*
X110405193Y-58214164D01*
X110451456Y-58061656D01*
X110465233Y-58016237D01*
X110562733Y-57833828D01*
X110693946Y-57673946D01*
X110853828Y-57542733D01*
X111036237Y-57445233D01*
X111109132Y-57423121D01*
X111234164Y-57385193D01*
X111311293Y-57377596D01*
X111388420Y-57370000D01*
X111491580Y-57370000D01*
X111568707Y-57377596D01*
X111568707Y-57377596D01*
G37*
G36*
X91568707Y-57377596D02*
X91645836Y-57385193D01*
X91770868Y-57423121D01*
X91843763Y-57445233D01*
X92026172Y-57542733D01*
X92186054Y-57673946D01*
X92317267Y-57833828D01*
X92414767Y-58016237D01*
X92428544Y-58061656D01*
X92474807Y-58214164D01*
X92495080Y-58420000D01*
X92474807Y-58625836D01*
X92454567Y-58692558D01*
X92414767Y-58823763D01*
X92317267Y-59006172D01*
X92186054Y-59166054D01*
X92026172Y-59297267D01*
X91843763Y-59394767D01*
X91777787Y-59414780D01*
X91645836Y-59454807D01*
X91568707Y-59462403D01*
X91491580Y-59470000D01*
X91388420Y-59470000D01*
X91311293Y-59462403D01*
X91234164Y-59454807D01*
X91102213Y-59414780D01*
X91036237Y-59394767D01*
X90853828Y-59297267D01*
X90693946Y-59166054D01*
X90562733Y-59006172D01*
X90465233Y-58823763D01*
X90425433Y-58692558D01*
X90405193Y-58625836D01*
X90384920Y-58420000D01*
X90405193Y-58214164D01*
X90451456Y-58061656D01*
X90465233Y-58016237D01*
X90562733Y-57833828D01*
X90693946Y-57673946D01*
X90853828Y-57542733D01*
X91036237Y-57445233D01*
X91109132Y-57423121D01*
X91234164Y-57385193D01*
X91311293Y-57377596D01*
X91388420Y-57370000D01*
X91491580Y-57370000D01*
X91568707Y-57377596D01*
X91568707Y-57377596D01*
G37*
G36*
X101708530Y-57750877D02*
X101760010Y-57766493D01*
X101807442Y-57791846D01*
X101849027Y-57825973D01*
X101883154Y-57867558D01*
X101908507Y-57914990D01*
X101924123Y-57966470D01*
X101930000Y-58026140D01*
X101930000Y-58813860D01*
X101924123Y-58873530D01*
X101908507Y-58925010D01*
X101883154Y-58972442D01*
X101849027Y-59014027D01*
X101807442Y-59048154D01*
X101760010Y-59073507D01*
X101708530Y-59089123D01*
X101648860Y-59095000D01*
X100761140Y-59095000D01*
X100701470Y-59089123D01*
X100649990Y-59073507D01*
X100602558Y-59048154D01*
X100560973Y-59014027D01*
X100526846Y-58972442D01*
X100501493Y-58925010D01*
X100485877Y-58873530D01*
X100480000Y-58813860D01*
X100480000Y-58026140D01*
X100485877Y-57966470D01*
X100501493Y-57914990D01*
X100526846Y-57867558D01*
X100560973Y-57825973D01*
X100602558Y-57791846D01*
X100649990Y-57766493D01*
X100701470Y-57750877D01*
X100761140Y-57745000D01*
X101648860Y-57745000D01*
X101708530Y-57750877D01*
X101708530Y-57750877D01*
G37*
G36*
X99958530Y-57750877D02*
X100010010Y-57766493D01*
X100057442Y-57791846D01*
X100099027Y-57825973D01*
X100133154Y-57867558D01*
X100158507Y-57914990D01*
X100174123Y-57966470D01*
X100180000Y-58026140D01*
X100180000Y-58813860D01*
X100174123Y-58873530D01*
X100158507Y-58925010D01*
X100133154Y-58972442D01*
X100099027Y-59014027D01*
X100057442Y-59048154D01*
X100010010Y-59073507D01*
X99958530Y-59089123D01*
X99898860Y-59095000D01*
X99011140Y-59095000D01*
X98951470Y-59089123D01*
X98899990Y-59073507D01*
X98852558Y-59048154D01*
X98810973Y-59014027D01*
X98776846Y-58972442D01*
X98751493Y-58925010D01*
X98735877Y-58873530D01*
X98730000Y-58813860D01*
X98730000Y-58026140D01*
X98735877Y-57966470D01*
X98751493Y-57914990D01*
X98776846Y-57867558D01*
X98810973Y-57825973D01*
X98852558Y-57791846D01*
X98899990Y-57766493D01*
X98951470Y-57750877D01*
X99011140Y-57745000D01*
X99898860Y-57745000D01*
X99958530Y-57750877D01*
X99958530Y-57750877D01*
G37*
G36*
X103323530Y-56825877D02*
X103375010Y-56841493D01*
X103422446Y-56866848D01*
X103425700Y-56869519D01*
X103446074Y-56883133D01*
X103468713Y-56892511D01*
X103492746Y-56897292D01*
X103517250Y-56897292D01*
X103541284Y-56892512D01*
X103563923Y-56883135D01*
X103584300Y-56869519D01*
X103587554Y-56866848D01*
X103634990Y-56841493D01*
X103686470Y-56825877D01*
X103746140Y-56820000D01*
X104533860Y-56820000D01*
X104593530Y-56825877D01*
X104645010Y-56841493D01*
X104692442Y-56866846D01*
X104734027Y-56900973D01*
X104768154Y-56942558D01*
X104793507Y-56989990D01*
X104809123Y-57041470D01*
X104815000Y-57101140D01*
X104815000Y-57988860D01*
X104809123Y-58048530D01*
X104793507Y-58100010D01*
X104768154Y-58147442D01*
X104734027Y-58189027D01*
X104692442Y-58223154D01*
X104645010Y-58248507D01*
X104593530Y-58264123D01*
X104533860Y-58270000D01*
X103746140Y-58270000D01*
X103686470Y-58264123D01*
X103634990Y-58248507D01*
X103587554Y-58223152D01*
X103584300Y-58220481D01*
X103563926Y-58206867D01*
X103541287Y-58197489D01*
X103517254Y-58192708D01*
X103492750Y-58192708D01*
X103468716Y-58197488D01*
X103446077Y-58206865D01*
X103425700Y-58220481D01*
X103422446Y-58223152D01*
X103375010Y-58248507D01*
X103323530Y-58264123D01*
X103263860Y-58270000D01*
X102476140Y-58270000D01*
X102416470Y-58264123D01*
X102364990Y-58248507D01*
X102317558Y-58223154D01*
X102275973Y-58189027D01*
X102241846Y-58147442D01*
X102216493Y-58100010D01*
X102200877Y-58048530D01*
X102195000Y-57988860D01*
X102195000Y-57101140D01*
X102200877Y-57041470D01*
X102216493Y-56989990D01*
X102241846Y-56942558D01*
X102275973Y-56900973D01*
X102317558Y-56866846D01*
X102364990Y-56841493D01*
X102416470Y-56825877D01*
X102476140Y-56820000D01*
X103263860Y-56820000D01*
X103323530Y-56825877D01*
X103323530Y-56825877D01*
G37*
G36*
X107133530Y-56035877D02*
X107185010Y-56051493D01*
X107232446Y-56076848D01*
X107235700Y-56079519D01*
X107256074Y-56093133D01*
X107278713Y-56102511D01*
X107302746Y-56107292D01*
X107327250Y-56107292D01*
X107351284Y-56102512D01*
X107373923Y-56093135D01*
X107394300Y-56079519D01*
X107397554Y-56076848D01*
X107444990Y-56051493D01*
X107496470Y-56035877D01*
X107556140Y-56030000D01*
X108343860Y-56030000D01*
X108403530Y-56035877D01*
X108455010Y-56051493D01*
X108502446Y-56076848D01*
X108505700Y-56079519D01*
X108526074Y-56093133D01*
X108548713Y-56102511D01*
X108572746Y-56107292D01*
X108597250Y-56107292D01*
X108621284Y-56102512D01*
X108643923Y-56093135D01*
X108664300Y-56079519D01*
X108667554Y-56076848D01*
X108714990Y-56051493D01*
X108766470Y-56035877D01*
X108826140Y-56030000D01*
X109613860Y-56030000D01*
X109673530Y-56035877D01*
X109725010Y-56051493D01*
X109772442Y-56076846D01*
X109814027Y-56110973D01*
X109848154Y-56152558D01*
X109873507Y-56199990D01*
X109889123Y-56251470D01*
X109895000Y-56311140D01*
X109895000Y-57198860D01*
X109889123Y-57258530D01*
X109873507Y-57310010D01*
X109848154Y-57357442D01*
X109814027Y-57399027D01*
X109772442Y-57433154D01*
X109725010Y-57458507D01*
X109673530Y-57474123D01*
X109613860Y-57480000D01*
X108826140Y-57480000D01*
X108766470Y-57474123D01*
X108714990Y-57458507D01*
X108667554Y-57433152D01*
X108664300Y-57430481D01*
X108643926Y-57416867D01*
X108621287Y-57407489D01*
X108597254Y-57402708D01*
X108572750Y-57402708D01*
X108548716Y-57407488D01*
X108526077Y-57416865D01*
X108505700Y-57430481D01*
X108502446Y-57433152D01*
X108455010Y-57458507D01*
X108403530Y-57474123D01*
X108343860Y-57480000D01*
X107556140Y-57480000D01*
X107496470Y-57474123D01*
X107444990Y-57458507D01*
X107397554Y-57433152D01*
X107394300Y-57430481D01*
X107373926Y-57416867D01*
X107351287Y-57407489D01*
X107327254Y-57402708D01*
X107302750Y-57402708D01*
X107278716Y-57407488D01*
X107256077Y-57416865D01*
X107235700Y-57430481D01*
X107232446Y-57433152D01*
X107185010Y-57458507D01*
X107133530Y-57474123D01*
X107073860Y-57480000D01*
X106286140Y-57480000D01*
X106226470Y-57474123D01*
X106174990Y-57458507D01*
X106127558Y-57433154D01*
X106085973Y-57399027D01*
X106051846Y-57357442D01*
X106026493Y-57310010D01*
X106010877Y-57258530D01*
X106005000Y-57198860D01*
X106005000Y-56311140D01*
X106010877Y-56251470D01*
X106026493Y-56199990D01*
X106051846Y-56152558D01*
X106085973Y-56110973D01*
X106127558Y-56076846D01*
X106174990Y-56051493D01*
X106226470Y-56035877D01*
X106286140Y-56030000D01*
X107073860Y-56030000D01*
X107133530Y-56035877D01*
X107133530Y-56035877D01*
G37*
G36*
X112490000Y-56930000D02*
X110390000Y-56930000D01*
X110390000Y-54830000D01*
X112490000Y-54830000D01*
X112490000Y-56930000D01*
X112490000Y-56930000D01*
G37*
G36*
X91568707Y-54837597D02*
X91645836Y-54845193D01*
X91777787Y-54885220D01*
X91843763Y-54905233D01*
X92026172Y-55002733D01*
X92186054Y-55133946D01*
X92317267Y-55293828D01*
X92414767Y-55476237D01*
X92414767Y-55476238D01*
X92474807Y-55674164D01*
X92495080Y-55880000D01*
X92474807Y-56085836D01*
X92454567Y-56152558D01*
X92414767Y-56283763D01*
X92317267Y-56466172D01*
X92186054Y-56626054D01*
X92026172Y-56757267D01*
X91843763Y-56854767D01*
X91795131Y-56869519D01*
X91645836Y-56914807D01*
X91568707Y-56922403D01*
X91491580Y-56930000D01*
X91388420Y-56930000D01*
X91311293Y-56922403D01*
X91234164Y-56914807D01*
X91084869Y-56869519D01*
X91036237Y-56854767D01*
X90853828Y-56757267D01*
X90693946Y-56626054D01*
X90562733Y-56466172D01*
X90465233Y-56283763D01*
X90425433Y-56152558D01*
X90405193Y-56085836D01*
X90384920Y-55880000D01*
X90405193Y-55674164D01*
X90465233Y-55476238D01*
X90465233Y-55476237D01*
X90562733Y-55293828D01*
X90693946Y-55133946D01*
X90853828Y-55002733D01*
X91036237Y-54905233D01*
X91102213Y-54885220D01*
X91234164Y-54845193D01*
X91311293Y-54837597D01*
X91388420Y-54830000D01*
X91491580Y-54830000D01*
X91568707Y-54837597D01*
X91568707Y-54837597D01*
G37*
G36*
X107133530Y-54285877D02*
X107185010Y-54301493D01*
X107232446Y-54326848D01*
X107235700Y-54329519D01*
X107256074Y-54343133D01*
X107278713Y-54352511D01*
X107302746Y-54357292D01*
X107327250Y-54357292D01*
X107351284Y-54352512D01*
X107373923Y-54343135D01*
X107394300Y-54329519D01*
X107397554Y-54326848D01*
X107444990Y-54301493D01*
X107496470Y-54285877D01*
X107556140Y-54280000D01*
X108343860Y-54280000D01*
X108403530Y-54285877D01*
X108455010Y-54301493D01*
X108502446Y-54326848D01*
X108505700Y-54329519D01*
X108526074Y-54343133D01*
X108548713Y-54352511D01*
X108572746Y-54357292D01*
X108597250Y-54357292D01*
X108621284Y-54352512D01*
X108643923Y-54343135D01*
X108664300Y-54329519D01*
X108667554Y-54326848D01*
X108714990Y-54301493D01*
X108766470Y-54285877D01*
X108826140Y-54280000D01*
X109613860Y-54280000D01*
X109673530Y-54285877D01*
X109725010Y-54301493D01*
X109772442Y-54326846D01*
X109814027Y-54360973D01*
X109848154Y-54402558D01*
X109873507Y-54449990D01*
X109889123Y-54501470D01*
X109895000Y-54561140D01*
X109895000Y-55448860D01*
X109889123Y-55508530D01*
X109873507Y-55560010D01*
X109848154Y-55607442D01*
X109814027Y-55649027D01*
X109772442Y-55683154D01*
X109725010Y-55708507D01*
X109673530Y-55724123D01*
X109613860Y-55730000D01*
X108826140Y-55730000D01*
X108766470Y-55724123D01*
X108714990Y-55708507D01*
X108667554Y-55683152D01*
X108664300Y-55680481D01*
X108643926Y-55666867D01*
X108621287Y-55657489D01*
X108597254Y-55652708D01*
X108572750Y-55652708D01*
X108548716Y-55657488D01*
X108526077Y-55666865D01*
X108505700Y-55680481D01*
X108502446Y-55683152D01*
X108455010Y-55708507D01*
X108403530Y-55724123D01*
X108343860Y-55730000D01*
X107556140Y-55730000D01*
X107496470Y-55724123D01*
X107444990Y-55708507D01*
X107397554Y-55683152D01*
X107394300Y-55680481D01*
X107373926Y-55666867D01*
X107351287Y-55657489D01*
X107327254Y-55652708D01*
X107302750Y-55652708D01*
X107278716Y-55657488D01*
X107256077Y-55666865D01*
X107235700Y-55680481D01*
X107232446Y-55683152D01*
X107185010Y-55708507D01*
X107133530Y-55724123D01*
X107073860Y-55730000D01*
X106286140Y-55730000D01*
X106226470Y-55724123D01*
X106174990Y-55708507D01*
X106127558Y-55683154D01*
X106085973Y-55649027D01*
X106051846Y-55607442D01*
X106026493Y-55560010D01*
X106010877Y-55508530D01*
X106005000Y-55448860D01*
X106005000Y-54561140D01*
X106010877Y-54501470D01*
X106026493Y-54449990D01*
X106051846Y-54402558D01*
X106085973Y-54360973D01*
X106127558Y-54326846D01*
X106174990Y-54301493D01*
X106226470Y-54285877D01*
X106286140Y-54280000D01*
X107073860Y-54280000D01*
X107133530Y-54285877D01*
X107133530Y-54285877D01*
G37*
M02*
