G04 #@! TF.GenerationSoftware,KiCad,Pcbnew,(5.0.1)-3*
G04 #@! TF.CreationDate,2019-01-28T22:50:12+00:00*
G04 #@! TF.ProjectId,Encoder,456E636F6465722E6B696361645F7063,rev?*
G04 #@! TF.SameCoordinates,Original*
G04 #@! TF.FileFunction,Soldermask,Bot*
G04 #@! TF.FilePolarity,Negative*
%FSLAX46Y46*%
G04 Gerber Fmt 4.6, Leading zero omitted, Abs format (unit mm)*
G04 Created by KiCad (PCBNEW (5.0.1)-3) date 28/01/2019 22:50:12*
%MOMM*%
%LPD*%
G01*
G04 APERTURE LIST*
%ADD10C,0.100000*%
G04 APERTURE END LIST*
D10*
G36*
X111568707Y-75157597D02*
X111645836Y-75165193D01*
X111777787Y-75205220D01*
X111843763Y-75225233D01*
X112026172Y-75322733D01*
X112186054Y-75453946D01*
X112317267Y-75613828D01*
X112414767Y-75796237D01*
X112414767Y-75796238D01*
X112474807Y-75994164D01*
X112495080Y-76200000D01*
X112474807Y-76405836D01*
X112434780Y-76537787D01*
X112414767Y-76603763D01*
X112317267Y-76786172D01*
X112186054Y-76946054D01*
X112026172Y-77077267D01*
X111843763Y-77174767D01*
X111777787Y-77194780D01*
X111645836Y-77234807D01*
X111568707Y-77242404D01*
X111491580Y-77250000D01*
X111388420Y-77250000D01*
X111311293Y-77242404D01*
X111234164Y-77234807D01*
X111102213Y-77194780D01*
X111036237Y-77174767D01*
X110853828Y-77077267D01*
X110693946Y-76946054D01*
X110562733Y-76786172D01*
X110465233Y-76603763D01*
X110445220Y-76537787D01*
X110405193Y-76405836D01*
X110384920Y-76200000D01*
X110405193Y-75994164D01*
X110465233Y-75796238D01*
X110465233Y-75796237D01*
X110562733Y-75613828D01*
X110693946Y-75453946D01*
X110853828Y-75322733D01*
X111036237Y-75225233D01*
X111102213Y-75205220D01*
X111234164Y-75165193D01*
X111311293Y-75157597D01*
X111388420Y-75150000D01*
X111491580Y-75150000D01*
X111568707Y-75157597D01*
X111568707Y-75157597D01*
G37*
G36*
X92490000Y-77250000D02*
X90390000Y-77250000D01*
X90390000Y-75150000D01*
X92490000Y-75150000D01*
X92490000Y-77250000D01*
X92490000Y-77250000D01*
G37*
G36*
X91568707Y-72617597D02*
X91645836Y-72625193D01*
X91777787Y-72665220D01*
X91843763Y-72685233D01*
X92026172Y-72782733D01*
X92186054Y-72913946D01*
X92317267Y-73073828D01*
X92414767Y-73256237D01*
X92414767Y-73256238D01*
X92474807Y-73454164D01*
X92495080Y-73660000D01*
X92474807Y-73865836D01*
X92434780Y-73997787D01*
X92414767Y-74063763D01*
X92317267Y-74246172D01*
X92186054Y-74406054D01*
X92026172Y-74537267D01*
X91843763Y-74634767D01*
X91777787Y-74654780D01*
X91645836Y-74694807D01*
X91568707Y-74702403D01*
X91491580Y-74710000D01*
X91388420Y-74710000D01*
X91311293Y-74702403D01*
X91234164Y-74694807D01*
X91102213Y-74654780D01*
X91036237Y-74634767D01*
X90853828Y-74537267D01*
X90693946Y-74406054D01*
X90562733Y-74246172D01*
X90465233Y-74063763D01*
X90445220Y-73997787D01*
X90405193Y-73865836D01*
X90384920Y-73660000D01*
X90405193Y-73454164D01*
X90465233Y-73256238D01*
X90465233Y-73256237D01*
X90562733Y-73073828D01*
X90693946Y-72913946D01*
X90853828Y-72782733D01*
X91036237Y-72685233D01*
X91102213Y-72665220D01*
X91234164Y-72625193D01*
X91311293Y-72617597D01*
X91388420Y-72610000D01*
X91491580Y-72610000D01*
X91568707Y-72617597D01*
X91568707Y-72617597D01*
G37*
G36*
X111568707Y-72617597D02*
X111645836Y-72625193D01*
X111777787Y-72665220D01*
X111843763Y-72685233D01*
X112026172Y-72782733D01*
X112186054Y-72913946D01*
X112317267Y-73073828D01*
X112414767Y-73256237D01*
X112414767Y-73256238D01*
X112474807Y-73454164D01*
X112495080Y-73660000D01*
X112474807Y-73865836D01*
X112434780Y-73997787D01*
X112414767Y-74063763D01*
X112317267Y-74246172D01*
X112186054Y-74406054D01*
X112026172Y-74537267D01*
X111843763Y-74634767D01*
X111777787Y-74654780D01*
X111645836Y-74694807D01*
X111568707Y-74702403D01*
X111491580Y-74710000D01*
X111388420Y-74710000D01*
X111311293Y-74702403D01*
X111234164Y-74694807D01*
X111102213Y-74654780D01*
X111036237Y-74634767D01*
X110853828Y-74537267D01*
X110693946Y-74406054D01*
X110562733Y-74246172D01*
X110465233Y-74063763D01*
X110445220Y-73997787D01*
X110405193Y-73865836D01*
X110384920Y-73660000D01*
X110405193Y-73454164D01*
X110465233Y-73256238D01*
X110465233Y-73256237D01*
X110562733Y-73073828D01*
X110693946Y-72913946D01*
X110853828Y-72782733D01*
X111036237Y-72685233D01*
X111102213Y-72665220D01*
X111234164Y-72625193D01*
X111311293Y-72617597D01*
X111388420Y-72610000D01*
X111491580Y-72610000D01*
X111568707Y-72617597D01*
X111568707Y-72617597D01*
G37*
G36*
X108249338Y-70716237D02*
X108445872Y-70755330D01*
X108755252Y-70883479D01*
X109033687Y-71069523D01*
X109270477Y-71306313D01*
X109456521Y-71584748D01*
X109506816Y-71706172D01*
X109584670Y-71894129D01*
X109650000Y-72222563D01*
X109650000Y-72557437D01*
X109606447Y-72776393D01*
X109584670Y-72885872D01*
X109456521Y-73195252D01*
X109270477Y-73473687D01*
X109033687Y-73710477D01*
X108755252Y-73896521D01*
X108445872Y-74024670D01*
X108336393Y-74046447D01*
X108117437Y-74090000D01*
X107782563Y-74090000D01*
X107563607Y-74046447D01*
X107454128Y-74024670D01*
X107144748Y-73896521D01*
X106866313Y-73710477D01*
X106629523Y-73473687D01*
X106443479Y-73195252D01*
X106315330Y-72885872D01*
X106293553Y-72776393D01*
X106250000Y-72557437D01*
X106250000Y-72222563D01*
X106315330Y-71894129D01*
X106393184Y-71706172D01*
X106443479Y-71584748D01*
X106629523Y-71306313D01*
X106866313Y-71069523D01*
X107144748Y-70883479D01*
X107454128Y-70755330D01*
X107650662Y-70716237D01*
X107782563Y-70690000D01*
X108117437Y-70690000D01*
X108249338Y-70716237D01*
X108249338Y-70716237D01*
G37*
G36*
X95549338Y-70716237D02*
X95745872Y-70755330D01*
X96055252Y-70883479D01*
X96333687Y-71069523D01*
X96570477Y-71306313D01*
X96756521Y-71584748D01*
X96806816Y-71706172D01*
X96884670Y-71894129D01*
X96950000Y-72222563D01*
X96950000Y-72557437D01*
X96906447Y-72776393D01*
X96884670Y-72885872D01*
X96756521Y-73195252D01*
X96570477Y-73473687D01*
X96333687Y-73710477D01*
X96055252Y-73896521D01*
X95745872Y-74024670D01*
X95636393Y-74046447D01*
X95417437Y-74090000D01*
X95082563Y-74090000D01*
X94863607Y-74046447D01*
X94754128Y-74024670D01*
X94444748Y-73896521D01*
X94166313Y-73710477D01*
X93929523Y-73473687D01*
X93743479Y-73195252D01*
X93615330Y-72885872D01*
X93593553Y-72776393D01*
X93550000Y-72557437D01*
X93550000Y-72222563D01*
X93615330Y-71894129D01*
X93693184Y-71706172D01*
X93743479Y-71584748D01*
X93929523Y-71306313D01*
X94166313Y-71069523D01*
X94444748Y-70883479D01*
X94754128Y-70755330D01*
X94950662Y-70716237D01*
X95082563Y-70690000D01*
X95417437Y-70690000D01*
X95549338Y-70716237D01*
X95549338Y-70716237D01*
G37*
G36*
X111568707Y-70077596D02*
X111645836Y-70085193D01*
X111777787Y-70125220D01*
X111843763Y-70145233D01*
X112026172Y-70242733D01*
X112186054Y-70373946D01*
X112317267Y-70533828D01*
X112414767Y-70716237D01*
X112434780Y-70782213D01*
X112474807Y-70914164D01*
X112495080Y-71120000D01*
X112474807Y-71325836D01*
X112434780Y-71457787D01*
X112414767Y-71523763D01*
X112317267Y-71706172D01*
X112186054Y-71866054D01*
X112026172Y-71997267D01*
X111843763Y-72094767D01*
X111777787Y-72114780D01*
X111645836Y-72154807D01*
X111568707Y-72162404D01*
X111491580Y-72170000D01*
X111388420Y-72170000D01*
X111311293Y-72162404D01*
X111234164Y-72154807D01*
X111102213Y-72114780D01*
X111036237Y-72094767D01*
X110853828Y-71997267D01*
X110693946Y-71866054D01*
X110562733Y-71706172D01*
X110465233Y-71523763D01*
X110445220Y-71457787D01*
X110405193Y-71325836D01*
X110384920Y-71120000D01*
X110405193Y-70914164D01*
X110445220Y-70782213D01*
X110465233Y-70716237D01*
X110562733Y-70533828D01*
X110693946Y-70373946D01*
X110853828Y-70242733D01*
X111036237Y-70145233D01*
X111102213Y-70125220D01*
X111234164Y-70085193D01*
X111311293Y-70077596D01*
X111388420Y-70070000D01*
X111491580Y-70070000D01*
X111568707Y-70077596D01*
X111568707Y-70077596D01*
G37*
G36*
X91568707Y-70077596D02*
X91645836Y-70085193D01*
X91777787Y-70125220D01*
X91843763Y-70145233D01*
X92026172Y-70242733D01*
X92186054Y-70373946D01*
X92317267Y-70533828D01*
X92414767Y-70716237D01*
X92434780Y-70782213D01*
X92474807Y-70914164D01*
X92495080Y-71120000D01*
X92474807Y-71325836D01*
X92434780Y-71457787D01*
X92414767Y-71523763D01*
X92317267Y-71706172D01*
X92186054Y-71866054D01*
X92026172Y-71997267D01*
X91843763Y-72094767D01*
X91777787Y-72114780D01*
X91645836Y-72154807D01*
X91568707Y-72162404D01*
X91491580Y-72170000D01*
X91388420Y-72170000D01*
X91311293Y-72162404D01*
X91234164Y-72154807D01*
X91102213Y-72114780D01*
X91036237Y-72094767D01*
X90853828Y-71997267D01*
X90693946Y-71866054D01*
X90562733Y-71706172D01*
X90465233Y-71523763D01*
X90445220Y-71457787D01*
X90405193Y-71325836D01*
X90384920Y-71120000D01*
X90405193Y-70914164D01*
X90445220Y-70782213D01*
X90465233Y-70716237D01*
X90562733Y-70533828D01*
X90693946Y-70373946D01*
X90853828Y-70242733D01*
X91036237Y-70145233D01*
X91102213Y-70125220D01*
X91234164Y-70085193D01*
X91311293Y-70077596D01*
X91388420Y-70070000D01*
X91491580Y-70070000D01*
X91568707Y-70077596D01*
X91568707Y-70077596D01*
G37*
G36*
X111568707Y-67537596D02*
X111645836Y-67545193D01*
X111777787Y-67585220D01*
X111843763Y-67605233D01*
X112026172Y-67702733D01*
X112186054Y-67833946D01*
X112317267Y-67993828D01*
X112414767Y-68176237D01*
X112414767Y-68176238D01*
X112474807Y-68374164D01*
X112495080Y-68580000D01*
X112474807Y-68785836D01*
X112434780Y-68917787D01*
X112414767Y-68983763D01*
X112317267Y-69166172D01*
X112186054Y-69326054D01*
X112026172Y-69457267D01*
X111843763Y-69554767D01*
X111777787Y-69574780D01*
X111645836Y-69614807D01*
X111568707Y-69622404D01*
X111491580Y-69630000D01*
X111388420Y-69630000D01*
X111311293Y-69622404D01*
X111234164Y-69614807D01*
X111102213Y-69574780D01*
X111036237Y-69554767D01*
X110853828Y-69457267D01*
X110693946Y-69326054D01*
X110562733Y-69166172D01*
X110465233Y-68983763D01*
X110445220Y-68917787D01*
X110405193Y-68785836D01*
X110384920Y-68580000D01*
X110405193Y-68374164D01*
X110465233Y-68176238D01*
X110465233Y-68176237D01*
X110562733Y-67993828D01*
X110693946Y-67833946D01*
X110853828Y-67702733D01*
X111036237Y-67605233D01*
X111102213Y-67585220D01*
X111234164Y-67545193D01*
X111311293Y-67537596D01*
X111388420Y-67530000D01*
X111491580Y-67530000D01*
X111568707Y-67537596D01*
X111568707Y-67537596D01*
G37*
G36*
X91568707Y-67537596D02*
X91645836Y-67545193D01*
X91777787Y-67585220D01*
X91843763Y-67605233D01*
X92026172Y-67702733D01*
X92186054Y-67833946D01*
X92317267Y-67993828D01*
X92414767Y-68176237D01*
X92414767Y-68176238D01*
X92474807Y-68374164D01*
X92495080Y-68580000D01*
X92474807Y-68785836D01*
X92434780Y-68917787D01*
X92414767Y-68983763D01*
X92317267Y-69166172D01*
X92186054Y-69326054D01*
X92026172Y-69457267D01*
X91843763Y-69554767D01*
X91777787Y-69574780D01*
X91645836Y-69614807D01*
X91568707Y-69622404D01*
X91491580Y-69630000D01*
X91388420Y-69630000D01*
X91311293Y-69622404D01*
X91234164Y-69614807D01*
X91102213Y-69574780D01*
X91036237Y-69554767D01*
X90853828Y-69457267D01*
X90693946Y-69326054D01*
X90562733Y-69166172D01*
X90465233Y-68983763D01*
X90445220Y-68917787D01*
X90405193Y-68785836D01*
X90384920Y-68580000D01*
X90405193Y-68374164D01*
X90465233Y-68176238D01*
X90465233Y-68176237D01*
X90562733Y-67993828D01*
X90693946Y-67833946D01*
X90853828Y-67702733D01*
X91036237Y-67605233D01*
X91102213Y-67585220D01*
X91234164Y-67545193D01*
X91311293Y-67537596D01*
X91388420Y-67530000D01*
X91491580Y-67530000D01*
X91568707Y-67537596D01*
X91568707Y-67537596D01*
G37*
G36*
X111568707Y-64997596D02*
X111645836Y-65005193D01*
X111777787Y-65045220D01*
X111843763Y-65065233D01*
X112026172Y-65162733D01*
X112186054Y-65293946D01*
X112317267Y-65453828D01*
X112414767Y-65636237D01*
X112414767Y-65636238D01*
X112474807Y-65834164D01*
X112495080Y-66040000D01*
X112474807Y-66245836D01*
X112434780Y-66377787D01*
X112414767Y-66443763D01*
X112317267Y-66626172D01*
X112186054Y-66786054D01*
X112026172Y-66917267D01*
X111843763Y-67014767D01*
X111777787Y-67034780D01*
X111645836Y-67074807D01*
X111568707Y-67082404D01*
X111491580Y-67090000D01*
X111388420Y-67090000D01*
X111311293Y-67082404D01*
X111234164Y-67074807D01*
X111102213Y-67034780D01*
X111036237Y-67014767D01*
X110853828Y-66917267D01*
X110693946Y-66786054D01*
X110562733Y-66626172D01*
X110465233Y-66443763D01*
X110445220Y-66377787D01*
X110405193Y-66245836D01*
X110384920Y-66040000D01*
X110405193Y-65834164D01*
X110465233Y-65636238D01*
X110465233Y-65636237D01*
X110562733Y-65453828D01*
X110693946Y-65293946D01*
X110853828Y-65162733D01*
X111036237Y-65065233D01*
X111102213Y-65045220D01*
X111234164Y-65005193D01*
X111311293Y-64997596D01*
X111388420Y-64990000D01*
X111491580Y-64990000D01*
X111568707Y-64997596D01*
X111568707Y-64997596D01*
G37*
G36*
X91568707Y-64997596D02*
X91645836Y-65005193D01*
X91777787Y-65045220D01*
X91843763Y-65065233D01*
X92026172Y-65162733D01*
X92186054Y-65293946D01*
X92317267Y-65453828D01*
X92414767Y-65636237D01*
X92414767Y-65636238D01*
X92474807Y-65834164D01*
X92495080Y-66040000D01*
X92474807Y-66245836D01*
X92434780Y-66377787D01*
X92414767Y-66443763D01*
X92317267Y-66626172D01*
X92186054Y-66786054D01*
X92026172Y-66917267D01*
X91843763Y-67014767D01*
X91777787Y-67034780D01*
X91645836Y-67074807D01*
X91568707Y-67082404D01*
X91491580Y-67090000D01*
X91388420Y-67090000D01*
X91311293Y-67082404D01*
X91234164Y-67074807D01*
X91102213Y-67034780D01*
X91036237Y-67014767D01*
X90853828Y-66917267D01*
X90693946Y-66786054D01*
X90562733Y-66626172D01*
X90465233Y-66443763D01*
X90445220Y-66377787D01*
X90405193Y-66245836D01*
X90384920Y-66040000D01*
X90405193Y-65834164D01*
X90465233Y-65636238D01*
X90465233Y-65636237D01*
X90562733Y-65453828D01*
X90693946Y-65293946D01*
X90853828Y-65162733D01*
X91036237Y-65065233D01*
X91102213Y-65045220D01*
X91234164Y-65005193D01*
X91311293Y-64997596D01*
X91388420Y-64990000D01*
X91491580Y-64990000D01*
X91568707Y-64997596D01*
X91568707Y-64997596D01*
G37*
G36*
X111568707Y-62457596D02*
X111645836Y-62465193D01*
X111777787Y-62505220D01*
X111843763Y-62525233D01*
X112026172Y-62622733D01*
X112186054Y-62753946D01*
X112317267Y-62913828D01*
X112414767Y-63096237D01*
X112414767Y-63096238D01*
X112474807Y-63294164D01*
X112495080Y-63500000D01*
X112474807Y-63705836D01*
X112434780Y-63837787D01*
X112414767Y-63903763D01*
X112317267Y-64086172D01*
X112186054Y-64246054D01*
X112026172Y-64377267D01*
X111843763Y-64474767D01*
X111777787Y-64494780D01*
X111645836Y-64534807D01*
X111568707Y-64542403D01*
X111491580Y-64550000D01*
X111388420Y-64550000D01*
X111311293Y-64542403D01*
X111234164Y-64534807D01*
X111102213Y-64494780D01*
X111036237Y-64474767D01*
X110853828Y-64377267D01*
X110693946Y-64246054D01*
X110562733Y-64086172D01*
X110465233Y-63903763D01*
X110445220Y-63837787D01*
X110405193Y-63705836D01*
X110384920Y-63500000D01*
X110405193Y-63294164D01*
X110465233Y-63096238D01*
X110465233Y-63096237D01*
X110562733Y-62913828D01*
X110693946Y-62753946D01*
X110853828Y-62622733D01*
X111036237Y-62525233D01*
X111102213Y-62505220D01*
X111234164Y-62465193D01*
X111311293Y-62457596D01*
X111388420Y-62450000D01*
X111491580Y-62450000D01*
X111568707Y-62457596D01*
X111568707Y-62457596D01*
G37*
G36*
X91568707Y-62457596D02*
X91645836Y-62465193D01*
X91777787Y-62505220D01*
X91843763Y-62525233D01*
X92026172Y-62622733D01*
X92186054Y-62753946D01*
X92317267Y-62913828D01*
X92414767Y-63096237D01*
X92414767Y-63096238D01*
X92474807Y-63294164D01*
X92495080Y-63500000D01*
X92474807Y-63705836D01*
X92434780Y-63837787D01*
X92414767Y-63903763D01*
X92317267Y-64086172D01*
X92186054Y-64246054D01*
X92026172Y-64377267D01*
X91843763Y-64474767D01*
X91777787Y-64494780D01*
X91645836Y-64534807D01*
X91568707Y-64542403D01*
X91491580Y-64550000D01*
X91388420Y-64550000D01*
X91311293Y-64542403D01*
X91234164Y-64534807D01*
X91102213Y-64494780D01*
X91036237Y-64474767D01*
X90853828Y-64377267D01*
X90693946Y-64246054D01*
X90562733Y-64086172D01*
X90465233Y-63903763D01*
X90445220Y-63837787D01*
X90405193Y-63705836D01*
X90384920Y-63500000D01*
X90405193Y-63294164D01*
X90465233Y-63096238D01*
X90465233Y-63096237D01*
X90562733Y-62913828D01*
X90693946Y-62753946D01*
X90853828Y-62622733D01*
X91036237Y-62525233D01*
X91102213Y-62505220D01*
X91234164Y-62465193D01*
X91311293Y-62457596D01*
X91388420Y-62450000D01*
X91491580Y-62450000D01*
X91568707Y-62457596D01*
X91568707Y-62457596D01*
G37*
G36*
X91568707Y-59917596D02*
X91645836Y-59925193D01*
X91777787Y-59965220D01*
X91843763Y-59985233D01*
X92026172Y-60082733D01*
X92186054Y-60213946D01*
X92317267Y-60373828D01*
X92414767Y-60556237D01*
X92414767Y-60556238D01*
X92474807Y-60754164D01*
X92495080Y-60960000D01*
X92474807Y-61165836D01*
X92434780Y-61297787D01*
X92414767Y-61363763D01*
X92317267Y-61546172D01*
X92186054Y-61706054D01*
X92026172Y-61837267D01*
X91843763Y-61934767D01*
X91777787Y-61954780D01*
X91645836Y-61994807D01*
X91568707Y-62002403D01*
X91491580Y-62010000D01*
X91388420Y-62010000D01*
X91311293Y-62002403D01*
X91234164Y-61994807D01*
X91102213Y-61954780D01*
X91036237Y-61934767D01*
X90853828Y-61837267D01*
X90693946Y-61706054D01*
X90562733Y-61546172D01*
X90465233Y-61363763D01*
X90445220Y-61297787D01*
X90405193Y-61165836D01*
X90384920Y-60960000D01*
X90405193Y-60754164D01*
X90465233Y-60556238D01*
X90465233Y-60556237D01*
X90562733Y-60373828D01*
X90693946Y-60213946D01*
X90853828Y-60082733D01*
X91036237Y-59985233D01*
X91102213Y-59965220D01*
X91234164Y-59925193D01*
X91311293Y-59917596D01*
X91388420Y-59910000D01*
X91491580Y-59910000D01*
X91568707Y-59917596D01*
X91568707Y-59917596D01*
G37*
G36*
X111568707Y-59917596D02*
X111645836Y-59925193D01*
X111777787Y-59965220D01*
X111843763Y-59985233D01*
X112026172Y-60082733D01*
X112186054Y-60213946D01*
X112317267Y-60373828D01*
X112414767Y-60556237D01*
X112414767Y-60556238D01*
X112474807Y-60754164D01*
X112495080Y-60960000D01*
X112474807Y-61165836D01*
X112434780Y-61297787D01*
X112414767Y-61363763D01*
X112317267Y-61546172D01*
X112186054Y-61706054D01*
X112026172Y-61837267D01*
X111843763Y-61934767D01*
X111777787Y-61954780D01*
X111645836Y-61994807D01*
X111568707Y-62002403D01*
X111491580Y-62010000D01*
X111388420Y-62010000D01*
X111311293Y-62002403D01*
X111234164Y-61994807D01*
X111102213Y-61954780D01*
X111036237Y-61934767D01*
X110853828Y-61837267D01*
X110693946Y-61706054D01*
X110562733Y-61546172D01*
X110465233Y-61363763D01*
X110445220Y-61297787D01*
X110405193Y-61165836D01*
X110384920Y-60960000D01*
X110405193Y-60754164D01*
X110465233Y-60556238D01*
X110465233Y-60556237D01*
X110562733Y-60373828D01*
X110693946Y-60213946D01*
X110853828Y-60082733D01*
X111036237Y-59985233D01*
X111102213Y-59965220D01*
X111234164Y-59925193D01*
X111311293Y-59917596D01*
X111388420Y-59910000D01*
X111491580Y-59910000D01*
X111568707Y-59917596D01*
X111568707Y-59917596D01*
G37*
G36*
X95549338Y-58016237D02*
X95745872Y-58055330D01*
X96055252Y-58183479D01*
X96333687Y-58369523D01*
X96570477Y-58606313D01*
X96756521Y-58884748D01*
X96806816Y-59006172D01*
X96884670Y-59194129D01*
X96950000Y-59522563D01*
X96950000Y-59857437D01*
X96906447Y-60076393D01*
X96884670Y-60185872D01*
X96756521Y-60495252D01*
X96570477Y-60773687D01*
X96333687Y-61010477D01*
X96055252Y-61196521D01*
X95745872Y-61324670D01*
X95636393Y-61346447D01*
X95417437Y-61390000D01*
X95082563Y-61390000D01*
X94863607Y-61346447D01*
X94754128Y-61324670D01*
X94444748Y-61196521D01*
X94166313Y-61010477D01*
X93929523Y-60773687D01*
X93743479Y-60495252D01*
X93615330Y-60185872D01*
X93593553Y-60076393D01*
X93550000Y-59857437D01*
X93550000Y-59522563D01*
X93615330Y-59194129D01*
X93693184Y-59006172D01*
X93743479Y-58884748D01*
X93929523Y-58606313D01*
X94166313Y-58369523D01*
X94444748Y-58183479D01*
X94754128Y-58055330D01*
X94950662Y-58016237D01*
X95082563Y-57990000D01*
X95417437Y-57990000D01*
X95549338Y-58016237D01*
X95549338Y-58016237D01*
G37*
G36*
X108249338Y-58016237D02*
X108445872Y-58055330D01*
X108755252Y-58183479D01*
X109033687Y-58369523D01*
X109270477Y-58606313D01*
X109456521Y-58884748D01*
X109506816Y-59006172D01*
X109584670Y-59194129D01*
X109650000Y-59522563D01*
X109650000Y-59857437D01*
X109606447Y-60076393D01*
X109584670Y-60185872D01*
X109456521Y-60495252D01*
X109270477Y-60773687D01*
X109033687Y-61010477D01*
X108755252Y-61196521D01*
X108445872Y-61324670D01*
X108336393Y-61346447D01*
X108117437Y-61390000D01*
X107782563Y-61390000D01*
X107563607Y-61346447D01*
X107454128Y-61324670D01*
X107144748Y-61196521D01*
X106866313Y-61010477D01*
X106629523Y-60773687D01*
X106443479Y-60495252D01*
X106315330Y-60185872D01*
X106293553Y-60076393D01*
X106250000Y-59857437D01*
X106250000Y-59522563D01*
X106315330Y-59194129D01*
X106393184Y-59006172D01*
X106443479Y-58884748D01*
X106629523Y-58606313D01*
X106866313Y-58369523D01*
X107144748Y-58183479D01*
X107454128Y-58055330D01*
X107650662Y-58016237D01*
X107782563Y-57990000D01*
X108117437Y-57990000D01*
X108249338Y-58016237D01*
X108249338Y-58016237D01*
G37*
G36*
X111568707Y-57377596D02*
X111645836Y-57385193D01*
X111777787Y-57425220D01*
X111843763Y-57445233D01*
X112026172Y-57542733D01*
X112186054Y-57673946D01*
X112317267Y-57833828D01*
X112414767Y-58016237D01*
X112434780Y-58082213D01*
X112474807Y-58214164D01*
X112495080Y-58420000D01*
X112474807Y-58625836D01*
X112434780Y-58757787D01*
X112414767Y-58823763D01*
X112317267Y-59006172D01*
X112186054Y-59166054D01*
X112026172Y-59297267D01*
X111843763Y-59394767D01*
X111777787Y-59414780D01*
X111645836Y-59454807D01*
X111568707Y-59462403D01*
X111491580Y-59470000D01*
X111388420Y-59470000D01*
X111311293Y-59462403D01*
X111234164Y-59454807D01*
X111102213Y-59414780D01*
X111036237Y-59394767D01*
X110853828Y-59297267D01*
X110693946Y-59166054D01*
X110562733Y-59006172D01*
X110465233Y-58823763D01*
X110445220Y-58757787D01*
X110405193Y-58625836D01*
X110384920Y-58420000D01*
X110405193Y-58214164D01*
X110445220Y-58082213D01*
X110465233Y-58016237D01*
X110562733Y-57833828D01*
X110693946Y-57673946D01*
X110853828Y-57542733D01*
X111036237Y-57445233D01*
X111102213Y-57425220D01*
X111234164Y-57385193D01*
X111311293Y-57377596D01*
X111388420Y-57370000D01*
X111491580Y-57370000D01*
X111568707Y-57377596D01*
X111568707Y-57377596D01*
G37*
G36*
X91568707Y-57377596D02*
X91645836Y-57385193D01*
X91777787Y-57425220D01*
X91843763Y-57445233D01*
X92026172Y-57542733D01*
X92186054Y-57673946D01*
X92317267Y-57833828D01*
X92414767Y-58016237D01*
X92434780Y-58082213D01*
X92474807Y-58214164D01*
X92495080Y-58420000D01*
X92474807Y-58625836D01*
X92434780Y-58757787D01*
X92414767Y-58823763D01*
X92317267Y-59006172D01*
X92186054Y-59166054D01*
X92026172Y-59297267D01*
X91843763Y-59394767D01*
X91777787Y-59414780D01*
X91645836Y-59454807D01*
X91568707Y-59462403D01*
X91491580Y-59470000D01*
X91388420Y-59470000D01*
X91311293Y-59462403D01*
X91234164Y-59454807D01*
X91102213Y-59414780D01*
X91036237Y-59394767D01*
X90853828Y-59297267D01*
X90693946Y-59166054D01*
X90562733Y-59006172D01*
X90465233Y-58823763D01*
X90445220Y-58757787D01*
X90405193Y-58625836D01*
X90384920Y-58420000D01*
X90405193Y-58214164D01*
X90445220Y-58082213D01*
X90465233Y-58016237D01*
X90562733Y-57833828D01*
X90693946Y-57673946D01*
X90853828Y-57542733D01*
X91036237Y-57445233D01*
X91102213Y-57425220D01*
X91234164Y-57385193D01*
X91311293Y-57377596D01*
X91388420Y-57370000D01*
X91491580Y-57370000D01*
X91568707Y-57377596D01*
X91568707Y-57377596D01*
G37*
G36*
X112490000Y-56930000D02*
X110390000Y-56930000D01*
X110390000Y-54830000D01*
X112490000Y-54830000D01*
X112490000Y-56930000D01*
X112490000Y-56930000D01*
G37*
G36*
X91568707Y-54837597D02*
X91645836Y-54845193D01*
X91777787Y-54885220D01*
X91843763Y-54905233D01*
X92026172Y-55002733D01*
X92186054Y-55133946D01*
X92317267Y-55293828D01*
X92414767Y-55476237D01*
X92414767Y-55476238D01*
X92474807Y-55674164D01*
X92495080Y-55880000D01*
X92474807Y-56085836D01*
X92434780Y-56217787D01*
X92414767Y-56283763D01*
X92317267Y-56466172D01*
X92186054Y-56626054D01*
X92026172Y-56757267D01*
X91843763Y-56854767D01*
X91777787Y-56874780D01*
X91645836Y-56914807D01*
X91568707Y-56922403D01*
X91491580Y-56930000D01*
X91388420Y-56930000D01*
X91311293Y-56922403D01*
X91234164Y-56914807D01*
X91102213Y-56874780D01*
X91036237Y-56854767D01*
X90853828Y-56757267D01*
X90693946Y-56626054D01*
X90562733Y-56466172D01*
X90465233Y-56283763D01*
X90445220Y-56217787D01*
X90405193Y-56085836D01*
X90384920Y-55880000D01*
X90405193Y-55674164D01*
X90465233Y-55476238D01*
X90465233Y-55476237D01*
X90562733Y-55293828D01*
X90693946Y-55133946D01*
X90853828Y-55002733D01*
X91036237Y-54905233D01*
X91102213Y-54885220D01*
X91234164Y-54845193D01*
X91311293Y-54837597D01*
X91388420Y-54830000D01*
X91491580Y-54830000D01*
X91568707Y-54837597D01*
X91568707Y-54837597D01*
G37*
M02*
